<?xml version="1.0" encoding="utf-8" standalone="no"?>
<!DOCTYPE svg PUBLIC "-//W3C//DTD SVG 1.1//EN"
  "http://www.w3.org/Graphics/SVG/1.1/DTD/svg11.dtd">
<!-- Created with matplotlib (http://matplotlib.org/) -->
<svg height="345.6pt" version="1.1" viewBox="0 0 460.8 345.6" width="460.8pt" xmlns="http://www.w3.org/2000/svg" xmlns:xlink="http://www.w3.org/1999/xlink">
 <defs>
  <style type="text/css">
*{stroke-linecap:butt;stroke-linejoin:round;}
  </style>
 </defs>
 <g id="figure_1">
  <g id="patch_1">
   <path d="M 0 345.6 
L 460.8 345.6 
L 460.8 0 
L 0 0 
z
" style="fill:none;"/>
  </g>
  <g id="axes_1">
   <g id="patch_2">
    <path d="M 57.6 307.584 
L 414.72 307.584 
L 414.72 41.472 
L 57.6 41.472 
z
" style="fill:none;"/>
   </g>
   <g id="matplotlib.axis_1">
    <g id="xtick_1">
     <g id="line2d_1">
      <path clip-path="url(#pdae926c08c)" d="M 73.478794 307.584 
L 73.478794 41.472 
" style="fill:none;stroke:#b0b0b0;stroke-linecap:square;stroke-opacity:0.5;stroke-width:0.8;"/>
     </g>
     <g id="line2d_2">
      <defs>
       <path d="M 0 0 
L 0 3.5 
" id="me84a65d342" style="stroke:#000000;stroke-width:0.8;"/>
      </defs>
      <g>
       <use style="stroke:#000000;stroke-width:0.8;" x="73.478794" xlink:href="#me84a65d342" y="307.584"/>
      </g>
     </g>
     <g id="text_1">
      <!-- 100 -->
      <defs>
       <path d="M 12.40625 8.296875 
L 28.515625 8.296875 
L 28.515625 63.921875 
L 10.984375 60.40625 
L 10.984375 69.390625 
L 28.421875 72.90625 
L 38.28125 72.90625 
L 38.28125 8.296875 
L 54.390625 8.296875 
L 54.390625 0 
L 12.40625 0 
z
" id="DejaVuSans-31"/>
       <path d="M 31.78125 66.40625 
Q 24.171875 66.40625 20.328125 58.90625 
Q 16.5 51.421875 16.5 36.375 
Q 16.5 21.390625 20.328125 13.890625 
Q 24.171875 6.390625 31.78125 6.390625 
Q 39.453125 6.390625 43.28125 13.890625 
Q 47.125 21.390625 47.125 36.375 
Q 47.125 51.421875 43.28125 58.90625 
Q 39.453125 66.40625 31.78125 66.40625 
z
M 31.78125 74.21875 
Q 44.046875 74.21875 50.515625 64.515625 
Q 56.984375 54.828125 56.984375 36.375 
Q 56.984375 17.96875 50.515625 8.265625 
Q 44.046875 -1.421875 31.78125 -1.421875 
Q 19.53125 -1.421875 13.0625 8.265625 
Q 6.59375 17.96875 6.59375 36.375 
Q 6.59375 54.828125 13.0625 64.515625 
Q 19.53125 74.21875 31.78125 74.21875 
z
" id="DejaVuSans-30"/>
      </defs>
      <g transform="translate(63.935044 322.182437)scale(0.1 -0.1)">
       <use xlink:href="#DejaVuSans-31"/>
       <use x="63.623047" xlink:href="#DejaVuSans-30"/>
       <use x="127.246094" xlink:href="#DejaVuSans-30"/>
      </g>
     </g>
    </g>
    <g id="xtick_2">
     <g id="line2d_3">
      <path clip-path="url(#pdae926c08c)" d="M 120.669836 307.584 
L 120.669836 41.472 
" style="fill:none;stroke:#b0b0b0;stroke-linecap:square;stroke-opacity:0.5;stroke-width:0.8;"/>
     </g>
     <g id="line2d_4">
      <g>
       <use style="stroke:#000000;stroke-width:0.8;" x="120.669836" xlink:href="#me84a65d342" y="307.584"/>
      </g>
     </g>
     <g id="text_2">
      <!-- 200 -->
      <defs>
       <path d="M 19.1875 8.296875 
L 53.609375 8.296875 
L 53.609375 0 
L 7.328125 0 
L 7.328125 8.296875 
Q 12.9375 14.109375 22.625 23.890625 
Q 32.328125 33.6875 34.8125 36.53125 
Q 39.546875 41.84375 41.421875 45.53125 
Q 43.3125 49.21875 43.3125 52.78125 
Q 43.3125 58.59375 39.234375 62.25 
Q 35.15625 65.921875 28.609375 65.921875 
Q 23.96875 65.921875 18.8125 64.3125 
Q 13.671875 62.703125 7.8125 59.421875 
L 7.8125 69.390625 
Q 13.765625 71.78125 18.9375 73 
Q 24.125 74.21875 28.421875 74.21875 
Q 39.75 74.21875 46.484375 68.546875 
Q 53.21875 62.890625 53.21875 53.421875 
Q 53.21875 48.921875 51.53125 44.890625 
Q 49.859375 40.875 45.40625 35.40625 
Q 44.1875 33.984375 37.640625 27.21875 
Q 31.109375 20.453125 19.1875 8.296875 
z
" id="DejaVuSans-32"/>
      </defs>
      <g transform="translate(111.126086 322.182437)scale(0.1 -0.1)">
       <use xlink:href="#DejaVuSans-32"/>
       <use x="63.623047" xlink:href="#DejaVuSans-30"/>
       <use x="127.246094" xlink:href="#DejaVuSans-30"/>
      </g>
     </g>
    </g>
    <g id="xtick_3">
     <g id="line2d_5">
      <path clip-path="url(#pdae926c08c)" d="M 167.860878 307.584 
L 167.860878 41.472 
" style="fill:none;stroke:#b0b0b0;stroke-linecap:square;stroke-opacity:0.5;stroke-width:0.8;"/>
     </g>
     <g id="line2d_6">
      <g>
       <use style="stroke:#000000;stroke-width:0.8;" x="167.860878" xlink:href="#me84a65d342" y="307.584"/>
      </g>
     </g>
     <g id="text_3">
      <!-- 300 -->
      <defs>
       <path d="M 40.578125 39.3125 
Q 47.65625 37.796875 51.625 33 
Q 55.609375 28.21875 55.609375 21.1875 
Q 55.609375 10.40625 48.1875 4.484375 
Q 40.765625 -1.421875 27.09375 -1.421875 
Q 22.515625 -1.421875 17.65625 -0.515625 
Q 12.796875 0.390625 7.625 2.203125 
L 7.625 11.71875 
Q 11.71875 9.328125 16.59375 8.109375 
Q 21.484375 6.890625 26.8125 6.890625 
Q 36.078125 6.890625 40.9375 10.546875 
Q 45.796875 14.203125 45.796875 21.1875 
Q 45.796875 27.640625 41.28125 31.265625 
Q 36.765625 34.90625 28.71875 34.90625 
L 20.21875 34.90625 
L 20.21875 43.015625 
L 29.109375 43.015625 
Q 36.375 43.015625 40.234375 45.921875 
Q 44.09375 48.828125 44.09375 54.296875 
Q 44.09375 59.90625 40.109375 62.90625 
Q 36.140625 65.921875 28.71875 65.921875 
Q 24.65625 65.921875 20.015625 65.03125 
Q 15.375 64.15625 9.8125 62.3125 
L 9.8125 71.09375 
Q 15.4375 72.65625 20.34375 73.4375 
Q 25.25 74.21875 29.59375 74.21875 
Q 40.828125 74.21875 47.359375 69.109375 
Q 53.90625 64.015625 53.90625 55.328125 
Q 53.90625 49.265625 50.4375 45.09375 
Q 46.96875 40.921875 40.578125 39.3125 
z
" id="DejaVuSans-33"/>
      </defs>
      <g transform="translate(158.317128 322.182437)scale(0.1 -0.1)">
       <use xlink:href="#DejaVuSans-33"/>
       <use x="63.623047" xlink:href="#DejaVuSans-30"/>
       <use x="127.246094" xlink:href="#DejaVuSans-30"/>
      </g>
     </g>
    </g>
    <g id="xtick_4">
     <g id="line2d_7">
      <path clip-path="url(#pdae926c08c)" d="M 215.051919 307.584 
L 215.051919 41.472 
" style="fill:none;stroke:#b0b0b0;stroke-linecap:square;stroke-opacity:0.5;stroke-width:0.8;"/>
     </g>
     <g id="line2d_8">
      <g>
       <use style="stroke:#000000;stroke-width:0.8;" x="215.051919" xlink:href="#me84a65d342" y="307.584"/>
      </g>
     </g>
     <g id="text_4">
      <!-- 400 -->
      <defs>
       <path d="M 37.796875 64.3125 
L 12.890625 25.390625 
L 37.796875 25.390625 
z
M 35.203125 72.90625 
L 47.609375 72.90625 
L 47.609375 25.390625 
L 58.015625 25.390625 
L 58.015625 17.1875 
L 47.609375 17.1875 
L 47.609375 0 
L 37.796875 0 
L 37.796875 17.1875 
L 4.890625 17.1875 
L 4.890625 26.703125 
z
" id="DejaVuSans-34"/>
      </defs>
      <g transform="translate(205.508169 322.182437)scale(0.1 -0.1)">
       <use xlink:href="#DejaVuSans-34"/>
       <use x="63.623047" xlink:href="#DejaVuSans-30"/>
       <use x="127.246094" xlink:href="#DejaVuSans-30"/>
      </g>
     </g>
    </g>
    <g id="xtick_5">
     <g id="line2d_9">
      <path clip-path="url(#pdae926c08c)" d="M 262.242961 307.584 
L 262.242961 41.472 
" style="fill:none;stroke:#b0b0b0;stroke-linecap:square;stroke-opacity:0.5;stroke-width:0.8;"/>
     </g>
     <g id="line2d_10">
      <g>
       <use style="stroke:#000000;stroke-width:0.8;" x="262.242961" xlink:href="#me84a65d342" y="307.584"/>
      </g>
     </g>
     <g id="text_5">
      <!-- 500 -->
      <defs>
       <path d="M 10.796875 72.90625 
L 49.515625 72.90625 
L 49.515625 64.59375 
L 19.828125 64.59375 
L 19.828125 46.734375 
Q 21.96875 47.46875 24.109375 47.828125 
Q 26.265625 48.1875 28.421875 48.1875 
Q 40.625 48.1875 47.75 41.5 
Q 54.890625 34.8125 54.890625 23.390625 
Q 54.890625 11.625 47.5625 5.09375 
Q 40.234375 -1.421875 26.90625 -1.421875 
Q 22.3125 -1.421875 17.546875 -0.640625 
Q 12.796875 0.140625 7.71875 1.703125 
L 7.71875 11.625 
Q 12.109375 9.234375 16.796875 8.0625 
Q 21.484375 6.890625 26.703125 6.890625 
Q 35.15625 6.890625 40.078125 11.328125 
Q 45.015625 15.765625 45.015625 23.390625 
Q 45.015625 31 40.078125 35.4375 
Q 35.15625 39.890625 26.703125 39.890625 
Q 22.75 39.890625 18.8125 39.015625 
Q 14.890625 38.140625 10.796875 36.28125 
z
" id="DejaVuSans-35"/>
      </defs>
      <g transform="translate(252.699211 322.182437)scale(0.1 -0.1)">
       <use xlink:href="#DejaVuSans-35"/>
       <use x="63.623047" xlink:href="#DejaVuSans-30"/>
       <use x="127.246094" xlink:href="#DejaVuSans-30"/>
      </g>
     </g>
    </g>
    <g id="xtick_6">
     <g id="line2d_11">
      <path clip-path="url(#pdae926c08c)" d="M 309.434002 307.584 
L 309.434002 41.472 
" style="fill:none;stroke:#b0b0b0;stroke-linecap:square;stroke-opacity:0.5;stroke-width:0.8;"/>
     </g>
     <g id="line2d_12">
      <g>
       <use style="stroke:#000000;stroke-width:0.8;" x="309.434002" xlink:href="#me84a65d342" y="307.584"/>
      </g>
     </g>
     <g id="text_6">
      <!-- 600 -->
      <defs>
       <path d="M 33.015625 40.375 
Q 26.375 40.375 22.484375 35.828125 
Q 18.609375 31.296875 18.609375 23.390625 
Q 18.609375 15.53125 22.484375 10.953125 
Q 26.375 6.390625 33.015625 6.390625 
Q 39.65625 6.390625 43.53125 10.953125 
Q 47.40625 15.53125 47.40625 23.390625 
Q 47.40625 31.296875 43.53125 35.828125 
Q 39.65625 40.375 33.015625 40.375 
z
M 52.59375 71.296875 
L 52.59375 62.3125 
Q 48.875 64.0625 45.09375 64.984375 
Q 41.3125 65.921875 37.59375 65.921875 
Q 27.828125 65.921875 22.671875 59.328125 
Q 17.53125 52.734375 16.796875 39.40625 
Q 19.671875 43.65625 24.015625 45.921875 
Q 28.375 48.1875 33.59375 48.1875 
Q 44.578125 48.1875 50.953125 41.515625 
Q 57.328125 34.859375 57.328125 23.390625 
Q 57.328125 12.15625 50.6875 5.359375 
Q 44.046875 -1.421875 33.015625 -1.421875 
Q 20.359375 -1.421875 13.671875 8.265625 
Q 6.984375 17.96875 6.984375 36.375 
Q 6.984375 53.65625 15.1875 63.9375 
Q 23.390625 74.21875 37.203125 74.21875 
Q 40.921875 74.21875 44.703125 73.484375 
Q 48.484375 72.75 52.59375 71.296875 
z
" id="DejaVuSans-36"/>
      </defs>
      <g transform="translate(299.890252 322.182437)scale(0.1 -0.1)">
       <use xlink:href="#DejaVuSans-36"/>
       <use x="63.623047" xlink:href="#DejaVuSans-30"/>
       <use x="127.246094" xlink:href="#DejaVuSans-30"/>
      </g>
     </g>
    </g>
    <g id="xtick_7">
     <g id="line2d_13">
      <path clip-path="url(#pdae926c08c)" d="M 356.625044 307.584 
L 356.625044 41.472 
" style="fill:none;stroke:#b0b0b0;stroke-linecap:square;stroke-opacity:0.5;stroke-width:0.8;"/>
     </g>
     <g id="line2d_14">
      <g>
       <use style="stroke:#000000;stroke-width:0.8;" x="356.625044" xlink:href="#me84a65d342" y="307.584"/>
      </g>
     </g>
     <g id="text_7">
      <!-- 700 -->
      <defs>
       <path d="M 8.203125 72.90625 
L 55.078125 72.90625 
L 55.078125 68.703125 
L 28.609375 0 
L 18.3125 0 
L 43.21875 64.59375 
L 8.203125 64.59375 
z
" id="DejaVuSans-37"/>
      </defs>
      <g transform="translate(347.081294 322.182437)scale(0.1 -0.1)">
       <use xlink:href="#DejaVuSans-37"/>
       <use x="63.623047" xlink:href="#DejaVuSans-30"/>
       <use x="127.246094" xlink:href="#DejaVuSans-30"/>
      </g>
     </g>
    </g>
    <g id="xtick_8">
     <g id="line2d_15">
      <path clip-path="url(#pdae926c08c)" d="M 403.816085 307.584 
L 403.816085 41.472 
" style="fill:none;stroke:#b0b0b0;stroke-linecap:square;stroke-opacity:0.5;stroke-width:0.8;"/>
     </g>
     <g id="line2d_16">
      <g>
       <use style="stroke:#000000;stroke-width:0.8;" x="403.816085" xlink:href="#me84a65d342" y="307.584"/>
      </g>
     </g>
     <g id="text_8">
      <!-- 800 -->
      <defs>
       <path d="M 31.78125 34.625 
Q 24.75 34.625 20.71875 30.859375 
Q 16.703125 27.09375 16.703125 20.515625 
Q 16.703125 13.921875 20.71875 10.15625 
Q 24.75 6.390625 31.78125 6.390625 
Q 38.8125 6.390625 42.859375 10.171875 
Q 46.921875 13.96875 46.921875 20.515625 
Q 46.921875 27.09375 42.890625 30.859375 
Q 38.875 34.625 31.78125 34.625 
z
M 21.921875 38.8125 
Q 15.578125 40.375 12.03125 44.71875 
Q 8.5 49.078125 8.5 55.328125 
Q 8.5 64.0625 14.71875 69.140625 
Q 20.953125 74.21875 31.78125 74.21875 
Q 42.671875 74.21875 48.875 69.140625 
Q 55.078125 64.0625 55.078125 55.328125 
Q 55.078125 49.078125 51.53125 44.71875 
Q 48 40.375 41.703125 38.8125 
Q 48.828125 37.15625 52.796875 32.3125 
Q 56.78125 27.484375 56.78125 20.515625 
Q 56.78125 9.90625 50.3125 4.234375 
Q 43.84375 -1.421875 31.78125 -1.421875 
Q 19.734375 -1.421875 13.25 4.234375 
Q 6.78125 9.90625 6.78125 20.515625 
Q 6.78125 27.484375 10.78125 32.3125 
Q 14.796875 37.15625 21.921875 38.8125 
z
M 18.3125 54.390625 
Q 18.3125 48.734375 21.84375 45.5625 
Q 25.390625 42.390625 31.78125 42.390625 
Q 38.140625 42.390625 41.71875 45.5625 
Q 45.3125 48.734375 45.3125 54.390625 
Q 45.3125 60.0625 41.71875 63.234375 
Q 38.140625 66.40625 31.78125 66.40625 
Q 25.390625 66.40625 21.84375 63.234375 
Q 18.3125 60.0625 18.3125 54.390625 
z
" id="DejaVuSans-38"/>
      </defs>
      <g transform="translate(394.272335 322.182437)scale(0.1 -0.1)">
       <use xlink:href="#DejaVuSans-38"/>
       <use x="63.623047" xlink:href="#DejaVuSans-30"/>
       <use x="127.246094" xlink:href="#DejaVuSans-30"/>
      </g>
     </g>
    </g>
    <g id="xtick_9">
     <g id="line2d_17">
      <path clip-path="url(#pdae926c08c)" d="M 64.040586 307.584 
L 64.040586 41.472 
" style="fill:none;stroke:#b0b0b0;stroke-linecap:square;stroke-opacity:0.2;stroke-width:0.8;"/>
     </g>
     <g id="line2d_18">
      <defs>
       <path d="M 0 0 
L 0 2 
" id="m94e2fdb0ac" style="stroke:#000000;stroke-width:0.6;"/>
      </defs>
      <g>
       <use style="stroke:#000000;stroke-width:0.6;" x="64.040586" xlink:href="#m94e2fdb0ac" y="307.584"/>
      </g>
     </g>
    </g>
    <g id="xtick_10">
     <g id="line2d_19">
      <path clip-path="url(#pdae926c08c)" d="M 82.917003 307.584 
L 82.917003 41.472 
" style="fill:none;stroke:#b0b0b0;stroke-linecap:square;stroke-opacity:0.2;stroke-width:0.8;"/>
     </g>
     <g id="line2d_20">
      <g>
       <use style="stroke:#000000;stroke-width:0.6;" x="82.917003" xlink:href="#m94e2fdb0ac" y="307.584"/>
      </g>
     </g>
    </g>
    <g id="xtick_11">
     <g id="line2d_21">
      <path clip-path="url(#pdae926c08c)" d="M 92.355211 307.584 
L 92.355211 41.472 
" style="fill:none;stroke:#b0b0b0;stroke-linecap:square;stroke-opacity:0.2;stroke-width:0.8;"/>
     </g>
     <g id="line2d_22">
      <g>
       <use style="stroke:#000000;stroke-width:0.6;" x="92.355211" xlink:href="#m94e2fdb0ac" y="307.584"/>
      </g>
     </g>
    </g>
    <g id="xtick_12">
     <g id="line2d_23">
      <path clip-path="url(#pdae926c08c)" d="M 101.793419 307.584 
L 101.793419 41.472 
" style="fill:none;stroke:#b0b0b0;stroke-linecap:square;stroke-opacity:0.2;stroke-width:0.8;"/>
     </g>
     <g id="line2d_24">
      <g>
       <use style="stroke:#000000;stroke-width:0.6;" x="101.793419" xlink:href="#m94e2fdb0ac" y="307.584"/>
      </g>
     </g>
    </g>
    <g id="xtick_13">
     <g id="line2d_25">
      <path clip-path="url(#pdae926c08c)" d="M 111.231628 307.584 
L 111.231628 41.472 
" style="fill:none;stroke:#b0b0b0;stroke-linecap:square;stroke-opacity:0.2;stroke-width:0.8;"/>
     </g>
     <g id="line2d_26">
      <g>
       <use style="stroke:#000000;stroke-width:0.6;" x="111.231628" xlink:href="#m94e2fdb0ac" y="307.584"/>
      </g>
     </g>
    </g>
    <g id="xtick_14">
     <g id="line2d_27">
      <path clip-path="url(#pdae926c08c)" d="M 130.108044 307.584 
L 130.108044 41.472 
" style="fill:none;stroke:#b0b0b0;stroke-linecap:square;stroke-opacity:0.2;stroke-width:0.8;"/>
     </g>
     <g id="line2d_28">
      <g>
       <use style="stroke:#000000;stroke-width:0.6;" x="130.108044" xlink:href="#m94e2fdb0ac" y="307.584"/>
      </g>
     </g>
    </g>
    <g id="xtick_15">
     <g id="line2d_29">
      <path clip-path="url(#pdae926c08c)" d="M 139.546253 307.584 
L 139.546253 41.472 
" style="fill:none;stroke:#b0b0b0;stroke-linecap:square;stroke-opacity:0.2;stroke-width:0.8;"/>
     </g>
     <g id="line2d_30">
      <g>
       <use style="stroke:#000000;stroke-width:0.6;" x="139.546253" xlink:href="#m94e2fdb0ac" y="307.584"/>
      </g>
     </g>
    </g>
    <g id="xtick_16">
     <g id="line2d_31">
      <path clip-path="url(#pdae926c08c)" d="M 148.984461 307.584 
L 148.984461 41.472 
" style="fill:none;stroke:#b0b0b0;stroke-linecap:square;stroke-opacity:0.2;stroke-width:0.8;"/>
     </g>
     <g id="line2d_32">
      <g>
       <use style="stroke:#000000;stroke-width:0.6;" x="148.984461" xlink:href="#m94e2fdb0ac" y="307.584"/>
      </g>
     </g>
    </g>
    <g id="xtick_17">
     <g id="line2d_33">
      <path clip-path="url(#pdae926c08c)" d="M 158.422669 307.584 
L 158.422669 41.472 
" style="fill:none;stroke:#b0b0b0;stroke-linecap:square;stroke-opacity:0.2;stroke-width:0.8;"/>
     </g>
     <g id="line2d_34">
      <g>
       <use style="stroke:#000000;stroke-width:0.6;" x="158.422669" xlink:href="#m94e2fdb0ac" y="307.584"/>
      </g>
     </g>
    </g>
    <g id="xtick_18">
     <g id="line2d_35">
      <path clip-path="url(#pdae926c08c)" d="M 177.299086 307.584 
L 177.299086 41.472 
" style="fill:none;stroke:#b0b0b0;stroke-linecap:square;stroke-opacity:0.2;stroke-width:0.8;"/>
     </g>
     <g id="line2d_36">
      <g>
       <use style="stroke:#000000;stroke-width:0.6;" x="177.299086" xlink:href="#m94e2fdb0ac" y="307.584"/>
      </g>
     </g>
    </g>
    <g id="xtick_19">
     <g id="line2d_37">
      <path clip-path="url(#pdae926c08c)" d="M 186.737294 307.584 
L 186.737294 41.472 
" style="fill:none;stroke:#b0b0b0;stroke-linecap:square;stroke-opacity:0.2;stroke-width:0.8;"/>
     </g>
     <g id="line2d_38">
      <g>
       <use style="stroke:#000000;stroke-width:0.6;" x="186.737294" xlink:href="#m94e2fdb0ac" y="307.584"/>
      </g>
     </g>
    </g>
    <g id="xtick_20">
     <g id="line2d_39">
      <path clip-path="url(#pdae926c08c)" d="M 196.175502 307.584 
L 196.175502 41.472 
" style="fill:none;stroke:#b0b0b0;stroke-linecap:square;stroke-opacity:0.2;stroke-width:0.8;"/>
     </g>
     <g id="line2d_40">
      <g>
       <use style="stroke:#000000;stroke-width:0.6;" x="196.175502" xlink:href="#m94e2fdb0ac" y="307.584"/>
      </g>
     </g>
    </g>
    <g id="xtick_21">
     <g id="line2d_41">
      <path clip-path="url(#pdae926c08c)" d="M 205.613711 307.584 
L 205.613711 41.472 
" style="fill:none;stroke:#b0b0b0;stroke-linecap:square;stroke-opacity:0.2;stroke-width:0.8;"/>
     </g>
     <g id="line2d_42">
      <g>
       <use style="stroke:#000000;stroke-width:0.6;" x="205.613711" xlink:href="#m94e2fdb0ac" y="307.584"/>
      </g>
     </g>
    </g>
    <g id="xtick_22">
     <g id="line2d_43">
      <path clip-path="url(#pdae926c08c)" d="M 224.490127 307.584 
L 224.490127 41.472 
" style="fill:none;stroke:#b0b0b0;stroke-linecap:square;stroke-opacity:0.2;stroke-width:0.8;"/>
     </g>
     <g id="line2d_44">
      <g>
       <use style="stroke:#000000;stroke-width:0.6;" x="224.490127" xlink:href="#m94e2fdb0ac" y="307.584"/>
      </g>
     </g>
    </g>
    <g id="xtick_23">
     <g id="line2d_45">
      <path clip-path="url(#pdae926c08c)" d="M 233.928336 307.584 
L 233.928336 41.472 
" style="fill:none;stroke:#b0b0b0;stroke-linecap:square;stroke-opacity:0.2;stroke-width:0.8;"/>
     </g>
     <g id="line2d_46">
      <g>
       <use style="stroke:#000000;stroke-width:0.6;" x="233.928336" xlink:href="#m94e2fdb0ac" y="307.584"/>
      </g>
     </g>
    </g>
    <g id="xtick_24">
     <g id="line2d_47">
      <path clip-path="url(#pdae926c08c)" d="M 243.366544 307.584 
L 243.366544 41.472 
" style="fill:none;stroke:#b0b0b0;stroke-linecap:square;stroke-opacity:0.2;stroke-width:0.8;"/>
     </g>
     <g id="line2d_48">
      <g>
       <use style="stroke:#000000;stroke-width:0.6;" x="243.366544" xlink:href="#m94e2fdb0ac" y="307.584"/>
      </g>
     </g>
    </g>
    <g id="xtick_25">
     <g id="line2d_49">
      <path clip-path="url(#pdae926c08c)" d="M 252.804752 307.584 
L 252.804752 41.472 
" style="fill:none;stroke:#b0b0b0;stroke-linecap:square;stroke-opacity:0.2;stroke-width:0.8;"/>
     </g>
     <g id="line2d_50">
      <g>
       <use style="stroke:#000000;stroke-width:0.6;" x="252.804752" xlink:href="#m94e2fdb0ac" y="307.584"/>
      </g>
     </g>
    </g>
    <g id="xtick_26">
     <g id="line2d_51">
      <path clip-path="url(#pdae926c08c)" d="M 271.681169 307.584 
L 271.681169 41.472 
" style="fill:none;stroke:#b0b0b0;stroke-linecap:square;stroke-opacity:0.2;stroke-width:0.8;"/>
     </g>
     <g id="line2d_52">
      <g>
       <use style="stroke:#000000;stroke-width:0.6;" x="271.681169" xlink:href="#m94e2fdb0ac" y="307.584"/>
      </g>
     </g>
    </g>
    <g id="xtick_27">
     <g id="line2d_53">
      <path clip-path="url(#pdae926c08c)" d="M 281.119377 307.584 
L 281.119377 41.472 
" style="fill:none;stroke:#b0b0b0;stroke-linecap:square;stroke-opacity:0.2;stroke-width:0.8;"/>
     </g>
     <g id="line2d_54">
      <g>
       <use style="stroke:#000000;stroke-width:0.6;" x="281.119377" xlink:href="#m94e2fdb0ac" y="307.584"/>
      </g>
     </g>
    </g>
    <g id="xtick_28">
     <g id="line2d_55">
      <path clip-path="url(#pdae926c08c)" d="M 290.557585 307.584 
L 290.557585 41.472 
" style="fill:none;stroke:#b0b0b0;stroke-linecap:square;stroke-opacity:0.2;stroke-width:0.8;"/>
     </g>
     <g id="line2d_56">
      <g>
       <use style="stroke:#000000;stroke-width:0.6;" x="290.557585" xlink:href="#m94e2fdb0ac" y="307.584"/>
      </g>
     </g>
    </g>
    <g id="xtick_29">
     <g id="line2d_57">
      <path clip-path="url(#pdae926c08c)" d="M 299.995794 307.584 
L 299.995794 41.472 
" style="fill:none;stroke:#b0b0b0;stroke-linecap:square;stroke-opacity:0.2;stroke-width:0.8;"/>
     </g>
     <g id="line2d_58">
      <g>
       <use style="stroke:#000000;stroke-width:0.6;" x="299.995794" xlink:href="#m94e2fdb0ac" y="307.584"/>
      </g>
     </g>
    </g>
    <g id="xtick_30">
     <g id="line2d_59">
      <path clip-path="url(#pdae926c08c)" d="M 318.87221 307.584 
L 318.87221 41.472 
" style="fill:none;stroke:#b0b0b0;stroke-linecap:square;stroke-opacity:0.2;stroke-width:0.8;"/>
     </g>
     <g id="line2d_60">
      <g>
       <use style="stroke:#000000;stroke-width:0.6;" x="318.87221" xlink:href="#m94e2fdb0ac" y="307.584"/>
      </g>
     </g>
    </g>
    <g id="xtick_31">
     <g id="line2d_61">
      <path clip-path="url(#pdae926c08c)" d="M 328.310419 307.584 
L 328.310419 41.472 
" style="fill:none;stroke:#b0b0b0;stroke-linecap:square;stroke-opacity:0.2;stroke-width:0.8;"/>
     </g>
     <g id="line2d_62">
      <g>
       <use style="stroke:#000000;stroke-width:0.6;" x="328.310419" xlink:href="#m94e2fdb0ac" y="307.584"/>
      </g>
     </g>
    </g>
    <g id="xtick_32">
     <g id="line2d_63">
      <path clip-path="url(#pdae926c08c)" d="M 337.748627 307.584 
L 337.748627 41.472 
" style="fill:none;stroke:#b0b0b0;stroke-linecap:square;stroke-opacity:0.2;stroke-width:0.8;"/>
     </g>
     <g id="line2d_64">
      <g>
       <use style="stroke:#000000;stroke-width:0.6;" x="337.748627" xlink:href="#m94e2fdb0ac" y="307.584"/>
      </g>
     </g>
    </g>
    <g id="xtick_33">
     <g id="line2d_65">
      <path clip-path="url(#pdae926c08c)" d="M 347.186835 307.584 
L 347.186835 41.472 
" style="fill:none;stroke:#b0b0b0;stroke-linecap:square;stroke-opacity:0.2;stroke-width:0.8;"/>
     </g>
     <g id="line2d_66">
      <g>
       <use style="stroke:#000000;stroke-width:0.6;" x="347.186835" xlink:href="#m94e2fdb0ac" y="307.584"/>
      </g>
     </g>
    </g>
    <g id="xtick_34">
     <g id="line2d_67">
      <path clip-path="url(#pdae926c08c)" d="M 366.063252 307.584 
L 366.063252 41.472 
" style="fill:none;stroke:#b0b0b0;stroke-linecap:square;stroke-opacity:0.2;stroke-width:0.8;"/>
     </g>
     <g id="line2d_68">
      <g>
       <use style="stroke:#000000;stroke-width:0.6;" x="366.063252" xlink:href="#m94e2fdb0ac" y="307.584"/>
      </g>
     </g>
    </g>
    <g id="xtick_35">
     <g id="line2d_69">
      <path clip-path="url(#pdae926c08c)" d="M 375.50146 307.584 
L 375.50146 41.472 
" style="fill:none;stroke:#b0b0b0;stroke-linecap:square;stroke-opacity:0.2;stroke-width:0.8;"/>
     </g>
     <g id="line2d_70">
      <g>
       <use style="stroke:#000000;stroke-width:0.6;" x="375.50146" xlink:href="#m94e2fdb0ac" y="307.584"/>
      </g>
     </g>
    </g>
    <g id="xtick_36">
     <g id="line2d_71">
      <path clip-path="url(#pdae926c08c)" d="M 384.939669 307.584 
L 384.939669 41.472 
" style="fill:none;stroke:#b0b0b0;stroke-linecap:square;stroke-opacity:0.2;stroke-width:0.8;"/>
     </g>
     <g id="line2d_72">
      <g>
       <use style="stroke:#000000;stroke-width:0.6;" x="384.939669" xlink:href="#m94e2fdb0ac" y="307.584"/>
      </g>
     </g>
    </g>
    <g id="xtick_37">
     <g id="line2d_73">
      <path clip-path="url(#pdae926c08c)" d="M 394.377877 307.584 
L 394.377877 41.472 
" style="fill:none;stroke:#b0b0b0;stroke-linecap:square;stroke-opacity:0.2;stroke-width:0.8;"/>
     </g>
     <g id="line2d_74">
      <g>
       <use style="stroke:#000000;stroke-width:0.6;" x="394.377877" xlink:href="#m94e2fdb0ac" y="307.584"/>
      </g>
     </g>
    </g>
    <g id="xtick_38">
     <g id="line2d_75">
      <path clip-path="url(#pdae926c08c)" d="M 413.254293 307.584 
L 413.254293 41.472 
" style="fill:none;stroke:#b0b0b0;stroke-linecap:square;stroke-opacity:0.2;stroke-width:0.8;"/>
     </g>
     <g id="line2d_76">
      <g>
       <use style="stroke:#000000;stroke-width:0.6;" x="413.254293" xlink:href="#m94e2fdb0ac" y="307.584"/>
      </g>
     </g>
    </g>
   </g>
   <g id="matplotlib.axis_2">
    <g id="ytick_1">
     <g id="line2d_77">
      <path clip-path="url(#pdae926c08c)" d="M 57.6 295.496867 
L 414.72 295.496867 
" style="fill:none;stroke:#b0b0b0;stroke-linecap:square;stroke-opacity:0.5;stroke-width:0.8;"/>
     </g>
     <g id="line2d_78">
      <defs>
       <path d="M 0 0 
L -3.5 0 
" id="me04d2398ad" style="stroke:#000000;stroke-width:0.8;"/>
      </defs>
      <g>
       <use style="stroke:#000000;stroke-width:0.8;" x="57.6" xlink:href="#me04d2398ad" y="295.496867"/>
      </g>
     </g>
     <g id="text_9">
      <!-- 0 -->
      <g transform="translate(44.2375 299.296086)scale(0.1 -0.1)">
       <use xlink:href="#DejaVuSans-30"/>
      </g>
     </g>
    </g>
    <g id="ytick_2">
     <g id="line2d_79">
      <path clip-path="url(#pdae926c08c)" d="M 57.6 256.359744 
L 414.72 256.359744 
" style="fill:none;stroke:#b0b0b0;stroke-linecap:square;stroke-opacity:0.5;stroke-width:0.8;"/>
     </g>
     <g id="line2d_80">
      <g>
       <use style="stroke:#000000;stroke-width:0.8;" x="57.6" xlink:href="#me04d2398ad" y="256.359744"/>
      </g>
     </g>
     <g id="text_10">
      <!-- 1000 -->
      <g transform="translate(25.15 260.158963)scale(0.1 -0.1)">
       <use xlink:href="#DejaVuSans-31"/>
       <use x="63.623047" xlink:href="#DejaVuSans-30"/>
       <use x="127.246094" xlink:href="#DejaVuSans-30"/>
       <use x="190.869141" xlink:href="#DejaVuSans-30"/>
      </g>
     </g>
    </g>
    <g id="ytick_3">
     <g id="line2d_81">
      <path clip-path="url(#pdae926c08c)" d="M 57.6 217.222621 
L 414.72 217.222621 
" style="fill:none;stroke:#b0b0b0;stroke-linecap:square;stroke-opacity:0.5;stroke-width:0.8;"/>
     </g>
     <g id="line2d_82">
      <g>
       <use style="stroke:#000000;stroke-width:0.8;" x="57.6" xlink:href="#me04d2398ad" y="217.222621"/>
      </g>
     </g>
     <g id="text_11">
      <!-- 2000 -->
      <g transform="translate(25.15 221.021839)scale(0.1 -0.1)">
       <use xlink:href="#DejaVuSans-32"/>
       <use x="63.623047" xlink:href="#DejaVuSans-30"/>
       <use x="127.246094" xlink:href="#DejaVuSans-30"/>
       <use x="190.869141" xlink:href="#DejaVuSans-30"/>
      </g>
     </g>
    </g>
    <g id="ytick_4">
     <g id="line2d_83">
      <path clip-path="url(#pdae926c08c)" d="M 57.6 178.085497 
L 414.72 178.085497 
" style="fill:none;stroke:#b0b0b0;stroke-linecap:square;stroke-opacity:0.5;stroke-width:0.8;"/>
     </g>
     <g id="line2d_84">
      <g>
       <use style="stroke:#000000;stroke-width:0.8;" x="57.6" xlink:href="#me04d2398ad" y="178.085497"/>
      </g>
     </g>
     <g id="text_12">
      <!-- 3000 -->
      <g transform="translate(25.15 181.884716)scale(0.1 -0.1)">
       <use xlink:href="#DejaVuSans-33"/>
       <use x="63.623047" xlink:href="#DejaVuSans-30"/>
       <use x="127.246094" xlink:href="#DejaVuSans-30"/>
       <use x="190.869141" xlink:href="#DejaVuSans-30"/>
      </g>
     </g>
    </g>
    <g id="ytick_5">
     <g id="line2d_85">
      <path clip-path="url(#pdae926c08c)" d="M 57.6 138.948374 
L 414.72 138.948374 
" style="fill:none;stroke:#b0b0b0;stroke-linecap:square;stroke-opacity:0.5;stroke-width:0.8;"/>
     </g>
     <g id="line2d_86">
      <g>
       <use style="stroke:#000000;stroke-width:0.8;" x="57.6" xlink:href="#me04d2398ad" y="138.948374"/>
      </g>
     </g>
     <g id="text_13">
      <!-- 4000 -->
      <g transform="translate(25.15 142.747593)scale(0.1 -0.1)">
       <use xlink:href="#DejaVuSans-34"/>
       <use x="63.623047" xlink:href="#DejaVuSans-30"/>
       <use x="127.246094" xlink:href="#DejaVuSans-30"/>
       <use x="190.869141" xlink:href="#DejaVuSans-30"/>
      </g>
     </g>
    </g>
    <g id="ytick_6">
     <g id="line2d_87">
      <path clip-path="url(#pdae926c08c)" d="M 57.6 99.811251 
L 414.72 99.811251 
" style="fill:none;stroke:#b0b0b0;stroke-linecap:square;stroke-opacity:0.5;stroke-width:0.8;"/>
     </g>
     <g id="line2d_88">
      <g>
       <use style="stroke:#000000;stroke-width:0.8;" x="57.6" xlink:href="#me04d2398ad" y="99.811251"/>
      </g>
     </g>
     <g id="text_14">
      <!-- 5000 -->
      <g transform="translate(25.15 103.610469)scale(0.1 -0.1)">
       <use xlink:href="#DejaVuSans-35"/>
       <use x="63.623047" xlink:href="#DejaVuSans-30"/>
       <use x="127.246094" xlink:href="#DejaVuSans-30"/>
       <use x="190.869141" xlink:href="#DejaVuSans-30"/>
      </g>
     </g>
    </g>
    <g id="ytick_7">
     <g id="line2d_89">
      <path clip-path="url(#pdae926c08c)" d="M 57.6 60.674127 
L 414.72 60.674127 
" style="fill:none;stroke:#b0b0b0;stroke-linecap:square;stroke-opacity:0.5;stroke-width:0.8;"/>
     </g>
     <g id="line2d_90">
      <g>
       <use style="stroke:#000000;stroke-width:0.8;" x="57.6" xlink:href="#me04d2398ad" y="60.674127"/>
      </g>
     </g>
     <g id="text_15">
      <!-- 6000 -->
      <g transform="translate(25.15 64.473346)scale(0.1 -0.1)">
       <use xlink:href="#DejaVuSans-36"/>
       <use x="63.623047" xlink:href="#DejaVuSans-30"/>
       <use x="127.246094" xlink:href="#DejaVuSans-30"/>
       <use x="190.869141" xlink:href="#DejaVuSans-30"/>
      </g>
     </g>
    </g>
    <g id="ytick_8">
     <g id="line2d_91">
      <path clip-path="url(#pdae926c08c)" d="M 57.6 303.324292 
L 414.72 303.324292 
" style="fill:none;stroke:#b0b0b0;stroke-linecap:square;stroke-opacity:0.2;stroke-width:0.8;"/>
     </g>
     <g id="line2d_92">
      <defs>
       <path d="M 0 0 
L -2 0 
" id="m1f6fde366a" style="stroke:#000000;stroke-width:0.6;"/>
      </defs>
      <g>
       <use style="stroke:#000000;stroke-width:0.6;" x="57.6" xlink:href="#m1f6fde366a" y="303.324292"/>
      </g>
     </g>
    </g>
    <g id="ytick_9">
     <g id="line2d_93">
      <path clip-path="url(#pdae926c08c)" d="M 57.6 287.669442 
L 414.72 287.669442 
" style="fill:none;stroke:#b0b0b0;stroke-linecap:square;stroke-opacity:0.2;stroke-width:0.8;"/>
     </g>
     <g id="line2d_94">
      <g>
       <use style="stroke:#000000;stroke-width:0.6;" x="57.6" xlink:href="#m1f6fde366a" y="287.669442"/>
      </g>
     </g>
    </g>
    <g id="ytick_10">
     <g id="line2d_95">
      <path clip-path="url(#pdae926c08c)" d="M 57.6 279.842018 
L 414.72 279.842018 
" style="fill:none;stroke:#b0b0b0;stroke-linecap:square;stroke-opacity:0.2;stroke-width:0.8;"/>
     </g>
     <g id="line2d_96">
      <g>
       <use style="stroke:#000000;stroke-width:0.6;" x="57.6" xlink:href="#m1f6fde366a" y="279.842018"/>
      </g>
     </g>
    </g>
    <g id="ytick_11">
     <g id="line2d_97">
      <path clip-path="url(#pdae926c08c)" d="M 57.6 272.014593 
L 414.72 272.014593 
" style="fill:none;stroke:#b0b0b0;stroke-linecap:square;stroke-opacity:0.2;stroke-width:0.8;"/>
     </g>
     <g id="line2d_98">
      <g>
       <use style="stroke:#000000;stroke-width:0.6;" x="57.6" xlink:href="#m1f6fde366a" y="272.014593"/>
      </g>
     </g>
    </g>
    <g id="ytick_12">
     <g id="line2d_99">
      <path clip-path="url(#pdae926c08c)" d="M 57.6 264.187168 
L 414.72 264.187168 
" style="fill:none;stroke:#b0b0b0;stroke-linecap:square;stroke-opacity:0.2;stroke-width:0.8;"/>
     </g>
     <g id="line2d_100">
      <g>
       <use style="stroke:#000000;stroke-width:0.6;" x="57.6" xlink:href="#m1f6fde366a" y="264.187168"/>
      </g>
     </g>
    </g>
    <g id="ytick_13">
     <g id="line2d_101">
      <path clip-path="url(#pdae926c08c)" d="M 57.6 248.532319 
L 414.72 248.532319 
" style="fill:none;stroke:#b0b0b0;stroke-linecap:square;stroke-opacity:0.2;stroke-width:0.8;"/>
     </g>
     <g id="line2d_102">
      <g>
       <use style="stroke:#000000;stroke-width:0.6;" x="57.6" xlink:href="#m1f6fde366a" y="248.532319"/>
      </g>
     </g>
    </g>
    <g id="ytick_14">
     <g id="line2d_103">
      <path clip-path="url(#pdae926c08c)" d="M 57.6 240.704894 
L 414.72 240.704894 
" style="fill:none;stroke:#b0b0b0;stroke-linecap:square;stroke-opacity:0.2;stroke-width:0.8;"/>
     </g>
     <g id="line2d_104">
      <g>
       <use style="stroke:#000000;stroke-width:0.6;" x="57.6" xlink:href="#m1f6fde366a" y="240.704894"/>
      </g>
     </g>
    </g>
    <g id="ytick_15">
     <g id="line2d_105">
      <path clip-path="url(#pdae926c08c)" d="M 57.6 232.87747 
L 414.72 232.87747 
" style="fill:none;stroke:#b0b0b0;stroke-linecap:square;stroke-opacity:0.2;stroke-width:0.8;"/>
     </g>
     <g id="line2d_106">
      <g>
       <use style="stroke:#000000;stroke-width:0.6;" x="57.6" xlink:href="#m1f6fde366a" y="232.87747"/>
      </g>
     </g>
    </g>
    <g id="ytick_16">
     <g id="line2d_107">
      <path clip-path="url(#pdae926c08c)" d="M 57.6 225.050045 
L 414.72 225.050045 
" style="fill:none;stroke:#b0b0b0;stroke-linecap:square;stroke-opacity:0.2;stroke-width:0.8;"/>
     </g>
     <g id="line2d_108">
      <g>
       <use style="stroke:#000000;stroke-width:0.6;" x="57.6" xlink:href="#m1f6fde366a" y="225.050045"/>
      </g>
     </g>
    </g>
    <g id="ytick_17">
     <g id="line2d_109">
      <path clip-path="url(#pdae926c08c)" d="M 57.6 209.395196 
L 414.72 209.395196 
" style="fill:none;stroke:#b0b0b0;stroke-linecap:square;stroke-opacity:0.2;stroke-width:0.8;"/>
     </g>
     <g id="line2d_110">
      <g>
       <use style="stroke:#000000;stroke-width:0.6;" x="57.6" xlink:href="#m1f6fde366a" y="209.395196"/>
      </g>
     </g>
    </g>
    <g id="ytick_18">
     <g id="line2d_111">
      <path clip-path="url(#pdae926c08c)" d="M 57.6 201.567771 
L 414.72 201.567771 
" style="fill:none;stroke:#b0b0b0;stroke-linecap:square;stroke-opacity:0.2;stroke-width:0.8;"/>
     </g>
     <g id="line2d_112">
      <g>
       <use style="stroke:#000000;stroke-width:0.6;" x="57.6" xlink:href="#m1f6fde366a" y="201.567771"/>
      </g>
     </g>
    </g>
    <g id="ytick_19">
     <g id="line2d_113">
      <path clip-path="url(#pdae926c08c)" d="M 57.6 193.740347 
L 414.72 193.740347 
" style="fill:none;stroke:#b0b0b0;stroke-linecap:square;stroke-opacity:0.2;stroke-width:0.8;"/>
     </g>
     <g id="line2d_114">
      <g>
       <use style="stroke:#000000;stroke-width:0.6;" x="57.6" xlink:href="#m1f6fde366a" y="193.740347"/>
      </g>
     </g>
    </g>
    <g id="ytick_20">
     <g id="line2d_115">
      <path clip-path="url(#pdae926c08c)" d="M 57.6 185.912922 
L 414.72 185.912922 
" style="fill:none;stroke:#b0b0b0;stroke-linecap:square;stroke-opacity:0.2;stroke-width:0.8;"/>
     </g>
     <g id="line2d_116">
      <g>
       <use style="stroke:#000000;stroke-width:0.6;" x="57.6" xlink:href="#m1f6fde366a" y="185.912922"/>
      </g>
     </g>
    </g>
    <g id="ytick_21">
     <g id="line2d_117">
      <path clip-path="url(#pdae926c08c)" d="M 57.6 170.258073 
L 414.72 170.258073 
" style="fill:none;stroke:#b0b0b0;stroke-linecap:square;stroke-opacity:0.2;stroke-width:0.8;"/>
     </g>
     <g id="line2d_118">
      <g>
       <use style="stroke:#000000;stroke-width:0.6;" x="57.6" xlink:href="#m1f6fde366a" y="170.258073"/>
      </g>
     </g>
    </g>
    <g id="ytick_22">
     <g id="line2d_119">
      <path clip-path="url(#pdae926c08c)" d="M 57.6 162.430648 
L 414.72 162.430648 
" style="fill:none;stroke:#b0b0b0;stroke-linecap:square;stroke-opacity:0.2;stroke-width:0.8;"/>
     </g>
     <g id="line2d_120">
      <g>
       <use style="stroke:#000000;stroke-width:0.6;" x="57.6" xlink:href="#m1f6fde366a" y="162.430648"/>
      </g>
     </g>
    </g>
    <g id="ytick_23">
     <g id="line2d_121">
      <path clip-path="url(#pdae926c08c)" d="M 57.6 154.603223 
L 414.72 154.603223 
" style="fill:none;stroke:#b0b0b0;stroke-linecap:square;stroke-opacity:0.2;stroke-width:0.8;"/>
     </g>
     <g id="line2d_122">
      <g>
       <use style="stroke:#000000;stroke-width:0.6;" x="57.6" xlink:href="#m1f6fde366a" y="154.603223"/>
      </g>
     </g>
    </g>
    <g id="ytick_24">
     <g id="line2d_123">
      <path clip-path="url(#pdae926c08c)" d="M 57.6 146.775799 
L 414.72 146.775799 
" style="fill:none;stroke:#b0b0b0;stroke-linecap:square;stroke-opacity:0.2;stroke-width:0.8;"/>
     </g>
     <g id="line2d_124">
      <g>
       <use style="stroke:#000000;stroke-width:0.6;" x="57.6" xlink:href="#m1f6fde366a" y="146.775799"/>
      </g>
     </g>
    </g>
    <g id="ytick_25">
     <g id="line2d_125">
      <path clip-path="url(#pdae926c08c)" d="M 57.6 131.120949 
L 414.72 131.120949 
" style="fill:none;stroke:#b0b0b0;stroke-linecap:square;stroke-opacity:0.2;stroke-width:0.8;"/>
     </g>
     <g id="line2d_126">
      <g>
       <use style="stroke:#000000;stroke-width:0.6;" x="57.6" xlink:href="#m1f6fde366a" y="131.120949"/>
      </g>
     </g>
    </g>
    <g id="ytick_26">
     <g id="line2d_127">
      <path clip-path="url(#pdae926c08c)" d="M 57.6 123.293525 
L 414.72 123.293525 
" style="fill:none;stroke:#b0b0b0;stroke-linecap:square;stroke-opacity:0.2;stroke-width:0.8;"/>
     </g>
     <g id="line2d_128">
      <g>
       <use style="stroke:#000000;stroke-width:0.6;" x="57.6" xlink:href="#m1f6fde366a" y="123.293525"/>
      </g>
     </g>
    </g>
    <g id="ytick_27">
     <g id="line2d_129">
      <path clip-path="url(#pdae926c08c)" d="M 57.6 115.4661 
L 414.72 115.4661 
" style="fill:none;stroke:#b0b0b0;stroke-linecap:square;stroke-opacity:0.2;stroke-width:0.8;"/>
     </g>
     <g id="line2d_130">
      <g>
       <use style="stroke:#000000;stroke-width:0.6;" x="57.6" xlink:href="#m1f6fde366a" y="115.4661"/>
      </g>
     </g>
    </g>
    <g id="ytick_28">
     <g id="line2d_131">
      <path clip-path="url(#pdae926c08c)" d="M 57.6 107.638675 
L 414.72 107.638675 
" style="fill:none;stroke:#b0b0b0;stroke-linecap:square;stroke-opacity:0.2;stroke-width:0.8;"/>
     </g>
     <g id="line2d_132">
      <g>
       <use style="stroke:#000000;stroke-width:0.6;" x="57.6" xlink:href="#m1f6fde366a" y="107.638675"/>
      </g>
     </g>
    </g>
    <g id="ytick_29">
     <g id="line2d_133">
      <path clip-path="url(#pdae926c08c)" d="M 57.6 91.983826 
L 414.72 91.983826 
" style="fill:none;stroke:#b0b0b0;stroke-linecap:square;stroke-opacity:0.2;stroke-width:0.8;"/>
     </g>
     <g id="line2d_134">
      <g>
       <use style="stroke:#000000;stroke-width:0.6;" x="57.6" xlink:href="#m1f6fde366a" y="91.983826"/>
      </g>
     </g>
    </g>
    <g id="ytick_30">
     <g id="line2d_135">
      <path clip-path="url(#pdae926c08c)" d="M 57.6 84.156401 
L 414.72 84.156401 
" style="fill:none;stroke:#b0b0b0;stroke-linecap:square;stroke-opacity:0.2;stroke-width:0.8;"/>
     </g>
     <g id="line2d_136">
      <g>
       <use style="stroke:#000000;stroke-width:0.6;" x="57.6" xlink:href="#m1f6fde366a" y="84.156401"/>
      </g>
     </g>
    </g>
    <g id="ytick_31">
     <g id="line2d_137">
      <path clip-path="url(#pdae926c08c)" d="M 57.6 76.328977 
L 414.72 76.328977 
" style="fill:none;stroke:#b0b0b0;stroke-linecap:square;stroke-opacity:0.2;stroke-width:0.8;"/>
     </g>
     <g id="line2d_138">
      <g>
       <use style="stroke:#000000;stroke-width:0.6;" x="57.6" xlink:href="#m1f6fde366a" y="76.328977"/>
      </g>
     </g>
    </g>
    <g id="ytick_32">
     <g id="line2d_139">
      <path clip-path="url(#pdae926c08c)" d="M 57.6 68.501552 
L 414.72 68.501552 
" style="fill:none;stroke:#b0b0b0;stroke-linecap:square;stroke-opacity:0.2;stroke-width:0.8;"/>
     </g>
     <g id="line2d_140">
      <g>
       <use style="stroke:#000000;stroke-width:0.6;" x="57.6" xlink:href="#m1f6fde366a" y="68.501552"/>
      </g>
     </g>
    </g>
    <g id="ytick_33">
     <g id="line2d_141">
      <path clip-path="url(#pdae926c08c)" d="M 57.6 52.846703 
L 414.72 52.846703 
" style="fill:none;stroke:#b0b0b0;stroke-linecap:square;stroke-opacity:0.2;stroke-width:0.8;"/>
     </g>
     <g id="line2d_142">
      <g>
       <use style="stroke:#000000;stroke-width:0.6;" x="57.6" xlink:href="#m1f6fde366a" y="52.846703"/>
      </g>
     </g>
    </g>
    <g id="ytick_34">
     <g id="line2d_143">
      <path clip-path="url(#pdae926c08c)" d="M 57.6 45.019278 
L 414.72 45.019278 
" style="fill:none;stroke:#b0b0b0;stroke-linecap:square;stroke-opacity:0.2;stroke-width:0.8;"/>
     </g>
     <g id="line2d_144">
      <g>
       <use style="stroke:#000000;stroke-width:0.6;" x="57.6" xlink:href="#m1f6fde366a" y="45.019278"/>
      </g>
     </g>
    </g>
   </g>
   <g id="line2d_145">
    <path clip-path="url(#pdae926c08c)" d="M 398.487273 295.486197 
L 266.849278 295.360702 
L 247.833176 295.152271 
L 239.560586 294.872907 
L 234.460179 294.48973 
L 231.268649 294.038271 
L 229.35222 293.604746 
L 227.434848 292.945612 
L 226.155971 292.295381 
L 224.876622 291.362861 
L 223.596801 289.959699 
L 222.95689 288.97771 
L 222.316508 287.712941 
L 221.676126 286.049187 
L 221.035743 283.804066 
L 220.395361 280.681992 
L 219.754506 276.179321 
L 219.113652 269.41233 
L 218.472798 258.747244 
L 217.831943 241.117216 
L 217.190617 211.230593 
L 215.907965 121.418348 
L 215.266638 132.736776 
L 214.62484 182.547444 
L 213.983042 223.417592 
L 213.341244 248.336604 
L 212.699446 263.077286 
L 212.057176 272.136225 
L 211.414905 277.978368 
L 210.772635 281.923184 
L 210.130365 284.694863 
L 209.487623 286.710237 
L 208.845353 288.215794 
L 208.202611 289.369766 
L 206.916655 290.99071 
L 205.630228 292.047769 
L 204.343328 292.773974 
L 202.411799 293.499868 
L 200.479797 293.970649 
L 197.901751 294.378224 
L 194.031141 294.740645 
L 188.217205 295.026015 
L 178.505761 295.239494 
L 159.65294 295.383432 
L 111.734212 295.463887 
L 73.832727 295.479153 
L 73.832727 295.479153 
" style="fill:none;stroke:#1f77b4;stroke-linecap:square;stroke-width:0.5;"/>
   </g>
   <g id="line2d_146">
    <path clip-path="url(#pdae926c08c)" d="M 398.487273 295.488 
L 254.817922 295.365051 
L 235.736224 295.154978 
L 227.434848 294.863334 
L 222.95689 294.519993 
L 219.754506 294.069642 
L 217.831943 293.632153 
L 215.907965 292.958501 
L 214.62484 292.285304 
L 213.341244 291.306482 
L 212.699446 290.642009 
L 212.057176 289.807461 
L 211.414905 288.741228 
L 210.772635 287.350686 
L 210.130365 285.493119 
L 209.487623 282.93837 
L 208.845353 279.310723 
L 208.202611 273.944185 
L 207.559397 265.630893 
L 206.916655 252.122577 
L 206.273441 229.268479 
L 205.630228 191.588711 
L 204.986542 144.614982 
L 204.343328 131.967518 
L 203.055956 215.750369 
L 202.411799 244.173326 
L 201.768113 260.905189 
L 201.123955 271.003216 
L 200.479797 277.391714 
L 199.835168 281.634921 
L 199.19101 284.570687 
L 198.54638 286.679408 
L 197.901751 288.23949 
L 197.256649 289.424569 
L 195.966918 291.070643 
L 194.676243 292.132117 
L 193.385568 292.854573 
L 191.448376 293.570711 
L 189.509768 294.031676 
L 186.923699 294.427886 
L 183.04082 294.777745 
L 177.208479 295.051246 
L 167.46636 295.254414 
L 147.899539 295.392922 
L 96.493865 295.468293 
L 73.832727 295.477341 
L 73.832727 295.477341 
" style="fill:none;stroke:#ff7f0e;stroke-linecap:square;stroke-width:0.5;"/>
   </g>
   <g id="line2d_147">
    <path clip-path="url(#pdae926c08c)" d="M 398.487273 295.198103 
L 73.832727 295.384065 
L 73.832727 295.384065 
" style="fill:none;stroke:#2ca02c;stroke-linecap:square;stroke-width:0.5;"/>
   </g>
   <g id="line2d_148">
    <path clip-path="url(#pdae926c08c)" d="M 398.487273 294.904605 
L 280.099579 294.865542 
L 255.45217 294.671248 
L 244.653916 294.400327 
L 238.286428 294.046902 
L 234.460179 293.658681 
L 231.268649 293.115288 
L 229.35222 292.608451 
L 227.434848 291.856598 
L 226.155971 291.130259 
L 224.876622 290.106748 
L 223.596801 288.593607 
L 222.95689 287.547849 
L 222.316508 286.212268 
L 221.676126 284.46965 
L 221.035743 282.136356 
L 220.395361 278.915286 
L 219.754506 274.300874 
L 219.113652 267.407223 
L 218.472798 256.5978 
L 217.831943 238.802332 
L 217.190617 208.72472 
L 215.907965 118.43086 
L 215.266638 129.442613 
L 214.62484 178.887454 
L 213.983042 219.316857 
L 213.341244 243.698485 
L 212.699446 257.775041 
L 212.057176 265.999777 
L 211.414905 270.776031 
L 210.772635 273.33065 
L 210.130365 274.245106 
L 209.487623 273.706074 
L 208.845353 271.584326 
L 208.202611 267.372103 
L 207.559397 259.962007 
L 206.916655 247.172122 
L 206.273441 224.899325 
L 205.630228 187.695995 
L 204.986542 141.11777 
L 204.343328 128.801684 
L 203.055956 213.105003 
L 202.411799 241.734401 
L 201.768113 258.645047 
L 201.123955 268.89914 
L 200.479797 275.424578 
L 199.835168 279.788681 
L 199.19101 282.83156 
L 198.54638 285.035765 
L 197.901751 286.681266 
L 197.256649 287.94312 
L 195.966918 289.720976 
L 194.676243 290.891061 
L 193.385568 291.704043 
L 192.093949 292.293977 
L 190.156285 292.917767 
L 187.570688 293.461522 
L 184.335742 293.888592 
L 179.802099 294.246456 
L 172.665397 294.549684 
L 160.956356 294.780985 
L 139.385803 294.945245 
L 88.514332 295.058214 
L 73.832727 295.072866 
L 73.832727 295.072866 
" style="fill:none;stroke:#000000;stroke-linecap:square;stroke-width:0.5;"/>
   </g>
   <g id="line2d_149">
    <path clip-path="url(#pdae926c08c)" d="M 398.487273 247.671302 
L 397.876149 246.84003 
L 397.265025 247.752708 
L 396.653901 247.154301 
L 396.042305 249.954562 
L 395.431181 248.374205 
L 394.819585 249.437169 
L 394.207989 247.706526 
L 392.984325 247.190307 
L 392.372729 249.082978 
L 391.760662 249.013314 
L 391.149066 249.472001 
L 390.536998 247.516319 
L 389.92493 249.634812 
L 389.31239 249.489613 
L 388.700323 249.04345 
L 388.087783 248.898643 
L 387.475243 248.980048 
L 386.862703 251.549009 
L 386.250164 249.293536 
L 385.637624 247.64195 
L 385.025084 247.346856 
L 384.412073 250.06532 
L 383.799061 249.694692 
L 383.186049 247.366033 
L 382.573038 250.158858 
L 381.960026 249.864155 
L 381.346543 250.623024 
L 380.733059 249.349502 
L 380.120047 253.044047 
L 379.506092 250.566275 
L 378.892608 250.722824 
L 378.279125 249.675514 
L 377.665169 249.907598 
L 377.051214 249.838716 
L 376.43773 249.920513 
L 375.823303 250.453169 
L 375.209348 248.729962 
L 374.595392 249.713869 
L 373.980965 250.246525 
L 373.366538 245.443226 
L 372.75211 249.207434 
L 371.522784 251.77483 
L 370.908356 250.579191 
L 370.293457 249.008618 
L 369.678558 249.540883 
L 369.063658 250.824189 
L 368.448287 248.803539 
L 367.833388 249.711129 
L 367.218017 250.843366 
L 366.602646 250.85002 
L 365.987274 252.732124 
L 365.371903 249.437952 
L 364.75606 249.894682 
L 364.140689 250.651203 
L 363.524846 248.783579 
L 362.909003 249.689995 
L 362.292688 248.347592 
L 361.676845 250.228522 
L 361.06053 250.909508 
L 360.444215 254.812262 
L 359.8279 251.222605 
L 359.211585 249.956128 
L 358.594798 248.989441 
L 357.978483 251.317708 
L 357.361696 248.404341 
L 356.744909 249.908772 
L 356.128122 252.086361 
L 355.510863 249.324063 
L 354.893604 252.249172 
L 354.276817 251.283268 
L 353.659559 251.664072 
L 353.041828 249.95104 
L 352.424569 250.107588 
L 351.806838 252.28283 
L 351.189108 250.644941 
L 350.571377 251.324361 
L 349.953646 248.416865 
L 349.335443 251.039443 
L 348.717713 252.241736 
L 348.09951 252.920765 
L 347.481307 250.687209 
L 346.862633 252.038223 
L 346.24443 251.522395 
L 345.625756 249.439126 
L 344.388407 252.364235 
L 343.769732 252.669504 
L 343.150586 252.22882 
L 342.531439 252.235865 
L 341.912293 251.571317 
L 341.293146 251.429249 
L 340.674 251.511046 
L 340.054381 253.157936 
L 339.434763 252.046833 
L 338.815145 251.234346 
L 338.195526 250.794445 
L 337.575908 251.099714 
L 336.955818 251.181511 
L 336.335727 253.050309 
L 335.715637 251.94038 
L 335.095547 251.50087 
L 333.854422 251.589711 
L 333.23386 252.415504 
L 332.613298 250.860195 
L 331.992736 251.090713 
L 331.371702 252.213557 
L 330.750667 252.146241 
L 330.129633 251.707514 
L 329.508599 253.052657 
L 328.887093 251.350192 
L 328.266059 251.506349 
L 327.644553 252.404937 
L 327.023047 254.046348 
L 326.401069 253.08788 
L 325.157585 252.433899 
L 324.535607 250.585061 
L 323.913629 253.932851 
L 323.29118 252.678115 
L 322.66873 251.795181 
L 322.04628 253.285914 
L 321.42383 250.919684 
L 320.80138 250.556491 
L 320.178458 253.900758 
L 319.556009 253.833442 
L 318.933087 253.09923 
L 318.309693 251.253915 
L 317.686771 251.779918 
L 317.063378 252.157982 
L 316.439984 253.794697 
L 315.81659 252.394762 
L 315.193197 252.253868 
L 314.569331 251.891458 
L 313.945466 253.675328 
L 313.3216 253.164198 
L 312.697735 256.501381 
L 312.073397 253.03074 
L 311.449531 253.777868 
L 310.825194 253.119581 
L 310.200385 254.605618 
L 309.576047 252.616669 
L 308.951238 252.328229 
L 308.326428 252.261696 
L 307.701619 253.673372 
L 307.07681 250.577625 
L 306.451528 254.204854 
L 305.826719 254.581353 
L 305.201438 251.043748 
L 304.575684 253.635409 
L 303.950403 252.904719 
L 303.32465 254.166891 
L 302.698897 251.738824 
L 302.073143 253.000604 
L 301.44739 252.196728 
L 300.821165 253.531695 
L 300.19494 252.654241 
L 299.568715 253.177896 
L 298.94249 251.932161 
L 298.315793 251.718472 
L 297.689096 252.610407 
L 297.062399 254.975855 
L 296.435702 250.931425 
L 295.809005 253.148543 
L 295.181836 252.566965 
L 293.927498 253.833442 
L 293.299857 251.412029 
L 292.672688 253.701159 
L 292.045047 252.237039 
L 291.416934 251.214778 
L 290.789293 252.031569 
L 290.161653 251.671508 
L 289.53354 251.458993 
L 288.905427 249.261444 
L 288.276842 250.666075 
L 287.64873 250.012485 
L 287.020145 248.771838 
L 286.39156 250.249265 
L 285.133919 251.513394 
L 284.504862 250.566667 
L 283.875806 249.914251 
L 283.246749 252.784568 
L 282.617693 252.718817 
L 281.988164 251.185816 
L 281.358636 250.680164 
L 280.729107 251.275049 
L 280.099579 248.716264 
L 279.469578 247.918258 
L 278.839578 251.225345 
L 278.209578 250.940035 
L 277.579577 248.310412 
L 276.949105 252.274611 
L 276.318633 251.330232 
L 275.68816 247.530017 
L 275.057688 250.686818 
L 274.426744 248.425475 
L 273.796271 247.629034 
L 273.164855 251.150201 
L 272.533911 249.987437 
L 271.902967 245.899173 
L 271.271551 249.857502 
L 270.640134 248.037626 
L 270.008718 245.8526 
L 269.37683 249.955345 
L 268.745414 246.67448 
L 268.113526 249.09472 
L 267.481166 246.54611 
L 266.849278 248.600026 
L 266.216918 247.220834 
L 265.584558 246.207183 
L 264.952198 247.895558 
L 264.319838 247.612205 
L 263.054175 244.491803 
L 262.421343 244.428009 
L 261.788511 243.561904 
L 261.155207 246.488579 
L 260.521903 243.434709 
L 259.888599 241.986244 
L 259.255296 240.975332 
L 258.62152 240.47516 
L 257.987744 244.71097 
L 257.353969 243.627655 
L 256.720193 243.928228 
L 256.086417 241.752987 
L 255.45217 237.102714 
L 254.817922 240.899015 
L 254.183203 241.345569 
L 253.548955 236.625241 
L 252.914235 237.872932 
L 252.279516 236.71917 
L 251.644796 231.711575 
L 251.009605 230.486974 
L 250.374886 225.627318 
L 249.739694 225.349444 
L 248.468839 206.263835 
L 247.833176 192.767006 
L 247.197513 175.642949 
L 246.561849 152.496863 
L 245.925714 121.953078 
L 244.653916 53.568 
L 244.01778 58.837031 
L 243.381173 81.881752 
L 242.744566 96.212201 
L 240.197666 167.618274 
L 239.560586 173.22271 
L 238.923507 180.926461 
L 238.286428 183.990506 
L 237.648877 185.749329 
L 237.011326 184.465631 
L 236.373775 193.030791 
L 235.736224 191.529099 
L 234.460179 187.803636 
L 233.822156 185.001418 
L 233.183661 180.825487 
L 232.545638 172.889261 
L 231.907143 170.525379 
L 231.268649 178.3575 
L 230.629682 179.318708 
L 229.991187 187.580163 
L 229.35222 190.056761 
L 228.713254 197.446241 
L 228.073815 202.159916 
L 227.434848 204.127339 
L 226.79541 205.66034 
L 226.155971 203.077681 
L 225.516061 208.797572 
L 224.876622 205.565628 
L 223.596801 212.669016 
L 222.95689 208.716558 
L 222.316508 209.237473 
L 221.676126 209.109103 
L 221.035743 211.359879 
L 220.395361 206.257573 
L 219.754506 209.4449 
L 219.113652 204.993052 
L 218.472798 206.234482 
L 217.831943 205.026319 
L 217.190617 201.442141 
L 216.549291 203.835376 
L 215.907965 195.501517 
L 215.266638 198.326826 
L 214.62484 198.41645 
L 213.983042 199.873525 
L 213.341244 200.106782 
L 212.699446 199.261421 
L 212.057176 199.854348 
L 211.414905 200.878566 
L 210.772635 200.823774 
L 210.130365 202.566159 
L 209.487623 197.984376 
L 208.845353 202.959487 
L 208.202611 205.993788 
L 207.559397 200.623784 
L 206.916655 203.513278 
L 206.273441 201.161136 
L 205.630228 200.030074 
L 204.986542 202.487494 
L 203.699642 200.441405 
L 203.055956 198.809387 
L 202.411799 198.253248 
L 201.768113 195.905021 
L 201.123955 186.3176 
L 200.479797 191.354548 
L 199.835168 183.491117 
L 199.19101 177.27849 
L 198.54638 177.515269 
L 197.901751 171.950753 
L 197.256649 170.899139 
L 196.61202 175.647646 
L 195.966918 165.50526 
L 195.321816 163.811406 
L 194.676243 164.336626 
L 194.031141 179.098366 
L 193.385568 181.766735 
L 192.739995 192.300492 
L 192.093949 196.466639 
L 191.448376 199.558863 
L 190.80233 203.221706 
L 190.156285 204.525364 
L 189.509768 205.113595 
L 188.863722 204.630251 
L 188.217205 207.432469 
L 187.570688 207.448907 
L 186.923699 209.321618 
L 186.27671 209.551744 
L 185.630192 209.28209 
L 184.982731 212.508945 
L 183.688281 222.383633 
L 183.04082 223.965947 
L 182.393359 227.045256 
L 181.745898 229.481933 
L 181.097965 230.349603 
L 180.450032 233.568631 
L 179.802099 233.936129 
L 179.153694 235.301232 
L 178.505761 238.731209 
L 177.857356 237.317576 
L 177.208479 240.318611 
L 176.560074 239.118667 
L 175.911197 240.979637 
L 175.26232 241.843785 
L 174.613444 240.857529 
L 173.964095 238.306963 
L 172.665397 240.674759 
L 172.016049 238.69442 
L 171.3667 241.335002 
L 170.716879 238.431419 
L 170.067059 238.726122 
L 169.416766 237.387241 
L 168.766946 237.611105 
L 168.116653 237.622063 
L 167.46636 233.017972 
L 166.816068 235.86872 
L 166.165303 230.06038 
L 165.514539 231.491624 
L 164.863774 233.702872 
L 164.21301 230.097169 
L 163.561774 229.541813 
L 162.910537 227.001813 
L 162.259301 229.566861 
L 161.608065 227.523511 
L 160.956356 230.371128 
L 160.304648 232.650474 
L 159.65294 229.261982 
L 159.000759 227.078914 
L 158.349051 230.844688 
L 157.696871 229.299554 
L 157.044219 230.798506 
L 156.392039 231.235276 
L 155.739387 231.105732 
L 155.086734 233.452394 
L 154.434082 231.200835 
L 153.780958 233.546715 
L 153.128306 239.497514 
L 152.47471 237.245956 
L 151.821586 240.225465 
L 151.168462 241.649273 
L 150.514866 240.882577 
L 149.86127 240.963199 
L 149.207203 241.891923 
L 148.553607 243.031988 
L 147.899539 243.747806 
L 146.590931 245.743408 
L 145.936392 245.682354 
L 145.282324 245.127389 
L 144.627312 242.738851 
L 143.972772 244.582601 
L 143.317761 245.579032 
L 142.662749 247.280714 
L 142.007737 245.527762 
L 141.352254 246.242015 
L 140.69677 243.926271 
L 140.041287 246.824375 
L 139.385803 241.692715 
L 138.729848 244.096909 
L 138.074364 243.262114 
L 137.418409 243.483239 
L 136.761981 241.241073 
L 136.105554 243.573254 
L 135.449598 245.271805 
L 134.792699 242.960367 
L 134.136272 243.814339 
L 133.479372 245.019371 
L 132.822473 242.709498 
L 132.165574 244.265981 
L 131.508202 244.837775 
L 130.19346 240.78356 
L 129.536089 239.740947 
L 128.878246 242.981501 
L 128.220875 242.008943 
L 127.56256 242.580737 
L 126.904716 241.047344 
L 126.246401 244.845993 
L 125.588086 246.188397 
L 124.929771 241.429714 
L 124.271456 244.945793 
L 123.612669 243.97441 
L 122.953882 246.857642 
L 122.294624 246.586813 
L 121.635837 246.456486 
L 120.976578 244.154441 
L 120.317319 247.596159 
L 119.657588 245.925004 
L 118.998329 246.144955 
L 118.338599 245.594687 
L 117.678396 247.49362 
L 117.018665 246.383691 
L 116.358462 243.665618 
L 115.69826 244.375174 
L 115.038057 248.021188 
L 114.377383 245.234234 
L 113.716708 248.529188 
L 113.056033 247.420433 
L 112.395359 250.364328 
L 111.734212 247.509275 
L 111.073066 248.636032 
L 110.411919 247.947219 
L 109.750301 249.143641 
L 109.088682 249.082978 
L 108.427064 249.929514 
L 107.765446 248.543278 
L 107.103355 247.576199 
L 106.441265 248.213352 
L 105.779175 249.547536 
L 105.116613 248.790233 
L 104.45405 247.405561 
L 103.791488 247.763666 
L 103.128926 247.215746 
L 102.465892 248.200828 
L 101.802858 246.678394 
L 101.139823 246.061593 
L 100.476317 242.938841 
L 99.813283 245.246366 
L 98.485799 245.683919 
L 97.821821 250.771745 
L 97.158315 247.02554 
L 96.493865 246.687786 
L 95.829887 250.17373 
L 95.165438 246.56881 
L 94.500988 245.189226 
L 93.836066 247.908865 
L 93.171616 245.279241 
L 92.506694 243.692622 
L 91.841773 243.425316 
L 91.176379 243.852693 
L 90.510985 240.5323 
L 89.845591 244.429183 
L 89.180198 244.023331 
L 88.514332 244.51959 
L 87.848467 243.282074 
L 87.182601 244.679661 
L 86.516264 245.591164 
L 85.849926 245.393522 
L 85.183588 245.888998 
L 84.516779 252.064444 
L 83.850442 250.688383 
L 83.183632 252.982993 
L 82.516351 253.199421 
L 81.849541 255.423192 
L 81.18226 255.985201 
L 80.514507 252.327055 
L 79.847226 252.612756 
L 79.179472 254.765689 
L 78.511719 252.492605 
L 77.843494 251.119283 
L 77.175269 251.26683 
L 76.507044 248.374597 
L 75.838818 248.177345 
L 75.170121 247.84194 
L 74.501424 248.335851 
L 73.832727 247.379339 
L 73.832727 247.379339 
" style="fill:none;stroke:#ff0000;stroke-linecap:square;stroke-opacity:0.5;stroke-width:0.5;"/>
   </g>
   <g id="patch_3">
    <path d="M 57.6 307.584 
L 57.6 41.472 
" style="fill:none;stroke:#000000;stroke-linecap:square;stroke-linejoin:miter;stroke-width:0.8;"/>
   </g>
   <g id="patch_4">
    <path d="M 414.72 307.584 
L 414.72 41.472 
" style="fill:none;stroke:#000000;stroke-linecap:square;stroke-linejoin:miter;stroke-width:0.8;"/>
   </g>
   <g id="patch_5">
    <path d="M 57.6 307.584 
L 414.72 307.584 
" style="fill:none;stroke:#000000;stroke-linecap:square;stroke-linejoin:miter;stroke-width:0.8;"/>
   </g>
   <g id="patch_6">
    <path d="M 57.6 41.472 
L 414.72 41.472 
" style="fill:none;stroke:#000000;stroke-linecap:square;stroke-linejoin:miter;stroke-width:0.8;"/>
   </g>
  </g>
 </g>
 <defs>
  <clipPath id="pdae926c08c">
   <rect height="266.112" width="357.12" x="57.6" y="41.472"/>
  </clipPath>
 </defs>
</svg>
