<?xml version="1.0" encoding="utf-8" standalone="no"?>
<!DOCTYPE svg PUBLIC "-//W3C//DTD SVG 1.1//EN"
  "http://www.w3.org/Graphics/SVG/1.1/DTD/svg11.dtd">
<!-- Created with matplotlib (http://matplotlib.org/) -->
<svg height="345.6pt" version="1.1" viewBox="0 0 460.8 345.6" width="460.8pt" xmlns="http://www.w3.org/2000/svg" xmlns:xlink="http://www.w3.org/1999/xlink">
 <defs>
  <style type="text/css">
*{stroke-linecap:butt;stroke-linejoin:round;}
  </style>
 </defs>
 <g id="figure_1">
  <g id="patch_1">
   <path d="M 0 345.6 
L 460.8 345.6 
L 460.8 0 
L 0 0 
z
" style="fill:none;"/>
  </g>
  <g id="axes_1">
   <g id="patch_2">
    <path d="M 57.6 307.584 
L 414.72 307.584 
L 414.72 41.472 
L 57.6 41.472 
z
" style="fill:none;"/>
   </g>
   <g id="matplotlib.axis_1">
    <g id="xtick_1">
     <g id="line2d_1">
      <path clip-path="url(#pa3cd935dcf)" d="M 64.103263 307.584 
L 64.103263 41.472 
" style="fill:none;stroke:#b0b0b0;stroke-linecap:square;stroke-opacity:0.5;stroke-width:0.8;"/>
     </g>
     <g id="line2d_2">
      <defs>
       <path d="M 0 0 
L 0 3.5 
" id="m63e9980eb0" style="stroke:#000000;stroke-width:0.8;"/>
      </defs>
      <g>
       <use style="stroke:#000000;stroke-width:0.8;" x="64.103263" xlink:href="#m63e9980eb0" y="307.584"/>
      </g>
     </g>
     <g id="text_1">
      <!-- 100 -->
      <defs>
       <path d="M 12.40625 8.296875 
L 28.515625 8.296875 
L 28.515625 63.921875 
L 10.984375 60.40625 
L 10.984375 69.390625 
L 28.421875 72.90625 
L 38.28125 72.90625 
L 38.28125 8.296875 
L 54.390625 8.296875 
L 54.390625 0 
L 12.40625 0 
z
" id="DejaVuSans-31"/>
       <path d="M 31.78125 66.40625 
Q 24.171875 66.40625 20.328125 58.90625 
Q 16.5 51.421875 16.5 36.375 
Q 16.5 21.390625 20.328125 13.890625 
Q 24.171875 6.390625 31.78125 6.390625 
Q 39.453125 6.390625 43.28125 13.890625 
Q 47.125 21.390625 47.125 36.375 
Q 47.125 51.421875 43.28125 58.90625 
Q 39.453125 66.40625 31.78125 66.40625 
z
M 31.78125 74.21875 
Q 44.046875 74.21875 50.515625 64.515625 
Q 56.984375 54.828125 56.984375 36.375 
Q 56.984375 17.96875 50.515625 8.265625 
Q 44.046875 -1.421875 31.78125 -1.421875 
Q 19.53125 -1.421875 13.0625 8.265625 
Q 6.59375 17.96875 6.59375 36.375 
Q 6.59375 54.828125 13.0625 64.515625 
Q 19.53125 74.21875 31.78125 74.21875 
z
" id="DejaVuSans-30"/>
      </defs>
      <g transform="translate(54.559513 322.182437)scale(0.1 -0.1)">
       <use xlink:href="#DejaVuSans-31"/>
       <use x="63.623047" xlink:href="#DejaVuSans-30"/>
       <use x="127.246094" xlink:href="#DejaVuSans-30"/>
      </g>
     </g>
    </g>
    <g id="xtick_2">
     <g id="line2d_3">
      <path clip-path="url(#pa3cd935dcf)" d="M 106.222157 307.584 
L 106.222157 41.472 
" style="fill:none;stroke:#b0b0b0;stroke-linecap:square;stroke-opacity:0.5;stroke-width:0.8;"/>
     </g>
     <g id="line2d_4">
      <g>
       <use style="stroke:#000000;stroke-width:0.8;" x="106.222157" xlink:href="#m63e9980eb0" y="307.584"/>
      </g>
     </g>
     <g id="text_2">
      <!-- 200 -->
      <defs>
       <path d="M 19.1875 8.296875 
L 53.609375 8.296875 
L 53.609375 0 
L 7.328125 0 
L 7.328125 8.296875 
Q 12.9375 14.109375 22.625 23.890625 
Q 32.328125 33.6875 34.8125 36.53125 
Q 39.546875 41.84375 41.421875 45.53125 
Q 43.3125 49.21875 43.3125 52.78125 
Q 43.3125 58.59375 39.234375 62.25 
Q 35.15625 65.921875 28.609375 65.921875 
Q 23.96875 65.921875 18.8125 64.3125 
Q 13.671875 62.703125 7.8125 59.421875 
L 7.8125 69.390625 
Q 13.765625 71.78125 18.9375 73 
Q 24.125 74.21875 28.421875 74.21875 
Q 39.75 74.21875 46.484375 68.546875 
Q 53.21875 62.890625 53.21875 53.421875 
Q 53.21875 48.921875 51.53125 44.890625 
Q 49.859375 40.875 45.40625 35.40625 
Q 44.1875 33.984375 37.640625 27.21875 
Q 31.109375 20.453125 19.1875 8.296875 
z
" id="DejaVuSans-32"/>
      </defs>
      <g transform="translate(96.678407 322.182437)scale(0.1 -0.1)">
       <use xlink:href="#DejaVuSans-32"/>
       <use x="63.623047" xlink:href="#DejaVuSans-30"/>
       <use x="127.246094" xlink:href="#DejaVuSans-30"/>
      </g>
     </g>
    </g>
    <g id="xtick_3">
     <g id="line2d_5">
      <path clip-path="url(#pa3cd935dcf)" d="M 148.341052 307.584 
L 148.341052 41.472 
" style="fill:none;stroke:#b0b0b0;stroke-linecap:square;stroke-opacity:0.5;stroke-width:0.8;"/>
     </g>
     <g id="line2d_6">
      <g>
       <use style="stroke:#000000;stroke-width:0.8;" x="148.341052" xlink:href="#m63e9980eb0" y="307.584"/>
      </g>
     </g>
     <g id="text_3">
      <!-- 300 -->
      <defs>
       <path d="M 40.578125 39.3125 
Q 47.65625 37.796875 51.625 33 
Q 55.609375 28.21875 55.609375 21.1875 
Q 55.609375 10.40625 48.1875 4.484375 
Q 40.765625 -1.421875 27.09375 -1.421875 
Q 22.515625 -1.421875 17.65625 -0.515625 
Q 12.796875 0.390625 7.625 2.203125 
L 7.625 11.71875 
Q 11.71875 9.328125 16.59375 8.109375 
Q 21.484375 6.890625 26.8125 6.890625 
Q 36.078125 6.890625 40.9375 10.546875 
Q 45.796875 14.203125 45.796875 21.1875 
Q 45.796875 27.640625 41.28125 31.265625 
Q 36.765625 34.90625 28.71875 34.90625 
L 20.21875 34.90625 
L 20.21875 43.015625 
L 29.109375 43.015625 
Q 36.375 43.015625 40.234375 45.921875 
Q 44.09375 48.828125 44.09375 54.296875 
Q 44.09375 59.90625 40.109375 62.90625 
Q 36.140625 65.921875 28.71875 65.921875 
Q 24.65625 65.921875 20.015625 65.03125 
Q 15.375 64.15625 9.8125 62.3125 
L 9.8125 71.09375 
Q 15.4375 72.65625 20.34375 73.4375 
Q 25.25 74.21875 29.59375 74.21875 
Q 40.828125 74.21875 47.359375 69.109375 
Q 53.90625 64.015625 53.90625 55.328125 
Q 53.90625 49.265625 50.4375 45.09375 
Q 46.96875 40.921875 40.578125 39.3125 
z
" id="DejaVuSans-33"/>
      </defs>
      <g transform="translate(138.797302 322.182437)scale(0.1 -0.1)">
       <use xlink:href="#DejaVuSans-33"/>
       <use x="63.623047" xlink:href="#DejaVuSans-30"/>
       <use x="127.246094" xlink:href="#DejaVuSans-30"/>
      </g>
     </g>
    </g>
    <g id="xtick_4">
     <g id="line2d_7">
      <path clip-path="url(#pa3cd935dcf)" d="M 190.459946 307.584 
L 190.459946 41.472 
" style="fill:none;stroke:#b0b0b0;stroke-linecap:square;stroke-opacity:0.5;stroke-width:0.8;"/>
     </g>
     <g id="line2d_8">
      <g>
       <use style="stroke:#000000;stroke-width:0.8;" x="190.459946" xlink:href="#m63e9980eb0" y="307.584"/>
      </g>
     </g>
     <g id="text_4">
      <!-- 400 -->
      <defs>
       <path d="M 37.796875 64.3125 
L 12.890625 25.390625 
L 37.796875 25.390625 
z
M 35.203125 72.90625 
L 47.609375 72.90625 
L 47.609375 25.390625 
L 58.015625 25.390625 
L 58.015625 17.1875 
L 47.609375 17.1875 
L 47.609375 0 
L 37.796875 0 
L 37.796875 17.1875 
L 4.890625 17.1875 
L 4.890625 26.703125 
z
" id="DejaVuSans-34"/>
      </defs>
      <g transform="translate(180.916196 322.182437)scale(0.1 -0.1)">
       <use xlink:href="#DejaVuSans-34"/>
       <use x="63.623047" xlink:href="#DejaVuSans-30"/>
       <use x="127.246094" xlink:href="#DejaVuSans-30"/>
      </g>
     </g>
    </g>
    <g id="xtick_5">
     <g id="line2d_9">
      <path clip-path="url(#pa3cd935dcf)" d="M 232.578841 307.584 
L 232.578841 41.472 
" style="fill:none;stroke:#b0b0b0;stroke-linecap:square;stroke-opacity:0.5;stroke-width:0.8;"/>
     </g>
     <g id="line2d_10">
      <g>
       <use style="stroke:#000000;stroke-width:0.8;" x="232.578841" xlink:href="#m63e9980eb0" y="307.584"/>
      </g>
     </g>
     <g id="text_5">
      <!-- 500 -->
      <defs>
       <path d="M 10.796875 72.90625 
L 49.515625 72.90625 
L 49.515625 64.59375 
L 19.828125 64.59375 
L 19.828125 46.734375 
Q 21.96875 47.46875 24.109375 47.828125 
Q 26.265625 48.1875 28.421875 48.1875 
Q 40.625 48.1875 47.75 41.5 
Q 54.890625 34.8125 54.890625 23.390625 
Q 54.890625 11.625 47.5625 5.09375 
Q 40.234375 -1.421875 26.90625 -1.421875 
Q 22.3125 -1.421875 17.546875 -0.640625 
Q 12.796875 0.140625 7.71875 1.703125 
L 7.71875 11.625 
Q 12.109375 9.234375 16.796875 8.0625 
Q 21.484375 6.890625 26.703125 6.890625 
Q 35.15625 6.890625 40.078125 11.328125 
Q 45.015625 15.765625 45.015625 23.390625 
Q 45.015625 31 40.078125 35.4375 
Q 35.15625 39.890625 26.703125 39.890625 
Q 22.75 39.890625 18.8125 39.015625 
Q 14.890625 38.140625 10.796875 36.28125 
z
" id="DejaVuSans-35"/>
      </defs>
      <g transform="translate(223.035091 322.182437)scale(0.1 -0.1)">
       <use xlink:href="#DejaVuSans-35"/>
       <use x="63.623047" xlink:href="#DejaVuSans-30"/>
       <use x="127.246094" xlink:href="#DejaVuSans-30"/>
      </g>
     </g>
    </g>
    <g id="xtick_6">
     <g id="line2d_11">
      <path clip-path="url(#pa3cd935dcf)" d="M 274.697736 307.584 
L 274.697736 41.472 
" style="fill:none;stroke:#b0b0b0;stroke-linecap:square;stroke-opacity:0.5;stroke-width:0.8;"/>
     </g>
     <g id="line2d_12">
      <g>
       <use style="stroke:#000000;stroke-width:0.8;" x="274.697736" xlink:href="#m63e9980eb0" y="307.584"/>
      </g>
     </g>
     <g id="text_6">
      <!-- 600 -->
      <defs>
       <path d="M 33.015625 40.375 
Q 26.375 40.375 22.484375 35.828125 
Q 18.609375 31.296875 18.609375 23.390625 
Q 18.609375 15.53125 22.484375 10.953125 
Q 26.375 6.390625 33.015625 6.390625 
Q 39.65625 6.390625 43.53125 10.953125 
Q 47.40625 15.53125 47.40625 23.390625 
Q 47.40625 31.296875 43.53125 35.828125 
Q 39.65625 40.375 33.015625 40.375 
z
M 52.59375 71.296875 
L 52.59375 62.3125 
Q 48.875 64.0625 45.09375 64.984375 
Q 41.3125 65.921875 37.59375 65.921875 
Q 27.828125 65.921875 22.671875 59.328125 
Q 17.53125 52.734375 16.796875 39.40625 
Q 19.671875 43.65625 24.015625 45.921875 
Q 28.375 48.1875 33.59375 48.1875 
Q 44.578125 48.1875 50.953125 41.515625 
Q 57.328125 34.859375 57.328125 23.390625 
Q 57.328125 12.15625 50.6875 5.359375 
Q 44.046875 -1.421875 33.015625 -1.421875 
Q 20.359375 -1.421875 13.671875 8.265625 
Q 6.984375 17.96875 6.984375 36.375 
Q 6.984375 53.65625 15.1875 63.9375 
Q 23.390625 74.21875 37.203125 74.21875 
Q 40.921875 74.21875 44.703125 73.484375 
Q 48.484375 72.75 52.59375 71.296875 
z
" id="DejaVuSans-36"/>
      </defs>
      <g transform="translate(265.153986 322.182437)scale(0.1 -0.1)">
       <use xlink:href="#DejaVuSans-36"/>
       <use x="63.623047" xlink:href="#DejaVuSans-30"/>
       <use x="127.246094" xlink:href="#DejaVuSans-30"/>
      </g>
     </g>
    </g>
    <g id="xtick_7">
     <g id="line2d_13">
      <path clip-path="url(#pa3cd935dcf)" d="M 316.81663 307.584 
L 316.81663 41.472 
" style="fill:none;stroke:#b0b0b0;stroke-linecap:square;stroke-opacity:0.5;stroke-width:0.8;"/>
     </g>
     <g id="line2d_14">
      <g>
       <use style="stroke:#000000;stroke-width:0.8;" x="316.81663" xlink:href="#m63e9980eb0" y="307.584"/>
      </g>
     </g>
     <g id="text_7">
      <!-- 700 -->
      <defs>
       <path d="M 8.203125 72.90625 
L 55.078125 72.90625 
L 55.078125 68.703125 
L 28.609375 0 
L 18.3125 0 
L 43.21875 64.59375 
L 8.203125 64.59375 
z
" id="DejaVuSans-37"/>
      </defs>
      <g transform="translate(307.27288 322.182437)scale(0.1 -0.1)">
       <use xlink:href="#DejaVuSans-37"/>
       <use x="63.623047" xlink:href="#DejaVuSans-30"/>
       <use x="127.246094" xlink:href="#DejaVuSans-30"/>
      </g>
     </g>
    </g>
    <g id="xtick_8">
     <g id="line2d_15">
      <path clip-path="url(#pa3cd935dcf)" d="M 358.935525 307.584 
L 358.935525 41.472 
" style="fill:none;stroke:#b0b0b0;stroke-linecap:square;stroke-opacity:0.5;stroke-width:0.8;"/>
     </g>
     <g id="line2d_16">
      <g>
       <use style="stroke:#000000;stroke-width:0.8;" x="358.935525" xlink:href="#m63e9980eb0" y="307.584"/>
      </g>
     </g>
     <g id="text_8">
      <!-- 800 -->
      <defs>
       <path d="M 31.78125 34.625 
Q 24.75 34.625 20.71875 30.859375 
Q 16.703125 27.09375 16.703125 20.515625 
Q 16.703125 13.921875 20.71875 10.15625 
Q 24.75 6.390625 31.78125 6.390625 
Q 38.8125 6.390625 42.859375 10.171875 
Q 46.921875 13.96875 46.921875 20.515625 
Q 46.921875 27.09375 42.890625 30.859375 
Q 38.875 34.625 31.78125 34.625 
z
M 21.921875 38.8125 
Q 15.578125 40.375 12.03125 44.71875 
Q 8.5 49.078125 8.5 55.328125 
Q 8.5 64.0625 14.71875 69.140625 
Q 20.953125 74.21875 31.78125 74.21875 
Q 42.671875 74.21875 48.875 69.140625 
Q 55.078125 64.0625 55.078125 55.328125 
Q 55.078125 49.078125 51.53125 44.71875 
Q 48 40.375 41.703125 38.8125 
Q 48.828125 37.15625 52.796875 32.3125 
Q 56.78125 27.484375 56.78125 20.515625 
Q 56.78125 9.90625 50.3125 4.234375 
Q 43.84375 -1.421875 31.78125 -1.421875 
Q 19.734375 -1.421875 13.25 4.234375 
Q 6.78125 9.90625 6.78125 20.515625 
Q 6.78125 27.484375 10.78125 32.3125 
Q 14.796875 37.15625 21.921875 38.8125 
z
M 18.3125 54.390625 
Q 18.3125 48.734375 21.84375 45.5625 
Q 25.390625 42.390625 31.78125 42.390625 
Q 38.140625 42.390625 41.71875 45.5625 
Q 45.3125 48.734375 45.3125 54.390625 
Q 45.3125 60.0625 41.71875 63.234375 
Q 38.140625 66.40625 31.78125 66.40625 
Q 25.390625 66.40625 21.84375 63.234375 
Q 18.3125 60.0625 18.3125 54.390625 
z
" id="DejaVuSans-38"/>
      </defs>
      <g transform="translate(349.391775 322.182437)scale(0.1 -0.1)">
       <use xlink:href="#DejaVuSans-38"/>
       <use x="63.623047" xlink:href="#DejaVuSans-30"/>
       <use x="127.246094" xlink:href="#DejaVuSans-30"/>
      </g>
     </g>
    </g>
    <g id="xtick_9">
     <g id="line2d_17">
      <path clip-path="url(#pa3cd935dcf)" d="M 401.054419 307.584 
L 401.054419 41.472 
" style="fill:none;stroke:#b0b0b0;stroke-linecap:square;stroke-opacity:0.5;stroke-width:0.8;"/>
     </g>
     <g id="line2d_18">
      <g>
       <use style="stroke:#000000;stroke-width:0.8;" x="401.054419" xlink:href="#m63e9980eb0" y="307.584"/>
      </g>
     </g>
     <g id="text_9">
      <!-- 900 -->
      <defs>
       <path d="M 10.984375 1.515625 
L 10.984375 10.5 
Q 14.703125 8.734375 18.5 7.8125 
Q 22.3125 6.890625 25.984375 6.890625 
Q 35.75 6.890625 40.890625 13.453125 
Q 46.046875 20.015625 46.78125 33.40625 
Q 43.953125 29.203125 39.59375 26.953125 
Q 35.25 24.703125 29.984375 24.703125 
Q 19.046875 24.703125 12.671875 31.3125 
Q 6.296875 37.9375 6.296875 49.421875 
Q 6.296875 60.640625 12.9375 67.421875 
Q 19.578125 74.21875 30.609375 74.21875 
Q 43.265625 74.21875 49.921875 64.515625 
Q 56.59375 54.828125 56.59375 36.375 
Q 56.59375 19.140625 48.40625 8.859375 
Q 40.234375 -1.421875 26.421875 -1.421875 
Q 22.703125 -1.421875 18.890625 -0.6875 
Q 15.09375 0.046875 10.984375 1.515625 
z
M 30.609375 32.421875 
Q 37.25 32.421875 41.125 36.953125 
Q 45.015625 41.5 45.015625 49.421875 
Q 45.015625 57.28125 41.125 61.84375 
Q 37.25 66.40625 30.609375 66.40625 
Q 23.96875 66.40625 20.09375 61.84375 
Q 16.21875 57.28125 16.21875 49.421875 
Q 16.21875 41.5 20.09375 36.953125 
Q 23.96875 32.421875 30.609375 32.421875 
z
" id="DejaVuSans-39"/>
      </defs>
      <g transform="translate(391.510669 322.182437)scale(0.1 -0.1)">
       <use xlink:href="#DejaVuSans-39"/>
       <use x="63.623047" xlink:href="#DejaVuSans-30"/>
       <use x="127.246094" xlink:href="#DejaVuSans-30"/>
      </g>
     </g>
    </g>
    <g id="xtick_10">
     <g id="line2d_19">
      <path clip-path="url(#pa3cd935dcf)" d="M 72.527042 307.584 
L 72.527042 41.472 
" style="fill:none;stroke:#b0b0b0;stroke-linecap:square;stroke-opacity:0.2;stroke-width:0.8;"/>
     </g>
     <g id="line2d_20">
      <defs>
       <path d="M 0 0 
L 0 2 
" id="m760f882577" style="stroke:#000000;stroke-width:0.6;"/>
      </defs>
      <g>
       <use style="stroke:#000000;stroke-width:0.6;" x="72.527042" xlink:href="#m760f882577" y="307.584"/>
      </g>
     </g>
    </g>
    <g id="xtick_11">
     <g id="line2d_21">
      <path clip-path="url(#pa3cd935dcf)" d="M 80.95082 307.584 
L 80.95082 41.472 
" style="fill:none;stroke:#b0b0b0;stroke-linecap:square;stroke-opacity:0.2;stroke-width:0.8;"/>
     </g>
     <g id="line2d_22">
      <g>
       <use style="stroke:#000000;stroke-width:0.6;" x="80.95082" xlink:href="#m760f882577" y="307.584"/>
      </g>
     </g>
    </g>
    <g id="xtick_12">
     <g id="line2d_23">
      <path clip-path="url(#pa3cd935dcf)" d="M 89.374599 307.584 
L 89.374599 41.472 
" style="fill:none;stroke:#b0b0b0;stroke-linecap:square;stroke-opacity:0.2;stroke-width:0.8;"/>
     </g>
     <g id="line2d_24">
      <g>
       <use style="stroke:#000000;stroke-width:0.6;" x="89.374599" xlink:href="#m760f882577" y="307.584"/>
      </g>
     </g>
    </g>
    <g id="xtick_13">
     <g id="line2d_25">
      <path clip-path="url(#pa3cd935dcf)" d="M 97.798378 307.584 
L 97.798378 41.472 
" style="fill:none;stroke:#b0b0b0;stroke-linecap:square;stroke-opacity:0.2;stroke-width:0.8;"/>
     </g>
     <g id="line2d_26">
      <g>
       <use style="stroke:#000000;stroke-width:0.6;" x="97.798378" xlink:href="#m760f882577" y="307.584"/>
      </g>
     </g>
    </g>
    <g id="xtick_14">
     <g id="line2d_27">
      <path clip-path="url(#pa3cd935dcf)" d="M 114.645936 307.584 
L 114.645936 41.472 
" style="fill:none;stroke:#b0b0b0;stroke-linecap:square;stroke-opacity:0.2;stroke-width:0.8;"/>
     </g>
     <g id="line2d_28">
      <g>
       <use style="stroke:#000000;stroke-width:0.6;" x="114.645936" xlink:href="#m760f882577" y="307.584"/>
      </g>
     </g>
    </g>
    <g id="xtick_15">
     <g id="line2d_29">
      <path clip-path="url(#pa3cd935dcf)" d="M 123.069715 307.584 
L 123.069715 41.472 
" style="fill:none;stroke:#b0b0b0;stroke-linecap:square;stroke-opacity:0.2;stroke-width:0.8;"/>
     </g>
     <g id="line2d_30">
      <g>
       <use style="stroke:#000000;stroke-width:0.6;" x="123.069715" xlink:href="#m760f882577" y="307.584"/>
      </g>
     </g>
    </g>
    <g id="xtick_16">
     <g id="line2d_31">
      <path clip-path="url(#pa3cd935dcf)" d="M 131.493494 307.584 
L 131.493494 41.472 
" style="fill:none;stroke:#b0b0b0;stroke-linecap:square;stroke-opacity:0.2;stroke-width:0.8;"/>
     </g>
     <g id="line2d_32">
      <g>
       <use style="stroke:#000000;stroke-width:0.6;" x="131.493494" xlink:href="#m760f882577" y="307.584"/>
      </g>
     </g>
    </g>
    <g id="xtick_17">
     <g id="line2d_33">
      <path clip-path="url(#pa3cd935dcf)" d="M 139.917273 307.584 
L 139.917273 41.472 
" style="fill:none;stroke:#b0b0b0;stroke-linecap:square;stroke-opacity:0.2;stroke-width:0.8;"/>
     </g>
     <g id="line2d_34">
      <g>
       <use style="stroke:#000000;stroke-width:0.6;" x="139.917273" xlink:href="#m760f882577" y="307.584"/>
      </g>
     </g>
    </g>
    <g id="xtick_18">
     <g id="line2d_35">
      <path clip-path="url(#pa3cd935dcf)" d="M 156.764831 307.584 
L 156.764831 41.472 
" style="fill:none;stroke:#b0b0b0;stroke-linecap:square;stroke-opacity:0.2;stroke-width:0.8;"/>
     </g>
     <g id="line2d_36">
      <g>
       <use style="stroke:#000000;stroke-width:0.6;" x="156.764831" xlink:href="#m760f882577" y="307.584"/>
      </g>
     </g>
    </g>
    <g id="xtick_19">
     <g id="line2d_37">
      <path clip-path="url(#pa3cd935dcf)" d="M 165.18861 307.584 
L 165.18861 41.472 
" style="fill:none;stroke:#b0b0b0;stroke-linecap:square;stroke-opacity:0.2;stroke-width:0.8;"/>
     </g>
     <g id="line2d_38">
      <g>
       <use style="stroke:#000000;stroke-width:0.6;" x="165.18861" xlink:href="#m760f882577" y="307.584"/>
      </g>
     </g>
    </g>
    <g id="xtick_20">
     <g id="line2d_39">
      <path clip-path="url(#pa3cd935dcf)" d="M 173.612389 307.584 
L 173.612389 41.472 
" style="fill:none;stroke:#b0b0b0;stroke-linecap:square;stroke-opacity:0.2;stroke-width:0.8;"/>
     </g>
     <g id="line2d_40">
      <g>
       <use style="stroke:#000000;stroke-width:0.6;" x="173.612389" xlink:href="#m760f882577" y="307.584"/>
      </g>
     </g>
    </g>
    <g id="xtick_21">
     <g id="line2d_41">
      <path clip-path="url(#pa3cd935dcf)" d="M 182.036167 307.584 
L 182.036167 41.472 
" style="fill:none;stroke:#b0b0b0;stroke-linecap:square;stroke-opacity:0.2;stroke-width:0.8;"/>
     </g>
     <g id="line2d_42">
      <g>
       <use style="stroke:#000000;stroke-width:0.6;" x="182.036167" xlink:href="#m760f882577" y="307.584"/>
      </g>
     </g>
    </g>
    <g id="xtick_22">
     <g id="line2d_43">
      <path clip-path="url(#pa3cd935dcf)" d="M 198.883725 307.584 
L 198.883725 41.472 
" style="fill:none;stroke:#b0b0b0;stroke-linecap:square;stroke-opacity:0.2;stroke-width:0.8;"/>
     </g>
     <g id="line2d_44">
      <g>
       <use style="stroke:#000000;stroke-width:0.6;" x="198.883725" xlink:href="#m760f882577" y="307.584"/>
      </g>
     </g>
    </g>
    <g id="xtick_23">
     <g id="line2d_45">
      <path clip-path="url(#pa3cd935dcf)" d="M 207.307504 307.584 
L 207.307504 41.472 
" style="fill:none;stroke:#b0b0b0;stroke-linecap:square;stroke-opacity:0.2;stroke-width:0.8;"/>
     </g>
     <g id="line2d_46">
      <g>
       <use style="stroke:#000000;stroke-width:0.6;" x="207.307504" xlink:href="#m760f882577" y="307.584"/>
      </g>
     </g>
    </g>
    <g id="xtick_24">
     <g id="line2d_47">
      <path clip-path="url(#pa3cd935dcf)" d="M 215.731283 307.584 
L 215.731283 41.472 
" style="fill:none;stroke:#b0b0b0;stroke-linecap:square;stroke-opacity:0.2;stroke-width:0.8;"/>
     </g>
     <g id="line2d_48">
      <g>
       <use style="stroke:#000000;stroke-width:0.6;" x="215.731283" xlink:href="#m760f882577" y="307.584"/>
      </g>
     </g>
    </g>
    <g id="xtick_25">
     <g id="line2d_49">
      <path clip-path="url(#pa3cd935dcf)" d="M 224.155062 307.584 
L 224.155062 41.472 
" style="fill:none;stroke:#b0b0b0;stroke-linecap:square;stroke-opacity:0.2;stroke-width:0.8;"/>
     </g>
     <g id="line2d_50">
      <g>
       <use style="stroke:#000000;stroke-width:0.6;" x="224.155062" xlink:href="#m760f882577" y="307.584"/>
      </g>
     </g>
    </g>
    <g id="xtick_26">
     <g id="line2d_51">
      <path clip-path="url(#pa3cd935dcf)" d="M 241.00262 307.584 
L 241.00262 41.472 
" style="fill:none;stroke:#b0b0b0;stroke-linecap:square;stroke-opacity:0.2;stroke-width:0.8;"/>
     </g>
     <g id="line2d_52">
      <g>
       <use style="stroke:#000000;stroke-width:0.6;" x="241.00262" xlink:href="#m760f882577" y="307.584"/>
      </g>
     </g>
    </g>
    <g id="xtick_27">
     <g id="line2d_53">
      <path clip-path="url(#pa3cd935dcf)" d="M 249.426399 307.584 
L 249.426399 41.472 
" style="fill:none;stroke:#b0b0b0;stroke-linecap:square;stroke-opacity:0.2;stroke-width:0.8;"/>
     </g>
     <g id="line2d_54">
      <g>
       <use style="stroke:#000000;stroke-width:0.6;" x="249.426399" xlink:href="#m760f882577" y="307.584"/>
      </g>
     </g>
    </g>
    <g id="xtick_28">
     <g id="line2d_55">
      <path clip-path="url(#pa3cd935dcf)" d="M 257.850178 307.584 
L 257.850178 41.472 
" style="fill:none;stroke:#b0b0b0;stroke-linecap:square;stroke-opacity:0.2;stroke-width:0.8;"/>
     </g>
     <g id="line2d_56">
      <g>
       <use style="stroke:#000000;stroke-width:0.6;" x="257.850178" xlink:href="#m760f882577" y="307.584"/>
      </g>
     </g>
    </g>
    <g id="xtick_29">
     <g id="line2d_57">
      <path clip-path="url(#pa3cd935dcf)" d="M 266.273957 307.584 
L 266.273957 41.472 
" style="fill:none;stroke:#b0b0b0;stroke-linecap:square;stroke-opacity:0.2;stroke-width:0.8;"/>
     </g>
     <g id="line2d_58">
      <g>
       <use style="stroke:#000000;stroke-width:0.6;" x="266.273957" xlink:href="#m760f882577" y="307.584"/>
      </g>
     </g>
    </g>
    <g id="xtick_30">
     <g id="line2d_59">
      <path clip-path="url(#pa3cd935dcf)" d="M 283.121514 307.584 
L 283.121514 41.472 
" style="fill:none;stroke:#b0b0b0;stroke-linecap:square;stroke-opacity:0.2;stroke-width:0.8;"/>
     </g>
     <g id="line2d_60">
      <g>
       <use style="stroke:#000000;stroke-width:0.6;" x="283.121514" xlink:href="#m760f882577" y="307.584"/>
      </g>
     </g>
    </g>
    <g id="xtick_31">
     <g id="line2d_61">
      <path clip-path="url(#pa3cd935dcf)" d="M 291.545293 307.584 
L 291.545293 41.472 
" style="fill:none;stroke:#b0b0b0;stroke-linecap:square;stroke-opacity:0.2;stroke-width:0.8;"/>
     </g>
     <g id="line2d_62">
      <g>
       <use style="stroke:#000000;stroke-width:0.6;" x="291.545293" xlink:href="#m760f882577" y="307.584"/>
      </g>
     </g>
    </g>
    <g id="xtick_32">
     <g id="line2d_63">
      <path clip-path="url(#pa3cd935dcf)" d="M 299.969072 307.584 
L 299.969072 41.472 
" style="fill:none;stroke:#b0b0b0;stroke-linecap:square;stroke-opacity:0.2;stroke-width:0.8;"/>
     </g>
     <g id="line2d_64">
      <g>
       <use style="stroke:#000000;stroke-width:0.6;" x="299.969072" xlink:href="#m760f882577" y="307.584"/>
      </g>
     </g>
    </g>
    <g id="xtick_33">
     <g id="line2d_65">
      <path clip-path="url(#pa3cd935dcf)" d="M 308.392851 307.584 
L 308.392851 41.472 
" style="fill:none;stroke:#b0b0b0;stroke-linecap:square;stroke-opacity:0.2;stroke-width:0.8;"/>
     </g>
     <g id="line2d_66">
      <g>
       <use style="stroke:#000000;stroke-width:0.6;" x="308.392851" xlink:href="#m760f882577" y="307.584"/>
      </g>
     </g>
    </g>
    <g id="xtick_34">
     <g id="line2d_67">
      <path clip-path="url(#pa3cd935dcf)" d="M 325.240409 307.584 
L 325.240409 41.472 
" style="fill:none;stroke:#b0b0b0;stroke-linecap:square;stroke-opacity:0.2;stroke-width:0.8;"/>
     </g>
     <g id="line2d_68">
      <g>
       <use style="stroke:#000000;stroke-width:0.6;" x="325.240409" xlink:href="#m760f882577" y="307.584"/>
      </g>
     </g>
    </g>
    <g id="xtick_35">
     <g id="line2d_69">
      <path clip-path="url(#pa3cd935dcf)" d="M 333.664188 307.584 
L 333.664188 41.472 
" style="fill:none;stroke:#b0b0b0;stroke-linecap:square;stroke-opacity:0.2;stroke-width:0.8;"/>
     </g>
     <g id="line2d_70">
      <g>
       <use style="stroke:#000000;stroke-width:0.6;" x="333.664188" xlink:href="#m760f882577" y="307.584"/>
      </g>
     </g>
    </g>
    <g id="xtick_36">
     <g id="line2d_71">
      <path clip-path="url(#pa3cd935dcf)" d="M 342.087967 307.584 
L 342.087967 41.472 
" style="fill:none;stroke:#b0b0b0;stroke-linecap:square;stroke-opacity:0.2;stroke-width:0.8;"/>
     </g>
     <g id="line2d_72">
      <g>
       <use style="stroke:#000000;stroke-width:0.6;" x="342.087967" xlink:href="#m760f882577" y="307.584"/>
      </g>
     </g>
    </g>
    <g id="xtick_37">
     <g id="line2d_73">
      <path clip-path="url(#pa3cd935dcf)" d="M 350.511746 307.584 
L 350.511746 41.472 
" style="fill:none;stroke:#b0b0b0;stroke-linecap:square;stroke-opacity:0.2;stroke-width:0.8;"/>
     </g>
     <g id="line2d_74">
      <g>
       <use style="stroke:#000000;stroke-width:0.6;" x="350.511746" xlink:href="#m760f882577" y="307.584"/>
      </g>
     </g>
    </g>
    <g id="xtick_38">
     <g id="line2d_75">
      <path clip-path="url(#pa3cd935dcf)" d="M 367.359304 307.584 
L 367.359304 41.472 
" style="fill:none;stroke:#b0b0b0;stroke-linecap:square;stroke-opacity:0.2;stroke-width:0.8;"/>
     </g>
     <g id="line2d_76">
      <g>
       <use style="stroke:#000000;stroke-width:0.6;" x="367.359304" xlink:href="#m760f882577" y="307.584"/>
      </g>
     </g>
    </g>
    <g id="xtick_39">
     <g id="line2d_77">
      <path clip-path="url(#pa3cd935dcf)" d="M 375.783083 307.584 
L 375.783083 41.472 
" style="fill:none;stroke:#b0b0b0;stroke-linecap:square;stroke-opacity:0.2;stroke-width:0.8;"/>
     </g>
     <g id="line2d_78">
      <g>
       <use style="stroke:#000000;stroke-width:0.6;" x="375.783083" xlink:href="#m760f882577" y="307.584"/>
      </g>
     </g>
    </g>
    <g id="xtick_40">
     <g id="line2d_79">
      <path clip-path="url(#pa3cd935dcf)" d="M 384.206862 307.584 
L 384.206862 41.472 
" style="fill:none;stroke:#b0b0b0;stroke-linecap:square;stroke-opacity:0.2;stroke-width:0.8;"/>
     </g>
     <g id="line2d_80">
      <g>
       <use style="stroke:#000000;stroke-width:0.6;" x="384.206862" xlink:href="#m760f882577" y="307.584"/>
      </g>
     </g>
    </g>
    <g id="xtick_41">
     <g id="line2d_81">
      <path clip-path="url(#pa3cd935dcf)" d="M 392.63064 307.584 
L 392.63064 41.472 
" style="fill:none;stroke:#b0b0b0;stroke-linecap:square;stroke-opacity:0.2;stroke-width:0.8;"/>
     </g>
     <g id="line2d_82">
      <g>
       <use style="stroke:#000000;stroke-width:0.6;" x="392.63064" xlink:href="#m760f882577" y="307.584"/>
      </g>
     </g>
    </g>
    <g id="xtick_42">
     <g id="line2d_83">
      <path clip-path="url(#pa3cd935dcf)" d="M 409.478198 307.584 
L 409.478198 41.472 
" style="fill:none;stroke:#b0b0b0;stroke-linecap:square;stroke-opacity:0.2;stroke-width:0.8;"/>
     </g>
     <g id="line2d_84">
      <g>
       <use style="stroke:#000000;stroke-width:0.6;" x="409.478198" xlink:href="#m760f882577" y="307.584"/>
      </g>
     </g>
    </g>
   </g>
   <g id="matplotlib.axis_2">
    <g id="ytick_1">
     <g id="line2d_85">
      <path clip-path="url(#pa3cd935dcf)" d="M 57.6 295.488104 
L 414.72 295.488104 
" style="fill:none;stroke:#b0b0b0;stroke-linecap:square;stroke-opacity:0.5;stroke-width:0.8;"/>
     </g>
     <g id="line2d_86">
      <defs>
       <path d="M 0 0 
L -3.5 0 
" id="m32bf3955f7" style="stroke:#000000;stroke-width:0.8;"/>
      </defs>
      <g>
       <use style="stroke:#000000;stroke-width:0.8;" x="57.6" xlink:href="#m32bf3955f7" y="295.488104"/>
      </g>
     </g>
     <g id="text_10">
      <!-- 0 -->
      <g transform="translate(44.2375 299.287322)scale(0.1 -0.1)">
       <use xlink:href="#DejaVuSans-30"/>
      </g>
     </g>
    </g>
    <g id="ytick_2">
     <g id="line2d_87">
      <path clip-path="url(#pa3cd935dcf)" d="M 57.6 255.458501 
L 414.72 255.458501 
" style="fill:none;stroke:#b0b0b0;stroke-linecap:square;stroke-opacity:0.5;stroke-width:0.8;"/>
     </g>
     <g id="line2d_88">
      <g>
       <use style="stroke:#000000;stroke-width:0.8;" x="57.6" xlink:href="#m32bf3955f7" y="255.458501"/>
      </g>
     </g>
     <g id="text_11">
      <!-- 100 -->
      <g transform="translate(31.5125 259.25772)scale(0.1 -0.1)">
       <use xlink:href="#DejaVuSans-31"/>
       <use x="63.623047" xlink:href="#DejaVuSans-30"/>
       <use x="127.246094" xlink:href="#DejaVuSans-30"/>
      </g>
     </g>
    </g>
    <g id="ytick_3">
     <g id="line2d_89">
      <path clip-path="url(#pa3cd935dcf)" d="M 57.6 215.428899 
L 414.72 215.428899 
" style="fill:none;stroke:#b0b0b0;stroke-linecap:square;stroke-opacity:0.5;stroke-width:0.8;"/>
     </g>
     <g id="line2d_90">
      <g>
       <use style="stroke:#000000;stroke-width:0.8;" x="57.6" xlink:href="#m32bf3955f7" y="215.428899"/>
      </g>
     </g>
     <g id="text_12">
      <!-- 200 -->
      <g transform="translate(31.5125 219.228117)scale(0.1 -0.1)">
       <use xlink:href="#DejaVuSans-32"/>
       <use x="63.623047" xlink:href="#DejaVuSans-30"/>
       <use x="127.246094" xlink:href="#DejaVuSans-30"/>
      </g>
     </g>
    </g>
    <g id="ytick_4">
     <g id="line2d_91">
      <path clip-path="url(#pa3cd935dcf)" d="M 57.6 175.399296 
L 414.72 175.399296 
" style="fill:none;stroke:#b0b0b0;stroke-linecap:square;stroke-opacity:0.5;stroke-width:0.8;"/>
     </g>
     <g id="line2d_92">
      <g>
       <use style="stroke:#000000;stroke-width:0.8;" x="57.6" xlink:href="#m32bf3955f7" y="175.399296"/>
      </g>
     </g>
     <g id="text_13">
      <!-- 300 -->
      <g transform="translate(31.5125 179.198515)scale(0.1 -0.1)">
       <use xlink:href="#DejaVuSans-33"/>
       <use x="63.623047" xlink:href="#DejaVuSans-30"/>
       <use x="127.246094" xlink:href="#DejaVuSans-30"/>
      </g>
     </g>
    </g>
    <g id="ytick_5">
     <g id="line2d_93">
      <path clip-path="url(#pa3cd935dcf)" d="M 57.6 135.369694 
L 414.72 135.369694 
" style="fill:none;stroke:#b0b0b0;stroke-linecap:square;stroke-opacity:0.5;stroke-width:0.8;"/>
     </g>
     <g id="line2d_94">
      <g>
       <use style="stroke:#000000;stroke-width:0.8;" x="57.6" xlink:href="#m32bf3955f7" y="135.369694"/>
      </g>
     </g>
     <g id="text_14">
      <!-- 400 -->
      <g transform="translate(31.5125 139.168912)scale(0.1 -0.1)">
       <use xlink:href="#DejaVuSans-34"/>
       <use x="63.623047" xlink:href="#DejaVuSans-30"/>
       <use x="127.246094" xlink:href="#DejaVuSans-30"/>
      </g>
     </g>
    </g>
    <g id="ytick_6">
     <g id="line2d_95">
      <path clip-path="url(#pa3cd935dcf)" d="M 57.6 95.340091 
L 414.72 95.340091 
" style="fill:none;stroke:#b0b0b0;stroke-linecap:square;stroke-opacity:0.5;stroke-width:0.8;"/>
     </g>
     <g id="line2d_96">
      <g>
       <use style="stroke:#000000;stroke-width:0.8;" x="57.6" xlink:href="#m32bf3955f7" y="95.340091"/>
      </g>
     </g>
     <g id="text_15">
      <!-- 500 -->
      <g transform="translate(31.5125 99.13931)scale(0.1 -0.1)">
       <use xlink:href="#DejaVuSans-35"/>
       <use x="63.623047" xlink:href="#DejaVuSans-30"/>
       <use x="127.246094" xlink:href="#DejaVuSans-30"/>
      </g>
     </g>
    </g>
    <g id="ytick_7">
     <g id="line2d_97">
      <path clip-path="url(#pa3cd935dcf)" d="M 57.6 55.310489 
L 414.72 55.310489 
" style="fill:none;stroke:#b0b0b0;stroke-linecap:square;stroke-opacity:0.5;stroke-width:0.8;"/>
     </g>
     <g id="line2d_98">
      <g>
       <use style="stroke:#000000;stroke-width:0.8;" x="57.6" xlink:href="#m32bf3955f7" y="55.310489"/>
      </g>
     </g>
     <g id="text_16">
      <!-- 600 -->
      <g transform="translate(31.5125 59.109707)scale(0.1 -0.1)">
       <use xlink:href="#DejaVuSans-36"/>
       <use x="63.623047" xlink:href="#DejaVuSans-30"/>
       <use x="127.246094" xlink:href="#DejaVuSans-30"/>
      </g>
     </g>
    </g>
    <g id="ytick_8">
     <g id="line2d_99">
      <path clip-path="url(#pa3cd935dcf)" d="M 57.6 303.494024 
L 414.72 303.494024 
" style="fill:none;stroke:#b0b0b0;stroke-linecap:square;stroke-opacity:0.2;stroke-width:0.8;"/>
     </g>
     <g id="line2d_100">
      <defs>
       <path d="M 0 0 
L -2 0 
" id="mc99944ea36" style="stroke:#000000;stroke-width:0.6;"/>
      </defs>
      <g>
       <use style="stroke:#000000;stroke-width:0.6;" x="57.6" xlink:href="#mc99944ea36" y="303.494024"/>
      </g>
     </g>
    </g>
    <g id="ytick_9">
     <g id="line2d_101">
      <path clip-path="url(#pa3cd935dcf)" d="M 57.6 287.482183 
L 414.72 287.482183 
" style="fill:none;stroke:#b0b0b0;stroke-linecap:square;stroke-opacity:0.2;stroke-width:0.8;"/>
     </g>
     <g id="line2d_102">
      <g>
       <use style="stroke:#000000;stroke-width:0.6;" x="57.6" xlink:href="#mc99944ea36" y="287.482183"/>
      </g>
     </g>
    </g>
    <g id="ytick_10">
     <g id="line2d_103">
      <path clip-path="url(#pa3cd935dcf)" d="M 57.6 279.476263 
L 414.72 279.476263 
" style="fill:none;stroke:#b0b0b0;stroke-linecap:square;stroke-opacity:0.2;stroke-width:0.8;"/>
     </g>
     <g id="line2d_104">
      <g>
       <use style="stroke:#000000;stroke-width:0.6;" x="57.6" xlink:href="#mc99944ea36" y="279.476263"/>
      </g>
     </g>
    </g>
    <g id="ytick_11">
     <g id="line2d_105">
      <path clip-path="url(#pa3cd935dcf)" d="M 57.6 271.470342 
L 414.72 271.470342 
" style="fill:none;stroke:#b0b0b0;stroke-linecap:square;stroke-opacity:0.2;stroke-width:0.8;"/>
     </g>
     <g id="line2d_106">
      <g>
       <use style="stroke:#000000;stroke-width:0.6;" x="57.6" xlink:href="#mc99944ea36" y="271.470342"/>
      </g>
     </g>
    </g>
    <g id="ytick_12">
     <g id="line2d_107">
      <path clip-path="url(#pa3cd935dcf)" d="M 57.6 263.464422 
L 414.72 263.464422 
" style="fill:none;stroke:#b0b0b0;stroke-linecap:square;stroke-opacity:0.2;stroke-width:0.8;"/>
     </g>
     <g id="line2d_108">
      <g>
       <use style="stroke:#000000;stroke-width:0.6;" x="57.6" xlink:href="#mc99944ea36" y="263.464422"/>
      </g>
     </g>
    </g>
    <g id="ytick_13">
     <g id="line2d_109">
      <path clip-path="url(#pa3cd935dcf)" d="M 57.6 247.452581 
L 414.72 247.452581 
" style="fill:none;stroke:#b0b0b0;stroke-linecap:square;stroke-opacity:0.2;stroke-width:0.8;"/>
     </g>
     <g id="line2d_110">
      <g>
       <use style="stroke:#000000;stroke-width:0.6;" x="57.6" xlink:href="#mc99944ea36" y="247.452581"/>
      </g>
     </g>
    </g>
    <g id="ytick_14">
     <g id="line2d_111">
      <path clip-path="url(#pa3cd935dcf)" d="M 57.6 239.44666 
L 414.72 239.44666 
" style="fill:none;stroke:#b0b0b0;stroke-linecap:square;stroke-opacity:0.2;stroke-width:0.8;"/>
     </g>
     <g id="line2d_112">
      <g>
       <use style="stroke:#000000;stroke-width:0.6;" x="57.6" xlink:href="#mc99944ea36" y="239.44666"/>
      </g>
     </g>
    </g>
    <g id="ytick_15">
     <g id="line2d_113">
      <path clip-path="url(#pa3cd935dcf)" d="M 57.6 231.44074 
L 414.72 231.44074 
" style="fill:none;stroke:#b0b0b0;stroke-linecap:square;stroke-opacity:0.2;stroke-width:0.8;"/>
     </g>
     <g id="line2d_114">
      <g>
       <use style="stroke:#000000;stroke-width:0.6;" x="57.6" xlink:href="#mc99944ea36" y="231.44074"/>
      </g>
     </g>
    </g>
    <g id="ytick_16">
     <g id="line2d_115">
      <path clip-path="url(#pa3cd935dcf)" d="M 57.6 223.434819 
L 414.72 223.434819 
" style="fill:none;stroke:#b0b0b0;stroke-linecap:square;stroke-opacity:0.2;stroke-width:0.8;"/>
     </g>
     <g id="line2d_116">
      <g>
       <use style="stroke:#000000;stroke-width:0.6;" x="57.6" xlink:href="#mc99944ea36" y="223.434819"/>
      </g>
     </g>
    </g>
    <g id="ytick_17">
     <g id="line2d_117">
      <path clip-path="url(#pa3cd935dcf)" d="M 57.6 207.422978 
L 414.72 207.422978 
" style="fill:none;stroke:#b0b0b0;stroke-linecap:square;stroke-opacity:0.2;stroke-width:0.8;"/>
     </g>
     <g id="line2d_118">
      <g>
       <use style="stroke:#000000;stroke-width:0.6;" x="57.6" xlink:href="#mc99944ea36" y="207.422978"/>
      </g>
     </g>
    </g>
    <g id="ytick_18">
     <g id="line2d_119">
      <path clip-path="url(#pa3cd935dcf)" d="M 57.6 199.417058 
L 414.72 199.417058 
" style="fill:none;stroke:#b0b0b0;stroke-linecap:square;stroke-opacity:0.2;stroke-width:0.8;"/>
     </g>
     <g id="line2d_120">
      <g>
       <use style="stroke:#000000;stroke-width:0.6;" x="57.6" xlink:href="#mc99944ea36" y="199.417058"/>
      </g>
     </g>
    </g>
    <g id="ytick_19">
     <g id="line2d_121">
      <path clip-path="url(#pa3cd935dcf)" d="M 57.6 191.411137 
L 414.72 191.411137 
" style="fill:none;stroke:#b0b0b0;stroke-linecap:square;stroke-opacity:0.2;stroke-width:0.8;"/>
     </g>
     <g id="line2d_122">
      <g>
       <use style="stroke:#000000;stroke-width:0.6;" x="57.6" xlink:href="#mc99944ea36" y="191.411137"/>
      </g>
     </g>
    </g>
    <g id="ytick_20">
     <g id="line2d_123">
      <path clip-path="url(#pa3cd935dcf)" d="M 57.6 183.405217 
L 414.72 183.405217 
" style="fill:none;stroke:#b0b0b0;stroke-linecap:square;stroke-opacity:0.2;stroke-width:0.8;"/>
     </g>
     <g id="line2d_124">
      <g>
       <use style="stroke:#000000;stroke-width:0.6;" x="57.6" xlink:href="#mc99944ea36" y="183.405217"/>
      </g>
     </g>
    </g>
    <g id="ytick_21">
     <g id="line2d_125">
      <path clip-path="url(#pa3cd935dcf)" d="M 57.6 167.393376 
L 414.72 167.393376 
" style="fill:none;stroke:#b0b0b0;stroke-linecap:square;stroke-opacity:0.2;stroke-width:0.8;"/>
     </g>
     <g id="line2d_126">
      <g>
       <use style="stroke:#000000;stroke-width:0.6;" x="57.6" xlink:href="#mc99944ea36" y="167.393376"/>
      </g>
     </g>
    </g>
    <g id="ytick_22">
     <g id="line2d_127">
      <path clip-path="url(#pa3cd935dcf)" d="M 57.6 159.387455 
L 414.72 159.387455 
" style="fill:none;stroke:#b0b0b0;stroke-linecap:square;stroke-opacity:0.2;stroke-width:0.8;"/>
     </g>
     <g id="line2d_128">
      <g>
       <use style="stroke:#000000;stroke-width:0.6;" x="57.6" xlink:href="#mc99944ea36" y="159.387455"/>
      </g>
     </g>
    </g>
    <g id="ytick_23">
     <g id="line2d_129">
      <path clip-path="url(#pa3cd935dcf)" d="M 57.6 151.381535 
L 414.72 151.381535 
" style="fill:none;stroke:#b0b0b0;stroke-linecap:square;stroke-opacity:0.2;stroke-width:0.8;"/>
     </g>
     <g id="line2d_130">
      <g>
       <use style="stroke:#000000;stroke-width:0.6;" x="57.6" xlink:href="#mc99944ea36" y="151.381535"/>
      </g>
     </g>
    </g>
    <g id="ytick_24">
     <g id="line2d_131">
      <path clip-path="url(#pa3cd935dcf)" d="M 57.6 143.375614 
L 414.72 143.375614 
" style="fill:none;stroke:#b0b0b0;stroke-linecap:square;stroke-opacity:0.2;stroke-width:0.8;"/>
     </g>
     <g id="line2d_132">
      <g>
       <use style="stroke:#000000;stroke-width:0.6;" x="57.6" xlink:href="#mc99944ea36" y="143.375614"/>
      </g>
     </g>
    </g>
    <g id="ytick_25">
     <g id="line2d_133">
      <path clip-path="url(#pa3cd935dcf)" d="M 57.6 127.363773 
L 414.72 127.363773 
" style="fill:none;stroke:#b0b0b0;stroke-linecap:square;stroke-opacity:0.2;stroke-width:0.8;"/>
     </g>
     <g id="line2d_134">
      <g>
       <use style="stroke:#000000;stroke-width:0.6;" x="57.6" xlink:href="#mc99944ea36" y="127.363773"/>
      </g>
     </g>
    </g>
    <g id="ytick_26">
     <g id="line2d_135">
      <path clip-path="url(#pa3cd935dcf)" d="M 57.6 119.357853 
L 414.72 119.357853 
" style="fill:none;stroke:#b0b0b0;stroke-linecap:square;stroke-opacity:0.2;stroke-width:0.8;"/>
     </g>
     <g id="line2d_136">
      <g>
       <use style="stroke:#000000;stroke-width:0.6;" x="57.6" xlink:href="#mc99944ea36" y="119.357853"/>
      </g>
     </g>
    </g>
    <g id="ytick_27">
     <g id="line2d_137">
      <path clip-path="url(#pa3cd935dcf)" d="M 57.6 111.351932 
L 414.72 111.351932 
" style="fill:none;stroke:#b0b0b0;stroke-linecap:square;stroke-opacity:0.2;stroke-width:0.8;"/>
     </g>
     <g id="line2d_138">
      <g>
       <use style="stroke:#000000;stroke-width:0.6;" x="57.6" xlink:href="#mc99944ea36" y="111.351932"/>
      </g>
     </g>
    </g>
    <g id="ytick_28">
     <g id="line2d_139">
      <path clip-path="url(#pa3cd935dcf)" d="M 57.6 103.346012 
L 414.72 103.346012 
" style="fill:none;stroke:#b0b0b0;stroke-linecap:square;stroke-opacity:0.2;stroke-width:0.8;"/>
     </g>
     <g id="line2d_140">
      <g>
       <use style="stroke:#000000;stroke-width:0.6;" x="57.6" xlink:href="#mc99944ea36" y="103.346012"/>
      </g>
     </g>
    </g>
    <g id="ytick_29">
     <g id="line2d_141">
      <path clip-path="url(#pa3cd935dcf)" d="M 57.6 87.334171 
L 414.72 87.334171 
" style="fill:none;stroke:#b0b0b0;stroke-linecap:square;stroke-opacity:0.2;stroke-width:0.8;"/>
     </g>
     <g id="line2d_142">
      <g>
       <use style="stroke:#000000;stroke-width:0.6;" x="57.6" xlink:href="#mc99944ea36" y="87.334171"/>
      </g>
     </g>
    </g>
    <g id="ytick_30">
     <g id="line2d_143">
      <path clip-path="url(#pa3cd935dcf)" d="M 57.6 79.32825 
L 414.72 79.32825 
" style="fill:none;stroke:#b0b0b0;stroke-linecap:square;stroke-opacity:0.2;stroke-width:0.8;"/>
     </g>
     <g id="line2d_144">
      <g>
       <use style="stroke:#000000;stroke-width:0.6;" x="57.6" xlink:href="#mc99944ea36" y="79.32825"/>
      </g>
     </g>
    </g>
    <g id="ytick_31">
     <g id="line2d_145">
      <path clip-path="url(#pa3cd935dcf)" d="M 57.6 71.32233 
L 414.72 71.32233 
" style="fill:none;stroke:#b0b0b0;stroke-linecap:square;stroke-opacity:0.2;stroke-width:0.8;"/>
     </g>
     <g id="line2d_146">
      <g>
       <use style="stroke:#000000;stroke-width:0.6;" x="57.6" xlink:href="#mc99944ea36" y="71.32233"/>
      </g>
     </g>
    </g>
    <g id="ytick_32">
     <g id="line2d_147">
      <path clip-path="url(#pa3cd935dcf)" d="M 57.6 63.316409 
L 414.72 63.316409 
" style="fill:none;stroke:#b0b0b0;stroke-linecap:square;stroke-opacity:0.2;stroke-width:0.8;"/>
     </g>
     <g id="line2d_148">
      <g>
       <use style="stroke:#000000;stroke-width:0.6;" x="57.6" xlink:href="#mc99944ea36" y="63.316409"/>
      </g>
     </g>
    </g>
    <g id="ytick_33">
     <g id="line2d_149">
      <path clip-path="url(#pa3cd935dcf)" d="M 57.6 47.304568 
L 414.72 47.304568 
" style="fill:none;stroke:#b0b0b0;stroke-linecap:square;stroke-opacity:0.2;stroke-width:0.8;"/>
     </g>
     <g id="line2d_150">
      <g>
       <use style="stroke:#000000;stroke-width:0.6;" x="57.6" xlink:href="#mc99944ea36" y="47.304568"/>
      </g>
     </g>
    </g>
   </g>
   <g id="line2d_151">
    <path clip-path="url(#pa3cd935dcf)" d="M 398.487273 294.076925 
L 387.163187 293.532382 
L 377.973265 292.880957 
L 369.846424 292.09528 
L 360.613963 290.970317 
L 350.267456 289.736815 
L 345.35513 289.39805 
L 340.983188 289.336612 
L 336.60535 289.517801 
L 331.672807 289.961346 
L 323.436036 290.983719 
L 312.972439 292.238895 
L 304.687231 293.002646 
L 295.27071 293.630893 
L 284.155955 294.133573 
L 269.646838 294.547308 
L 250.00764 294.869873 
L 220.027832 295.120386 
L 168.440609 295.300768 
L 73.832727 295.408197 
L 73.832727 295.408197 
" style="fill:none;stroke:#1f77b4;stroke-linecap:square;stroke-width:0.5;"/>
   </g>
   <g id="line2d_152">
    <path clip-path="url(#pa3cd935dcf)" d="M 398.487273 295.488 
L 224.571618 295.377405 
L 222.300567 295.171712 
L 221.732383 295.028448 
L 221.164199 294.765694 
L 220.596015 294.217091 
L 220.027832 292.877792 
L 219.459227 289.712379 
L 218.890621 289.129728 
L 218.322016 292.507471 
L 217.753411 294.07531 
L 217.184385 294.703617 
L 216.615359 294.996945 
L 215.477306 295.246657 
L 213.199095 295.394586 
L 206.926328 295.465798 
L 168.440609 295.486807 
L 73.832727 295.487946 
L 73.832727 295.487946 
" style="fill:none;stroke:#ff7f0e;stroke-linecap:square;stroke-width:0.5;"/>
   </g>
   <g id="line2d_153">
    <path clip-path="url(#pa3cd935dcf)" d="M 398.487273 295.350821 
L 317.933202 295.135736 
L 281.928286 294.836001 
L 260.684358 294.448318 
L 246.628019 293.982448 
L 236.467679 293.443549 
L 227.975246 292.774834 
L 221.164199 292.025992 
L 214.907859 291.119736 
L 208.638461 289.982983 
L 194.915704 287.346463 
L 191.475433 286.990935 
L 188.605451 286.893048 
L 185.732943 286.991105 
L 182.282563 287.348184 
L 178.251785 288.013664 
L 170.174223 289.661401 
L 163.233872 290.965093 
L 156.857492 291.921222 
L 150.467214 292.655455 
L 142.897606 293.296573 
L 133.554371 293.847385 
L 121.831841 294.30027 
L 105.928589 294.674178 
L 82.788889 294.9722 
L 73.832727 295.045591 
L 73.832727 295.045591 
" style="fill:none;stroke:#2ca02c;stroke-linecap:square;stroke-width:0.5;"/>
   </g>
   <g id="line2d_154">
    <path clip-path="url(#pa3cd935dcf)" d="M 398.487273 295.481291 
L 240.987457 295.361172 
L 222.86833 295.15655 
L 214.907859 294.865167 
L 210.349752 294.484943 
L 207.49746 294.038725 
L 205.213353 293.427 
L 203.499535 292.674921 
L 202.356428 291.921325 
L 201.2129 290.823245 
L 200.640926 290.07646 
L 200.068951 289.138524 
L 199.496976 287.939838 
L 198.924581 286.375734 
L 198.352185 284.288708 
L 197.779789 281.429247 
L 197.206972 277.38761 
L 196.634576 271.488076 
L 196.061759 262.558779 
L 195.488521 248.663997 
L 194.915704 227.206425 
L 193.769228 172.023881 
L 193.19599 174.582128 
L 192.049092 230.998804 
L 191.475433 251.189363 
L 190.901774 264.180468 
L 190.327693 272.561323 
L 189.754034 278.122454 
L 189.179953 281.949909 
L 188.605451 284.672923 
L 188.031371 286.665893 
L 187.456869 288.165245 
L 186.307866 290.222019 
L 185.15802 291.527778 
L 184.008174 292.405045 
L 182.857907 293.021843 
L 181.131454 293.651815 
L 178.827971 294.176812 
L 175.946197 294.568632 
L 171.906995 294.878625 
L 165.549147 295.12346 
L 153.954658 295.305577 
L 129.457045 295.418413 
L 73.832727 295.468128 
L 73.832727 295.468128 
" style="fill:none;stroke:#d62728;stroke-linecap:square;stroke-width:0.5;"/>
   </g>
   <g id="line2d_155">
    <path clip-path="url(#pa3cd935dcf)" d="M 398.487273 283.567548 
L 393.098581 283.462095 
L 389.322622 283.19187 
L 383.381752 282.53604 
L 379.0553 282.144928 
L 372.015126 281.599197 
L 368.761442 280.900874 
L 364.961475 280.103355 
L 362.788561 279.852151 
L 360.613963 279.846374 
L 358.438522 280.101732 
L 356.261396 280.598602 
L 353.537988 281.472273 
L 348.630716 283.124123 
L 346.993555 283.449415 
L 345.35513 283.575663 
L 342.623298 283.521197 
L 333.317971 283.097444 
L 329.478412 283.25285 
L 323.436036 283.507285 
L 320.685672 283.380522 
L 317.382287 282.913654 
L 312.420681 282.244324 
L 309.108451 282.041128 
L 305.240252 282.052454 
L 300.813135 282.081675 
L 298.042975 281.863283 
L 295.27071 281.366285 
L 286.938329 279.549407 
L 284.155955 279.242857 
L 281.928286 279.181447 
L 279.698933 279.308346 
L 276.351745 279.738341 
L 264.608576 281.700453 
L 261.245382 282.62066 
L 248.88138 286.226385 
L 246.628019 286.587703 
L 244.372974 286.687014 
L 241.552271 286.548388 
L 238.728621 286.209311 
L 234.771129 285.433943 
L 229.675586 284.468065 
L 226.274064 284.042412 
L 221.164199 283.67828 
L 217.753411 283.304138 
L 213.768964 282.614908 
L 210.919621 281.917452 
L 207.49746 280.763171 
L 196.634576 276.893186 
L 194.342466 276.441442 
L 192.049092 276.218773 
L 190.327693 276.251682 
L 188.605451 276.476861 
L 186.307866 277.053894 
L 183.433251 278.101587 
L 178.827971 280.06938 
L 175.946197 281.230977 
L 173.061473 282.098413 
L 170.752094 282.626037 
L 168.440609 282.923467 
L 165.549147 283.033167 
L 148.722228 283.048668 
L 145.811391 282.878921 
L 144.063457 282.581236 
L 141.731334 281.92229 
L 136.477423 280.317456 
L 134.138982 279.829182 
L 131.798856 279.574052 
L 129.457045 279.573328 
L 127.112708 279.813627 
L 124.18039 280.375931 
L 118.305647 281.614871 
L 116.540865 281.753659 
L 114.775241 281.685824 
L 112.418689 281.356771 
L 104.746732 280.071892 
L 102.381756 279.957777 
L 100.014675 280.052751 
L 97.645487 280.35227 
L 94.681159 280.957603 
L 88.147255 282.412317 
L 86.362256 282.504001 
L 83.384871 282.334966 
L 75.626571 281.713404 
L 73.832727 281.682401 
L 73.832727 281.682401 
" style="fill:none;stroke:#0000ff;stroke-dasharray:1.85,0.8;stroke-dashoffset:0;stroke-width:0.5;"/>
   </g>
   <g id="line2d_156">
    <path clip-path="url(#pa3cd935dcf)" d="M 398.487273 282.01217 
L 393.637703 281.714975 
L 390.401709 281.354404 
L 385.542873 280.584817 
L 378.514493 279.373626 
L 373.099267 278.52128 
L 370.930986 277.927157 
L 362.788561 275.406807 
L 360.613963 275.115361 
L 358.438522 275.082684 
L 356.261396 275.295627 
L 353.537988 275.832677 
L 348.085276 277.075444 
L 346.447273 277.22299 
L 344.262987 277.191829 
L 336.60535 276.892501 
L 333.865938 277.047516 
L 330.576031 277.476589 
L 322.336311 278.775442 
L 320.135599 278.880043 
L 315.178205 278.70178 
L 311.317166 278.661321 
L 307.451494 278.868148 
L 300.259272 279.402013 
L 297.488691 279.284418 
L 294.716004 278.872227 
L 286.938329 277.462656 
L 284.155955 277.228469 
L 281.371053 277.240467 
L 278.583625 277.519542 
L 274.677097 278.151883 
L 269.646838 278.939319 
L 266.289119 279.490154 
L 262.92761 280.282622 
L 256.755086 282.067243 
L 251.695765 283.526657 
L 248.88138 284.1111 
L 246.628019 284.396956 
L 244.936946 284.430723 
L 242.116665 284.215775 
L 239.293435 283.774535 
L 236.467679 283.095648 
L 226.274064 280.425761 
L 222.86833 279.585234 
L 221.732383 279.129286 
L 221.164199 278.745944 
L 220.596015 278.067592 
L 220.027832 276.588965 
L 219.459227 273.274013 
L 218.890621 272.53096 
L 218.322016 275.736573 
L 217.753411 277.12263 
L 217.184385 277.56149 
L 216.615359 277.657535 
L 215.477306 277.487609 
L 213.768964 276.913272 
L 211.48991 275.860014 
L 209.209172 274.47401 
L 206.926328 272.807222 
L 204.642221 270.818779 
L 203.499535 269.620669 
L 202.356428 268.182587 
L 201.2129 266.400925 
L 200.068951 264.05602 
L 199.496976 262.542133 
L 198.924581 260.675494 
L 198.352185 258.300523 
L 197.779789 255.169341 
L 197.206972 250.873556 
L 196.634576 244.738788 
L 196.061759 235.589417 
L 195.488521 221.490998 
L 194.915704 199.847917 
L 193.769228 144.353337 
L 193.19599 146.786861 
L 192.049092 203.021735 
L 191.475433 223.161587 
L 190.901774 236.13059 
L 190.327693 244.518353 
L 189.754034 250.115607 
L 189.179953 254.008283 
L 188.605451 256.825277 
L 188.031371 258.94037 
L 186.882367 261.917427 
L 185.732943 263.966366 
L 184.583097 265.537321 
L 182.857907 267.428204 
L 180.555688 269.529955 
L 177.675598 271.858437 
L 175.369589 273.453513 
L 172.484445 275.104377 
L 170.174223 276.17948 
L 167.862738 276.977439 
L 164.970434 277.680643 
L 160.91649 278.417432 
L 152.792598 279.627309 
L 148.140145 280.13285 
L 145.811391 280.191629 
L 144.063457 280.041725 
L 141.731334 279.563066 
L 135.892813 278.196291 
L 133.554371 277.890296 
L 131.213403 277.814575 
L 128.871172 277.982914 
L 126.526413 278.374376 
L 123.006116 279.247152 
L 118.893627 280.262537 
L 117.129266 280.508626 
L 115.363642 280.561394 
L 113.007932 280.346962 
L 103.564455 279.079969 
L 101.198637 279.110543 
L 98.830291 279.349006 
L 95.867227 279.90651 
L 87.552536 281.792004 
L 85.767116 281.835269 
L 82.192907 281.60599 
L 76.224238 281.174292 
L 73.832727 281.139848 
L 73.832727 281.139848 
" style="fill:none;stroke:#000000;stroke-linecap:square;stroke-width:0.5;"/>
   </g>
   <g id="line2d_157">
    <path clip-path="url(#pa3cd935dcf)" d="M 398.487273 282.965923 
L 397.948572 275.139535 
L 397.409871 288.445215 
L 396.871171 281.404048 
L 396.33247 281.405769 
L 395.793769 268.109176 
L 395.254648 278.280618 
L 394.715947 277.500682 
L 394.176825 284.540608 
L 393.637703 279.068921 
L 393.098581 286.888664 
L 392.55946 291.579757 
L 392.019916 275.948854 
L 391.480373 276.732794 
L 390.941252 280.642045 
L 390.401709 286.11285 
L 389.862165 279.86471 
L 389.322622 284.553137 
L 388.782658 284.554578 
L 388.243115 275.966467 
L 387.703151 280.653613 
L 387.163187 275.971591 
L 386.623222 282.218651 
L 386.083258 283.000829 
L 385.002909 278.322689 
L 384.462523 276.764737 
L 383.922138 267.406817 
L 383.381752 272.870137 
L 382.840946 286.91004 
L 382.30056 279.113995 
L 381.759754 274.438577 
L 381.218947 279.118478 
L 380.678141 276.782551 
L 380.137334 272.888671 
L 379.596527 281.462812 
L 379.0553 270.557707 
L 378.514493 275.234966 
L 377.973265 282.247512 
L 377.432037 283.806865 
L 376.89081 275.243492 
L 376.349161 273.689303 
L 375.807933 279.919751 
L 375.266284 290.039955 
L 374.724635 275.254981 
L 374.182986 276.035958 
L 373.640916 273.704835 
L 373.099267 279.152983 
L 372.557196 272.155609 
L 372.015126 281.490632 
L 371.473056 280.715139 
L 370.930986 287.713994 
L 370.388495 276.832948 
L 369.846424 284.607497 
L 369.303933 276.838392 
L 368.761442 276.841154 
L 368.21895 275.290207 
L 367.676038 281.507004 
L 367.133546 272.966328 
L 366.590634 280.734673 
L 366.047721 272.196679 
L 365.504809 273.75267 
L 364.961475 271.42747 
L 364.418562 281.519534 
L 363.875229 272.986543 
L 363.331895 277.644748 
L 362.788561 276.871736 
L 362.245227 283.079087 
L 361.701473 276.101967 
L 361.157718 276.880223 
L 360.613963 286.960797 
L 360.070208 282.311559 
L 359.526453 276.113816 
L 358.982277 271.46766 
L 358.438522 282.317644 
L 357.894346 275.34813 
L 357.35017 281.547234 
L 356.805572 283.098141 
L 356.261396 276.131789 
L 355.716799 276.134791 
L 355.172202 274.589769 
L 354.627604 274.593051 
L 354.083007 269.179928 
L 353.537988 282.336097 
L 352.99297 276.149963 
L 352.447951 279.246613 
L 351.902933 277.702631 
L 351.357914 273.839614 
L 350.812475 278.481287 
L 350.267456 265.344452 
L 349.722017 273.07717 
L 349.176156 272.308082 
L 348.630716 269.99413 
L 348.085276 275.405172 
L 347.539415 274.636083 
L 346.993555 276.183788 
L 346.447273 276.18687 
L 345.901412 275.418061 
L 345.35513 285.454724 
L 344.809269 280.826301 
L 344.262987 283.143294 
L 343.716283 272.345389 
L 343.170001 291.631608 
L 342.623298 273.124085 
L 342.076595 281.60924 
L 341.529892 276.215051 
L 340.983188 266.968693 
L 340.436064 279.304055 
L 339.889361 277.765638 
L 339.342236 270.834792 
L 338.794691 268.528006 
L 338.247566 272.383257 
L 337.70002 274.697168 
L 337.152896 277.780248 
L 336.60535 277.78317 
L 336.057384 269.319912 
L 335.509838 276.249997 
L 334.961871 280.100164 
L 334.413904 275.487113 
L 333.865938 280.105288 
L 333.317971 277.031815 
L 332.769583 271.652717 
L 332.221195 276.269251 
L 331.672807 283.958737 
L 331.124419 271.664726 
L 330.576031 277.815675 
L 330.027221 280.891589 
L 329.478412 282.430247 
L 328.929603 275.520657 
L 327.831563 277.062838 
L 327.282754 270.925259 
L 326.733524 283.97623 
L 326.184294 287.814829 
L 325.634642 283.980113 
L 325.085412 277.845537 
L 324.53576 291.653416 
L 323.986108 274.784313 
L 323.436036 274.021188 
L 322.886384 280.157206 
L 321.786239 281.695023 
L 321.236166 277.866632 
L 320.135599 274.809131 
L 319.585105 269.45237 
L 319.034611 270.988105 
L 318.484117 276.350791 
L 317.933202 265.63903 
L 317.382287 272.531247 
L 316.831372 276.360679 
L 316.280457 274.069104 
L 315.729542 276.367323 
L 315.178205 290.135225 
L 314.626869 282.490452 
L 314.075533 267.968472 
L 313.524196 279.437794 
L 312.972439 277.912226 
L 312.420681 284.791593 
L 311.868924 276.390541 
L 311.317166 282.504022 
L 310.764987 290.142631 
L 310.21323 280.218051 
L 309.661051 276.40387 
L 309.108451 284.802802 
L 308.556273 283.278474 
L 307.451494 275.654396 
L 306.898473 288.623787 
L 306.345873 278.711617 
L 305.793273 285.576454 
L 305.240252 284.053608 
L 304.687231 273.385278 
L 304.13421 281.009516 
L 303.580768 280.250155 
L 303.027325 277.205784 
L 302.473883 285.586942 
L 301.920441 280.258201 
L 301.366998 290.158602 
L 300.813135 275.696227 
L 300.259272 285.593907 
L 299.705408 289.400442 
L 299.151545 281.032493 
L 298.59726 280.274373 
L 298.042975 281.037617 
L 297.488691 275.717243 
L 296.934406 274.960483 
L 296.380121 270.403233 
L 295.825415 281.047865 
L 295.27071 274.211529 
L 294.716004 282.572472 
L 294.160877 287.892046 
L 293.051044 278.78271 
L 292.495496 275.748866 
L 291.940369 287.138369 
L 291.38482 278.791636 
L 290.829693 281.829803 
L 290.274145 285.62553 
L 289.718176 281.834687 
L 289.162628 283.35389 
L 288.606658 285.630814 
L 288.050689 281.083891 
L 287.494719 279.570492 
L 286.938329 282.604736 
L 286.381938 281.849337 
L 285.825548 280.336619 
L 285.269157 275.03726 
L 284.712766 282.613943 
L 284.155955 275.044585 
L 283.599143 278.833427 
L 283.042331 279.593309 
L 282.485098 279.596151 
L 281.928286 277.329155 
L 281.371053 274.306479 
L 280.81382 284.142834 
L 280.256166 270.533009 
L 279.698933 276.586125 
L 279.141279 277.345487 
L 278.583625 284.906799 
L 278.025971 285.664399 
L 277.467895 278.866332 
L 276.90982 279.624732 
L 276.351745 270.564472 
L 275.793669 278.12022 
L 275.235594 287.9382 
L 274.677097 267.558529 
L 273.560104 269.077773 
L 272.442269 275.121802 
L 271.883772 276.633801 
L 271.324433 274.37513 
L 270.765516 280.410113 
L 270.206177 275.136533 
L 269.646838 266.096688 
L 269.087499 278.911325 
L 268.52816 287.201215 
L 267.9684 267.619094 
L 266.84888 275.15863 
L 266.289119 284.195993 
L 265.728938 275.165995 
L 265.169178 275.169678 
L 264.608576 278.935343 
L 264.048394 280.442897 
L 263.488213 280.445619 
L 262.92761 281.200338 
L 262.367008 275.188131 
L 261.805984 271.433235 
L 261.245382 274.443901 
L 260.684358 273.696308 
L 260.123334 288.726343 
L 259.562311 281.215909 
L 259.000866 279.71644 
L 258.439842 271.459454 
L 257.878397 274.466838 
L 257.316953 287.231278 
L 256.755086 279.727889 
L 256.19322 269.976237 
L 255.631354 290.986815 
L 255.069488 279.736495 
L 254.507622 277.489553 
L 253.383048 277.496118 
L 252.820761 285.744218 
L 252.258473 272.256924 
L 251.695765 278.2552 
L 251.133056 282.003932 
L 250.570348 276.763536 
L 250.00764 287.999646 
L 249.44451 280.51391 
L 248.88138 285.756667 
L 248.318251 280.519354 
L 247.755121 288.00509 
L 247.19157 274.539532 
L 246.628019 282.77166 
L 246.064469 288.757086 
L 245.500918 271.559968 
L 244.936946 283.526218 
L 244.372974 283.528419 
L 243.809002 294.740759 
L 243.24503 273.071886 
L 242.681058 285.029089 
L 242.116665 285.03101 
L 241.552271 265.616173 
L 240.987457 282.048205 
L 240.423064 275.331918 
L 239.85825 284.292264 
L 239.293435 287.279313 
L 238.163385 276.838632 
L 237.598571 288.77554 
L 237.033335 278.33686 
L 236.467679 278.340022 
L 235.902443 272.379695 
L 235.336786 273.87452 
L 234.771129 285.80102 
L 234.205473 273.882446 
L 233.639395 281.335277 
L 233.073738 282.08259 
L 232.50766 271.660483 
L 231.941161 273.898258 
L 230.808584 289.534461 
L 230.242085 276.886427 
L 229.675586 282.097361 
L 229.109086 285.074963 
L 228.542166 279.127645 
L 227.975246 288.796395 
L 227.408325 278.390259 
L 226.840984 285.825878 
L 226.274064 282.855201 
L 225.706722 280.628595 
L 225.139381 285.088373 
L 224.571618 276.920533 
L 224.003855 286.577314 
L 223.436514 279.154665 
L 222.86833 287.322865 
L 222.300567 278.41852 
L 221.732383 291.778004 
L 221.164199 284.359834 
L 220.027832 273.239811 
L 219.459227 265.087662 
L 218.890621 279.178682 
L 218.322016 279.181685 
L 217.753411 272.515115 
L 217.184385 274.742122 
L 216.615359 275.486752 
L 216.046332 284.378288 
L 215.477306 277.715681 
L 214.907859 272.53629 
L 214.338411 268.839276 
L 213.768964 271.804629 
L 213.199095 271.069045 
L 212.629648 280.691401 
L 212.059779 271.817759 
L 211.48991 274.78035 
L 210.919621 264.432257 
L 210.349752 269.613009 
L 209.779462 263.704559 
L 209.209172 275.534668 
L 208.638461 270.366206 
L 208.068171 279.235765 
L 207.49746 269.636906 
L 206.926328 277.026371 
L 206.355617 277.768119 
L 205.784485 276.29503 
L 205.213353 274.084395 
L 204.642221 276.302155 
L 204.071088 285.159105 
L 202.927982 274.100287 
L 202.356428 261.56886 
L 201.2129 282.220292 
L 200.640926 277.800984 
L 200.068951 276.330616 
L 199.496976 285.911141 
L 198.924581 280.020505 
L 198.352185 280.023347 
L 197.779789 269.718326 
L 197.206972 267.514697 
L 196.634576 269.727934 
L 196.061759 267.525105 
L 195.488521 253.551491 
L 194.915704 243.261081 
L 194.342466 191.053272 
L 193.769228 53.568 
L 193.19599 98.459198 
L 192.622752 196.257121 
L 192.049092 238.900256 
L 191.475433 257.280048 
L 190.901774 266.102773 
L 190.327693 270.515236 
L 189.754034 269.785576 
L 189.179953 264.650819 
L 188.605451 284.476841 
L 188.031371 269.799987 
L 187.456869 270.538613 
L 186.882367 270.543296 
L 186.307866 277.883325 
L 185.732943 264.685485 
L 185.15802 274.223618 
L 184.583097 269.095786 
L 184.008174 241.980534 
L 183.433251 190.691405 
L 182.857907 113.044384 
L 181.706798 238.358655 
L 181.131454 238.369463 
L 180.555688 246.433827 
L 179.979923 251.567223 
L 179.403737 272.068024 
L 178.827971 267.681981 
L 178.251785 277.198058 
L 177.675598 281.590306 
L 177.098991 271.354376 
L 176.522804 277.939646 
L 175.946197 273.556685 
L 175.369589 267.713564 
L 174.79256 271.37267 
L 174.215952 276.491695 
L 173.638923 271.381837 
L 173.061473 283.802422 
L 172.484445 277.232723 
L 171.906995 277.236206 
L 171.329544 276.509749 
L 170.752094 278.702731 
L 170.174223 277.246614 
L 169.596773 280.168174 
L 169.018902 276.524199 
L 168.440609 278.71554 
L 167.862738 281.635179 
L 167.284446 283.095739 
L 166.706153 280.911644 
L 166.12744 270.712902 
L 165.549147 278.731592 
L 164.970434 291.117672 
L 164.39172 280.922852 
L 163.812585 280.925654 
L 163.233872 279.47246 
L 162.654737 283.842612 
L 162.075602 280.934061 
L 161.496046 275.843936 
L 160.91649 285.304212 
L 160.336934 273.669648 
L 159.757378 278.763856 
L 159.177822 289.672083 
L 158.597845 279.497198 
L 158.017868 275.139976 
L 157.437469 272.964207 
L 156.857492 272.96857 
L 156.277094 275.151825 
L 155.696696 287.500397 
L 155.115876 275.885767 
L 154.535478 279.518934 
L 153.954658 287.50508 
L 153.373417 272.994869 
L 152.792598 273.724729 
L 152.211357 275.904901 
L 151.630116 283.885523 
L 151.048876 280.9877 
L 150.467214 279.54079 
L 149.885973 291.139688 
L 149.30389 276.648692 
L 148.722228 284.621347 
L 148.140145 283.899173 
L 147.558062 287.522293 
L 146.975978 280.28366 
L 146.393895 289.697061 
L 145.811391 275.947253 
L 145.228887 285.357812 
L 144.646382 281.019164 
L 144.063457 285.361855 
L 143.480531 280.301753 
L 142.897606 272.351594 
L 142.31468 280.307797 
L 141.731334 281.756269 
L 141.147987 276.70093 
L 140.56464 279.59443 
L 139.980872 275.263827 
L 139.397526 283.211545 
L 138.813758 278.881983 
L 138.229569 279.607199 
L 137.645801 277.445241 
L 137.061612 278.89199 
L 136.477423 276.731072 
L 135.892813 272.407195 
L 135.308202 276.017505 
L 134.723592 285.394279 
L 134.138982 282.512988 
L 133.554371 281.074204 
L 132.96934 278.915488 
L 132.384309 281.080089 
L 131.798856 281.803263 
L 131.213403 281.085973 
L 130.627951 278.209045 
L 130.042498 269.57482 
L 129.457045 272.458793 
L 128.871172 280.37821 
L 128.285298 276.0651 
L 127.699003 269.596116 
L 127.112708 271.039584 
L 126.526413 276.79604 
L 125.940118 284.70645 
L 125.353823 285.427303 
L 124.767107 273.933724 
L 124.18039 269.62822 
L 123.593253 281.842653 
L 123.006116 273.947174 
L 122.418978 271.797984 
L 121.831841 284.722142 
L 121.244703 281.13645 
L 120.657145 288.313798 
L 120.069165 284.728867 
L 119.481606 276.125585 
L 118.893627 284.01642 
L 118.305647 284.735672 
L 117.717667 276.854484 
L 117.129266 281.874116 
L 116.540865 280.444258 
L 115.952464 289.758346 
L 115.363642 276.154206 
L 114.775241 289.044859 
L 114.185998 277.593991 
L 113.597176 284.753925 
L 113.007932 286.187145 
L 112.418689 270.452429 
L 111.829446 284.760811 
L 111.239781 280.47316 
L 110.650117 284.050605 
L 110.060452 281.194293 
L 109.470366 279.768319 
L 108.880702 275.485431 
L 108.290195 280.489372 
L 107.700109 278.35039 
L 107.109602 281.209785 
L 106.519095 271.934045 
L 105.928589 274.079992 
L 105.33766 284.786389 
L 104.746732 284.788751 
L 104.155804 274.80721 
L 103.564455 276.950715 
L 102.973106 277.667605 
L 102.381756 272.682919 
L 101.790407 272.687963 
L 101.198637 284.090555 
L 100.606866 285.51745 
L 100.014675 283.383592 
L 99.422483 275.555723 
L 98.830291 269.866476 
L 98.2381 277.699308 
L 97.645487 276.280499 
L 97.052874 281.97467 
L 96.460261 274.867014 
L 95.867227 282.69168 
L 95.274193 281.983837 
L 94.681159 283.40809 
L 94.087704 280.569111 
L 93.494248 286.964921 
L 92.900793 274.895075 
L 91.71304 287.68053 
L 91.119164 282.714978 
L 90.524866 279.170677 
L 89.930569 282.011577 
L 89.336271 279.178202 
L 88.741974 279.181965 
L 88.147255 286.273729 
L 87.552536 275.64639 
L 86.957396 277.067922 
L 86.362256 272.114138 
L 85.767116 284.866048 
L 85.171555 290.532319 
L 84.576415 279.208625 
L 83.980433 274.259004 
L 83.384871 278.508827 
L 82.788889 280.634759 
L 82.192907 284.173937 
L 81.596503 277.10695 
L 81.0001 274.284143 
L 80.403696 279.942247 
L 79.807292 271.468461 
L 79.210468 276.418241 
L 78.613222 275.716722 
L 78.016397 280.66314 
L 77.419151 280.666703 
L 76.821905 285.609558 
L 75.626571 273.624855 
L 75.028904 280.681114 
L 74.430816 274.340465 
L 73.832727 284.212125 
L 73.832727 284.212125 
" style="fill:none;stroke:#ff0000;stroke-linecap:square;stroke-opacity:0.5;stroke-width:0.5;"/>
   </g>
   <g id="patch_3">
    <path d="M 57.6 307.584 
L 57.6 41.472 
" style="fill:none;stroke:#000000;stroke-linecap:square;stroke-linejoin:miter;stroke-width:0.8;"/>
   </g>
   <g id="patch_4">
    <path d="M 414.72 307.584 
L 414.72 41.472 
" style="fill:none;stroke:#000000;stroke-linecap:square;stroke-linejoin:miter;stroke-width:0.8;"/>
   </g>
   <g id="patch_5">
    <path d="M 57.6 307.584 
L 414.72 307.584 
" style="fill:none;stroke:#000000;stroke-linecap:square;stroke-linejoin:miter;stroke-width:0.8;"/>
   </g>
   <g id="patch_6">
    <path d="M 57.6 41.472 
L 414.72 41.472 
" style="fill:none;stroke:#000000;stroke-linecap:square;stroke-linejoin:miter;stroke-width:0.8;"/>
   </g>
  </g>
 </g>
 <defs>
  <clipPath id="pa3cd935dcf">
   <rect height="266.112" width="357.12" x="57.6" y="41.472"/>
  </clipPath>
 </defs>
</svg>
