<?xml version="1.0" encoding="utf-8" standalone="no"?>
<!DOCTYPE svg PUBLIC "-//W3C//DTD SVG 1.1//EN"
  "http://www.w3.org/Graphics/SVG/1.1/DTD/svg11.dtd">
<!-- Created with matplotlib (http://matplotlib.org/) -->
<svg height="345.6pt" version="1.1" viewBox="0 0 460.8 345.6" width="460.8pt" xmlns="http://www.w3.org/2000/svg" xmlns:xlink="http://www.w3.org/1999/xlink">
 <defs>
  <style type="text/css">
*{stroke-linecap:butt;stroke-linejoin:round;}
  </style>
 </defs>
 <g id="figure_1">
  <g id="patch_1">
   <path d="M 0 345.6 
L 460.8 345.6 
L 460.8 0 
L 0 0 
z
" style="fill:none;"/>
  </g>
  <g id="axes_1">
   <g id="patch_2">
    <path d="M 57.6 307.584 
L 414.72 307.584 
L 414.72 41.472 
L 57.6 41.472 
z
" style="fill:none;"/>
   </g>
   <g id="PolyCollection_1">
    <defs>
     <path d="M 398.487273 -50.12202 
L 398.487273 -50.116631 
L 397.948572 -50.116655 
L 397.409871 -50.116679 
L 396.871171 -50.116703 
L 396.33247 -50.116727 
L 395.793769 -50.116752 
L 395.254648 -50.116777 
L 394.715947 -50.116802 
L 394.176825 -50.116827 
L 393.637703 -50.116853 
L 393.098581 -50.116878 
L 392.55946 -50.116904 
L 392.019916 -50.11693 
L 391.480373 -50.116957 
L 390.941252 -50.116983 
L 390.401709 -50.11701 
L 389.862165 -50.117037 
L 389.322622 -50.117064 
L 388.782658 -50.117091 
L 388.243115 -50.117119 
L 387.703151 -50.117147 
L 387.163187 -50.117175 
L 386.623222 -50.117203 
L 386.083258 -50.117232 
L 385.542873 -50.117261 
L 385.002909 -50.11729 
L 384.462523 -50.117319 
L 383.922138 -50.117348 
L 383.381752 -50.117378 
L 382.840946 -50.117408 
L 382.30056 -50.117438 
L 381.759754 -50.117469 
L 381.218947 -50.1175 
L 380.678141 -50.117531 
L 380.137334 -50.117562 
L 379.596527 -50.117594 
L 379.0553 -50.117626 
L 378.514493 -50.117658 
L 377.973265 -50.11769 
L 377.432037 -50.117723 
L 376.89081 -50.117756 
L 376.349161 -50.117789 
L 375.807933 -50.117823 
L 375.266284 -50.117857 
L 374.724635 -50.117891 
L 374.182986 -50.117926 
L 373.640916 -50.117961 
L 373.099267 -50.117996 
L 372.557196 -50.118031 
L 372.015126 -50.118067 
L 371.473056 -50.118103 
L 370.930986 -50.118139 
L 370.388495 -50.118176 
L 369.846424 -50.118213 
L 369.303933 -50.118251 
L 368.761442 -50.118289 
L 368.21895 -50.118327 
L 367.676038 -50.118365 
L 367.133546 -50.118404 
L 366.590634 -50.118443 
L 366.047721 -50.118483 
L 365.504809 -50.118523 
L 364.961475 -50.118563 
L 364.418562 -50.118604 
L 363.875229 -50.118645 
L 363.331895 -50.118686 
L 362.788561 -50.118728 
L 362.245227 -50.11877 
L 361.701473 -50.118813 
L 361.157718 -50.118856 
L 360.613963 -50.1189 
L 360.070208 -50.118944 
L 359.526453 -50.118988 
L 358.982277 -50.119033 
L 358.438522 -50.119078 
L 357.894346 -50.119124 
L 357.35017 -50.11917 
L 356.805572 -50.119217 
L 356.261396 -50.119264 
L 355.716799 -50.119311 
L 355.172202 -50.119359 
L 354.627604 -50.119408 
L 354.083007 -50.119457 
L 353.537988 -50.119506 
L 352.99297 -50.119556 
L 352.447951 -50.119607 
L 351.902933 -50.119658 
L 351.357914 -50.119709 
L 350.812475 -50.119761 
L 350.267456 -50.119814 
L 349.722017 -50.119867 
L 349.176156 -50.119921 
L 348.630716 -50.119975 
L 348.085276 -50.12003 
L 347.539415 -50.120085 
L 346.993555 -50.120141 
L 346.447273 -50.120198 
L 345.901412 -50.120255 
L 345.35513 -50.120313 
L 344.809269 -50.120371 
L 344.262987 -50.12043 
L 343.716283 -50.12049 
L 343.170001 -50.12055 
L 342.623298 -50.120611 
L 342.076595 -50.120673 
L 341.529892 -50.120735 
L 340.983188 -50.120798 
L 340.436064 -50.120862 
L 339.889361 -50.120926 
L 339.342236 -50.120991 
L 338.794691 -50.121057 
L 338.247566 -50.121123 
L 337.70002 -50.121191 
L 337.152896 -50.121259 
L 336.60535 -50.121328 
L 336.057384 -50.121397 
L 335.509838 -50.121468 
L 334.961871 -50.121539 
L 334.413904 -50.121611 
L 333.865938 -50.121684 
L 333.317971 -50.121758 
L 332.769583 -50.121832 
L 332.221195 -50.121908 
L 331.672807 -50.121984 
L 331.124419 -50.122061 
L 330.576031 -50.122139 
L 330.027221 -50.122219 
L 329.478412 -50.122299 
L 328.929603 -50.12238 
L 328.380794 -50.122461 
L 327.831563 -50.122544 
L 327.282754 -50.122628 
L 326.733524 -50.122713 
L 326.184294 -50.122799 
L 325.634642 -50.122886 
L 325.085412 -50.122975 
L 324.53576 -50.123064 
L 323.986108 -50.123154 
L 323.436036 -50.123246 
L 322.886384 -50.123338 
L 322.336311 -50.123432 
L 321.786239 -50.123527 
L 321.236166 -50.123623 
L 320.685672 -50.123721 
L 320.135599 -50.123819 
L 319.585105 -50.123919 
L 319.034611 -50.12402 
L 318.484117 -50.124123 
L 317.933202 -50.124227 
L 317.382287 -50.124332 
L 316.831372 -50.124439 
L 316.280457 -50.124547 
L 315.729542 -50.124656 
L 315.178205 -50.124767 
L 314.626869 -50.12488 
L 314.075533 -50.124993 
L 313.524196 -50.125109 
L 312.972439 -50.125226 
L 312.420681 -50.125345 
L 311.868924 -50.125465 
L 311.317166 -50.125587 
L 310.764987 -50.12571 
L 310.21323 -50.125836 
L 309.661051 -50.125963 
L 309.108451 -50.126092 
L 308.556273 -50.126222 
L 308.003673 -50.126355 
L 307.451494 -50.126489 
L 306.898473 -50.126625 
L 306.345873 -50.126764 
L 305.793273 -50.126904 
L 305.240252 -50.127046 
L 304.687231 -50.127191 
L 304.13421 -50.127337 
L 303.580768 -50.127486 
L 303.027325 -50.127637 
L 302.473883 -50.12779 
L 301.920441 -50.127945 
L 301.366998 -50.128103 
L 300.813135 -50.128263 
L 300.259272 -50.128426 
L 299.705408 -50.128591 
L 299.151545 -50.128758 
L 298.59726 -50.128928 
L 298.042975 -50.129101 
L 297.488691 -50.129277 
L 296.934406 -50.129455 
L 296.380121 -50.129636 
L 295.825415 -50.12982 
L 295.27071 -50.130006 
L 294.716004 -50.130196 
L 294.160877 -50.130389 
L 293.606171 -50.130585 
L 293.051044 -50.130784 
L 292.495496 -50.130987 
L 291.940369 -50.131193 
L 291.38482 -50.131402 
L 290.829693 -50.131614 
L 290.274145 -50.131831 
L 289.718176 -50.132051 
L 289.162628 -50.132274 
L 288.606658 -50.132502 
L 288.050689 -50.132733 
L 287.494719 -50.132968 
L 286.938329 -50.133208 
L 286.381938 -50.133451 
L 285.825548 -50.133699 
L 285.269157 -50.133951 
L 284.712766 -50.134208 
L 284.155955 -50.134469 
L 283.599143 -50.134735 
L 283.042331 -50.135006 
L 282.485098 -50.135281 
L 281.928286 -50.135562 
L 281.371053 -50.135848 
L 280.81382 -50.136139 
L 280.256166 -50.136436 
L 279.698933 -50.136738 
L 279.141279 -50.137046 
L 278.583625 -50.137359 
L 278.025971 -50.137679 
L 277.467895 -50.138005 
L 276.90982 -50.138337 
L 276.351745 -50.138676 
L 275.793669 -50.139021 
L 275.235594 -50.139373 
L 274.677097 -50.139732 
L 274.118601 -50.140099 
L 273.560104 -50.140473 
L 273.001187 -50.140854 
L 272.442269 -50.141243 
L 271.883772 -50.14164 
L 271.324433 -50.142046 
L 270.765516 -50.14246 
L 270.206177 -50.142882 
L 269.646838 -50.143314 
L 269.087499 -50.143754 
L 268.52816 -50.144205 
L 267.9684 -50.144665 
L 267.40864 -50.145135 
L 266.84888 -50.145615 
L 266.289119 -50.146106 
L 265.728938 -50.146608 
L 265.169178 -50.147121 
L 264.608576 -50.147646 
L 264.048394 -50.148183 
L 263.488213 -50.148732 
L 262.92761 -50.149294 
L 262.367008 -50.149869 
L 261.805984 -50.150457 
L 261.245382 -50.15106 
L 260.684358 -50.151677 
L 260.123334 -50.152309 
L 259.562311 -50.152956 
L 259.000866 -50.153619 
L 258.439842 -50.154298 
L 257.878397 -50.154995 
L 257.316953 -50.155709 
L 256.755086 -50.156441 
L 256.19322 -50.157192 
L 255.631354 -50.157963 
L 255.069488 -50.158753 
L 254.507622 -50.159564 
L 253.945335 -50.160397 
L 253.383048 -50.161252 
L 252.820761 -50.16213 
L 252.258473 -50.163032 
L 251.695765 -50.163959 
L 251.133056 -50.164912 
L 250.570348 -50.165891 
L 250.00764 -50.166898 
L 249.44451 -50.167934 
L 248.88138 -50.169 
L 248.318251 -50.170096 
L 247.755121 -50.171225 
L 247.19157 -50.172388 
L 246.628019 -50.173586 
L 246.064469 -50.17482 
L 245.500918 -50.176092 
L 244.936946 -50.177404 
L 244.372974 -50.178757 
L 243.809002 -50.180152 
L 243.24503 -50.181592 
L 242.681058 -50.183078 
L 242.116665 -50.184613 
L 241.552271 -50.186199 
L 240.987457 -50.18784 
L 240.423064 -50.189534 
L 239.85825 -50.191287 
L 239.293435 -50.193101 
L 238.728621 -50.194978 
L 238.163385 -50.196923 
L 237.598571 -50.198936 
L 237.033335 -50.201023 
L 236.467679 -50.203188 
L 235.902443 -50.205433 
L 235.336786 -50.207763 
L 234.771129 -50.210183 
L 234.205473 -50.212695 
L 233.639395 -50.215309 
L 233.073738 -50.218024 
L 232.50766 -50.22085 
L 231.941161 -50.223794 
L 231.375083 -50.226857 
L 230.808584 -50.230052 
L 230.242085 -50.233383 
L 229.675586 -50.236858 
L 229.109086 -50.240486 
L 228.542166 -50.244278 
L 227.975246 -50.248243 
L 227.408325 -50.25239 
L 226.840984 -50.256734 
L 226.274064 -50.261282 
L 225.706722 -50.266053 
L 225.139381 -50.271059 
L 224.571618 -50.27632 
L 224.003855 -50.281849 
L 223.436514 -50.28766 
L 222.86833 -50.293788 
L 222.300567 -50.300242 
L 221.732383 -50.307054 
L 221.164199 -50.314249 
L 220.596015 -50.321854 
L 220.027832 -50.329902 
L 219.459227 -50.338436 
L 218.890621 -50.347489 
L 218.322016 -50.357104 
L 217.753411 -50.367331 
L 217.184385 -50.37823 
L 216.615359 -50.389855 
L 216.046332 -50.402273 
L 215.477306 -50.415559 
L 214.907859 -50.429808 
L 214.338411 -50.445106 
L 213.768964 -50.461561 
L 213.199095 -50.479309 
L 212.629648 -50.498464 
L 212.059779 -50.519212 
L 211.48991 -50.541724 
L 210.919621 -50.56623 
L 210.349752 -50.592939 
L 209.779462 -50.622177 
L 209.209172 -50.654258 
L 208.638461 -50.689605 
L 208.068171 -50.728633 
L 207.49746 -50.771959 
L 206.926328 -50.820265 
L 206.355617 -50.874294 
L 205.784485 -50.935124 
L 205.213353 -51.003951 
L 204.642221 -51.082314 
L 204.071088 -51.172156 
L 203.499535 -51.276046 
L 202.927982 -51.397155 
L 202.356428 -51.539752 
L 201.784875 -51.709567 
L 201.2129 -51.914628 
L 200.640926 -52.16588 
L 200.068951 -52.479273 
L 199.496976 -52.878539 
L 198.924581 -53.400738 
L 198.352185 -54.10476 
L 197.779789 -55.091061 
L 197.206972 -56.542868 
L 196.634576 -58.815429 
L 196.061759 -62.69064 
L 195.488521 -70.111327 
L 194.915704 -86.726049 
L 194.342466 -130.488218 
L 193.769228 -210.636297 
L 193.19599 -191.626306 
L 192.622752 -116.256122 
L 192.049092 -82.428159 
L 191.475433 -69.252724 
L 190.901774 -63.311396 
L 190.327693 -60.292739 
L 189.754034 -58.643703 
L 189.179953 -57.705238 
L 188.605451 -57.181531 
L 188.031371 -56.962984 
L 187.456869 -57.054339 
L 186.882367 -57.54462 
L 186.307866 -58.626232 
L 185.732943 -60.698622 
L 185.15802 -64.639298 
L 184.583097 -72.535274 
L 184.008174 -89.367282 
L 183.433251 -122.039187 
L 182.857907 -150.505695 
L 182.282563 -136.650597 
L 181.706798 -100.047893 
L 181.131454 -77.080407 
L 180.555688 -66.093329 
L 179.979923 -60.56471 
L 179.403737 -57.491118 
L 178.827971 -55.627361 
L 178.251785 -54.412656 
L 177.675598 -53.576371 
L 177.098991 -52.974172 
L 176.522804 -52.525429 
L 175.946197 -52.180609 
L 175.369589 -51.90936 
L 174.79256 -51.69144 
L 174.215952 -51.51356 
L 173.638923 -51.365966 
L 173.061473 -51.241924 
L 172.484445 -51.136646 
L 171.906995 -51.046268 
L 171.329544 -50.968058 
L 170.752094 -50.899843 
L 170.174223 -50.839887 
L 169.596773 -50.786931 
L 169.018902 -50.73982 
L 168.440609 -50.697695 
L 167.862738 -50.659903 
L 167.284446 -50.625801 
L 166.706153 -50.594929 
L 166.12744 -50.566858 
L 165.549147 -50.541283 
L 164.970434 -50.517875 
L 164.39172 -50.496404 
L 163.812585 -50.47664 
L 163.233872 -50.458428 
L 162.654737 -50.441581 
L 162.075602 -50.425974 
L 161.496046 -50.411473 
L 160.91649 -50.397985 
L 160.336934 -50.385413 
L 159.757378 -50.373675 
L 159.177822 -50.362697 
L 158.597845 -50.352407 
L 158.017868 -50.342752 
L 157.437469 -50.333675 
L 156.857492 -50.325141 
L 156.277094 -50.317096 
L 155.696696 -50.309508 
L 155.115876 -50.302337 
L 154.535478 -50.295561 
L 153.954658 -50.289144 
L 153.373417 -50.283059 
L 152.792598 -50.277292 
L 152.211357 -50.271813 
L 151.630116 -50.266606 
L 151.048876 -50.261654 
L 150.467214 -50.256937 
L 149.885973 -50.252445 
L 149.30389 -50.248156 
L 148.722228 -50.244067 
L 148.140145 -50.240158 
L 147.558062 -50.236423 
L 146.975978 -50.232851 
L 146.393895 -50.229433 
L 145.811391 -50.226157 
L 145.228887 -50.223018 
L 144.646382 -50.220008 
L 144.063457 -50.217118 
L 143.480531 -50.214344 
L 142.897606 -50.211679 
L 142.31468 -50.209118 
L 141.731334 -50.206654 
L 141.147987 -50.204284 
L 140.56464 -50.202002 
L 139.980872 -50.199803 
L 139.397526 -50.197686 
L 138.813758 -50.195644 
L 138.229569 -50.193673 
L 137.645801 -50.191773 
L 137.061612 -50.189937 
L 136.477423 -50.188165 
L 135.892813 -50.186452 
L 135.308202 -50.184797 
L 134.723592 -50.183196 
L 134.138982 -50.181648 
L 133.554371 -50.18015 
L 132.96934 -50.1787 
L 132.384309 -50.177296 
L 131.798856 -50.175934 
L 131.213403 -50.174616 
L 130.627951 -50.173337 
L 130.042498 -50.172098 
L 129.457045 -50.170897 
L 128.871172 -50.16973 
L 128.285298 -50.168598 
L 127.699003 -50.167498 
L 127.112708 -50.16643 
L 126.526413 -50.165393 
L 125.940118 -50.164386 
L 125.353823 -50.163406 
L 124.767107 -50.162454 
L 124.18039 -50.161528 
L 123.593253 -50.160626 
L 123.006116 -50.159749 
L 122.418978 -50.158896 
L 121.831841 -50.158066 
L 121.244703 -50.157257 
L 120.657145 -50.156469 
L 120.069165 -50.155701 
L 119.481606 -50.154954 
L 118.893627 -50.154225 
L 118.305647 -50.153514 
L 117.717667 -50.152821 
L 117.129266 -50.152146 
L 116.540865 -50.151486 
L 115.952464 -50.150843 
L 115.363642 -50.150216 
L 114.775241 -50.149603 
L 114.185998 -50.149005 
L 113.597176 -50.148421 
L 113.007932 -50.147851 
L 112.418689 -50.147294 
L 111.829446 -50.146749 
L 111.239781 -50.146217 
L 110.650117 -50.145698 
L 110.060452 -50.14519 
L 109.470366 -50.144693 
L 108.880702 -50.144207 
L 108.290195 -50.143732 
L 107.700109 -50.143267 
L 107.109602 -50.142812 
L 106.519095 -50.142368 
L 105.928589 -50.141932 
L 105.33766 -50.141506 
L 104.746732 -50.141089 
L 104.155804 -50.14068 
L 103.564455 -50.14028 
L 102.973106 -50.139889 
L 102.381756 -50.139505 
L 101.790407 -50.139129 
L 101.198637 -50.138761 
L 100.606866 -50.1384 
L 100.014675 -50.138046 
L 99.422483 -50.137699 
L 98.830291 -50.137359 
L 98.2381 -50.137026 
L 97.645487 -50.136699 
L 97.052874 -50.136379 
L 96.460261 -50.136065 
L 95.867227 -50.135756 
L 95.274193 -50.135454 
L 94.681159 -50.135157 
L 94.087704 -50.134866 
L 93.494248 -50.13458 
L 92.900793 -50.134299 
L 92.306917 -50.134024 
L 91.71304 -50.133753 
L 91.119164 -50.133488 
L 90.524866 -50.133227 
L 89.930569 -50.132971 
L 89.336271 -50.132719 
L 88.741974 -50.132472 
L 88.147255 -50.13223 
L 87.552536 -50.131991 
L 86.957396 -50.131757 
L 86.362256 -50.131526 
L 85.767116 -50.1313 
L 85.171555 -50.131078 
L 84.576415 -50.130859 
L 83.980433 -50.130644 
L 83.384871 -50.130433 
L 82.788889 -50.130225 
L 82.192907 -50.13002 
L 81.596503 -50.129819 
L 81.0001 -50.129622 
L 80.403696 -50.129427 
L 79.807292 -50.129236 
L 79.210468 -50.129048 
L 78.613222 -50.128862 
L 78.016397 -50.12868 
L 77.419151 -50.128501 
L 76.821905 -50.128324 
L 76.224238 -50.128151 
L 75.626571 -50.12798 
L 75.028904 -50.127811 
L 74.430816 -50.127646 
L 73.832727 -50.127482 
L 73.832727 -50.147294 
L 73.832727 -50.147294 
L 74.430816 -50.147674 
L 75.028904 -50.148059 
L 75.626571 -50.14845 
L 76.224238 -50.148848 
L 76.821905 -50.149252 
L 77.419151 -50.149663 
L 78.016397 -50.150081 
L 78.613222 -50.150505 
L 79.210468 -50.150937 
L 79.807292 -50.151376 
L 80.403696 -50.151821 
L 81.0001 -50.152275 
L 81.596503 -50.152736 
L 82.192907 -50.153206 
L 82.788889 -50.153683 
L 83.384871 -50.154169 
L 83.980433 -50.154662 
L 84.576415 -50.155165 
L 85.171555 -50.155676 
L 85.767116 -50.156197 
L 86.362256 -50.156727 
L 86.957396 -50.157266 
L 87.552536 -50.157815 
L 88.147255 -50.158374 
L 88.741974 -50.158943 
L 89.336271 -50.159522 
L 89.930569 -50.160112 
L 90.524866 -50.160713 
L 91.119164 -50.161326 
L 91.71304 -50.161949 
L 92.306917 -50.162585 
L 92.900793 -50.163233 
L 93.494248 -50.163893 
L 94.087704 -50.164566 
L 94.681159 -50.165252 
L 95.274193 -50.165951 
L 95.867227 -50.166664 
L 96.460261 -50.167392 
L 97.052874 -50.168133 
L 97.645487 -50.16889 
L 98.2381 -50.169662 
L 98.830291 -50.170449 
L 99.422483 -50.171253 
L 100.014675 -50.172073 
L 100.606866 -50.172911 
L 101.198637 -50.173765 
L 101.790407 -50.174638 
L 102.381756 -50.175529 
L 102.973106 -50.176439 
L 103.564455 -50.177369 
L 104.155804 -50.178319 
L 104.746732 -50.17929 
L 105.33766 -50.180282 
L 105.928589 -50.181296 
L 106.519095 -50.182332 
L 107.109602 -50.183392 
L 107.700109 -50.184476 
L 108.290195 -50.185584 
L 108.880702 -50.186719 
L 109.470366 -50.187879 
L 110.060452 -50.189066 
L 110.650117 -50.190282 
L 111.239781 -50.191526 
L 111.829446 -50.1928 
L 112.418689 -50.194105 
L 113.007932 -50.195441 
L 113.597176 -50.196811 
L 114.185998 -50.198213 
L 114.775241 -50.199652 
L 115.363642 -50.201126 
L 115.952464 -50.202638 
L 116.540865 -50.204188 
L 117.129266 -50.205778 
L 117.717667 -50.20741 
L 118.305647 -50.209084 
L 118.893627 -50.210802 
L 119.481606 -50.212567 
L 120.069165 -50.214379 
L 120.657145 -50.216242 
L 121.244703 -50.218154 
L 121.831841 -50.220119 
L 122.418978 -50.222139 
L 123.006116 -50.224217 
L 123.593253 -50.226355 
L 124.18039 -50.228554 
L 124.767107 -50.230816 
L 125.353823 -50.233145 
L 125.940118 -50.235543 
L 126.526413 -50.238012 
L 127.112708 -50.240557 
L 127.699003 -50.24318 
L 128.285298 -50.245885 
L 128.871172 -50.248672 
L 129.457045 -50.251549 
L 130.042498 -50.254516 
L 130.627951 -50.257579 
L 131.213403 -50.260742 
L 131.798856 -50.264011 
L 132.384309 -50.267389 
L 132.96934 -50.27088 
L 133.554371 -50.274491 
L 134.138982 -50.278224 
L 134.723592 -50.282089 
L 135.308202 -50.286091 
L 135.892813 -50.290237 
L 136.477423 -50.294535 
L 137.061612 -50.298988 
L 137.645801 -50.303607 
L 138.229569 -50.308398 
L 138.813758 -50.313376 
L 139.397526 -50.318544 
L 139.980872 -50.323911 
L 140.56464 -50.329497 
L 141.147987 -50.335304 
L 141.731334 -50.34135 
L 142.31468 -50.347647 
L 142.897606 -50.354205 
L 143.480531 -50.361044 
L 144.063457 -50.368179 
L 144.646382 -50.37563 
L 145.228887 -50.383408 
L 145.811391 -50.39154 
L 146.393895 -50.400047 
L 146.975978 -50.408947 
L 147.558062 -50.418271 
L 148.140145 -50.428048 
L 148.722228 -50.438306 
L 149.30389 -50.44907 
L 149.885973 -50.460392 
L 150.467214 -50.472285 
L 151.048876 -50.484815 
L 151.630116 -50.49801 
L 152.211357 -50.51193 
L 152.792598 -50.526627 
L 153.373417 -50.542151 
L 153.954658 -50.55859 
L 154.535478 -50.575992 
L 155.115876 -50.594436 
L 155.696696 -50.614034 
L 156.277094 -50.634858 
L 156.857492 -50.657028 
L 157.437469 -50.680646 
L 158.017868 -50.705882 
L 158.597845 -50.732849 
L 159.177822 -50.761731 
L 159.757378 -50.792694 
L 160.336934 -50.82597 
L 160.91649 -50.861799 
L 161.496046 -50.900452 
L 162.075602 -50.94224 
L 162.654737 -50.987482 
L 163.233872 -51.03661 
L 163.812585 -51.09005 
L 164.39172 -51.148417 
L 164.970434 -51.212249 
L 165.549147 -51.282313 
L 166.12744 -51.359402 
L 166.706153 -51.44463 
L 167.284446 -51.539061 
L 167.862738 -51.644168 
L 168.440609 -51.761558 
L 169.018902 -51.89345 
L 169.596773 -52.042148 
L 170.174223 -52.210668 
L 170.752094 -52.403042 
L 171.329544 -52.623718 
L 171.906995 -52.878796 
L 172.484445 -53.175904 
L 173.061473 -53.524639 
L 173.638923 -53.93845 
L 174.215952 -54.433961 
L 174.79256 -55.03429 
L 175.369589 -55.772503 
L 175.946197 -56.692878 
L 176.522804 -57.86138 
L 177.098991 -59.37392 
L 177.675598 -61.381276 
L 178.251785 -64.115517 
L 178.827971 -67.964237 
L 179.403737 -73.584291 
L 179.979923 -82.161613 
L 180.555688 -95.824796 
L 181.131454 -118.301584 
L 181.706798 -154.294605 
L 182.282563 -202.052959 
L 182.857907 -222.942982 
L 183.433251 -182.796275 
L 184.008174 -138.764778 
L 184.583097 -108.902227 
L 185.15802 -90.7989 
L 185.732943 -79.861184 
L 186.307866 -73.09216 
L 186.882367 -68.848909 
L 187.456869 -66.258942 
L 188.031371 -64.893313 
L 188.605451 -64.596177 
L 189.179953 -65.414988 
L 189.754034 -67.601794 
L 190.327693 -71.732627 
L 190.901774 -79.074492 
L 191.475433 -92.44175 
L 192.049092 -118.47662 
L 192.622752 -172.152399 
L 193.19599 -268.721634 
L 193.769228 -292.032 
L 194.342466 -193.525343 
L 194.915704 -128.799452 
L 195.488521 -96.815868 
L 196.061759 -80.425491 
L 196.634576 -71.254409 
L 197.206972 -65.685651 
L 197.779789 -62.068968 
L 198.352185 -59.597362 
L 198.924581 -57.834043 
L 199.496976 -56.532061 
L 200.068951 -55.543617 
L 200.640926 -54.774453 
L 201.2129 -54.163677 
L 201.784875 -53.670161 
L 202.356428 -53.265602 
L 202.927982 -52.929293 
L 203.499535 -52.646454 
L 204.071088 -52.406121 
L 204.642221 -52.20016 
L 205.213353 -52.022054 
L 205.784485 -51.866886 
L 206.355617 -51.730789 
L 206.926328 -51.610769 
L 207.49746 -51.504177 
L 208.068171 -51.409166 
L 208.638461 -51.32407 
L 209.209172 -51.247411 
L 209.779462 -51.178178 
L 210.349752 -51.115371 
L 210.919621 -51.058236 
L 211.48991 -51.006018 
L 212.059779 -50.95822 
L 212.629648 -50.914312 
L 213.199095 -50.8739 
L 213.768964 -50.836558 
L 214.338411 -50.802026 
L 214.907859 -50.769996 
L 215.477306 -50.740227 
L 216.046332 -50.712524 
L 216.615359 -50.686677 
L 217.184385 -50.66252 
L 217.753411 -50.639905 
L 218.322016 -50.618714 
L 218.890621 -50.598814 
L 219.459227 -50.580099 
L 220.027832 -50.562475 
L 220.596015 -50.545868 
L 221.164199 -50.530189 
L 221.732383 -50.515367 
L 222.300567 -50.501341 
L 222.86833 -50.488062 
L 223.436514 -50.475459 
L 224.003855 -50.463513 
L 224.571618 -50.452151 
L 225.139381 -50.441344 
L 225.706722 -50.431064 
L 226.274064 -50.421268 
L 226.840984 -50.411933 
L 227.408325 -50.403017 
L 227.975246 -50.394507 
L 228.542166 -50.386372 
L 229.109086 -50.378591 
L 229.675586 -50.371147 
L 230.242085 -50.364017 
L 230.808584 -50.357183 
L 231.375083 -50.350628 
L 231.941161 -50.344341 
L 232.50766 -50.3383 
L 233.073738 -50.332499 
L 233.639395 -50.326926 
L 234.205473 -50.321561 
L 234.771129 -50.316402 
L 235.336786 -50.311433 
L 235.902443 -50.306646 
L 236.467679 -50.302036 
L 237.033335 -50.297586 
L 237.598571 -50.293296 
L 238.163385 -50.289159 
L 238.728621 -50.28516 
L 239.293435 -50.2813 
L 239.85825 -50.277569 
L 240.423064 -50.273962 
L 240.987457 -50.270475 
L 241.552271 -50.267098 
L 242.116665 -50.263832 
L 242.681058 -50.26067 
L 243.24503 -50.257608 
L 243.809002 -50.254641 
L 244.372974 -50.251765 
L 244.936946 -50.248976 
L 245.500918 -50.24627 
L 246.064469 -50.243647 
L 246.628019 -50.2411 
L 247.19157 -50.238628 
L 247.755121 -50.236226 
L 248.318251 -50.233895 
L 248.88138 -50.231629 
L 249.44451 -50.229426 
L 250.00764 -50.227284 
L 250.570348 -50.225202 
L 251.133056 -50.223177 
L 251.695765 -50.221206 
L 252.258473 -50.219287 
L 252.820761 -50.217421 
L 253.383048 -50.215603 
L 253.945335 -50.213832 
L 254.507622 -50.212106 
L 255.069488 -50.210426 
L 255.631354 -50.208787 
L 256.19322 -50.20719 
L 256.755086 -50.205632 
L 257.316953 -50.204112 
L 257.878397 -50.202631 
L 258.439842 -50.201185 
L 259.000866 -50.199775 
L 259.562311 -50.198397 
L 260.123334 -50.197052 
L 260.684358 -50.195739 
L 261.245382 -50.194457 
L 261.805984 -50.193204 
L 262.367008 -50.191979 
L 262.92761 -50.190783 
L 263.488213 -50.189614 
L 264.048394 -50.188471 
L 264.608576 -50.187354 
L 265.169178 -50.18626 
L 265.728938 -50.185192 
L 266.289119 -50.184146 
L 266.84888 -50.183123 
L 267.40864 -50.182121 
L 267.9684 -50.181141 
L 268.52816 -50.180182 
L 269.087499 -50.179243 
L 269.646838 -50.178323 
L 270.206177 -50.177422 
L 270.765516 -50.17654 
L 271.324433 -50.175676 
L 271.883772 -50.174829 
L 272.442269 -50.173999 
L 273.001187 -50.173186 
L 273.560104 -50.172389 
L 274.118601 -50.171607 
L 274.677097 -50.170841 
L 275.235594 -50.17009 
L 275.793669 -50.169353 
L 276.351745 -50.168631 
L 276.90982 -50.167922 
L 277.467895 -50.167226 
L 278.025971 -50.166544 
L 278.583625 -50.165874 
L 279.141279 -50.165217 
L 279.698933 -50.164572 
L 280.256166 -50.163939 
L 280.81382 -50.163317 
L 281.371053 -50.162706 
L 281.928286 -50.162107 
L 282.485098 -50.161518 
L 283.042331 -50.16094 
L 283.599143 -50.160372 
L 284.155955 -50.159813 
L 284.712766 -50.159265 
L 285.269157 -50.158726 
L 285.825548 -50.158197 
L 286.381938 -50.157676 
L 286.938329 -50.157164 
L 287.494719 -50.156661 
L 288.050689 -50.156167 
L 288.606658 -50.15568 
L 289.162628 -50.155202 
L 289.718176 -50.154732 
L 290.274145 -50.15427 
L 290.829693 -50.153815 
L 291.38482 -50.153367 
L 291.940369 -50.152927 
L 292.495496 -50.152494 
L 293.051044 -50.152067 
L 293.606171 -50.151648 
L 294.160877 -50.151235 
L 294.716004 -50.150829 
L 295.27071 -50.150429 
L 295.825415 -50.150035 
L 296.380121 -50.149648 
L 296.934406 -50.149266 
L 297.488691 -50.148891 
L 298.042975 -50.148521 
L 298.59726 -50.148156 
L 299.151545 -50.147797 
L 299.705408 -50.147444 
L 300.259272 -50.147096 
L 300.813135 -50.146753 
L 301.366998 -50.146415 
L 301.920441 -50.146082 
L 302.473883 -50.145754 
L 303.027325 -50.14543 
L 303.580768 -50.145112 
L 304.13421 -50.144797 
L 304.687231 -50.144488 
L 305.240252 -50.144183 
L 305.793273 -50.143882 
L 306.345873 -50.143586 
L 306.898473 -50.143294 
L 307.451494 -50.143005 
L 308.003673 -50.142721 
L 308.556273 -50.142441 
L 309.108451 -50.142165 
L 309.661051 -50.141892 
L 310.21323 -50.141623 
L 310.764987 -50.141358 
L 311.317166 -50.141096 
L 311.868924 -50.140838 
L 312.420681 -50.140584 
L 312.972439 -50.140333 
L 313.524196 -50.140085 
L 314.075533 -50.13984 
L 314.626869 -50.139599 
L 315.178205 -50.139361 
L 315.729542 -50.139126 
L 316.280457 -50.138894 
L 316.831372 -50.138665 
L 317.382287 -50.138439 
L 317.933202 -50.138216 
L 318.484117 -50.137996 
L 319.034611 -50.137778 
L 319.585105 -50.137564 
L 320.135599 -50.137352 
L 320.685672 -50.137142 
L 321.236166 -50.136936 
L 321.786239 -50.136732 
L 322.336311 -50.13653 
L 322.886384 -50.136331 
L 323.436036 -50.136134 
L 323.986108 -50.13594 
L 324.53576 -50.135748 
L 325.085412 -50.135559 
L 325.634642 -50.135372 
L 326.184294 -50.135187 
L 326.733524 -50.135004 
L 327.282754 -50.134823 
L 327.831563 -50.134645 
L 328.380794 -50.134469 
L 328.929603 -50.134295 
L 329.478412 -50.134123 
L 330.027221 -50.133952 
L 330.576031 -50.133784 
L 331.124419 -50.133618 
L 331.672807 -50.133454 
L 332.221195 -50.133292 
L 332.769583 -50.133131 
L 333.317971 -50.132972 
L 333.865938 -50.132815 
L 334.413904 -50.13266 
L 334.961871 -50.132507 
L 335.509838 -50.132356 
L 336.057384 -50.132206 
L 336.60535 -50.132057 
L 337.152896 -50.131911 
L 337.70002 -50.131766 
L 338.247566 -50.131623 
L 338.794691 -50.131481 
L 339.342236 -50.131341 
L 339.889361 -50.131202 
L 340.436064 -50.131065 
L 340.983188 -50.130929 
L 341.529892 -50.130795 
L 342.076595 -50.130662 
L 342.623298 -50.130531 
L 343.170001 -50.130401 
L 343.716283 -50.130273 
L 344.262987 -50.130145 
L 344.809269 -50.13002 
L 345.35513 -50.129895 
L 345.901412 -50.129772 
L 346.447273 -50.12965 
L 346.993555 -50.129529 
L 347.539415 -50.12941 
L 348.085276 -50.129292 
L 348.630716 -50.129175 
L 349.176156 -50.129059 
L 349.722017 -50.128945 
L 350.267456 -50.128831 
L 350.812475 -50.128719 
L 351.357914 -50.128608 
L 351.902933 -50.128498 
L 352.447951 -50.128389 
L 352.99297 -50.128282 
L 353.537988 -50.128175 
L 354.083007 -50.128069 
L 354.627604 -50.127965 
L 355.172202 -50.127861 
L 355.716799 -50.127759 
L 356.261396 -50.127657 
L 356.805572 -50.127557 
L 357.35017 -50.127457 
L 357.894346 -50.127359 
L 358.438522 -50.127261 
L 358.982277 -50.127164 
L 359.526453 -50.127069 
L 360.070208 -50.126974 
L 360.613963 -50.12688 
L 361.157718 -50.126787 
L 361.701473 -50.126695 
L 362.245227 -50.126603 
L 362.788561 -50.126513 
L 363.331895 -50.126424 
L 363.875229 -50.126335 
L 364.418562 -50.126247 
L 364.961475 -50.12616 
L 365.504809 -50.126074 
L 366.047721 -50.125988 
L 366.590634 -50.125904 
L 367.133546 -50.12582 
L 367.676038 -50.125737 
L 368.21895 -50.125654 
L 368.761442 -50.125573 
L 369.303933 -50.125492 
L 369.846424 -50.125412 
L 370.388495 -50.125332 
L 370.930986 -50.125254 
L 371.473056 -50.125176 
L 372.015126 -50.125099 
L 372.557196 -50.125022 
L 373.099267 -50.124946 
L 373.640916 -50.124871 
L 374.182986 -50.124796 
L 374.724635 -50.124722 
L 375.266284 -50.124649 
L 375.807933 -50.124576 
L 376.349161 -50.124504 
L 376.89081 -50.124433 
L 377.432037 -50.124362 
L 377.973265 -50.124292 
L 378.514493 -50.124223 
L 379.0553 -50.124154 
L 379.596527 -50.124086 
L 380.137334 -50.124018 
L 380.678141 -50.123951 
L 381.218947 -50.123884 
L 381.759754 -50.123818 
L 382.30056 -50.123753 
L 382.840946 -50.123688 
L 383.381752 -50.123623 
L 383.922138 -50.123559 
L 384.462523 -50.123496 
L 385.002909 -50.123433 
L 385.542873 -50.123371 
L 386.083258 -50.123309 
L 386.623222 -50.123248 
L 387.163187 -50.123187 
L 387.703151 -50.123127 
L 388.243115 -50.123067 
L 388.782658 -50.123008 
L 389.322622 -50.122949 
L 389.862165 -50.122891 
L 390.401709 -50.122833 
L 390.941252 -50.122776 
L 391.480373 -50.122719 
L 392.019916 -50.122663 
L 392.55946 -50.122607 
L 393.098581 -50.122551 
L 393.637703 -50.122496 
L 394.176825 -50.122441 
L 394.715947 -50.122387 
L 395.254648 -50.122334 
L 395.793769 -50.12228 
L 396.33247 -50.122227 
L 396.871171 -50.122175 
L 397.409871 -50.122123 
L 397.948572 -50.122071 
L 398.487273 -50.12202 
z
" id="md5ed19553a" style="stroke:#ababab;"/>
    </defs>
    <g clip-path="url(#pf1b176fc38)">
     <use style="fill:#ababab;stroke:#ababab;" x="0" xlink:href="#md5ed19553a" y="345.6"/>
    </g>
   </g>
   <g id="matplotlib.axis_1">
    <g id="xtick_1">
     <g id="line2d_1">
      <defs>
       <path d="M 0 0 
L 0 3.5 
" id="m5954a10cf1" style="stroke:#000000;stroke-width:0.8;"/>
      </defs>
      <g>
       <use style="stroke:#000000;stroke-width:0.8;" x="64.103263" xlink:href="#m5954a10cf1" y="307.584"/>
      </g>
     </g>
     <g id="text_1">
      <!-- 100 -->
      <defs>
       <path d="M 12.40625 8.296875 
L 28.515625 8.296875 
L 28.515625 63.921875 
L 10.984375 60.40625 
L 10.984375 69.390625 
L 28.421875 72.90625 
L 38.28125 72.90625 
L 38.28125 8.296875 
L 54.390625 8.296875 
L 54.390625 0 
L 12.40625 0 
z
" id="DejaVuSans-31"/>
       <path d="M 31.78125 66.40625 
Q 24.171875 66.40625 20.328125 58.90625 
Q 16.5 51.421875 16.5 36.375 
Q 16.5 21.390625 20.328125 13.890625 
Q 24.171875 6.390625 31.78125 6.390625 
Q 39.453125 6.390625 43.28125 13.890625 
Q 47.125 21.390625 47.125 36.375 
Q 47.125 51.421875 43.28125 58.90625 
Q 39.453125 66.40625 31.78125 66.40625 
z
M 31.78125 74.21875 
Q 44.046875 74.21875 50.515625 64.515625 
Q 56.984375 54.828125 56.984375 36.375 
Q 56.984375 17.96875 50.515625 8.265625 
Q 44.046875 -1.421875 31.78125 -1.421875 
Q 19.53125 -1.421875 13.0625 8.265625 
Q 6.59375 17.96875 6.59375 36.375 
Q 6.59375 54.828125 13.0625 64.515625 
Q 19.53125 74.21875 31.78125 74.21875 
z
" id="DejaVuSans-30"/>
      </defs>
      <g transform="translate(54.559513 322.182437)scale(0.1 -0.1)">
       <use xlink:href="#DejaVuSans-31"/>
       <use x="63.623047" xlink:href="#DejaVuSans-30"/>
       <use x="127.246094" xlink:href="#DejaVuSans-30"/>
      </g>
     </g>
    </g>
    <g id="xtick_2">
     <g id="line2d_2">
      <g>
       <use style="stroke:#000000;stroke-width:0.8;" x="106.222157" xlink:href="#m5954a10cf1" y="307.584"/>
      </g>
     </g>
     <g id="text_2">
      <!-- 200 -->
      <defs>
       <path d="M 19.1875 8.296875 
L 53.609375 8.296875 
L 53.609375 0 
L 7.328125 0 
L 7.328125 8.296875 
Q 12.9375 14.109375 22.625 23.890625 
Q 32.328125 33.6875 34.8125 36.53125 
Q 39.546875 41.84375 41.421875 45.53125 
Q 43.3125 49.21875 43.3125 52.78125 
Q 43.3125 58.59375 39.234375 62.25 
Q 35.15625 65.921875 28.609375 65.921875 
Q 23.96875 65.921875 18.8125 64.3125 
Q 13.671875 62.703125 7.8125 59.421875 
L 7.8125 69.390625 
Q 13.765625 71.78125 18.9375 73 
Q 24.125 74.21875 28.421875 74.21875 
Q 39.75 74.21875 46.484375 68.546875 
Q 53.21875 62.890625 53.21875 53.421875 
Q 53.21875 48.921875 51.53125 44.890625 
Q 49.859375 40.875 45.40625 35.40625 
Q 44.1875 33.984375 37.640625 27.21875 
Q 31.109375 20.453125 19.1875 8.296875 
z
" id="DejaVuSans-32"/>
      </defs>
      <g transform="translate(96.678407 322.182437)scale(0.1 -0.1)">
       <use xlink:href="#DejaVuSans-32"/>
       <use x="63.623047" xlink:href="#DejaVuSans-30"/>
       <use x="127.246094" xlink:href="#DejaVuSans-30"/>
      </g>
     </g>
    </g>
    <g id="xtick_3">
     <g id="line2d_3">
      <g>
       <use style="stroke:#000000;stroke-width:0.8;" x="148.341052" xlink:href="#m5954a10cf1" y="307.584"/>
      </g>
     </g>
     <g id="text_3">
      <!-- 300 -->
      <defs>
       <path d="M 40.578125 39.3125 
Q 47.65625 37.796875 51.625 33 
Q 55.609375 28.21875 55.609375 21.1875 
Q 55.609375 10.40625 48.1875 4.484375 
Q 40.765625 -1.421875 27.09375 -1.421875 
Q 22.515625 -1.421875 17.65625 -0.515625 
Q 12.796875 0.390625 7.625 2.203125 
L 7.625 11.71875 
Q 11.71875 9.328125 16.59375 8.109375 
Q 21.484375 6.890625 26.8125 6.890625 
Q 36.078125 6.890625 40.9375 10.546875 
Q 45.796875 14.203125 45.796875 21.1875 
Q 45.796875 27.640625 41.28125 31.265625 
Q 36.765625 34.90625 28.71875 34.90625 
L 20.21875 34.90625 
L 20.21875 43.015625 
L 29.109375 43.015625 
Q 36.375 43.015625 40.234375 45.921875 
Q 44.09375 48.828125 44.09375 54.296875 
Q 44.09375 59.90625 40.109375 62.90625 
Q 36.140625 65.921875 28.71875 65.921875 
Q 24.65625 65.921875 20.015625 65.03125 
Q 15.375 64.15625 9.8125 62.3125 
L 9.8125 71.09375 
Q 15.4375 72.65625 20.34375 73.4375 
Q 25.25 74.21875 29.59375 74.21875 
Q 40.828125 74.21875 47.359375 69.109375 
Q 53.90625 64.015625 53.90625 55.328125 
Q 53.90625 49.265625 50.4375 45.09375 
Q 46.96875 40.921875 40.578125 39.3125 
z
" id="DejaVuSans-33"/>
      </defs>
      <g transform="translate(138.797302 322.182437)scale(0.1 -0.1)">
       <use xlink:href="#DejaVuSans-33"/>
       <use x="63.623047" xlink:href="#DejaVuSans-30"/>
       <use x="127.246094" xlink:href="#DejaVuSans-30"/>
      </g>
     </g>
    </g>
    <g id="xtick_4">
     <g id="line2d_4">
      <g>
       <use style="stroke:#000000;stroke-width:0.8;" x="190.459946" xlink:href="#m5954a10cf1" y="307.584"/>
      </g>
     </g>
     <g id="text_4">
      <!-- 400 -->
      <defs>
       <path d="M 37.796875 64.3125 
L 12.890625 25.390625 
L 37.796875 25.390625 
z
M 35.203125 72.90625 
L 47.609375 72.90625 
L 47.609375 25.390625 
L 58.015625 25.390625 
L 58.015625 17.1875 
L 47.609375 17.1875 
L 47.609375 0 
L 37.796875 0 
L 37.796875 17.1875 
L 4.890625 17.1875 
L 4.890625 26.703125 
z
" id="DejaVuSans-34"/>
      </defs>
      <g transform="translate(180.916196 322.182437)scale(0.1 -0.1)">
       <use xlink:href="#DejaVuSans-34"/>
       <use x="63.623047" xlink:href="#DejaVuSans-30"/>
       <use x="127.246094" xlink:href="#DejaVuSans-30"/>
      </g>
     </g>
    </g>
    <g id="xtick_5">
     <g id="line2d_5">
      <g>
       <use style="stroke:#000000;stroke-width:0.8;" x="232.578841" xlink:href="#m5954a10cf1" y="307.584"/>
      </g>
     </g>
     <g id="text_5">
      <!-- 500 -->
      <defs>
       <path d="M 10.796875 72.90625 
L 49.515625 72.90625 
L 49.515625 64.59375 
L 19.828125 64.59375 
L 19.828125 46.734375 
Q 21.96875 47.46875 24.109375 47.828125 
Q 26.265625 48.1875 28.421875 48.1875 
Q 40.625 48.1875 47.75 41.5 
Q 54.890625 34.8125 54.890625 23.390625 
Q 54.890625 11.625 47.5625 5.09375 
Q 40.234375 -1.421875 26.90625 -1.421875 
Q 22.3125 -1.421875 17.546875 -0.640625 
Q 12.796875 0.140625 7.71875 1.703125 
L 7.71875 11.625 
Q 12.109375 9.234375 16.796875 8.0625 
Q 21.484375 6.890625 26.703125 6.890625 
Q 35.15625 6.890625 40.078125 11.328125 
Q 45.015625 15.765625 45.015625 23.390625 
Q 45.015625 31 40.078125 35.4375 
Q 35.15625 39.890625 26.703125 39.890625 
Q 22.75 39.890625 18.8125 39.015625 
Q 14.890625 38.140625 10.796875 36.28125 
z
" id="DejaVuSans-35"/>
      </defs>
      <g transform="translate(223.035091 322.182437)scale(0.1 -0.1)">
       <use xlink:href="#DejaVuSans-35"/>
       <use x="63.623047" xlink:href="#DejaVuSans-30"/>
       <use x="127.246094" xlink:href="#DejaVuSans-30"/>
      </g>
     </g>
    </g>
    <g id="xtick_6">
     <g id="line2d_6">
      <g>
       <use style="stroke:#000000;stroke-width:0.8;" x="274.697736" xlink:href="#m5954a10cf1" y="307.584"/>
      </g>
     </g>
     <g id="text_6">
      <!-- 600 -->
      <defs>
       <path d="M 33.015625 40.375 
Q 26.375 40.375 22.484375 35.828125 
Q 18.609375 31.296875 18.609375 23.390625 
Q 18.609375 15.53125 22.484375 10.953125 
Q 26.375 6.390625 33.015625 6.390625 
Q 39.65625 6.390625 43.53125 10.953125 
Q 47.40625 15.53125 47.40625 23.390625 
Q 47.40625 31.296875 43.53125 35.828125 
Q 39.65625 40.375 33.015625 40.375 
z
M 52.59375 71.296875 
L 52.59375 62.3125 
Q 48.875 64.0625 45.09375 64.984375 
Q 41.3125 65.921875 37.59375 65.921875 
Q 27.828125 65.921875 22.671875 59.328125 
Q 17.53125 52.734375 16.796875 39.40625 
Q 19.671875 43.65625 24.015625 45.921875 
Q 28.375 48.1875 33.59375 48.1875 
Q 44.578125 48.1875 50.953125 41.515625 
Q 57.328125 34.859375 57.328125 23.390625 
Q 57.328125 12.15625 50.6875 5.359375 
Q 44.046875 -1.421875 33.015625 -1.421875 
Q 20.359375 -1.421875 13.671875 8.265625 
Q 6.984375 17.96875 6.984375 36.375 
Q 6.984375 53.65625 15.1875 63.9375 
Q 23.390625 74.21875 37.203125 74.21875 
Q 40.921875 74.21875 44.703125 73.484375 
Q 48.484375 72.75 52.59375 71.296875 
z
" id="DejaVuSans-36"/>
      </defs>
      <g transform="translate(265.153986 322.182437)scale(0.1 -0.1)">
       <use xlink:href="#DejaVuSans-36"/>
       <use x="63.623047" xlink:href="#DejaVuSans-30"/>
       <use x="127.246094" xlink:href="#DejaVuSans-30"/>
      </g>
     </g>
    </g>
    <g id="xtick_7">
     <g id="line2d_7">
      <g>
       <use style="stroke:#000000;stroke-width:0.8;" x="316.81663" xlink:href="#m5954a10cf1" y="307.584"/>
      </g>
     </g>
     <g id="text_7">
      <!-- 700 -->
      <defs>
       <path d="M 8.203125 72.90625 
L 55.078125 72.90625 
L 55.078125 68.703125 
L 28.609375 0 
L 18.3125 0 
L 43.21875 64.59375 
L 8.203125 64.59375 
z
" id="DejaVuSans-37"/>
      </defs>
      <g transform="translate(307.27288 322.182437)scale(0.1 -0.1)">
       <use xlink:href="#DejaVuSans-37"/>
       <use x="63.623047" xlink:href="#DejaVuSans-30"/>
       <use x="127.246094" xlink:href="#DejaVuSans-30"/>
      </g>
     </g>
    </g>
    <g id="xtick_8">
     <g id="line2d_8">
      <g>
       <use style="stroke:#000000;stroke-width:0.8;" x="358.935525" xlink:href="#m5954a10cf1" y="307.584"/>
      </g>
     </g>
     <g id="text_8">
      <!-- 800 -->
      <defs>
       <path d="M 31.78125 34.625 
Q 24.75 34.625 20.71875 30.859375 
Q 16.703125 27.09375 16.703125 20.515625 
Q 16.703125 13.921875 20.71875 10.15625 
Q 24.75 6.390625 31.78125 6.390625 
Q 38.8125 6.390625 42.859375 10.171875 
Q 46.921875 13.96875 46.921875 20.515625 
Q 46.921875 27.09375 42.890625 30.859375 
Q 38.875 34.625 31.78125 34.625 
z
M 21.921875 38.8125 
Q 15.578125 40.375 12.03125 44.71875 
Q 8.5 49.078125 8.5 55.328125 
Q 8.5 64.0625 14.71875 69.140625 
Q 20.953125 74.21875 31.78125 74.21875 
Q 42.671875 74.21875 48.875 69.140625 
Q 55.078125 64.0625 55.078125 55.328125 
Q 55.078125 49.078125 51.53125 44.71875 
Q 48 40.375 41.703125 38.8125 
Q 48.828125 37.15625 52.796875 32.3125 
Q 56.78125 27.484375 56.78125 20.515625 
Q 56.78125 9.90625 50.3125 4.234375 
Q 43.84375 -1.421875 31.78125 -1.421875 
Q 19.734375 -1.421875 13.25 4.234375 
Q 6.78125 9.90625 6.78125 20.515625 
Q 6.78125 27.484375 10.78125 32.3125 
Q 14.796875 37.15625 21.921875 38.8125 
z
M 18.3125 54.390625 
Q 18.3125 48.734375 21.84375 45.5625 
Q 25.390625 42.390625 31.78125 42.390625 
Q 38.140625 42.390625 41.71875 45.5625 
Q 45.3125 48.734375 45.3125 54.390625 
Q 45.3125 60.0625 41.71875 63.234375 
Q 38.140625 66.40625 31.78125 66.40625 
Q 25.390625 66.40625 21.84375 63.234375 
Q 18.3125 60.0625 18.3125 54.390625 
z
" id="DejaVuSans-38"/>
      </defs>
      <g transform="translate(349.391775 322.182437)scale(0.1 -0.1)">
       <use xlink:href="#DejaVuSans-38"/>
       <use x="63.623047" xlink:href="#DejaVuSans-30"/>
       <use x="127.246094" xlink:href="#DejaVuSans-30"/>
      </g>
     </g>
    </g>
    <g id="xtick_9">
     <g id="line2d_9">
      <g>
       <use style="stroke:#000000;stroke-width:0.8;" x="401.054419" xlink:href="#m5954a10cf1" y="307.584"/>
      </g>
     </g>
     <g id="text_9">
      <!-- 900 -->
      <defs>
       <path d="M 10.984375 1.515625 
L 10.984375 10.5 
Q 14.703125 8.734375 18.5 7.8125 
Q 22.3125 6.890625 25.984375 6.890625 
Q 35.75 6.890625 40.890625 13.453125 
Q 46.046875 20.015625 46.78125 33.40625 
Q 43.953125 29.203125 39.59375 26.953125 
Q 35.25 24.703125 29.984375 24.703125 
Q 19.046875 24.703125 12.671875 31.3125 
Q 6.296875 37.9375 6.296875 49.421875 
Q 6.296875 60.640625 12.9375 67.421875 
Q 19.578125 74.21875 30.609375 74.21875 
Q 43.265625 74.21875 49.921875 64.515625 
Q 56.59375 54.828125 56.59375 36.375 
Q 56.59375 19.140625 48.40625 8.859375 
Q 40.234375 -1.421875 26.421875 -1.421875 
Q 22.703125 -1.421875 18.890625 -0.6875 
Q 15.09375 0.046875 10.984375 1.515625 
z
M 30.609375 32.421875 
Q 37.25 32.421875 41.125 36.953125 
Q 45.015625 41.5 45.015625 49.421875 
Q 45.015625 57.28125 41.125 61.84375 
Q 37.25 66.40625 30.609375 66.40625 
Q 23.96875 66.40625 20.09375 61.84375 
Q 16.21875 57.28125 16.21875 49.421875 
Q 16.21875 41.5 20.09375 36.953125 
Q 23.96875 32.421875 30.609375 32.421875 
z
" id="DejaVuSans-39"/>
      </defs>
      <g transform="translate(391.510669 322.182437)scale(0.1 -0.1)">
       <use xlink:href="#DejaVuSans-39"/>
       <use x="63.623047" xlink:href="#DejaVuSans-30"/>
       <use x="127.246094" xlink:href="#DejaVuSans-30"/>
      </g>
     </g>
    </g>
   </g>
   <g id="matplotlib.axis_2">
    <g id="ytick_1">
     <g id="line2d_10">
      <defs>
       <path d="M 0 0 
L -3.5 0 
" id="m6b29dadc00" style="stroke:#000000;stroke-width:0.8;"/>
      </defs>
      <g>
       <use style="stroke:#000000;stroke-width:0.8;" x="57.6" xlink:href="#m6b29dadc00" y="295.488"/>
      </g>
     </g>
     <g id="text_10">
      <!-- 0 -->
      <g transform="translate(44.2375 299.287219)scale(0.1 -0.1)">
       <use xlink:href="#DejaVuSans-30"/>
      </g>
     </g>
    </g>
    <g id="ytick_2">
     <g id="line2d_11">
      <g>
       <use style="stroke:#000000;stroke-width:0.8;" x="57.6" xlink:href="#m6b29dadc00" y="260.109112"/>
      </g>
     </g>
     <g id="text_11">
      <!-- 100 -->
      <g transform="translate(31.5125 263.908331)scale(0.1 -0.1)">
       <use xlink:href="#DejaVuSans-31"/>
       <use x="63.623047" xlink:href="#DejaVuSans-30"/>
       <use x="127.246094" xlink:href="#DejaVuSans-30"/>
      </g>
     </g>
    </g>
    <g id="ytick_3">
     <g id="line2d_12">
      <g>
       <use style="stroke:#000000;stroke-width:0.8;" x="57.6" xlink:href="#m6b29dadc00" y="224.730224"/>
      </g>
     </g>
     <g id="text_12">
      <!-- 200 -->
      <g transform="translate(31.5125 228.529442)scale(0.1 -0.1)">
       <use xlink:href="#DejaVuSans-32"/>
       <use x="63.623047" xlink:href="#DejaVuSans-30"/>
       <use x="127.246094" xlink:href="#DejaVuSans-30"/>
      </g>
     </g>
    </g>
    <g id="ytick_4">
     <g id="line2d_13">
      <g>
       <use style="stroke:#000000;stroke-width:0.8;" x="57.6" xlink:href="#m6b29dadc00" y="189.351335"/>
      </g>
     </g>
     <g id="text_13">
      <!-- 300 -->
      <g transform="translate(31.5125 193.150554)scale(0.1 -0.1)">
       <use xlink:href="#DejaVuSans-33"/>
       <use x="63.623047" xlink:href="#DejaVuSans-30"/>
       <use x="127.246094" xlink:href="#DejaVuSans-30"/>
      </g>
     </g>
    </g>
    <g id="ytick_5">
     <g id="line2d_14">
      <g>
       <use style="stroke:#000000;stroke-width:0.8;" x="57.6" xlink:href="#m6b29dadc00" y="153.972447"/>
      </g>
     </g>
     <g id="text_14">
      <!-- 400 -->
      <g transform="translate(31.5125 157.771666)scale(0.1 -0.1)">
       <use xlink:href="#DejaVuSans-34"/>
       <use x="63.623047" xlink:href="#DejaVuSans-30"/>
       <use x="127.246094" xlink:href="#DejaVuSans-30"/>
      </g>
     </g>
    </g>
    <g id="ytick_6">
     <g id="line2d_15">
      <g>
       <use style="stroke:#000000;stroke-width:0.8;" x="57.6" xlink:href="#m6b29dadc00" y="118.593559"/>
      </g>
     </g>
     <g id="text_15">
      <!-- 500 -->
      <g transform="translate(31.5125 122.392778)scale(0.1 -0.1)">
       <use xlink:href="#DejaVuSans-35"/>
       <use x="63.623047" xlink:href="#DejaVuSans-30"/>
       <use x="127.246094" xlink:href="#DejaVuSans-30"/>
      </g>
     </g>
    </g>
    <g id="ytick_7">
     <g id="line2d_16">
      <g>
       <use style="stroke:#000000;stroke-width:0.8;" x="57.6" xlink:href="#m6b29dadc00" y="83.214671"/>
      </g>
     </g>
     <g id="text_16">
      <!-- 600 -->
      <g transform="translate(31.5125 87.01389)scale(0.1 -0.1)">
       <use xlink:href="#DejaVuSans-36"/>
       <use x="63.623047" xlink:href="#DejaVuSans-30"/>
       <use x="127.246094" xlink:href="#DejaVuSans-30"/>
      </g>
     </g>
    </g>
    <g id="ytick_8">
     <g id="line2d_17">
      <g>
       <use style="stroke:#000000;stroke-width:0.8;" x="57.6" xlink:href="#m6b29dadc00" y="47.835783"/>
      </g>
     </g>
     <g id="text_17">
      <!-- 700 -->
      <g transform="translate(31.5125 51.635002)scale(0.1 -0.1)">
       <use xlink:href="#DejaVuSans-37"/>
       <use x="63.623047" xlink:href="#DejaVuSans-30"/>
       <use x="127.246094" xlink:href="#DejaVuSans-30"/>
      </g>
     </g>
    </g>
   </g>
   <g id="line2d_18">
    <path clip-path="url(#pf1b176fc38)" d="M 398.487273 284.42067 
L 397.948572 277.503567 
L 397.409871 289.263368 
L 396.871171 283.040257 
L 396.33247 283.041778 
L 395.793769 271.290008 
L 395.254648 280.279713 
L 394.715947 279.59039 
L 394.176825 285.812405 
L 393.637703 280.976429 
L 393.098581 287.88766 
L 392.55946 292.033733 
L 392.019916 278.218857 
L 391.480373 278.911717 
L 390.941252 282.366784 
L 390.401709 287.201981 
L 389.862165 281.679761 
L 389.322622 285.823478 
L 388.782658 285.824752 
L 388.243115 278.234424 
L 387.703151 282.377009 
L 387.163187 278.238952 
L 386.623222 283.760217 
L 386.083258 284.45152 
L 385.002909 280.316896 
L 384.462523 278.93995 
L 383.922138 270.66925 
L 383.381752 275.497831 
L 382.840946 287.906552 
L 382.30056 281.016266 
L 381.759754 276.884047 
L 381.218947 281.020228 
L 380.678141 278.955693 
L 380.137334 275.514212 
L 379.596527 283.092193 
L 379.0553 273.454064 
L 378.514493 277.58791 
L 377.973265 283.785725 
L 377.432037 285.16391 
L 376.89081 277.595446 
L 376.349161 276.221825 
L 375.807933 281.728407 
L 375.266284 290.672827 
L 374.724635 277.605599 
L 374.182986 278.295842 
L 373.640916 276.235552 
L 373.099267 281.050725 
L 372.557196 274.866318 
L 372.015126 283.116781 
L 371.473056 282.431386 
L 370.930986 288.617102 
L 370.388495 279.000235 
L 369.846424 285.871523 
L 369.303933 279.005047 
L 368.761442 279.007488 
L 368.21895 277.636733 
L 367.676038 283.131251 
L 367.133546 275.582847 
L 366.590634 282.448651 
L 366.047721 274.902617 
L 365.504809 276.27783 
L 364.961475 274.222776 
L 364.418562 283.142325 
L 363.875229 275.600713 
L 363.331895 279.717719 
L 362.788561 279.034517 
L 362.245227 284.520686 
L 361.701473 278.354181 
L 361.157718 279.042018 
L 360.613963 287.951412 
L 360.070208 283.842331 
L 359.526453 278.364654 
L 358.982277 274.258297 
L 358.438522 283.847709 
L 357.894346 277.687926 
L 357.35017 283.166807 
L 356.805572 284.537527 
L 356.261396 278.380539 
L 355.716799 278.383192 
L 355.172202 277.017673 
L 354.627604 277.020574 
L 354.083007 272.236358 
L 353.537988 283.864019 
L 352.99297 278.396601 
L 352.447951 281.133476 
L 351.902933 279.768877 
L 351.357914 276.354673 
L 350.812475 280.457067 
L 350.267456 268.846494 
L 349.722017 275.680811 
L 349.176156 275.001076 
L 348.630716 272.955964 
L 348.085276 277.738341 
L 347.539415 277.058606 
L 346.993555 278.426496 
L 346.447273 278.42922 
L 345.901412 277.749733 
L 345.35513 286.620317 
L 344.809269 282.529633 
L 344.262987 284.577434 
L 343.716283 275.03405 
L 343.170001 292.079559 
L 342.623298 275.722275 
L 342.076595 283.221609 
L 341.529892 278.454127 
L 340.983188 270.282028 
L 340.436064 281.184245 
L 339.889361 279.824563 
L 339.342236 273.698956 
L 338.794691 271.660177 
L 338.247566 275.067518 
L 337.70002 277.112595 
L 337.152896 279.837477 
L 336.60535 279.840059 
L 336.057384 272.360078 
L 335.509838 278.485012 
L 334.961871 281.88786 
L 334.413904 277.810762 
L 333.865938 281.892389 
L 333.317971 279.175998 
L 332.769583 274.421853 
L 332.221195 278.50203 
L 331.672807 285.298137 
L 331.124419 274.432467 
L 330.576031 279.868787 
L 330.027221 282.587336 
L 329.478412 283.94723 
L 328.929603 277.840409 
L 327.831563 279.203416 
L 327.282754 273.778913 
L 326.733524 285.313598 
L 326.184294 288.706221 
L 325.634642 285.31703 
L 325.085412 279.89518 
L 324.53576 292.098833 
L 323.986108 277.189614 
L 323.436036 276.515151 
L 322.886384 281.938275 
L 321.786239 283.297426 
L 321.236166 279.913824 
L 320.135599 277.211549 
L 319.585105 272.477147 
L 319.034611 273.834458 
L 318.484117 278.574097 
L 317.933202 269.106848 
L 317.382287 275.198314 
L 316.831372 278.582835 
L 316.280457 276.5575 
L 315.729542 278.588708 
L 315.178205 290.757029 
L 314.626869 284.00044 
L 314.075533 271.165651 
L 313.524196 281.302446 
L 312.972439 279.954121 
L 312.420681 286.03423 
L 311.868924 278.609228 
L 311.317166 284.012433 
L 310.764987 290.763574 
L 310.21323 281.992051 
L 309.661051 278.621009 
L 309.108451 286.044136 
L 308.556273 284.696908 
L 307.451494 277.95861 
L 306.898473 289.421193 
L 306.345873 280.660637 
L 305.793273 286.727904 
L 305.240252 285.381985 
L 304.687231 275.953122 
L 304.13421 282.691562 
L 303.580768 282.020425 
L 303.027325 279.329754 
L 302.473883 286.737174 
L 301.920441 282.027536 
L 301.366998 290.77769 
L 300.813135 277.995581 
L 300.259272 286.743329 
L 299.705408 290.107614 
L 299.151545 282.71187 
L 298.59726 282.041829 
L 298.042975 282.716398 
L 297.488691 278.014155 
L 296.934406 277.345317 
L 296.380121 273.317537 
L 295.825415 282.725455 
L 295.27071 276.683378 
L 294.716004 284.072931 
L 294.160877 288.774467 
L 293.051044 280.72347 
L 292.495496 278.042104 
L 291.940369 288.108353 
L 291.38482 280.73136 
L 290.829693 283.416546 
L 290.274145 286.771279 
L 289.718176 283.420863 
L 289.162628 284.763562 
L 288.606658 286.775949 
L 288.050689 282.757296 
L 287.494719 281.419727 
L 286.938329 284.101446 
L 286.381938 283.433811 
L 285.825548 282.096843 
L 285.269157 277.413174 
L 284.712766 284.109584 
L 284.155955 277.419648 
L 283.599143 280.768295 
L 283.042331 281.439893 
L 282.485098 281.442405 
L 281.928286 279.438792 
L 281.371053 276.767297 
L 280.81382 285.460845 
L 280.256166 273.432235 
L 279.698933 278.782089 
L 279.141279 279.453227 
L 278.583625 286.136051 
L 278.025971 286.805632 
L 277.467895 280.797377 
L 276.90982 281.467665 
L 276.351745 273.460043 
L 275.793669 280.13795 
L 275.235594 288.815259 
L 274.677097 270.803336 
L 273.560104 272.146071 
L 272.442269 277.487894 
L 271.883772 278.824225 
L 271.324433 276.827971 
L 270.765516 282.161799 
L 270.206177 277.500913 
L 269.646838 269.511334 
L 269.087499 280.837142 
L 268.52816 288.163898 
L 267.9684 270.856864 
L 266.84888 277.520442 
L 266.289119 285.507828 
L 265.728938 277.526952 
L 265.169178 277.530207 
L 264.608576 280.85837 
L 264.048394 282.190774 
L 263.488213 282.19318 
L 262.92761 282.860213 
L 262.367008 277.546517 
L 261.805984 274.227871 
L 261.245382 276.888752 
L 260.684358 276.228016 
L 260.123334 289.511834 
L 259.562311 282.873976 
L 259.000866 281.548718 
L 258.439842 274.251044 
L 257.878397 276.909025 
L 257.316953 288.190467 
L 256.755086 281.558836 
L 256.19322 272.94015 
L 255.631354 291.509679 
L 255.069488 281.566443 
L 254.507622 279.580555 
L 253.383048 279.586357 
L 252.820761 286.876177 
L 252.258473 274.955862 
L 251.695765 280.257247 
L 251.133056 283.570445 
L 250.570348 278.938888 
L 250.00764 288.869565 
L 249.44451 282.253536 
L 248.88138 286.88718 
L 248.318251 282.258348 
L 247.755121 288.874377 
L 247.19157 276.973273 
L 246.628019 284.248976 
L 246.064469 289.539005 
L 245.500918 274.33988 
L 244.936946 284.915868 
L 244.372974 284.917814 
L 243.809002 294.827483 
L 243.24503 275.676141 
L 242.681058 286.244133 
L 242.116665 286.245832 
L 241.552271 269.086646 
L 240.987457 283.609574 
L 240.423064 277.673598 
L 239.85825 285.592914 
L 239.293435 288.232922 
L 238.163385 279.005259 
L 237.598571 289.555314 
L 237.033335 280.32942 
L 236.467679 280.332215 
L 235.902443 275.064369 
L 235.336786 276.385523 
L 234.771129 286.92638 
L 234.205473 276.392528 
L 233.639395 282.979476 
L 233.073738 283.639964 
L 232.50766 274.428717 
L 231.941161 276.406503 
L 230.808584 290.226063 
L 230.242085 279.047501 
L 229.675586 283.653019 
L 229.109086 286.284678 
L 228.542166 281.02833 
L 227.975246 289.573747 
L 227.408325 280.376615 
L 226.840984 286.94835 
L 226.274064 284.322812 
L 225.706722 282.354897 
L 225.139381 286.296529 
L 224.571618 279.077644 
L 224.003855 287.612483 
L 223.436514 281.052211 
L 222.86833 288.271414 
L 222.300567 280.401593 
L 221.732383 292.208947 
L 221.164199 285.652634 
L 220.027832 275.824555 
L 219.459227 268.619539 
L 218.890621 281.073438 
L 218.322016 281.076091 
L 217.753411 275.184056 
L 217.184385 277.152325 
L 216.615359 277.810443 
L 216.046332 285.668943 
L 215.477306 279.78041 
L 214.907859 275.202772 
L 214.338411 271.935284 
L 213.768964 274.556116 
L 213.199095 273.905994 
L 212.629648 282.410406 
L 212.059779 274.56772 
L 211.48991 277.186112 
L 210.919621 268.04028 
L 210.349752 272.619122 
L 209.779462 267.397127 
L 209.209172 277.852792 
L 208.638461 273.284811 
L 208.068171 281.123888 
L 207.49746 272.640243 
L 206.926328 279.171186 
L 206.355617 279.826757 
L 205.784485 278.524814 
L 205.213353 276.571015 
L 204.642221 278.531111 
L 204.071088 286.359044 
L 202.927982 276.58506 
L 202.356428 265.509558 
L 201.2129 283.761668 
L 200.640926 279.855803 
L 200.068951 278.556266 
L 199.496976 287.023707 
L 198.924581 281.817456 
L 198.352185 281.819968 
L 197.779789 272.712204 
L 197.206972 270.764596 
L 196.634576 272.720695 
L 196.061759 270.773795 
L 195.488521 258.423662 
L 194.915704 249.328811 
L 194.342466 203.186603 
L 193.769228 81.674628 
L 193.19599 121.350282 
L 192.622752 207.785859 
L 192.049092 245.474635 
L 191.475433 261.719028 
L 190.901774 269.516712 
L 190.327693 273.416527 
L 189.754034 272.77164 
L 189.179953 268.233449 
L 188.605451 285.756046 
L 188.031371 272.784377 
L 187.456869 273.437188 
L 186.882367 273.441327 
L 186.307866 279.928577 
L 185.732943 268.264087 
L 185.15802 276.694062 
L 184.583097 272.161991 
L 184.008174 248.19704 
L 183.433251 202.866778 
L 182.857907 134.240934 
L 181.706798 244.995958 
L 181.131454 245.005511 
L 180.555688 252.132941 
L 179.979923 256.66993 
L 179.403737 274.788909 
L 178.827971 270.912444 
L 178.251785 279.322926 
L 177.675598 283.204875 
L 177.098991 274.158174 
L 176.522804 279.978355 
L 175.946197 276.104615 
L 175.369589 270.940358 
L 174.79256 274.174343 
L 174.215952 278.69863 
L 173.638923 274.182444 
L 173.061473 285.159983 
L 172.484445 279.353564 
L 171.906995 279.356642 
L 171.329544 278.714586 
L 170.752094 280.652783 
L 170.174223 279.365841 
L 169.596773 281.947969 
L 169.018902 278.727358 
L 168.440609 280.664104 
L 167.862738 283.244534 
L 167.284446 284.535404 
L 166.706153 282.605061 
L 166.12744 273.591228 
L 165.549147 280.678291 
L 164.970434 291.625333 
L 164.39172 282.614967 
L 163.812585 282.617444 
L 163.233872 281.333084 
L 162.654737 285.195503 
L 162.075602 282.624873 
L 161.496046 278.126129 
L 160.91649 286.487292 
L 160.336934 276.204454 
L 159.757378 280.706807 
L 159.177822 290.347695 
L 158.597845 281.354948 
L 158.017868 277.503956 
L 157.437469 275.580972 
L 156.857492 275.584828 
L 156.277094 277.514428 
L 155.696696 288.42832 
L 155.115876 278.1631 
L 154.535478 281.374159 
L 153.954658 288.432459 
L 153.373417 275.608072 
L 152.792598 276.253135 
L 152.211357 278.180011 
L 151.630116 285.233429 
L 151.048876 282.672281 
L 150.467214 281.393475 
L 149.885973 291.644791 
L 149.30389 278.837386 
L 148.722228 285.883764 
L 148.140145 285.245493 
L 147.558062 288.447672 
L 146.975978 282.050037 
L 146.393895 290.369772 
L 145.811391 278.217442 
L 145.228887 286.534665 
L 144.646382 282.700089 
L 144.063457 286.538238 
L 143.480531 282.066028 
L 142.897606 275.039533 
L 142.31468 282.07137 
L 141.731334 283.351555 
L 141.147987 278.883556 
L 140.56464 281.440883 
L 139.980872 277.613418 
L 139.397526 284.637755 
L 138.813758 280.81121 
L 138.229569 281.452169 
L 137.645801 279.541391 
L 137.061612 280.820054 
L 136.477423 278.910196 
L 135.892813 275.088675 
L 135.308202 278.279532 
L 134.723592 286.566895 
L 134.138982 284.020358 
L 133.554371 282.748735 
L 132.96934 280.840822 
L 132.384309 282.753935 
L 131.798856 283.39309 
L 131.213403 282.759136 
L 130.627951 280.216455 
L 130.042498 272.585371 
L 129.457045 275.134278 
L 128.871172 282.133602 
L 128.285298 278.321597 
L 127.699003 272.604192 
L 127.112708 273.879955 
L 126.526413 278.967616 
L 125.940118 285.95898 
L 125.353823 286.596083 
L 124.767107 276.437848 
L 124.18039 272.632566 
L 123.593253 283.427903 
L 123.006116 276.449736 
L 122.418978 274.550243 
L 121.831841 285.972848 
L 121.244703 282.803749 
L 120.657145 289.147219 
L 120.069165 285.978792 
L 119.481606 278.375055 
L 118.893627 285.349118 
L 118.305647 285.984806 
L 117.717667 279.019269 
L 117.129266 283.455711 
L 116.540865 282.191977 
L 115.952464 290.423937 
L 115.363642 278.400351 
L 114.775241 289.793343 
L 114.185998 279.672859 
L 113.597176 286.000939 
L 113.007932 287.267645 
L 112.418689 273.361017 
L 111.829446 286.007024 
L 111.239781 282.217521 
L 110.650117 285.379332 
L 110.060452 282.854871 
L 109.470366 281.594569 
L 108.880702 277.809276 
L 108.290195 282.231849 
L 107.700109 280.341378 
L 107.109602 282.868563 
L 106.519095 274.670496 
L 105.928589 276.567123 
L 105.33766 286.029631 
L 104.746732 286.031718 
L 104.155804 277.209851 
L 103.564455 279.10432 
L 102.973106 279.73792 
L 102.381756 275.332364 
L 101.790407 275.336822 
L 101.198637 285.41464 
L 100.606866 286.675756 
L 100.014675 284.789813 
L 99.422483 277.871401 
L 98.830291 272.843141 
L 98.2381 279.765941 
L 97.645487 278.511971 
L 97.052874 283.544583 
L 96.460261 277.262707 
L 95.867227 284.178289 
L 95.274193 283.552684 
L 94.681159 284.811465 
L 94.087704 282.302324 
L 93.494248 287.955056 
L 92.900793 277.287508 
L 91.71304 288.587525 
L 91.119164 284.19888 
L 90.524866 281.066362 
L 89.930569 283.577202 
L 89.336271 281.073014 
L 88.741974 281.076339 
L 88.147255 287.344169 
L 87.552536 277.951534 
L 86.957396 279.207909 
L 86.362256 274.829666 
L 85.767116 286.100035 
L 85.171555 291.107988 
L 84.576415 281.099901 
L 83.980433 276.725337 
L 83.384871 280.481408 
L 82.788889 282.360345 
L 82.192907 285.488334 
L 81.596503 279.242404 
L 81.0001 276.747555 
L 80.403696 281.74829 
L 79.807292 274.259004 
L 79.210468 278.63371 
L 78.613222 278.013695 
L 78.016397 282.385429 
L 77.419151 282.388577 
L 76.821905 286.757163 
L 75.626571 276.164865 
L 75.028904 282.401314 
L 74.430816 276.797333 
L 73.832727 285.522086 
L 73.832727 285.522086 
" style="fill:none;stroke:#ff0000;stroke-linecap:square;stroke-width:0.5;"/>
   </g>
   <g id="line2d_19">
    <path clip-path="url(#pf1b176fc38)" d="M 398.487273 295.484626 
L 227.975246 295.368455 
L 214.338411 295.160411 
L 208.638461 294.866864 
L 205.784485 294.544515 
L 203.499535 294.064279 
L 201.784875 293.415453 
L 200.640926 292.701529 
L 200.068951 292.198447 
L 199.496976 291.546744 
L 198.924581 290.681358 
L 198.352185 289.499585 
L 197.779789 287.828523 
L 197.206972 285.359168 
L 196.634576 281.51146 
L 196.061759 275.070839 
L 195.488521 263.259161 
L 194.915704 239.067185 
L 194.342466 184.946488 
L 193.769228 95.761902 
L 193.19599 117.088609 
L 192.622752 203.254141 
L 192.049092 247.238568 
L 191.475433 267.122537 
L 190.901774 277.114944 
L 190.327693 282.710895 
L 189.754034 286.118699 
L 189.179953 288.338453 
L 188.605451 289.860145 
L 188.031371 290.945268 
L 187.456869 291.746383 
L 186.307866 292.824914 
L 185.15802 293.497864 
L 183.433251 294.114241 
L 181.131454 294.574103 
L 178.251785 294.884776 
L 173.638923 295.131417 
L 165.549147 295.307512 
L 148.140145 295.419325 
L 92.306917 295.474179 
L 73.832727 295.478115 
L 73.832727 295.478115 
" style="fill:none;stroke:#1f77b4;stroke-linecap:square;stroke-width:0.5;"/>
   </g>
   <g id="line2d_20">
    <path clip-path="url(#pf1b176fc38)" d="M 398.487273 295.484049 
L 221.732383 295.367129 
L 206.355617 295.158952 
L 200.068951 294.878108 
L 196.634576 294.541621 
L 194.342466 294.134732 
L 192.622752 293.629599 
L 191.475433 293.118226 
L 190.327693 292.364422 
L 189.179953 291.189434 
L 188.605451 290.339001 
L 188.031371 289.214584 
L 187.456869 287.684977 
L 186.882367 285.537492 
L 186.307866 282.40389 
L 185.732943 277.610216 
L 185.15802 269.871037 
L 184.583097 256.626562 
L 184.008174 233.076909 
L 182.857907 160.10647 
L 182.282563 177.357249 
L 181.706798 219.433119 
L 181.131454 248.822901 
L 180.555688 265.47599 
L 179.979923 275.002815 
L 179.403737 280.767375 
L 178.827971 284.455397 
L 178.251785 286.939137 
L 177.675598 288.681535 
L 177.098991 289.94783 
L 176.522804 290.893842 
L 175.369589 292.186602 
L 174.215952 293.004379 
L 173.061473 293.553522 
L 171.329544 294.090541 
L 169.018902 294.518446 
L 165.549147 294.86869 
L 160.336934 295.122634 
L 151.048876 295.305157 
L 131.213403 295.418772 
L 73.832727 295.472497 
L 73.832727 295.472497 
" style="fill:none;stroke:#ff7f0e;stroke-linecap:square;stroke-width:0.5;"/>
   </g>
   <g id="line2d_21">
    <path clip-path="url(#pf1b176fc38)" d="M 398.487273 295.488 
L 73.832727 295.488 
L 73.832727 295.488 
" style="fill:none;stroke:#0000ff;stroke-linecap:square;stroke-width:0.5;"/>
   </g>
   <g id="line2d_22">
    <path clip-path="url(#pf1b176fc38)" d="M 398.487273 295.480675 
L 238.728621 295.359931 
L 220.027832 295.153811 
L 212.059779 294.861284 
L 208.068171 294.5311 
L 205.213353 294.086997 
L 203.499535 293.63875 
L 202.356428 293.197323 
L 201.2129 292.560848 
L 200.068951 291.588555 
L 199.496976 290.8947 
L 198.924581 289.982609 
L 198.352185 288.748939 
L 197.779789 287.019986 
L 197.206972 284.48574 
L 196.634576 280.565081 
L 196.061759 274.041934 
L 195.488521 262.136403 
L 194.915704 237.837249 
L 194.342466 183.59322 
L 193.769228 94.265851 
L 193.19599 115.42603 
L 192.622752 201.395739 
L 192.049092 245.147611 
L 191.475433 264.752763 
L 190.901774 274.407056 
L 190.327693 279.587317 
L 189.754034 282.477252 
L 189.179953 284.039887 
L 188.605451 284.711146 
L 188.031371 284.671852 
L 187.456869 283.943359 
L 186.882367 282.403235 
L 186.307866 279.740804 
L 185.732943 275.320097 
L 185.15802 267.880901 
L 184.583097 254.88125 
L 184.008174 231.53397 
L 182.857907 158.875661 
L 182.282563 176.248222 
L 181.706798 218.428751 
L 181.131454 247.909004 
L 180.555688 264.640938 
L 179.979923 274.236838 
L 179.403737 280.062295 
L 178.827971 283.804201 
L 178.251785 286.335914 
L 177.675598 288.121176 
L 177.098991 289.425954 
L 176.522804 290.406596 
L 175.369589 291.759069 
L 174.215952 292.626239 
L 173.061473 293.216719 
L 171.329544 293.804112 
L 169.018902 294.283365 
L 166.12744 294.63687 
L 161.496046 294.944037 
L 153.954658 295.176133 
L 139.980872 295.338143 
L 107.700109 295.436128 
L 73.832727 295.462612 
L 73.832727 295.462612 
" style="fill:none;stroke:#000000;stroke-linecap:square;stroke-width:0.5;"/>
   </g>
   <g id="patch_3">
    <path d="M 57.6 307.584 
L 57.6 41.472 
" style="fill:none;stroke:#000000;stroke-linecap:square;stroke-linejoin:miter;stroke-width:0.8;"/>
   </g>
   <g id="patch_4">
    <path d="M 414.72 307.584 
L 414.72 41.472 
" style="fill:none;stroke:#000000;stroke-linecap:square;stroke-linejoin:miter;stroke-width:0.8;"/>
   </g>
   <g id="patch_5">
    <path d="M 57.6 307.584 
L 414.72 307.584 
" style="fill:none;stroke:#000000;stroke-linecap:square;stroke-linejoin:miter;stroke-width:0.8;"/>
   </g>
   <g id="patch_6">
    <path d="M 57.6 41.472 
L 414.72 41.472 
" style="fill:none;stroke:#000000;stroke-linecap:square;stroke-linejoin:miter;stroke-width:0.8;"/>
   </g>
  </g>
 </g>
 <defs>
  <clipPath id="pf1b176fc38">
   <rect height="266.112" width="357.12" x="57.6" y="41.472"/>
  </clipPath>
 </defs>
</svg>
