<?xml version="1.0" encoding="utf-8" standalone="no"?>
<!DOCTYPE svg PUBLIC "-//W3C//DTD SVG 1.1//EN"
  "http://www.w3.org/Graphics/SVG/1.1/DTD/svg11.dtd">
<!-- Created with matplotlib (http://matplotlib.org/) -->
<svg height="345.6pt" version="1.1" viewBox="0 0 460.8 345.6" width="460.8pt" xmlns="http://www.w3.org/2000/svg" xmlns:xlink="http://www.w3.org/1999/xlink">
 <defs>
  <style type="text/css">
*{stroke-linecap:butt;stroke-linejoin:round;}
  </style>
 </defs>
 <g id="figure_1">
  <g id="patch_1">
   <path d="M 0 345.6 
L 460.8 345.6 
L 460.8 0 
L 0 0 
z
" style="fill:none;"/>
  </g>
  <g id="axes_1">
   <g id="patch_2">
    <path d="M 57.6 307.584 
L 414.72 307.584 
L 414.72 41.472 
L 57.6 41.472 
z
" style="fill:none;"/>
   </g>
   <g id="matplotlib.axis_1">
    <g id="xtick_1">
     <g id="line2d_1">
      <path clip-path="url(#p7f1d6d72c0)" d="M 73.478794 307.584 
L 73.478794 41.472 
" style="fill:none;stroke:#b0b0b0;stroke-linecap:square;stroke-opacity:0.5;stroke-width:0.8;"/>
     </g>
     <g id="line2d_2">
      <defs>
       <path d="M 0 0 
L 0 3.5 
" id="m2e9c04a1a6" style="stroke:#000000;stroke-width:0.8;"/>
      </defs>
      <g>
       <use style="stroke:#000000;stroke-width:0.8;" x="73.478794" xlink:href="#m2e9c04a1a6" y="307.584"/>
      </g>
     </g>
     <g id="text_1">
      <!-- 100 -->
      <defs>
       <path d="M 12.40625 8.296875 
L 28.515625 8.296875 
L 28.515625 63.921875 
L 10.984375 60.40625 
L 10.984375 69.390625 
L 28.421875 72.90625 
L 38.28125 72.90625 
L 38.28125 8.296875 
L 54.390625 8.296875 
L 54.390625 0 
L 12.40625 0 
z
" id="DejaVuSans-31"/>
       <path d="M 31.78125 66.40625 
Q 24.171875 66.40625 20.328125 58.90625 
Q 16.5 51.421875 16.5 36.375 
Q 16.5 21.390625 20.328125 13.890625 
Q 24.171875 6.390625 31.78125 6.390625 
Q 39.453125 6.390625 43.28125 13.890625 
Q 47.125 21.390625 47.125 36.375 
Q 47.125 51.421875 43.28125 58.90625 
Q 39.453125 66.40625 31.78125 66.40625 
z
M 31.78125 74.21875 
Q 44.046875 74.21875 50.515625 64.515625 
Q 56.984375 54.828125 56.984375 36.375 
Q 56.984375 17.96875 50.515625 8.265625 
Q 44.046875 -1.421875 31.78125 -1.421875 
Q 19.53125 -1.421875 13.0625 8.265625 
Q 6.59375 17.96875 6.59375 36.375 
Q 6.59375 54.828125 13.0625 64.515625 
Q 19.53125 74.21875 31.78125 74.21875 
z
" id="DejaVuSans-30"/>
      </defs>
      <g transform="translate(63.935044 322.182437)scale(0.1 -0.1)">
       <use xlink:href="#DejaVuSans-31"/>
       <use x="63.623047" xlink:href="#DejaVuSans-30"/>
       <use x="127.246094" xlink:href="#DejaVuSans-30"/>
      </g>
     </g>
    </g>
    <g id="xtick_2">
     <g id="line2d_3">
      <path clip-path="url(#p7f1d6d72c0)" d="M 120.669836 307.584 
L 120.669836 41.472 
" style="fill:none;stroke:#b0b0b0;stroke-linecap:square;stroke-opacity:0.5;stroke-width:0.8;"/>
     </g>
     <g id="line2d_4">
      <g>
       <use style="stroke:#000000;stroke-width:0.8;" x="120.669836" xlink:href="#m2e9c04a1a6" y="307.584"/>
      </g>
     </g>
     <g id="text_2">
      <!-- 200 -->
      <defs>
       <path d="M 19.1875 8.296875 
L 53.609375 8.296875 
L 53.609375 0 
L 7.328125 0 
L 7.328125 8.296875 
Q 12.9375 14.109375 22.625 23.890625 
Q 32.328125 33.6875 34.8125 36.53125 
Q 39.546875 41.84375 41.421875 45.53125 
Q 43.3125 49.21875 43.3125 52.78125 
Q 43.3125 58.59375 39.234375 62.25 
Q 35.15625 65.921875 28.609375 65.921875 
Q 23.96875 65.921875 18.8125 64.3125 
Q 13.671875 62.703125 7.8125 59.421875 
L 7.8125 69.390625 
Q 13.765625 71.78125 18.9375 73 
Q 24.125 74.21875 28.421875 74.21875 
Q 39.75 74.21875 46.484375 68.546875 
Q 53.21875 62.890625 53.21875 53.421875 
Q 53.21875 48.921875 51.53125 44.890625 
Q 49.859375 40.875 45.40625 35.40625 
Q 44.1875 33.984375 37.640625 27.21875 
Q 31.109375 20.453125 19.1875 8.296875 
z
" id="DejaVuSans-32"/>
      </defs>
      <g transform="translate(111.126086 322.182437)scale(0.1 -0.1)">
       <use xlink:href="#DejaVuSans-32"/>
       <use x="63.623047" xlink:href="#DejaVuSans-30"/>
       <use x="127.246094" xlink:href="#DejaVuSans-30"/>
      </g>
     </g>
    </g>
    <g id="xtick_3">
     <g id="line2d_5">
      <path clip-path="url(#p7f1d6d72c0)" d="M 167.860878 307.584 
L 167.860878 41.472 
" style="fill:none;stroke:#b0b0b0;stroke-linecap:square;stroke-opacity:0.5;stroke-width:0.8;"/>
     </g>
     <g id="line2d_6">
      <g>
       <use style="stroke:#000000;stroke-width:0.8;" x="167.860878" xlink:href="#m2e9c04a1a6" y="307.584"/>
      </g>
     </g>
     <g id="text_3">
      <!-- 300 -->
      <defs>
       <path d="M 40.578125 39.3125 
Q 47.65625 37.796875 51.625 33 
Q 55.609375 28.21875 55.609375 21.1875 
Q 55.609375 10.40625 48.1875 4.484375 
Q 40.765625 -1.421875 27.09375 -1.421875 
Q 22.515625 -1.421875 17.65625 -0.515625 
Q 12.796875 0.390625 7.625 2.203125 
L 7.625 11.71875 
Q 11.71875 9.328125 16.59375 8.109375 
Q 21.484375 6.890625 26.8125 6.890625 
Q 36.078125 6.890625 40.9375 10.546875 
Q 45.796875 14.203125 45.796875 21.1875 
Q 45.796875 27.640625 41.28125 31.265625 
Q 36.765625 34.90625 28.71875 34.90625 
L 20.21875 34.90625 
L 20.21875 43.015625 
L 29.109375 43.015625 
Q 36.375 43.015625 40.234375 45.921875 
Q 44.09375 48.828125 44.09375 54.296875 
Q 44.09375 59.90625 40.109375 62.90625 
Q 36.140625 65.921875 28.71875 65.921875 
Q 24.65625 65.921875 20.015625 65.03125 
Q 15.375 64.15625 9.8125 62.3125 
L 9.8125 71.09375 
Q 15.4375 72.65625 20.34375 73.4375 
Q 25.25 74.21875 29.59375 74.21875 
Q 40.828125 74.21875 47.359375 69.109375 
Q 53.90625 64.015625 53.90625 55.328125 
Q 53.90625 49.265625 50.4375 45.09375 
Q 46.96875 40.921875 40.578125 39.3125 
z
" id="DejaVuSans-33"/>
      </defs>
      <g transform="translate(158.317128 322.182437)scale(0.1 -0.1)">
       <use xlink:href="#DejaVuSans-33"/>
       <use x="63.623047" xlink:href="#DejaVuSans-30"/>
       <use x="127.246094" xlink:href="#DejaVuSans-30"/>
      </g>
     </g>
    </g>
    <g id="xtick_4">
     <g id="line2d_7">
      <path clip-path="url(#p7f1d6d72c0)" d="M 215.051919 307.584 
L 215.051919 41.472 
" style="fill:none;stroke:#b0b0b0;stroke-linecap:square;stroke-opacity:0.5;stroke-width:0.8;"/>
     </g>
     <g id="line2d_8">
      <g>
       <use style="stroke:#000000;stroke-width:0.8;" x="215.051919" xlink:href="#m2e9c04a1a6" y="307.584"/>
      </g>
     </g>
     <g id="text_4">
      <!-- 400 -->
      <defs>
       <path d="M 37.796875 64.3125 
L 12.890625 25.390625 
L 37.796875 25.390625 
z
M 35.203125 72.90625 
L 47.609375 72.90625 
L 47.609375 25.390625 
L 58.015625 25.390625 
L 58.015625 17.1875 
L 47.609375 17.1875 
L 47.609375 0 
L 37.796875 0 
L 37.796875 17.1875 
L 4.890625 17.1875 
L 4.890625 26.703125 
z
" id="DejaVuSans-34"/>
      </defs>
      <g transform="translate(205.508169 322.182437)scale(0.1 -0.1)">
       <use xlink:href="#DejaVuSans-34"/>
       <use x="63.623047" xlink:href="#DejaVuSans-30"/>
       <use x="127.246094" xlink:href="#DejaVuSans-30"/>
      </g>
     </g>
    </g>
    <g id="xtick_5">
     <g id="line2d_9">
      <path clip-path="url(#p7f1d6d72c0)" d="M 262.242961 307.584 
L 262.242961 41.472 
" style="fill:none;stroke:#b0b0b0;stroke-linecap:square;stroke-opacity:0.5;stroke-width:0.8;"/>
     </g>
     <g id="line2d_10">
      <g>
       <use style="stroke:#000000;stroke-width:0.8;" x="262.242961" xlink:href="#m2e9c04a1a6" y="307.584"/>
      </g>
     </g>
     <g id="text_5">
      <!-- 500 -->
      <defs>
       <path d="M 10.796875 72.90625 
L 49.515625 72.90625 
L 49.515625 64.59375 
L 19.828125 64.59375 
L 19.828125 46.734375 
Q 21.96875 47.46875 24.109375 47.828125 
Q 26.265625 48.1875 28.421875 48.1875 
Q 40.625 48.1875 47.75 41.5 
Q 54.890625 34.8125 54.890625 23.390625 
Q 54.890625 11.625 47.5625 5.09375 
Q 40.234375 -1.421875 26.90625 -1.421875 
Q 22.3125 -1.421875 17.546875 -0.640625 
Q 12.796875 0.140625 7.71875 1.703125 
L 7.71875 11.625 
Q 12.109375 9.234375 16.796875 8.0625 
Q 21.484375 6.890625 26.703125 6.890625 
Q 35.15625 6.890625 40.078125 11.328125 
Q 45.015625 15.765625 45.015625 23.390625 
Q 45.015625 31 40.078125 35.4375 
Q 35.15625 39.890625 26.703125 39.890625 
Q 22.75 39.890625 18.8125 39.015625 
Q 14.890625 38.140625 10.796875 36.28125 
z
" id="DejaVuSans-35"/>
      </defs>
      <g transform="translate(252.699211 322.182437)scale(0.1 -0.1)">
       <use xlink:href="#DejaVuSans-35"/>
       <use x="63.623047" xlink:href="#DejaVuSans-30"/>
       <use x="127.246094" xlink:href="#DejaVuSans-30"/>
      </g>
     </g>
    </g>
    <g id="xtick_6">
     <g id="line2d_11">
      <path clip-path="url(#p7f1d6d72c0)" d="M 309.434002 307.584 
L 309.434002 41.472 
" style="fill:none;stroke:#b0b0b0;stroke-linecap:square;stroke-opacity:0.5;stroke-width:0.8;"/>
     </g>
     <g id="line2d_12">
      <g>
       <use style="stroke:#000000;stroke-width:0.8;" x="309.434002" xlink:href="#m2e9c04a1a6" y="307.584"/>
      </g>
     </g>
     <g id="text_6">
      <!-- 600 -->
      <defs>
       <path d="M 33.015625 40.375 
Q 26.375 40.375 22.484375 35.828125 
Q 18.609375 31.296875 18.609375 23.390625 
Q 18.609375 15.53125 22.484375 10.953125 
Q 26.375 6.390625 33.015625 6.390625 
Q 39.65625 6.390625 43.53125 10.953125 
Q 47.40625 15.53125 47.40625 23.390625 
Q 47.40625 31.296875 43.53125 35.828125 
Q 39.65625 40.375 33.015625 40.375 
z
M 52.59375 71.296875 
L 52.59375 62.3125 
Q 48.875 64.0625 45.09375 64.984375 
Q 41.3125 65.921875 37.59375 65.921875 
Q 27.828125 65.921875 22.671875 59.328125 
Q 17.53125 52.734375 16.796875 39.40625 
Q 19.671875 43.65625 24.015625 45.921875 
Q 28.375 48.1875 33.59375 48.1875 
Q 44.578125 48.1875 50.953125 41.515625 
Q 57.328125 34.859375 57.328125 23.390625 
Q 57.328125 12.15625 50.6875 5.359375 
Q 44.046875 -1.421875 33.015625 -1.421875 
Q 20.359375 -1.421875 13.671875 8.265625 
Q 6.984375 17.96875 6.984375 36.375 
Q 6.984375 53.65625 15.1875 63.9375 
Q 23.390625 74.21875 37.203125 74.21875 
Q 40.921875 74.21875 44.703125 73.484375 
Q 48.484375 72.75 52.59375 71.296875 
z
" id="DejaVuSans-36"/>
      </defs>
      <g transform="translate(299.890252 322.182437)scale(0.1 -0.1)">
       <use xlink:href="#DejaVuSans-36"/>
       <use x="63.623047" xlink:href="#DejaVuSans-30"/>
       <use x="127.246094" xlink:href="#DejaVuSans-30"/>
      </g>
     </g>
    </g>
    <g id="xtick_7">
     <g id="line2d_13">
      <path clip-path="url(#p7f1d6d72c0)" d="M 356.625044 307.584 
L 356.625044 41.472 
" style="fill:none;stroke:#b0b0b0;stroke-linecap:square;stroke-opacity:0.5;stroke-width:0.8;"/>
     </g>
     <g id="line2d_14">
      <g>
       <use style="stroke:#000000;stroke-width:0.8;" x="356.625044" xlink:href="#m2e9c04a1a6" y="307.584"/>
      </g>
     </g>
     <g id="text_7">
      <!-- 700 -->
      <defs>
       <path d="M 8.203125 72.90625 
L 55.078125 72.90625 
L 55.078125 68.703125 
L 28.609375 0 
L 18.3125 0 
L 43.21875 64.59375 
L 8.203125 64.59375 
z
" id="DejaVuSans-37"/>
      </defs>
      <g transform="translate(347.081294 322.182437)scale(0.1 -0.1)">
       <use xlink:href="#DejaVuSans-37"/>
       <use x="63.623047" xlink:href="#DejaVuSans-30"/>
       <use x="127.246094" xlink:href="#DejaVuSans-30"/>
      </g>
     </g>
    </g>
    <g id="xtick_8">
     <g id="line2d_15">
      <path clip-path="url(#p7f1d6d72c0)" d="M 403.816085 307.584 
L 403.816085 41.472 
" style="fill:none;stroke:#b0b0b0;stroke-linecap:square;stroke-opacity:0.5;stroke-width:0.8;"/>
     </g>
     <g id="line2d_16">
      <g>
       <use style="stroke:#000000;stroke-width:0.8;" x="403.816085" xlink:href="#m2e9c04a1a6" y="307.584"/>
      </g>
     </g>
     <g id="text_8">
      <!-- 800 -->
      <defs>
       <path d="M 31.78125 34.625 
Q 24.75 34.625 20.71875 30.859375 
Q 16.703125 27.09375 16.703125 20.515625 
Q 16.703125 13.921875 20.71875 10.15625 
Q 24.75 6.390625 31.78125 6.390625 
Q 38.8125 6.390625 42.859375 10.171875 
Q 46.921875 13.96875 46.921875 20.515625 
Q 46.921875 27.09375 42.890625 30.859375 
Q 38.875 34.625 31.78125 34.625 
z
M 21.921875 38.8125 
Q 15.578125 40.375 12.03125 44.71875 
Q 8.5 49.078125 8.5 55.328125 
Q 8.5 64.0625 14.71875 69.140625 
Q 20.953125 74.21875 31.78125 74.21875 
Q 42.671875 74.21875 48.875 69.140625 
Q 55.078125 64.0625 55.078125 55.328125 
Q 55.078125 49.078125 51.53125 44.71875 
Q 48 40.375 41.703125 38.8125 
Q 48.828125 37.15625 52.796875 32.3125 
Q 56.78125 27.484375 56.78125 20.515625 
Q 56.78125 9.90625 50.3125 4.234375 
Q 43.84375 -1.421875 31.78125 -1.421875 
Q 19.734375 -1.421875 13.25 4.234375 
Q 6.78125 9.90625 6.78125 20.515625 
Q 6.78125 27.484375 10.78125 32.3125 
Q 14.796875 37.15625 21.921875 38.8125 
z
M 18.3125 54.390625 
Q 18.3125 48.734375 21.84375 45.5625 
Q 25.390625 42.390625 31.78125 42.390625 
Q 38.140625 42.390625 41.71875 45.5625 
Q 45.3125 48.734375 45.3125 54.390625 
Q 45.3125 60.0625 41.71875 63.234375 
Q 38.140625 66.40625 31.78125 66.40625 
Q 25.390625 66.40625 21.84375 63.234375 
Q 18.3125 60.0625 18.3125 54.390625 
z
" id="DejaVuSans-38"/>
      </defs>
      <g transform="translate(394.272335 322.182437)scale(0.1 -0.1)">
       <use xlink:href="#DejaVuSans-38"/>
       <use x="63.623047" xlink:href="#DejaVuSans-30"/>
       <use x="127.246094" xlink:href="#DejaVuSans-30"/>
      </g>
     </g>
    </g>
    <g id="xtick_9">
     <g id="line2d_17">
      <path clip-path="url(#p7f1d6d72c0)" d="M 64.040586 307.584 
L 64.040586 41.472 
" style="fill:none;stroke:#b0b0b0;stroke-linecap:square;stroke-opacity:0.2;stroke-width:0.8;"/>
     </g>
     <g id="line2d_18">
      <defs>
       <path d="M 0 0 
L 0 2 
" id="m22029702a4" style="stroke:#000000;stroke-width:0.6;"/>
      </defs>
      <g>
       <use style="stroke:#000000;stroke-width:0.6;" x="64.040586" xlink:href="#m22029702a4" y="307.584"/>
      </g>
     </g>
    </g>
    <g id="xtick_10">
     <g id="line2d_19">
      <path clip-path="url(#p7f1d6d72c0)" d="M 82.917003 307.584 
L 82.917003 41.472 
" style="fill:none;stroke:#b0b0b0;stroke-linecap:square;stroke-opacity:0.2;stroke-width:0.8;"/>
     </g>
     <g id="line2d_20">
      <g>
       <use style="stroke:#000000;stroke-width:0.6;" x="82.917003" xlink:href="#m22029702a4" y="307.584"/>
      </g>
     </g>
    </g>
    <g id="xtick_11">
     <g id="line2d_21">
      <path clip-path="url(#p7f1d6d72c0)" d="M 92.355211 307.584 
L 92.355211 41.472 
" style="fill:none;stroke:#b0b0b0;stroke-linecap:square;stroke-opacity:0.2;stroke-width:0.8;"/>
     </g>
     <g id="line2d_22">
      <g>
       <use style="stroke:#000000;stroke-width:0.6;" x="92.355211" xlink:href="#m22029702a4" y="307.584"/>
      </g>
     </g>
    </g>
    <g id="xtick_12">
     <g id="line2d_23">
      <path clip-path="url(#p7f1d6d72c0)" d="M 101.793419 307.584 
L 101.793419 41.472 
" style="fill:none;stroke:#b0b0b0;stroke-linecap:square;stroke-opacity:0.2;stroke-width:0.8;"/>
     </g>
     <g id="line2d_24">
      <g>
       <use style="stroke:#000000;stroke-width:0.6;" x="101.793419" xlink:href="#m22029702a4" y="307.584"/>
      </g>
     </g>
    </g>
    <g id="xtick_13">
     <g id="line2d_25">
      <path clip-path="url(#p7f1d6d72c0)" d="M 111.231628 307.584 
L 111.231628 41.472 
" style="fill:none;stroke:#b0b0b0;stroke-linecap:square;stroke-opacity:0.2;stroke-width:0.8;"/>
     </g>
     <g id="line2d_26">
      <g>
       <use style="stroke:#000000;stroke-width:0.6;" x="111.231628" xlink:href="#m22029702a4" y="307.584"/>
      </g>
     </g>
    </g>
    <g id="xtick_14">
     <g id="line2d_27">
      <path clip-path="url(#p7f1d6d72c0)" d="M 130.108044 307.584 
L 130.108044 41.472 
" style="fill:none;stroke:#b0b0b0;stroke-linecap:square;stroke-opacity:0.2;stroke-width:0.8;"/>
     </g>
     <g id="line2d_28">
      <g>
       <use style="stroke:#000000;stroke-width:0.6;" x="130.108044" xlink:href="#m22029702a4" y="307.584"/>
      </g>
     </g>
    </g>
    <g id="xtick_15">
     <g id="line2d_29">
      <path clip-path="url(#p7f1d6d72c0)" d="M 139.546253 307.584 
L 139.546253 41.472 
" style="fill:none;stroke:#b0b0b0;stroke-linecap:square;stroke-opacity:0.2;stroke-width:0.8;"/>
     </g>
     <g id="line2d_30">
      <g>
       <use style="stroke:#000000;stroke-width:0.6;" x="139.546253" xlink:href="#m22029702a4" y="307.584"/>
      </g>
     </g>
    </g>
    <g id="xtick_16">
     <g id="line2d_31">
      <path clip-path="url(#p7f1d6d72c0)" d="M 148.984461 307.584 
L 148.984461 41.472 
" style="fill:none;stroke:#b0b0b0;stroke-linecap:square;stroke-opacity:0.2;stroke-width:0.8;"/>
     </g>
     <g id="line2d_32">
      <g>
       <use style="stroke:#000000;stroke-width:0.6;" x="148.984461" xlink:href="#m22029702a4" y="307.584"/>
      </g>
     </g>
    </g>
    <g id="xtick_17">
     <g id="line2d_33">
      <path clip-path="url(#p7f1d6d72c0)" d="M 158.422669 307.584 
L 158.422669 41.472 
" style="fill:none;stroke:#b0b0b0;stroke-linecap:square;stroke-opacity:0.2;stroke-width:0.8;"/>
     </g>
     <g id="line2d_34">
      <g>
       <use style="stroke:#000000;stroke-width:0.6;" x="158.422669" xlink:href="#m22029702a4" y="307.584"/>
      </g>
     </g>
    </g>
    <g id="xtick_18">
     <g id="line2d_35">
      <path clip-path="url(#p7f1d6d72c0)" d="M 177.299086 307.584 
L 177.299086 41.472 
" style="fill:none;stroke:#b0b0b0;stroke-linecap:square;stroke-opacity:0.2;stroke-width:0.8;"/>
     </g>
     <g id="line2d_36">
      <g>
       <use style="stroke:#000000;stroke-width:0.6;" x="177.299086" xlink:href="#m22029702a4" y="307.584"/>
      </g>
     </g>
    </g>
    <g id="xtick_19">
     <g id="line2d_37">
      <path clip-path="url(#p7f1d6d72c0)" d="M 186.737294 307.584 
L 186.737294 41.472 
" style="fill:none;stroke:#b0b0b0;stroke-linecap:square;stroke-opacity:0.2;stroke-width:0.8;"/>
     </g>
     <g id="line2d_38">
      <g>
       <use style="stroke:#000000;stroke-width:0.6;" x="186.737294" xlink:href="#m22029702a4" y="307.584"/>
      </g>
     </g>
    </g>
    <g id="xtick_20">
     <g id="line2d_39">
      <path clip-path="url(#p7f1d6d72c0)" d="M 196.175502 307.584 
L 196.175502 41.472 
" style="fill:none;stroke:#b0b0b0;stroke-linecap:square;stroke-opacity:0.2;stroke-width:0.8;"/>
     </g>
     <g id="line2d_40">
      <g>
       <use style="stroke:#000000;stroke-width:0.6;" x="196.175502" xlink:href="#m22029702a4" y="307.584"/>
      </g>
     </g>
    </g>
    <g id="xtick_21">
     <g id="line2d_41">
      <path clip-path="url(#p7f1d6d72c0)" d="M 205.613711 307.584 
L 205.613711 41.472 
" style="fill:none;stroke:#b0b0b0;stroke-linecap:square;stroke-opacity:0.2;stroke-width:0.8;"/>
     </g>
     <g id="line2d_42">
      <g>
       <use style="stroke:#000000;stroke-width:0.6;" x="205.613711" xlink:href="#m22029702a4" y="307.584"/>
      </g>
     </g>
    </g>
    <g id="xtick_22">
     <g id="line2d_43">
      <path clip-path="url(#p7f1d6d72c0)" d="M 224.490127 307.584 
L 224.490127 41.472 
" style="fill:none;stroke:#b0b0b0;stroke-linecap:square;stroke-opacity:0.2;stroke-width:0.8;"/>
     </g>
     <g id="line2d_44">
      <g>
       <use style="stroke:#000000;stroke-width:0.6;" x="224.490127" xlink:href="#m22029702a4" y="307.584"/>
      </g>
     </g>
    </g>
    <g id="xtick_23">
     <g id="line2d_45">
      <path clip-path="url(#p7f1d6d72c0)" d="M 233.928336 307.584 
L 233.928336 41.472 
" style="fill:none;stroke:#b0b0b0;stroke-linecap:square;stroke-opacity:0.2;stroke-width:0.8;"/>
     </g>
     <g id="line2d_46">
      <g>
       <use style="stroke:#000000;stroke-width:0.6;" x="233.928336" xlink:href="#m22029702a4" y="307.584"/>
      </g>
     </g>
    </g>
    <g id="xtick_24">
     <g id="line2d_47">
      <path clip-path="url(#p7f1d6d72c0)" d="M 243.366544 307.584 
L 243.366544 41.472 
" style="fill:none;stroke:#b0b0b0;stroke-linecap:square;stroke-opacity:0.2;stroke-width:0.8;"/>
     </g>
     <g id="line2d_48">
      <g>
       <use style="stroke:#000000;stroke-width:0.6;" x="243.366544" xlink:href="#m22029702a4" y="307.584"/>
      </g>
     </g>
    </g>
    <g id="xtick_25">
     <g id="line2d_49">
      <path clip-path="url(#p7f1d6d72c0)" d="M 252.804752 307.584 
L 252.804752 41.472 
" style="fill:none;stroke:#b0b0b0;stroke-linecap:square;stroke-opacity:0.2;stroke-width:0.8;"/>
     </g>
     <g id="line2d_50">
      <g>
       <use style="stroke:#000000;stroke-width:0.6;" x="252.804752" xlink:href="#m22029702a4" y="307.584"/>
      </g>
     </g>
    </g>
    <g id="xtick_26">
     <g id="line2d_51">
      <path clip-path="url(#p7f1d6d72c0)" d="M 271.681169 307.584 
L 271.681169 41.472 
" style="fill:none;stroke:#b0b0b0;stroke-linecap:square;stroke-opacity:0.2;stroke-width:0.8;"/>
     </g>
     <g id="line2d_52">
      <g>
       <use style="stroke:#000000;stroke-width:0.6;" x="271.681169" xlink:href="#m22029702a4" y="307.584"/>
      </g>
     </g>
    </g>
    <g id="xtick_27">
     <g id="line2d_53">
      <path clip-path="url(#p7f1d6d72c0)" d="M 281.119377 307.584 
L 281.119377 41.472 
" style="fill:none;stroke:#b0b0b0;stroke-linecap:square;stroke-opacity:0.2;stroke-width:0.8;"/>
     </g>
     <g id="line2d_54">
      <g>
       <use style="stroke:#000000;stroke-width:0.6;" x="281.119377" xlink:href="#m22029702a4" y="307.584"/>
      </g>
     </g>
    </g>
    <g id="xtick_28">
     <g id="line2d_55">
      <path clip-path="url(#p7f1d6d72c0)" d="M 290.557585 307.584 
L 290.557585 41.472 
" style="fill:none;stroke:#b0b0b0;stroke-linecap:square;stroke-opacity:0.2;stroke-width:0.8;"/>
     </g>
     <g id="line2d_56">
      <g>
       <use style="stroke:#000000;stroke-width:0.6;" x="290.557585" xlink:href="#m22029702a4" y="307.584"/>
      </g>
     </g>
    </g>
    <g id="xtick_29">
     <g id="line2d_57">
      <path clip-path="url(#p7f1d6d72c0)" d="M 299.995794 307.584 
L 299.995794 41.472 
" style="fill:none;stroke:#b0b0b0;stroke-linecap:square;stroke-opacity:0.2;stroke-width:0.8;"/>
     </g>
     <g id="line2d_58">
      <g>
       <use style="stroke:#000000;stroke-width:0.6;" x="299.995794" xlink:href="#m22029702a4" y="307.584"/>
      </g>
     </g>
    </g>
    <g id="xtick_30">
     <g id="line2d_59">
      <path clip-path="url(#p7f1d6d72c0)" d="M 318.87221 307.584 
L 318.87221 41.472 
" style="fill:none;stroke:#b0b0b0;stroke-linecap:square;stroke-opacity:0.2;stroke-width:0.8;"/>
     </g>
     <g id="line2d_60">
      <g>
       <use style="stroke:#000000;stroke-width:0.6;" x="318.87221" xlink:href="#m22029702a4" y="307.584"/>
      </g>
     </g>
    </g>
    <g id="xtick_31">
     <g id="line2d_61">
      <path clip-path="url(#p7f1d6d72c0)" d="M 328.310419 307.584 
L 328.310419 41.472 
" style="fill:none;stroke:#b0b0b0;stroke-linecap:square;stroke-opacity:0.2;stroke-width:0.8;"/>
     </g>
     <g id="line2d_62">
      <g>
       <use style="stroke:#000000;stroke-width:0.6;" x="328.310419" xlink:href="#m22029702a4" y="307.584"/>
      </g>
     </g>
    </g>
    <g id="xtick_32">
     <g id="line2d_63">
      <path clip-path="url(#p7f1d6d72c0)" d="M 337.748627 307.584 
L 337.748627 41.472 
" style="fill:none;stroke:#b0b0b0;stroke-linecap:square;stroke-opacity:0.2;stroke-width:0.8;"/>
     </g>
     <g id="line2d_64">
      <g>
       <use style="stroke:#000000;stroke-width:0.6;" x="337.748627" xlink:href="#m22029702a4" y="307.584"/>
      </g>
     </g>
    </g>
    <g id="xtick_33">
     <g id="line2d_65">
      <path clip-path="url(#p7f1d6d72c0)" d="M 347.186835 307.584 
L 347.186835 41.472 
" style="fill:none;stroke:#b0b0b0;stroke-linecap:square;stroke-opacity:0.2;stroke-width:0.8;"/>
     </g>
     <g id="line2d_66">
      <g>
       <use style="stroke:#000000;stroke-width:0.6;" x="347.186835" xlink:href="#m22029702a4" y="307.584"/>
      </g>
     </g>
    </g>
    <g id="xtick_34">
     <g id="line2d_67">
      <path clip-path="url(#p7f1d6d72c0)" d="M 366.063252 307.584 
L 366.063252 41.472 
" style="fill:none;stroke:#b0b0b0;stroke-linecap:square;stroke-opacity:0.2;stroke-width:0.8;"/>
     </g>
     <g id="line2d_68">
      <g>
       <use style="stroke:#000000;stroke-width:0.6;" x="366.063252" xlink:href="#m22029702a4" y="307.584"/>
      </g>
     </g>
    </g>
    <g id="xtick_35">
     <g id="line2d_69">
      <path clip-path="url(#p7f1d6d72c0)" d="M 375.50146 307.584 
L 375.50146 41.472 
" style="fill:none;stroke:#b0b0b0;stroke-linecap:square;stroke-opacity:0.2;stroke-width:0.8;"/>
     </g>
     <g id="line2d_70">
      <g>
       <use style="stroke:#000000;stroke-width:0.6;" x="375.50146" xlink:href="#m22029702a4" y="307.584"/>
      </g>
     </g>
    </g>
    <g id="xtick_36">
     <g id="line2d_71">
      <path clip-path="url(#p7f1d6d72c0)" d="M 384.939669 307.584 
L 384.939669 41.472 
" style="fill:none;stroke:#b0b0b0;stroke-linecap:square;stroke-opacity:0.2;stroke-width:0.8;"/>
     </g>
     <g id="line2d_72">
      <g>
       <use style="stroke:#000000;stroke-width:0.6;" x="384.939669" xlink:href="#m22029702a4" y="307.584"/>
      </g>
     </g>
    </g>
    <g id="xtick_37">
     <g id="line2d_73">
      <path clip-path="url(#p7f1d6d72c0)" d="M 394.377877 307.584 
L 394.377877 41.472 
" style="fill:none;stroke:#b0b0b0;stroke-linecap:square;stroke-opacity:0.2;stroke-width:0.8;"/>
     </g>
     <g id="line2d_74">
      <g>
       <use style="stroke:#000000;stroke-width:0.6;" x="394.377877" xlink:href="#m22029702a4" y="307.584"/>
      </g>
     </g>
    </g>
    <g id="xtick_38">
     <g id="line2d_75">
      <path clip-path="url(#p7f1d6d72c0)" d="M 413.254293 307.584 
L 413.254293 41.472 
" style="fill:none;stroke:#b0b0b0;stroke-linecap:square;stroke-opacity:0.2;stroke-width:0.8;"/>
     </g>
     <g id="line2d_76">
      <g>
       <use style="stroke:#000000;stroke-width:0.6;" x="413.254293" xlink:href="#m22029702a4" y="307.584"/>
      </g>
     </g>
    </g>
   </g>
   <g id="matplotlib.axis_2">
    <g id="ytick_1">
     <g id="line2d_77">
      <path clip-path="url(#p7f1d6d72c0)" d="M 57.6 295.500802 
L 414.72 295.500802 
" style="fill:none;stroke:#b0b0b0;stroke-linecap:square;stroke-opacity:0.5;stroke-width:0.8;"/>
     </g>
     <g id="line2d_78">
      <defs>
       <path d="M 0 0 
L -3.5 0 
" id="m9feb691e8d" style="stroke:#000000;stroke-width:0.8;"/>
      </defs>
      <g>
       <use style="stroke:#000000;stroke-width:0.8;" x="57.6" xlink:href="#m9feb691e8d" y="295.500802"/>
      </g>
     </g>
     <g id="text_9">
      <!-- 0 -->
      <g transform="translate(44.2375 299.300021)scale(0.1 -0.1)">
       <use xlink:href="#DejaVuSans-30"/>
      </g>
     </g>
    </g>
    <g id="ytick_2">
     <g id="line2d_79">
      <path clip-path="url(#p7f1d6d72c0)" d="M 57.6 256.363042 
L 414.72 256.363042 
" style="fill:none;stroke:#b0b0b0;stroke-linecap:square;stroke-opacity:0.5;stroke-width:0.8;"/>
     </g>
     <g id="line2d_80">
      <g>
       <use style="stroke:#000000;stroke-width:0.8;" x="57.6" xlink:href="#m9feb691e8d" y="256.363042"/>
      </g>
     </g>
     <g id="text_10">
      <!-- 1000 -->
      <g transform="translate(25.15 260.162261)scale(0.1 -0.1)">
       <use xlink:href="#DejaVuSans-31"/>
       <use x="63.623047" xlink:href="#DejaVuSans-30"/>
       <use x="127.246094" xlink:href="#DejaVuSans-30"/>
       <use x="190.869141" xlink:href="#DejaVuSans-30"/>
      </g>
     </g>
    </g>
    <g id="ytick_3">
     <g id="line2d_81">
      <path clip-path="url(#p7f1d6d72c0)" d="M 57.6 217.225282 
L 414.72 217.225282 
" style="fill:none;stroke:#b0b0b0;stroke-linecap:square;stroke-opacity:0.5;stroke-width:0.8;"/>
     </g>
     <g id="line2d_82">
      <g>
       <use style="stroke:#000000;stroke-width:0.8;" x="57.6" xlink:href="#m9feb691e8d" y="217.225282"/>
      </g>
     </g>
     <g id="text_11">
      <!-- 2000 -->
      <g transform="translate(25.15 221.024501)scale(0.1 -0.1)">
       <use xlink:href="#DejaVuSans-32"/>
       <use x="63.623047" xlink:href="#DejaVuSans-30"/>
       <use x="127.246094" xlink:href="#DejaVuSans-30"/>
       <use x="190.869141" xlink:href="#DejaVuSans-30"/>
      </g>
     </g>
    </g>
    <g id="ytick_4">
     <g id="line2d_83">
      <path clip-path="url(#p7f1d6d72c0)" d="M 57.6 178.087522 
L 414.72 178.087522 
" style="fill:none;stroke:#b0b0b0;stroke-linecap:square;stroke-opacity:0.5;stroke-width:0.8;"/>
     </g>
     <g id="line2d_84">
      <g>
       <use style="stroke:#000000;stroke-width:0.8;" x="57.6" xlink:href="#m9feb691e8d" y="178.087522"/>
      </g>
     </g>
     <g id="text_12">
      <!-- 3000 -->
      <g transform="translate(25.15 181.886741)scale(0.1 -0.1)">
       <use xlink:href="#DejaVuSans-33"/>
       <use x="63.623047" xlink:href="#DejaVuSans-30"/>
       <use x="127.246094" xlink:href="#DejaVuSans-30"/>
       <use x="190.869141" xlink:href="#DejaVuSans-30"/>
      </g>
     </g>
    </g>
    <g id="ytick_5">
     <g id="line2d_85">
      <path clip-path="url(#p7f1d6d72c0)" d="M 57.6 138.949763 
L 414.72 138.949763 
" style="fill:none;stroke:#b0b0b0;stroke-linecap:square;stroke-opacity:0.5;stroke-width:0.8;"/>
     </g>
     <g id="line2d_86">
      <g>
       <use style="stroke:#000000;stroke-width:0.8;" x="57.6" xlink:href="#m9feb691e8d" y="138.949763"/>
      </g>
     </g>
     <g id="text_13">
      <!-- 4000 -->
      <g transform="translate(25.15 142.748981)scale(0.1 -0.1)">
       <use xlink:href="#DejaVuSans-34"/>
       <use x="63.623047" xlink:href="#DejaVuSans-30"/>
       <use x="127.246094" xlink:href="#DejaVuSans-30"/>
       <use x="190.869141" xlink:href="#DejaVuSans-30"/>
      </g>
     </g>
    </g>
    <g id="ytick_6">
     <g id="line2d_87">
      <path clip-path="url(#p7f1d6d72c0)" d="M 57.6 99.812003 
L 414.72 99.812003 
" style="fill:none;stroke:#b0b0b0;stroke-linecap:square;stroke-opacity:0.5;stroke-width:0.8;"/>
     </g>
     <g id="line2d_88">
      <g>
       <use style="stroke:#000000;stroke-width:0.8;" x="57.6" xlink:href="#m9feb691e8d" y="99.812003"/>
      </g>
     </g>
     <g id="text_14">
      <!-- 5000 -->
      <g transform="translate(25.15 103.611222)scale(0.1 -0.1)">
       <use xlink:href="#DejaVuSans-35"/>
       <use x="63.623047" xlink:href="#DejaVuSans-30"/>
       <use x="127.246094" xlink:href="#DejaVuSans-30"/>
       <use x="190.869141" xlink:href="#DejaVuSans-30"/>
      </g>
     </g>
    </g>
    <g id="ytick_7">
     <g id="line2d_89">
      <path clip-path="url(#p7f1d6d72c0)" d="M 57.6 60.674243 
L 414.72 60.674243 
" style="fill:none;stroke:#b0b0b0;stroke-linecap:square;stroke-opacity:0.5;stroke-width:0.8;"/>
     </g>
     <g id="line2d_90">
      <g>
       <use style="stroke:#000000;stroke-width:0.8;" x="57.6" xlink:href="#m9feb691e8d" y="60.674243"/>
      </g>
     </g>
     <g id="text_15">
      <!-- 6000 -->
      <g transform="translate(25.15 64.473462)scale(0.1 -0.1)">
       <use xlink:href="#DejaVuSans-36"/>
       <use x="63.623047" xlink:href="#DejaVuSans-30"/>
       <use x="127.246094" xlink:href="#DejaVuSans-30"/>
       <use x="190.869141" xlink:href="#DejaVuSans-30"/>
      </g>
     </g>
    </g>
    <g id="ytick_8">
     <g id="line2d_91">
      <path clip-path="url(#p7f1d6d72c0)" d="M 57.6 303.328354 
L 414.72 303.328354 
" style="fill:none;stroke:#b0b0b0;stroke-linecap:square;stroke-opacity:0.2;stroke-width:0.8;"/>
     </g>
     <g id="line2d_92">
      <defs>
       <path d="M 0 0 
L -2 0 
" id="m860636c2cc" style="stroke:#000000;stroke-width:0.6;"/>
      </defs>
      <g>
       <use style="stroke:#000000;stroke-width:0.6;" x="57.6" xlink:href="#m860636c2cc" y="303.328354"/>
      </g>
     </g>
    </g>
    <g id="ytick_9">
     <g id="line2d_93">
      <path clip-path="url(#p7f1d6d72c0)" d="M 57.6 287.67325 
L 414.72 287.67325 
" style="fill:none;stroke:#b0b0b0;stroke-linecap:square;stroke-opacity:0.2;stroke-width:0.8;"/>
     </g>
     <g id="line2d_94">
      <g>
       <use style="stroke:#000000;stroke-width:0.6;" x="57.6" xlink:href="#m860636c2cc" y="287.67325"/>
      </g>
     </g>
    </g>
    <g id="ytick_10">
     <g id="line2d_95">
      <path clip-path="url(#p7f1d6d72c0)" d="M 57.6 279.845698 
L 414.72 279.845698 
" style="fill:none;stroke:#b0b0b0;stroke-linecap:square;stroke-opacity:0.2;stroke-width:0.8;"/>
     </g>
     <g id="line2d_96">
      <g>
       <use style="stroke:#000000;stroke-width:0.6;" x="57.6" xlink:href="#m860636c2cc" y="279.845698"/>
      </g>
     </g>
    </g>
    <g id="ytick_11">
     <g id="line2d_97">
      <path clip-path="url(#p7f1d6d72c0)" d="M 57.6 272.018146 
L 414.72 272.018146 
" style="fill:none;stroke:#b0b0b0;stroke-linecap:square;stroke-opacity:0.2;stroke-width:0.8;"/>
     </g>
     <g id="line2d_98">
      <g>
       <use style="stroke:#000000;stroke-width:0.6;" x="57.6" xlink:href="#m860636c2cc" y="272.018146"/>
      </g>
     </g>
    </g>
    <g id="ytick_12">
     <g id="line2d_99">
      <path clip-path="url(#p7f1d6d72c0)" d="M 57.6 264.190594 
L 414.72 264.190594 
" style="fill:none;stroke:#b0b0b0;stroke-linecap:square;stroke-opacity:0.2;stroke-width:0.8;"/>
     </g>
     <g id="line2d_100">
      <g>
       <use style="stroke:#000000;stroke-width:0.6;" x="57.6" xlink:href="#m860636c2cc" y="264.190594"/>
      </g>
     </g>
    </g>
    <g id="ytick_13">
     <g id="line2d_101">
      <path clip-path="url(#p7f1d6d72c0)" d="M 57.6 248.53549 
L 414.72 248.53549 
" style="fill:none;stroke:#b0b0b0;stroke-linecap:square;stroke-opacity:0.2;stroke-width:0.8;"/>
     </g>
     <g id="line2d_102">
      <g>
       <use style="stroke:#000000;stroke-width:0.6;" x="57.6" xlink:href="#m860636c2cc" y="248.53549"/>
      </g>
     </g>
    </g>
    <g id="ytick_14">
     <g id="line2d_103">
      <path clip-path="url(#p7f1d6d72c0)" d="M 57.6 240.707938 
L 414.72 240.707938 
" style="fill:none;stroke:#b0b0b0;stroke-linecap:square;stroke-opacity:0.2;stroke-width:0.8;"/>
     </g>
     <g id="line2d_104">
      <g>
       <use style="stroke:#000000;stroke-width:0.6;" x="57.6" xlink:href="#m860636c2cc" y="240.707938"/>
      </g>
     </g>
    </g>
    <g id="ytick_15">
     <g id="line2d_105">
      <path clip-path="url(#p7f1d6d72c0)" d="M 57.6 232.880386 
L 414.72 232.880386 
" style="fill:none;stroke:#b0b0b0;stroke-linecap:square;stroke-opacity:0.2;stroke-width:0.8;"/>
     </g>
     <g id="line2d_106">
      <g>
       <use style="stroke:#000000;stroke-width:0.6;" x="57.6" xlink:href="#m860636c2cc" y="232.880386"/>
      </g>
     </g>
    </g>
    <g id="ytick_16">
     <g id="line2d_107">
      <path clip-path="url(#p7f1d6d72c0)" d="M 57.6 225.052834 
L 414.72 225.052834 
" style="fill:none;stroke:#b0b0b0;stroke-linecap:square;stroke-opacity:0.2;stroke-width:0.8;"/>
     </g>
     <g id="line2d_108">
      <g>
       <use style="stroke:#000000;stroke-width:0.6;" x="57.6" xlink:href="#m860636c2cc" y="225.052834"/>
      </g>
     </g>
    </g>
    <g id="ytick_17">
     <g id="line2d_109">
      <path clip-path="url(#p7f1d6d72c0)" d="M 57.6 209.39773 
L 414.72 209.39773 
" style="fill:none;stroke:#b0b0b0;stroke-linecap:square;stroke-opacity:0.2;stroke-width:0.8;"/>
     </g>
     <g id="line2d_110">
      <g>
       <use style="stroke:#000000;stroke-width:0.6;" x="57.6" xlink:href="#m860636c2cc" y="209.39773"/>
      </g>
     </g>
    </g>
    <g id="ytick_18">
     <g id="line2d_111">
      <path clip-path="url(#p7f1d6d72c0)" d="M 57.6 201.570178 
L 414.72 201.570178 
" style="fill:none;stroke:#b0b0b0;stroke-linecap:square;stroke-opacity:0.2;stroke-width:0.8;"/>
     </g>
     <g id="line2d_112">
      <g>
       <use style="stroke:#000000;stroke-width:0.6;" x="57.6" xlink:href="#m860636c2cc" y="201.570178"/>
      </g>
     </g>
    </g>
    <g id="ytick_19">
     <g id="line2d_113">
      <path clip-path="url(#p7f1d6d72c0)" d="M 57.6 193.742626 
L 414.72 193.742626 
" style="fill:none;stroke:#b0b0b0;stroke-linecap:square;stroke-opacity:0.2;stroke-width:0.8;"/>
     </g>
     <g id="line2d_114">
      <g>
       <use style="stroke:#000000;stroke-width:0.6;" x="57.6" xlink:href="#m860636c2cc" y="193.742626"/>
      </g>
     </g>
    </g>
    <g id="ytick_20">
     <g id="line2d_115">
      <path clip-path="url(#p7f1d6d72c0)" d="M 57.6 185.915074 
L 414.72 185.915074 
" style="fill:none;stroke:#b0b0b0;stroke-linecap:square;stroke-opacity:0.2;stroke-width:0.8;"/>
     </g>
     <g id="line2d_116">
      <g>
       <use style="stroke:#000000;stroke-width:0.6;" x="57.6" xlink:href="#m860636c2cc" y="185.915074"/>
      </g>
     </g>
    </g>
    <g id="ytick_21">
     <g id="line2d_117">
      <path clip-path="url(#p7f1d6d72c0)" d="M 57.6 170.25997 
L 414.72 170.25997 
" style="fill:none;stroke:#b0b0b0;stroke-linecap:square;stroke-opacity:0.2;stroke-width:0.8;"/>
     </g>
     <g id="line2d_118">
      <g>
       <use style="stroke:#000000;stroke-width:0.6;" x="57.6" xlink:href="#m860636c2cc" y="170.25997"/>
      </g>
     </g>
    </g>
    <g id="ytick_22">
     <g id="line2d_119">
      <path clip-path="url(#p7f1d6d72c0)" d="M 57.6 162.432419 
L 414.72 162.432419 
" style="fill:none;stroke:#b0b0b0;stroke-linecap:square;stroke-opacity:0.2;stroke-width:0.8;"/>
     </g>
     <g id="line2d_120">
      <g>
       <use style="stroke:#000000;stroke-width:0.6;" x="57.6" xlink:href="#m860636c2cc" y="162.432419"/>
      </g>
     </g>
    </g>
    <g id="ytick_23">
     <g id="line2d_121">
      <path clip-path="url(#p7f1d6d72c0)" d="M 57.6 154.604867 
L 414.72 154.604867 
" style="fill:none;stroke:#b0b0b0;stroke-linecap:square;stroke-opacity:0.2;stroke-width:0.8;"/>
     </g>
     <g id="line2d_122">
      <g>
       <use style="stroke:#000000;stroke-width:0.6;" x="57.6" xlink:href="#m860636c2cc" y="154.604867"/>
      </g>
     </g>
    </g>
    <g id="ytick_24">
     <g id="line2d_123">
      <path clip-path="url(#p7f1d6d72c0)" d="M 57.6 146.777315 
L 414.72 146.777315 
" style="fill:none;stroke:#b0b0b0;stroke-linecap:square;stroke-opacity:0.2;stroke-width:0.8;"/>
     </g>
     <g id="line2d_124">
      <g>
       <use style="stroke:#000000;stroke-width:0.6;" x="57.6" xlink:href="#m860636c2cc" y="146.777315"/>
      </g>
     </g>
    </g>
    <g id="ytick_25">
     <g id="line2d_125">
      <path clip-path="url(#p7f1d6d72c0)" d="M 57.6 131.122211 
L 414.72 131.122211 
" style="fill:none;stroke:#b0b0b0;stroke-linecap:square;stroke-opacity:0.2;stroke-width:0.8;"/>
     </g>
     <g id="line2d_126">
      <g>
       <use style="stroke:#000000;stroke-width:0.6;" x="57.6" xlink:href="#m860636c2cc" y="131.122211"/>
      </g>
     </g>
    </g>
    <g id="ytick_26">
     <g id="line2d_127">
      <path clip-path="url(#p7f1d6d72c0)" d="M 57.6 123.294659 
L 414.72 123.294659 
" style="fill:none;stroke:#b0b0b0;stroke-linecap:square;stroke-opacity:0.2;stroke-width:0.8;"/>
     </g>
     <g id="line2d_128">
      <g>
       <use style="stroke:#000000;stroke-width:0.6;" x="57.6" xlink:href="#m860636c2cc" y="123.294659"/>
      </g>
     </g>
    </g>
    <g id="ytick_27">
     <g id="line2d_129">
      <path clip-path="url(#p7f1d6d72c0)" d="M 57.6 115.467107 
L 414.72 115.467107 
" style="fill:none;stroke:#b0b0b0;stroke-linecap:square;stroke-opacity:0.2;stroke-width:0.8;"/>
     </g>
     <g id="line2d_130">
      <g>
       <use style="stroke:#000000;stroke-width:0.6;" x="57.6" xlink:href="#m860636c2cc" y="115.467107"/>
      </g>
     </g>
    </g>
    <g id="ytick_28">
     <g id="line2d_131">
      <path clip-path="url(#p7f1d6d72c0)" d="M 57.6 107.639555 
L 414.72 107.639555 
" style="fill:none;stroke:#b0b0b0;stroke-linecap:square;stroke-opacity:0.2;stroke-width:0.8;"/>
     </g>
     <g id="line2d_132">
      <g>
       <use style="stroke:#000000;stroke-width:0.6;" x="57.6" xlink:href="#m860636c2cc" y="107.639555"/>
      </g>
     </g>
    </g>
    <g id="ytick_29">
     <g id="line2d_133">
      <path clip-path="url(#p7f1d6d72c0)" d="M 57.6 91.984451 
L 414.72 91.984451 
" style="fill:none;stroke:#b0b0b0;stroke-linecap:square;stroke-opacity:0.2;stroke-width:0.8;"/>
     </g>
     <g id="line2d_134">
      <g>
       <use style="stroke:#000000;stroke-width:0.6;" x="57.6" xlink:href="#m860636c2cc" y="91.984451"/>
      </g>
     </g>
    </g>
    <g id="ytick_30">
     <g id="line2d_135">
      <path clip-path="url(#p7f1d6d72c0)" d="M 57.6 84.156899 
L 414.72 84.156899 
" style="fill:none;stroke:#b0b0b0;stroke-linecap:square;stroke-opacity:0.2;stroke-width:0.8;"/>
     </g>
     <g id="line2d_136">
      <g>
       <use style="stroke:#000000;stroke-width:0.6;" x="57.6" xlink:href="#m860636c2cc" y="84.156899"/>
      </g>
     </g>
    </g>
    <g id="ytick_31">
     <g id="line2d_137">
      <path clip-path="url(#p7f1d6d72c0)" d="M 57.6 76.329347 
L 414.72 76.329347 
" style="fill:none;stroke:#b0b0b0;stroke-linecap:square;stroke-opacity:0.2;stroke-width:0.8;"/>
     </g>
     <g id="line2d_138">
      <g>
       <use style="stroke:#000000;stroke-width:0.6;" x="57.6" xlink:href="#m860636c2cc" y="76.329347"/>
      </g>
     </g>
    </g>
    <g id="ytick_32">
     <g id="line2d_139">
      <path clip-path="url(#p7f1d6d72c0)" d="M 57.6 68.501795 
L 414.72 68.501795 
" style="fill:none;stroke:#b0b0b0;stroke-linecap:square;stroke-opacity:0.2;stroke-width:0.8;"/>
     </g>
     <g id="line2d_140">
      <g>
       <use style="stroke:#000000;stroke-width:0.6;" x="57.6" xlink:href="#m860636c2cc" y="68.501795"/>
      </g>
     </g>
    </g>
    <g id="ytick_33">
     <g id="line2d_141">
      <path clip-path="url(#p7f1d6d72c0)" d="M 57.6 52.846691 
L 414.72 52.846691 
" style="fill:none;stroke:#b0b0b0;stroke-linecap:square;stroke-opacity:0.2;stroke-width:0.8;"/>
     </g>
     <g id="line2d_142">
      <g>
       <use style="stroke:#000000;stroke-width:0.6;" x="57.6" xlink:href="#m860636c2cc" y="52.846691"/>
      </g>
     </g>
    </g>
    <g id="ytick_34">
     <g id="line2d_143">
      <path clip-path="url(#p7f1d6d72c0)" d="M 57.6 45.019139 
L 414.72 45.019139 
" style="fill:none;stroke:#b0b0b0;stroke-linecap:square;stroke-opacity:0.2;stroke-width:0.8;"/>
     </g>
     <g id="line2d_144">
      <g>
       <use style="stroke:#000000;stroke-width:0.6;" x="57.6" xlink:href="#m860636c2cc" y="45.019139"/>
      </g>
     </g>
    </g>
   </g>
   <g id="line2d_145">
    <path clip-path="url(#p7f1d6d72c0)" d="M 398.487273 267.634357 
L 388.700323 262.740402 
L 384.412073 260.859152 
L 380.733059 259.504321 
L 377.665169 258.616111 
L 374.595392 257.988472 
L 372.137683 257.694051 
L 369.678558 257.594804 
L 367.218017 257.694165 
L 364.75606 257.98937 
L 362.292688 258.471668 
L 359.211585 259.315709 
L 356.128122 260.393102 
L 352.424569 261.932804 
L 347.481307 264.273832 
L 327.644553 274.048436 
L 322.04628 276.403524 
L 316.439984 278.505463 
L 310.825194 280.360107 
L 305.201438 281.985457 
L 298.94249 283.550746 
L 292.672688 284.895184 
L 285.762976 286.157037 
L 278.209578 287.317102 
L 269.37683 288.438258 
L 259.888599 289.418825 
L 248.468839 290.362844 
L 235.736224 291.187375 
L 220.395361 291.949562 
L 201.768113 292.637562 
L 179.153694 293.238775 
L 150.514866 293.766035 
L 113.056033 294.219648 
L 73.832727 294.528706 
L 73.832727 294.528706 
" style="fill:none;stroke:#1f77b4;stroke-linecap:square;stroke-width:0.5;"/>
   </g>
   <g id="line2d_146">
    <path clip-path="url(#p7f1d6d72c0)" d="M 398.487273 289.66347 
L 384.412073 288.652334 
L 372.137683 287.546561 
L 361.676845 286.386037 
L 352.424569 285.143031 
L 344.388407 283.854668 
L 336.955818 282.44803 
L 330.129633 280.93263 
L 323.913629 279.326519 
L 318.309693 277.65689 
L 313.3216 275.961705 
L 308.326428 274.033063 
L 303.950403 272.123442 
L 299.568715 269.97432 
L 295.181836 267.550981 
L 291.416934 265.225485 
L 287.64873 262.642707 
L 283.875806 259.772482 
L 280.099579 256.585633 
L 276.318633 253.051102 
L 273.164855 249.820891 
L 270.008718 246.31879 
L 266.216918 241.746214 
L 262.421343 236.775065 
L 258.62152 231.433866 
L 253.548955 223.858219 
L 243.381173 208.48485 
L 240.197666 204.185592 
L 237.648877 201.137197 
L 235.736224 199.145108 
L 233.822156 197.449806 
L 231.907143 196.088386 
L 229.991187 195.091801 
L 228.713254 194.642098 
L 227.434848 194.37019 
L 226.155971 194.279183 
L 224.876622 194.370257 
L 223.596801 194.642632 
L 222.316508 195.093587 
L 221.035743 195.718532 
L 219.113652 196.96791 
L 217.190617 198.56613 
L 215.266638 200.478746 
L 213.341244 202.667178 
L 210.772635 205.940573 
L 207.559397 210.460841 
L 203.055956 217.252902 
L 194.676243 229.99581 
L 190.156285 236.412919 
L 186.27671 241.517114 
L 182.393359 246.214735 
L 179.153694 249.813845 
L 175.911197 253.131706 
L 172.665397 256.180809 
L 169.416766 258.976299 
L 165.514539 262.020951 
L 161.608065 264.757175 
L 157.696871 267.216132 
L 153.780958 269.426973 
L 149.207203 271.728127 
L 144.627312 273.766601 
L 140.041287 275.576332 
L 134.792699 277.402239 
L 129.536089 279.005788 
L 123.612669 280.583689 
L 117.018665 282.100372 
L 109.750301 283.52984 
L 101.802858 284.855297 
L 93.171616 286.067727 
L 83.183632 287.235814 
L 73.832727 288.147968 
L 73.832727 288.147968 
" style="fill:none;stroke:#ff7f0e;stroke-linecap:square;stroke-width:0.5;"/>
   </g>
   <g id="line2d_147">
    <path clip-path="url(#p7f1d6d72c0)" d="M 398.487273 293.373657 
L 361.06053 292.740345 
L 331.371702 292.020681 
L 307.701619 291.233993 
L 287.64873 290.35061 
L 270.640134 289.382268 
L 256.086417 288.337329 
L 243.381173 287.211287 
L 231.907143 285.976185 
L 221.676126 284.658194 
L 212.057176 283.193075 
L 203.055956 281.587013 
L 194.676243 279.855778 
L 186.923699 278.026933 
L 179.153694 275.957231 
L 171.3667 273.638566 
L 163.561774 271.081833 
L 153.780958 267.621499 
L 137.418409 261.774725 
L 131.508202 259.923416 
L 126.904716 258.688049 
L 122.294624 257.689027 
L 118.338599 257.056888 
L 114.377383 256.656804 
L 110.411919 256.504871 
L 106.441265 256.607837 
L 102.465892 256.962622 
L 98.485799 257.556489 
L 94.500988 258.368245 
L 89.845591 259.55349 
L 84.516779 261.159055 
L 77.843494 263.424466 
L 73.832727 264.864065 
L 73.832727 264.864065 
" style="fill:none;stroke:#2ca02c;stroke-linecap:square;stroke-width:0.5;"/>
   </g>
   <g id="line2d_148">
    <path clip-path="url(#p7f1d6d72c0)" d="M 398.487273 295.457791 
L 73.832727 295.488 
L 73.832727 295.488 
" style="fill:none;stroke:#d62728;stroke-linecap:square;stroke-width:0.5;"/>
   </g>
   <g id="line2d_149">
    <path clip-path="url(#p7f1d6d72c0)" d="M 398.487273 259.352905 
L 387.475243 252.964052 
L 383.186049 250.755963 
L 379.506092 249.12574 
L 376.43773 248.008291 
L 373.366538 247.146571 
L 370.908356 246.657747 
L 368.448287 246.353659 
L 365.987274 246.233998 
L 362.909003 246.333003 
L 359.8279 246.683944 
L 356.744909 247.24997 
L 353.041828 248.150366 
L 347.481307 249.779283 
L 336.955818 252.935847 
L 331.992736 254.149753 
L 327.644553 254.968999 
L 323.913629 255.460648 
L 320.178458 255.740281 
L 316.439984 255.795134 
L 312.697735 255.614625 
L 308.951238 255.188646 
L 305.201438 254.506703 
L 301.44739 253.556572 
L 298.315793 252.549725 
L 295.181836 251.337443 
L 292.045047 249.90871 
L 288.905427 248.251328 
L 285.762976 246.351892 
L 282.617693 244.196043 
L 279.469578 241.768924 
L 276.318633 239.055903 
L 273.164855 236.043648 
L 270.008718 232.722188 
L 266.849278 229.084996 
L 263.687006 225.134784 
L 259.888599 220.001595 
L 256.086417 214.492661 
L 250.374886 205.754103 
L 244.01778 196.041832 
L 240.834745 191.545335 
L 238.286428 188.289834 
L 235.736224 185.446809 
L 233.822156 183.643368 
L 231.907143 182.163023 
L 229.991187 181.036623 
L 228.713254 180.494262 
L 227.434848 180.12476 
L 226.155971 179.931179 
L 224.876622 179.914653 
L 223.596801 180.074351 
L 222.316508 180.407498 
L 221.035743 180.909449 
L 219.113652 181.964475 
L 217.190617 183.356339 
L 215.266638 185.050368 
L 213.341244 187.007688 
L 210.772635 189.953103 
L 207.559397 194.03061 
L 202.411799 201.02685 
L 195.966918 209.739263 
L 192.093949 214.614996 
L 188.863722 218.373592 
L 185.630192 221.818697 
L 182.393359 224.933661 
L 179.153694 227.714586 
L 175.911197 230.167504 
L 172.665397 232.305198 
L 169.416766 234.14407 
L 166.165303 235.703647 
L 162.910537 237.005362 
L 159.65294 238.071355 
L 156.392039 238.924917 
L 152.47471 239.702284 
L 148.553607 240.25033 
L 143.972772 240.6589 
L 138.074364 240.931162 
L 120.976578 241.520343 
L 116.358462 241.962977 
L 111.734212 242.631268 
L 107.103355 243.554362 
L 102.465892 244.74174 
L 97.821821 246.183556 
L 93.171616 247.852998 
L 87.848467 249.989453 
L 80.514507 253.200517 
L 73.832727 256.252369 
L 73.832727 256.252369 
" style="fill:none;stroke:#000000;stroke-linecap:square;stroke-width:0.5;"/>
   </g>
   <g id="line2d_150">
    <path clip-path="url(#p7f1d6d72c0)" d="M 398.487273 247.674459 
L 397.876149 246.843173 
L 397.265025 247.755866 
L 396.653901 247.15745 
L 396.042305 249.957756 
L 395.431181 248.377374 
L 394.819585 249.440355 
L 394.207989 247.709683 
L 392.984325 247.193456 
L 392.372729 249.086158 
L 391.760662 249.016493 
L 391.149066 249.475188 
L 390.536998 247.519474 
L 389.92493 249.638001 
L 389.31239 249.4928 
L 388.700323 249.046629 
L 388.087783 248.901819 
L 387.475243 248.983226 
L 386.862703 251.552229 
L 386.250164 249.296719 
L 385.637624 247.645106 
L 385.025084 247.350007 
L 384.412073 250.068516 
L 383.799061 249.697882 
L 383.186049 247.369185 
L 382.573038 250.162055 
L 381.960026 249.867348 
L 381.346543 250.626229 
L 380.733059 249.352686 
L 380.120047 253.047291 
L 379.506092 250.569479 
L 378.892608 250.72603 
L 378.279125 249.678704 
L 377.665169 249.910791 
L 377.051214 249.841908 
L 376.43773 249.923706 
L 375.823303 250.456371 
L 375.209348 248.733136 
L 374.595392 249.717059 
L 373.980965 250.249724 
L 373.366538 245.446347 
L 372.75211 249.210616 
L 371.522784 251.778053 
L 370.908356 250.582395 
L 370.293457 249.011797 
L 369.678558 249.54407 
L 369.063658 250.827397 
L 368.448287 248.806715 
L 367.833388 249.714319 
L 367.218017 250.846575 
L 366.602646 250.853228 
L 365.987274 252.735363 
L 365.371903 249.441138 
L 364.75606 249.897875 
L 364.140689 250.654408 
L 363.524846 248.786754 
L 362.909003 249.693185 
L 362.292688 248.35076 
L 361.676845 250.231721 
L 361.06053 250.912718 
L 360.444215 254.815535 
L 359.8279 251.22582 
L 359.211585 249.959322 
L 358.594798 248.992619 
L 357.978483 251.320924 
L 357.361696 248.40751 
L 356.744909 249.911965 
L 356.128122 252.08959 
L 355.510863 249.327247 
L 354.893604 252.252403 
L 354.276817 251.286483 
L 353.659559 251.667294 
L 353.041828 249.954234 
L 352.424569 250.110785 
L 351.806838 252.286062 
L 351.189108 250.648146 
L 350.571377 251.327578 
L 349.953646 248.420034 
L 349.335443 251.042655 
L 348.717713 252.244967 
L 348.09951 252.924007 
L 347.481307 250.690415 
L 346.862633 252.041451 
L 346.24443 251.525615 
L 345.625756 249.442312 
L 344.388407 252.367468 
L 343.769732 252.672743 
L 343.150586 252.232051 
L 342.531439 252.239096 
L 341.912293 251.574537 
L 341.293146 251.432467 
L 340.674 251.514265 
L 340.054381 253.161182 
L 339.434763 252.050061 
L 338.815145 251.237561 
L 338.195526 250.797653 
L 337.575908 251.102927 
L 336.955818 251.184725 
L 336.335727 253.053553 
L 335.715637 251.943606 
L 335.095547 251.504089 
L 333.854422 251.592932 
L 333.23386 252.418739 
L 332.613298 250.863404 
L 331.992736 251.093925 
L 331.371702 252.216788 
L 330.750667 252.149471 
L 330.129633 251.710737 
L 329.508599 253.055901 
L 328.887093 251.353409 
L 328.266059 251.509568 
L 327.644553 252.408171 
L 327.023047 254.049609 
L 326.401069 253.091125 
L 325.157585 252.437133 
L 324.535607 250.588266 
L 323.913629 253.93611 
L 323.29118 252.681353 
L 322.66873 251.798405 
L 322.04628 253.289162 
L 321.42383 250.922893 
L 320.80138 250.559695 
L 320.178458 253.904017 
L 319.556009 253.8367 
L 318.933087 253.102475 
L 318.309693 251.25713 
L 317.686771 251.783141 
L 317.063378 252.161212 
L 316.439984 253.797953 
L 315.81659 252.397996 
L 315.193197 252.2571 
L 314.569331 251.894684 
L 313.945466 253.678583 
L 313.3216 253.167444 
L 312.697735 256.504682 
L 312.073397 253.033984 
L 311.449531 253.781124 
L 310.825194 253.122827 
L 310.200385 254.608888 
L 309.576047 252.619907 
L 308.951238 252.331461 
L 308.326428 252.264927 
L 307.701619 253.676626 
L 307.07681 250.580829 
L 306.451528 254.208117 
L 305.826719 254.584622 
L 305.201438 251.04696 
L 304.575684 253.638663 
L 303.950403 252.907961 
L 303.32465 254.170153 
L 302.698897 251.742047 
L 302.073143 253.003848 
L 301.44739 252.199959 
L 300.821165 253.534947 
L 300.19494 252.657479 
L 299.568715 253.181142 
L 298.94249 251.935387 
L 298.315793 251.721695 
L 297.689096 252.613645 
L 297.062399 254.979131 
L 296.435702 250.934635 
L 295.809005 253.151789 
L 295.181836 252.570202 
L 293.927498 253.8367 
L 293.299857 251.415246 
L 292.672688 253.704414 
L 292.045047 252.24027 
L 291.416934 251.217992 
L 290.789293 252.034797 
L 290.161653 251.67473 
L 289.53354 251.462212 
L 288.905427 249.264627 
L 288.276842 250.669281 
L 287.64873 250.01568 
L 287.020145 248.775013 
L 286.39156 250.252464 
L 285.133919 251.516613 
L 284.504862 250.569871 
L 283.875806 249.917444 
L 283.246749 252.787808 
L 282.617693 252.722056 
L 281.988164 251.18903 
L 281.358636 250.68337 
L 280.729107 251.278264 
L 280.099579 248.719438 
L 279.469578 247.921419 
L 278.839578 251.228559 
L 278.209578 250.943245 
L 277.579577 248.313579 
L 276.949105 252.277843 
L 276.318633 251.333449 
L 275.68816 247.533172 
L 275.057688 250.690024 
L 274.426744 248.428644 
L 273.796271 247.632191 
L 273.164855 251.153415 
L 272.533911 249.990632 
L 271.902967 245.902302 
L 271.271551 249.860695 
L 270.640134 248.040789 
L 270.008718 245.855728 
L 269.37683 249.958539 
L 268.745414 246.677621 
L 268.113526 249.0979 
L 267.481166 246.549249 
L 266.849278 248.603198 
L 266.216918 247.223984 
L 265.584558 246.210316 
L 264.952198 247.898719 
L 264.319838 247.615361 
L 263.054175 244.494908 
L 262.421343 244.431113 
L 261.788511 243.564995 
L 261.155207 246.491716 
L 260.521903 243.437797 
L 259.888599 241.989308 
L 259.255296 240.97838 
L 258.62152 240.478199 
L 257.987744 244.714079 
L 257.353969 243.630746 
L 256.720193 243.931324 
L 256.086417 241.756047 
L 255.45217 237.105699 
L 254.817922 240.902061 
L 254.183203 241.348623 
L 253.548955 236.628218 
L 252.914235 237.87593 
L 252.279516 236.722149 
L 251.644796 231.714472 
L 251.009605 230.489852 
L 250.374886 225.630116 
L 249.739694 225.352238 
L 248.468839 206.266318 
L 247.833176 192.76927 
L 247.197513 175.644935 
L 246.561849 152.498472 
L 245.925714 121.95419 
L 244.653916 53.568 
L 244.01778 58.837117 
L 243.381173 81.882212 
L 242.744566 96.212894 
L 240.197666 167.620129 
L 239.560586 173.224656 
L 238.923507 180.928532 
L 238.286428 183.992628 
L 237.648877 185.751479 
L 237.011326 184.46776 
L 236.373775 193.033059 
L 235.736224 191.531343 
L 234.460179 187.80582 
L 233.822156 185.003556 
L 233.183661 180.827557 
L 232.545638 172.891202 
L 231.907143 170.527281 
L 231.268649 178.35953 
L 230.629682 179.320753 
L 229.991187 187.582343 
L 229.35222 190.05898 
L 228.713254 197.448581 
L 228.073815 202.162333 
L 227.434848 204.129788 
L 226.79541 205.662814 
L 226.155971 203.080113 
L 225.516061 208.800097 
L 224.876622 205.5681 
L 223.596801 212.671604 
L 222.95689 208.719082 
L 222.316508 209.240005 
L 221.676126 209.111633 
L 221.035743 211.362446 
L 220.395361 206.260056 
L 219.754506 209.447435 
L 219.113652 204.995515 
L 218.472798 206.236965 
L 217.831943 205.028782 
L 217.190617 201.444546 
L 216.549291 203.83782 
L 215.907965 195.503826 
L 215.266638 198.32918 
L 214.62484 198.418806 
L 213.983042 199.875905 
L 213.341244 200.109166 
L 212.699446 199.26379 
L 212.057176 199.856727 
L 211.414905 200.880962 
L 210.772635 200.826169 
L 210.130365 202.568583 
L 209.487623 197.986725 
L 208.845353 202.961917 
L 208.202611 205.996268 
L 207.559397 200.626176 
L 206.916655 203.515716 
L 206.273441 201.163537 
L 205.630228 200.032456 
L 204.986542 202.489916 
L 203.699642 200.443794 
L 203.055956 198.811749 
L 202.411799 198.255601 
L 201.768113 195.907336 
L 201.123955 186.319759 
L 200.479797 191.356789 
L 199.835168 183.49323 
L 199.19101 177.280502 
L 198.54638 177.517285 
L 197.901751 171.952679 
L 197.256649 170.901047 
L 196.61202 175.649631 
L 195.966918 165.507081 
L 195.321816 163.813199 
L 194.676243 164.338427 
L 194.031141 179.100408 
L 193.385568 181.76882 
L 192.739995 192.302748 
L 192.093949 196.468963 
L 191.448376 199.561237 
L 190.80233 203.22414 
L 190.156285 204.527819 
L 189.509768 205.116059 
L 188.863722 204.632708 
L 188.217205 207.434972 
L 187.570688 207.451409 
L 186.923699 209.324151 
L 186.27671 209.554281 
L 185.630192 209.284622 
L 184.982731 212.51153 
L 183.688281 222.386379 
L 183.04082 223.968718 
L 182.393359 227.048077 
L 181.745898 229.484794 
L 181.097965 230.352478 
L 180.450032 233.571559 
L 179.802099 233.939063 
L 179.153694 235.304188 
L 178.505761 238.734221 
L 177.857356 237.320565 
L 177.208479 240.321648 
L 176.560074 239.121685 
L 175.911197 240.982685 
L 175.26232 241.846847 
L 174.613444 240.860575 
L 173.964095 238.309968 
L 172.665397 240.677802 
L 172.016049 238.697431 
L 171.3667 241.338056 
L 170.716879 238.434426 
L 170.067059 238.729133 
L 169.416766 237.39023 
L 168.766946 237.614098 
L 168.116653 237.625057 
L 167.46636 233.020891 
L 166.816068 235.871685 
L 166.165303 230.06325 
L 165.514539 231.494518 
L 164.863774 233.705801 
L 164.21301 230.10004 
L 163.561774 229.544675 
L 162.910537 227.004634 
L 162.259301 229.569723 
L 161.608065 227.526341 
L 160.956356 230.374004 
L 160.304648 232.653387 
L 159.65294 229.26484 
L 159.000759 227.081736 
L 158.349051 230.847571 
L 157.696871 229.302412 
L 157.044219 230.801388 
L 156.392039 231.238166 
L 155.739387 231.10862 
L 155.086734 233.45532 
L 154.434082 231.203725 
L 153.780958 233.549642 
L 153.128306 239.500538 
L 152.47471 237.248943 
L 151.821586 240.228501 
L 151.168462 241.652332 
L 150.514866 240.885624 
L 149.86127 240.966247 
L 149.207203 241.894986 
L 148.553607 243.035069 
L 147.899539 243.750899 
L 146.590931 245.746533 
L 145.936392 245.685478 
L 145.282324 245.130505 
L 144.627312 242.741927 
L 143.972772 244.585707 
L 143.317761 245.582155 
L 142.662749 247.283864 
L 142.007737 245.530884 
L 141.352254 246.245148 
L 140.69677 243.929367 
L 140.041287 246.827518 
L 139.385803 241.695775 
L 138.729848 244.100008 
L 138.074364 243.265199 
L 137.418409 243.486328 
L 136.761981 241.244125 
L 136.105554 243.576345 
L 135.449598 245.274923 
L 134.792699 242.963447 
L 134.136272 243.817433 
L 133.479372 245.022485 
L 132.822473 242.712574 
L 132.165574 244.269083 
L 131.508202 244.840886 
L 130.19346 240.786605 
L 129.536089 239.743975 
L 128.878246 242.984582 
L 128.220875 242.012008 
L 127.56256 242.583811 
L 126.904716 241.050393 
L 126.246401 244.849104 
L 125.588086 246.19153 
L 124.929771 241.432769 
L 124.271456 244.948906 
L 123.612669 243.977507 
L 122.953882 246.860785 
L 122.294624 246.589952 
L 121.635837 246.459623 
L 120.976578 244.15754 
L 120.317319 247.599315 
L 119.657588 245.928132 
L 118.998329 246.148087 
L 118.338599 245.59781 
L 117.678396 247.496774 
L 117.018665 246.386827 
L 116.358462 243.66871 
L 115.69826 244.378277 
L 115.038057 248.024351 
L 114.377383 245.237351 
L 113.716708 248.532359 
L 113.056033 247.423586 
L 112.395359 250.367529 
L 111.734212 247.512429 
L 111.073066 248.639205 
L 110.411919 247.950381 
L 109.750301 249.146822 
L 109.088682 249.086158 
L 108.427064 249.932708 
L 107.765446 248.546449 
L 107.103355 247.579355 
L 106.441265 248.216517 
L 105.779175 249.550724 
L 105.116613 248.793408 
L 104.45405 247.408714 
L 103.791488 247.766824 
L 103.128926 247.218896 
L 102.465892 248.203993 
L 101.802858 246.681534 
L 101.139823 246.064723 
L 100.476317 242.941921 
L 99.813283 245.249484 
L 98.485799 245.687044 
L 97.821821 250.774953 
L 97.158315 247.028686 
L 96.493865 246.690927 
L 95.829887 250.176928 
L 95.165438 246.571949 
L 94.500988 245.192343 
L 93.836066 247.912026 
L 93.171616 245.282359 
L 92.506694 243.695715 
L 91.841773 243.428404 
L 91.176379 243.855788 
L 90.510985 240.535341 
L 89.845591 244.432287 
L 89.180198 244.026429 
L 88.514332 244.522696 
L 87.848467 243.28516 
L 87.182601 244.682769 
L 86.516264 245.594287 
L 85.849926 245.396642 
L 85.183588 245.892126 
L 84.516779 252.067673 
L 83.850442 250.691589 
L 83.183632 252.986236 
L 82.516351 253.202668 
L 81.849541 255.426475 
L 81.18226 255.988494 
L 80.514507 252.330287 
L 79.847226 252.615993 
L 79.179472 254.768961 
L 78.511719 252.49584 
L 77.843494 251.122496 
L 77.175269 251.270045 
L 76.507044 248.377765 
L 75.838818 248.180511 
L 75.170121 247.8451 
L 74.501424 248.339019 
L 73.832727 247.382492 
L 73.832727 247.382492 
" style="fill:none;stroke:#ff0000;stroke-linecap:square;stroke-opacity:0.5;stroke-width:0.5;"/>
   </g>
   <g id="patch_3">
    <path d="M 57.6 307.584 
L 57.6 41.472 
" style="fill:none;stroke:#000000;stroke-linecap:square;stroke-linejoin:miter;stroke-width:0.8;"/>
   </g>
   <g id="patch_4">
    <path d="M 414.72 307.584 
L 414.72 41.472 
" style="fill:none;stroke:#000000;stroke-linecap:square;stroke-linejoin:miter;stroke-width:0.8;"/>
   </g>
   <g id="patch_5">
    <path d="M 57.6 307.584 
L 414.72 307.584 
" style="fill:none;stroke:#000000;stroke-linecap:square;stroke-linejoin:miter;stroke-width:0.8;"/>
   </g>
   <g id="patch_6">
    <path d="M 57.6 41.472 
L 414.72 41.472 
" style="fill:none;stroke:#000000;stroke-linecap:square;stroke-linejoin:miter;stroke-width:0.8;"/>
   </g>
  </g>
 </g>
 <defs>
  <clipPath id="p7f1d6d72c0">
   <rect height="266.112" width="357.12" x="57.6" y="41.472"/>
  </clipPath>
 </defs>
</svg>
