<?xml version="1.0" encoding="utf-8" standalone="no"?>
<!DOCTYPE svg PUBLIC "-//W3C//DTD SVG 1.1//EN"
  "http://www.w3.org/Graphics/SVG/1.1/DTD/svg11.dtd">
<!-- Created with matplotlib (http://matplotlib.org/) -->
<svg height="345.6pt" version="1.1" viewBox="0 0 460.8 345.6" width="460.8pt" xmlns="http://www.w3.org/2000/svg" xmlns:xlink="http://www.w3.org/1999/xlink">
 <defs>
  <style type="text/css">
*{stroke-linecap:butt;stroke-linejoin:round;}
  </style>
 </defs>
 <g id="figure_1">
  <g id="patch_1">
   <path d="M 0 345.6 
L 460.8 345.6 
L 460.8 0 
L 0 0 
z
" style="fill:none;"/>
  </g>
  <g id="axes_1">
   <g id="patch_2">
    <path d="M 57.6 307.584 
L 414.72 307.584 
L 414.72 41.472 
L 57.6 41.472 
z
" style="fill:none;"/>
   </g>
   <g id="matplotlib.axis_1">
    <g id="xtick_1">
     <g id="line2d_1">
      <path clip-path="url(#p34d5f8ef1e)" d="M 64.103263 307.584 
L 64.103263 41.472 
" style="fill:none;stroke:#b0b0b0;stroke-linecap:square;stroke-opacity:0.5;stroke-width:0.8;"/>
     </g>
     <g id="line2d_2">
      <defs>
       <path d="M 0 0 
L 0 3.5 
" id="m820cd9c353" style="stroke:#000000;stroke-width:0.8;"/>
      </defs>
      <g>
       <use style="stroke:#000000;stroke-width:0.8;" x="64.103263" xlink:href="#m820cd9c353" y="307.584"/>
      </g>
     </g>
     <g id="text_1">
      <!-- 100 -->
      <defs>
       <path d="M 12.40625 8.296875 
L 28.515625 8.296875 
L 28.515625 63.921875 
L 10.984375 60.40625 
L 10.984375 69.390625 
L 28.421875 72.90625 
L 38.28125 72.90625 
L 38.28125 8.296875 
L 54.390625 8.296875 
L 54.390625 0 
L 12.40625 0 
z
" id="DejaVuSans-31"/>
       <path d="M 31.78125 66.40625 
Q 24.171875 66.40625 20.328125 58.90625 
Q 16.5 51.421875 16.5 36.375 
Q 16.5 21.390625 20.328125 13.890625 
Q 24.171875 6.390625 31.78125 6.390625 
Q 39.453125 6.390625 43.28125 13.890625 
Q 47.125 21.390625 47.125 36.375 
Q 47.125 51.421875 43.28125 58.90625 
Q 39.453125 66.40625 31.78125 66.40625 
z
M 31.78125 74.21875 
Q 44.046875 74.21875 50.515625 64.515625 
Q 56.984375 54.828125 56.984375 36.375 
Q 56.984375 17.96875 50.515625 8.265625 
Q 44.046875 -1.421875 31.78125 -1.421875 
Q 19.53125 -1.421875 13.0625 8.265625 
Q 6.59375 17.96875 6.59375 36.375 
Q 6.59375 54.828125 13.0625 64.515625 
Q 19.53125 74.21875 31.78125 74.21875 
z
" id="DejaVuSans-30"/>
      </defs>
      <g transform="translate(54.559513 322.182437)scale(0.1 -0.1)">
       <use xlink:href="#DejaVuSans-31"/>
       <use x="63.623047" xlink:href="#DejaVuSans-30"/>
       <use x="127.246094" xlink:href="#DejaVuSans-30"/>
      </g>
     </g>
    </g>
    <g id="xtick_2">
     <g id="line2d_3">
      <path clip-path="url(#p34d5f8ef1e)" d="M 106.222157 307.584 
L 106.222157 41.472 
" style="fill:none;stroke:#b0b0b0;stroke-linecap:square;stroke-opacity:0.5;stroke-width:0.8;"/>
     </g>
     <g id="line2d_4">
      <g>
       <use style="stroke:#000000;stroke-width:0.8;" x="106.222157" xlink:href="#m820cd9c353" y="307.584"/>
      </g>
     </g>
     <g id="text_2">
      <!-- 200 -->
      <defs>
       <path d="M 19.1875 8.296875 
L 53.609375 8.296875 
L 53.609375 0 
L 7.328125 0 
L 7.328125 8.296875 
Q 12.9375 14.109375 22.625 23.890625 
Q 32.328125 33.6875 34.8125 36.53125 
Q 39.546875 41.84375 41.421875 45.53125 
Q 43.3125 49.21875 43.3125 52.78125 
Q 43.3125 58.59375 39.234375 62.25 
Q 35.15625 65.921875 28.609375 65.921875 
Q 23.96875 65.921875 18.8125 64.3125 
Q 13.671875 62.703125 7.8125 59.421875 
L 7.8125 69.390625 
Q 13.765625 71.78125 18.9375 73 
Q 24.125 74.21875 28.421875 74.21875 
Q 39.75 74.21875 46.484375 68.546875 
Q 53.21875 62.890625 53.21875 53.421875 
Q 53.21875 48.921875 51.53125 44.890625 
Q 49.859375 40.875 45.40625 35.40625 
Q 44.1875 33.984375 37.640625 27.21875 
Q 31.109375 20.453125 19.1875 8.296875 
z
" id="DejaVuSans-32"/>
      </defs>
      <g transform="translate(96.678407 322.182437)scale(0.1 -0.1)">
       <use xlink:href="#DejaVuSans-32"/>
       <use x="63.623047" xlink:href="#DejaVuSans-30"/>
       <use x="127.246094" xlink:href="#DejaVuSans-30"/>
      </g>
     </g>
    </g>
    <g id="xtick_3">
     <g id="line2d_5">
      <path clip-path="url(#p34d5f8ef1e)" d="M 148.341052 307.584 
L 148.341052 41.472 
" style="fill:none;stroke:#b0b0b0;stroke-linecap:square;stroke-opacity:0.5;stroke-width:0.8;"/>
     </g>
     <g id="line2d_6">
      <g>
       <use style="stroke:#000000;stroke-width:0.8;" x="148.341052" xlink:href="#m820cd9c353" y="307.584"/>
      </g>
     </g>
     <g id="text_3">
      <!-- 300 -->
      <defs>
       <path d="M 40.578125 39.3125 
Q 47.65625 37.796875 51.625 33 
Q 55.609375 28.21875 55.609375 21.1875 
Q 55.609375 10.40625 48.1875 4.484375 
Q 40.765625 -1.421875 27.09375 -1.421875 
Q 22.515625 -1.421875 17.65625 -0.515625 
Q 12.796875 0.390625 7.625 2.203125 
L 7.625 11.71875 
Q 11.71875 9.328125 16.59375 8.109375 
Q 21.484375 6.890625 26.8125 6.890625 
Q 36.078125 6.890625 40.9375 10.546875 
Q 45.796875 14.203125 45.796875 21.1875 
Q 45.796875 27.640625 41.28125 31.265625 
Q 36.765625 34.90625 28.71875 34.90625 
L 20.21875 34.90625 
L 20.21875 43.015625 
L 29.109375 43.015625 
Q 36.375 43.015625 40.234375 45.921875 
Q 44.09375 48.828125 44.09375 54.296875 
Q 44.09375 59.90625 40.109375 62.90625 
Q 36.140625 65.921875 28.71875 65.921875 
Q 24.65625 65.921875 20.015625 65.03125 
Q 15.375 64.15625 9.8125 62.3125 
L 9.8125 71.09375 
Q 15.4375 72.65625 20.34375 73.4375 
Q 25.25 74.21875 29.59375 74.21875 
Q 40.828125 74.21875 47.359375 69.109375 
Q 53.90625 64.015625 53.90625 55.328125 
Q 53.90625 49.265625 50.4375 45.09375 
Q 46.96875 40.921875 40.578125 39.3125 
z
" id="DejaVuSans-33"/>
      </defs>
      <g transform="translate(138.797302 322.182437)scale(0.1 -0.1)">
       <use xlink:href="#DejaVuSans-33"/>
       <use x="63.623047" xlink:href="#DejaVuSans-30"/>
       <use x="127.246094" xlink:href="#DejaVuSans-30"/>
      </g>
     </g>
    </g>
    <g id="xtick_4">
     <g id="line2d_7">
      <path clip-path="url(#p34d5f8ef1e)" d="M 190.459946 307.584 
L 190.459946 41.472 
" style="fill:none;stroke:#b0b0b0;stroke-linecap:square;stroke-opacity:0.5;stroke-width:0.8;"/>
     </g>
     <g id="line2d_8">
      <g>
       <use style="stroke:#000000;stroke-width:0.8;" x="190.459946" xlink:href="#m820cd9c353" y="307.584"/>
      </g>
     </g>
     <g id="text_4">
      <!-- 400 -->
      <defs>
       <path d="M 37.796875 64.3125 
L 12.890625 25.390625 
L 37.796875 25.390625 
z
M 35.203125 72.90625 
L 47.609375 72.90625 
L 47.609375 25.390625 
L 58.015625 25.390625 
L 58.015625 17.1875 
L 47.609375 17.1875 
L 47.609375 0 
L 37.796875 0 
L 37.796875 17.1875 
L 4.890625 17.1875 
L 4.890625 26.703125 
z
" id="DejaVuSans-34"/>
      </defs>
      <g transform="translate(180.916196 322.182437)scale(0.1 -0.1)">
       <use xlink:href="#DejaVuSans-34"/>
       <use x="63.623047" xlink:href="#DejaVuSans-30"/>
       <use x="127.246094" xlink:href="#DejaVuSans-30"/>
      </g>
     </g>
    </g>
    <g id="xtick_5">
     <g id="line2d_9">
      <path clip-path="url(#p34d5f8ef1e)" d="M 232.578841 307.584 
L 232.578841 41.472 
" style="fill:none;stroke:#b0b0b0;stroke-linecap:square;stroke-opacity:0.5;stroke-width:0.8;"/>
     </g>
     <g id="line2d_10">
      <g>
       <use style="stroke:#000000;stroke-width:0.8;" x="232.578841" xlink:href="#m820cd9c353" y="307.584"/>
      </g>
     </g>
     <g id="text_5">
      <!-- 500 -->
      <defs>
       <path d="M 10.796875 72.90625 
L 49.515625 72.90625 
L 49.515625 64.59375 
L 19.828125 64.59375 
L 19.828125 46.734375 
Q 21.96875 47.46875 24.109375 47.828125 
Q 26.265625 48.1875 28.421875 48.1875 
Q 40.625 48.1875 47.75 41.5 
Q 54.890625 34.8125 54.890625 23.390625 
Q 54.890625 11.625 47.5625 5.09375 
Q 40.234375 -1.421875 26.90625 -1.421875 
Q 22.3125 -1.421875 17.546875 -0.640625 
Q 12.796875 0.140625 7.71875 1.703125 
L 7.71875 11.625 
Q 12.109375 9.234375 16.796875 8.0625 
Q 21.484375 6.890625 26.703125 6.890625 
Q 35.15625 6.890625 40.078125 11.328125 
Q 45.015625 15.765625 45.015625 23.390625 
Q 45.015625 31 40.078125 35.4375 
Q 35.15625 39.890625 26.703125 39.890625 
Q 22.75 39.890625 18.8125 39.015625 
Q 14.890625 38.140625 10.796875 36.28125 
z
" id="DejaVuSans-35"/>
      </defs>
      <g transform="translate(223.035091 322.182437)scale(0.1 -0.1)">
       <use xlink:href="#DejaVuSans-35"/>
       <use x="63.623047" xlink:href="#DejaVuSans-30"/>
       <use x="127.246094" xlink:href="#DejaVuSans-30"/>
      </g>
     </g>
    </g>
    <g id="xtick_6">
     <g id="line2d_11">
      <path clip-path="url(#p34d5f8ef1e)" d="M 274.697736 307.584 
L 274.697736 41.472 
" style="fill:none;stroke:#b0b0b0;stroke-linecap:square;stroke-opacity:0.5;stroke-width:0.8;"/>
     </g>
     <g id="line2d_12">
      <g>
       <use style="stroke:#000000;stroke-width:0.8;" x="274.697736" xlink:href="#m820cd9c353" y="307.584"/>
      </g>
     </g>
     <g id="text_6">
      <!-- 600 -->
      <defs>
       <path d="M 33.015625 40.375 
Q 26.375 40.375 22.484375 35.828125 
Q 18.609375 31.296875 18.609375 23.390625 
Q 18.609375 15.53125 22.484375 10.953125 
Q 26.375 6.390625 33.015625 6.390625 
Q 39.65625 6.390625 43.53125 10.953125 
Q 47.40625 15.53125 47.40625 23.390625 
Q 47.40625 31.296875 43.53125 35.828125 
Q 39.65625 40.375 33.015625 40.375 
z
M 52.59375 71.296875 
L 52.59375 62.3125 
Q 48.875 64.0625 45.09375 64.984375 
Q 41.3125 65.921875 37.59375 65.921875 
Q 27.828125 65.921875 22.671875 59.328125 
Q 17.53125 52.734375 16.796875 39.40625 
Q 19.671875 43.65625 24.015625 45.921875 
Q 28.375 48.1875 33.59375 48.1875 
Q 44.578125 48.1875 50.953125 41.515625 
Q 57.328125 34.859375 57.328125 23.390625 
Q 57.328125 12.15625 50.6875 5.359375 
Q 44.046875 -1.421875 33.015625 -1.421875 
Q 20.359375 -1.421875 13.671875 8.265625 
Q 6.984375 17.96875 6.984375 36.375 
Q 6.984375 53.65625 15.1875 63.9375 
Q 23.390625 74.21875 37.203125 74.21875 
Q 40.921875 74.21875 44.703125 73.484375 
Q 48.484375 72.75 52.59375 71.296875 
z
" id="DejaVuSans-36"/>
      </defs>
      <g transform="translate(265.153986 322.182437)scale(0.1 -0.1)">
       <use xlink:href="#DejaVuSans-36"/>
       <use x="63.623047" xlink:href="#DejaVuSans-30"/>
       <use x="127.246094" xlink:href="#DejaVuSans-30"/>
      </g>
     </g>
    </g>
    <g id="xtick_7">
     <g id="line2d_13">
      <path clip-path="url(#p34d5f8ef1e)" d="M 316.81663 307.584 
L 316.81663 41.472 
" style="fill:none;stroke:#b0b0b0;stroke-linecap:square;stroke-opacity:0.5;stroke-width:0.8;"/>
     </g>
     <g id="line2d_14">
      <g>
       <use style="stroke:#000000;stroke-width:0.8;" x="316.81663" xlink:href="#m820cd9c353" y="307.584"/>
      </g>
     </g>
     <g id="text_7">
      <!-- 700 -->
      <defs>
       <path d="M 8.203125 72.90625 
L 55.078125 72.90625 
L 55.078125 68.703125 
L 28.609375 0 
L 18.3125 0 
L 43.21875 64.59375 
L 8.203125 64.59375 
z
" id="DejaVuSans-37"/>
      </defs>
      <g transform="translate(307.27288 322.182437)scale(0.1 -0.1)">
       <use xlink:href="#DejaVuSans-37"/>
       <use x="63.623047" xlink:href="#DejaVuSans-30"/>
       <use x="127.246094" xlink:href="#DejaVuSans-30"/>
      </g>
     </g>
    </g>
    <g id="xtick_8">
     <g id="line2d_15">
      <path clip-path="url(#p34d5f8ef1e)" d="M 358.935525 307.584 
L 358.935525 41.472 
" style="fill:none;stroke:#b0b0b0;stroke-linecap:square;stroke-opacity:0.5;stroke-width:0.8;"/>
     </g>
     <g id="line2d_16">
      <g>
       <use style="stroke:#000000;stroke-width:0.8;" x="358.935525" xlink:href="#m820cd9c353" y="307.584"/>
      </g>
     </g>
     <g id="text_8">
      <!-- 800 -->
      <defs>
       <path d="M 31.78125 34.625 
Q 24.75 34.625 20.71875 30.859375 
Q 16.703125 27.09375 16.703125 20.515625 
Q 16.703125 13.921875 20.71875 10.15625 
Q 24.75 6.390625 31.78125 6.390625 
Q 38.8125 6.390625 42.859375 10.171875 
Q 46.921875 13.96875 46.921875 20.515625 
Q 46.921875 27.09375 42.890625 30.859375 
Q 38.875 34.625 31.78125 34.625 
z
M 21.921875 38.8125 
Q 15.578125 40.375 12.03125 44.71875 
Q 8.5 49.078125 8.5 55.328125 
Q 8.5 64.0625 14.71875 69.140625 
Q 20.953125 74.21875 31.78125 74.21875 
Q 42.671875 74.21875 48.875 69.140625 
Q 55.078125 64.0625 55.078125 55.328125 
Q 55.078125 49.078125 51.53125 44.71875 
Q 48 40.375 41.703125 38.8125 
Q 48.828125 37.15625 52.796875 32.3125 
Q 56.78125 27.484375 56.78125 20.515625 
Q 56.78125 9.90625 50.3125 4.234375 
Q 43.84375 -1.421875 31.78125 -1.421875 
Q 19.734375 -1.421875 13.25 4.234375 
Q 6.78125 9.90625 6.78125 20.515625 
Q 6.78125 27.484375 10.78125 32.3125 
Q 14.796875 37.15625 21.921875 38.8125 
z
M 18.3125 54.390625 
Q 18.3125 48.734375 21.84375 45.5625 
Q 25.390625 42.390625 31.78125 42.390625 
Q 38.140625 42.390625 41.71875 45.5625 
Q 45.3125 48.734375 45.3125 54.390625 
Q 45.3125 60.0625 41.71875 63.234375 
Q 38.140625 66.40625 31.78125 66.40625 
Q 25.390625 66.40625 21.84375 63.234375 
Q 18.3125 60.0625 18.3125 54.390625 
z
" id="DejaVuSans-38"/>
      </defs>
      <g transform="translate(349.391775 322.182437)scale(0.1 -0.1)">
       <use xlink:href="#DejaVuSans-38"/>
       <use x="63.623047" xlink:href="#DejaVuSans-30"/>
       <use x="127.246094" xlink:href="#DejaVuSans-30"/>
      </g>
     </g>
    </g>
    <g id="xtick_9">
     <g id="line2d_17">
      <path clip-path="url(#p34d5f8ef1e)" d="M 401.054419 307.584 
L 401.054419 41.472 
" style="fill:none;stroke:#b0b0b0;stroke-linecap:square;stroke-opacity:0.5;stroke-width:0.8;"/>
     </g>
     <g id="line2d_18">
      <g>
       <use style="stroke:#000000;stroke-width:0.8;" x="401.054419" xlink:href="#m820cd9c353" y="307.584"/>
      </g>
     </g>
     <g id="text_9">
      <!-- 900 -->
      <defs>
       <path d="M 10.984375 1.515625 
L 10.984375 10.5 
Q 14.703125 8.734375 18.5 7.8125 
Q 22.3125 6.890625 25.984375 6.890625 
Q 35.75 6.890625 40.890625 13.453125 
Q 46.046875 20.015625 46.78125 33.40625 
Q 43.953125 29.203125 39.59375 26.953125 
Q 35.25 24.703125 29.984375 24.703125 
Q 19.046875 24.703125 12.671875 31.3125 
Q 6.296875 37.9375 6.296875 49.421875 
Q 6.296875 60.640625 12.9375 67.421875 
Q 19.578125 74.21875 30.609375 74.21875 
Q 43.265625 74.21875 49.921875 64.515625 
Q 56.59375 54.828125 56.59375 36.375 
Q 56.59375 19.140625 48.40625 8.859375 
Q 40.234375 -1.421875 26.421875 -1.421875 
Q 22.703125 -1.421875 18.890625 -0.6875 
Q 15.09375 0.046875 10.984375 1.515625 
z
M 30.609375 32.421875 
Q 37.25 32.421875 41.125 36.953125 
Q 45.015625 41.5 45.015625 49.421875 
Q 45.015625 57.28125 41.125 61.84375 
Q 37.25 66.40625 30.609375 66.40625 
Q 23.96875 66.40625 20.09375 61.84375 
Q 16.21875 57.28125 16.21875 49.421875 
Q 16.21875 41.5 20.09375 36.953125 
Q 23.96875 32.421875 30.609375 32.421875 
z
" id="DejaVuSans-39"/>
      </defs>
      <g transform="translate(391.510669 322.182437)scale(0.1 -0.1)">
       <use xlink:href="#DejaVuSans-39"/>
       <use x="63.623047" xlink:href="#DejaVuSans-30"/>
       <use x="127.246094" xlink:href="#DejaVuSans-30"/>
      </g>
     </g>
    </g>
    <g id="xtick_10">
     <g id="line2d_19">
      <path clip-path="url(#p34d5f8ef1e)" d="M 72.527042 307.584 
L 72.527042 41.472 
" style="fill:none;stroke:#b0b0b0;stroke-linecap:square;stroke-opacity:0.2;stroke-width:0.8;"/>
     </g>
     <g id="line2d_20">
      <defs>
       <path d="M 0 0 
L 0 2 
" id="me965042e6a" style="stroke:#000000;stroke-width:0.6;"/>
      </defs>
      <g>
       <use style="stroke:#000000;stroke-width:0.6;" x="72.527042" xlink:href="#me965042e6a" y="307.584"/>
      </g>
     </g>
    </g>
    <g id="xtick_11">
     <g id="line2d_21">
      <path clip-path="url(#p34d5f8ef1e)" d="M 80.95082 307.584 
L 80.95082 41.472 
" style="fill:none;stroke:#b0b0b0;stroke-linecap:square;stroke-opacity:0.2;stroke-width:0.8;"/>
     </g>
     <g id="line2d_22">
      <g>
       <use style="stroke:#000000;stroke-width:0.6;" x="80.95082" xlink:href="#me965042e6a" y="307.584"/>
      </g>
     </g>
    </g>
    <g id="xtick_12">
     <g id="line2d_23">
      <path clip-path="url(#p34d5f8ef1e)" d="M 89.374599 307.584 
L 89.374599 41.472 
" style="fill:none;stroke:#b0b0b0;stroke-linecap:square;stroke-opacity:0.2;stroke-width:0.8;"/>
     </g>
     <g id="line2d_24">
      <g>
       <use style="stroke:#000000;stroke-width:0.6;" x="89.374599" xlink:href="#me965042e6a" y="307.584"/>
      </g>
     </g>
    </g>
    <g id="xtick_13">
     <g id="line2d_25">
      <path clip-path="url(#p34d5f8ef1e)" d="M 97.798378 307.584 
L 97.798378 41.472 
" style="fill:none;stroke:#b0b0b0;stroke-linecap:square;stroke-opacity:0.2;stroke-width:0.8;"/>
     </g>
     <g id="line2d_26">
      <g>
       <use style="stroke:#000000;stroke-width:0.6;" x="97.798378" xlink:href="#me965042e6a" y="307.584"/>
      </g>
     </g>
    </g>
    <g id="xtick_14">
     <g id="line2d_27">
      <path clip-path="url(#p34d5f8ef1e)" d="M 114.645936 307.584 
L 114.645936 41.472 
" style="fill:none;stroke:#b0b0b0;stroke-linecap:square;stroke-opacity:0.2;stroke-width:0.8;"/>
     </g>
     <g id="line2d_28">
      <g>
       <use style="stroke:#000000;stroke-width:0.6;" x="114.645936" xlink:href="#me965042e6a" y="307.584"/>
      </g>
     </g>
    </g>
    <g id="xtick_15">
     <g id="line2d_29">
      <path clip-path="url(#p34d5f8ef1e)" d="M 123.069715 307.584 
L 123.069715 41.472 
" style="fill:none;stroke:#b0b0b0;stroke-linecap:square;stroke-opacity:0.2;stroke-width:0.8;"/>
     </g>
     <g id="line2d_30">
      <g>
       <use style="stroke:#000000;stroke-width:0.6;" x="123.069715" xlink:href="#me965042e6a" y="307.584"/>
      </g>
     </g>
    </g>
    <g id="xtick_16">
     <g id="line2d_31">
      <path clip-path="url(#p34d5f8ef1e)" d="M 131.493494 307.584 
L 131.493494 41.472 
" style="fill:none;stroke:#b0b0b0;stroke-linecap:square;stroke-opacity:0.2;stroke-width:0.8;"/>
     </g>
     <g id="line2d_32">
      <g>
       <use style="stroke:#000000;stroke-width:0.6;" x="131.493494" xlink:href="#me965042e6a" y="307.584"/>
      </g>
     </g>
    </g>
    <g id="xtick_17">
     <g id="line2d_33">
      <path clip-path="url(#p34d5f8ef1e)" d="M 139.917273 307.584 
L 139.917273 41.472 
" style="fill:none;stroke:#b0b0b0;stroke-linecap:square;stroke-opacity:0.2;stroke-width:0.8;"/>
     </g>
     <g id="line2d_34">
      <g>
       <use style="stroke:#000000;stroke-width:0.6;" x="139.917273" xlink:href="#me965042e6a" y="307.584"/>
      </g>
     </g>
    </g>
    <g id="xtick_18">
     <g id="line2d_35">
      <path clip-path="url(#p34d5f8ef1e)" d="M 156.764831 307.584 
L 156.764831 41.472 
" style="fill:none;stroke:#b0b0b0;stroke-linecap:square;stroke-opacity:0.2;stroke-width:0.8;"/>
     </g>
     <g id="line2d_36">
      <g>
       <use style="stroke:#000000;stroke-width:0.6;" x="156.764831" xlink:href="#me965042e6a" y="307.584"/>
      </g>
     </g>
    </g>
    <g id="xtick_19">
     <g id="line2d_37">
      <path clip-path="url(#p34d5f8ef1e)" d="M 165.18861 307.584 
L 165.18861 41.472 
" style="fill:none;stroke:#b0b0b0;stroke-linecap:square;stroke-opacity:0.2;stroke-width:0.8;"/>
     </g>
     <g id="line2d_38">
      <g>
       <use style="stroke:#000000;stroke-width:0.6;" x="165.18861" xlink:href="#me965042e6a" y="307.584"/>
      </g>
     </g>
    </g>
    <g id="xtick_20">
     <g id="line2d_39">
      <path clip-path="url(#p34d5f8ef1e)" d="M 173.612389 307.584 
L 173.612389 41.472 
" style="fill:none;stroke:#b0b0b0;stroke-linecap:square;stroke-opacity:0.2;stroke-width:0.8;"/>
     </g>
     <g id="line2d_40">
      <g>
       <use style="stroke:#000000;stroke-width:0.6;" x="173.612389" xlink:href="#me965042e6a" y="307.584"/>
      </g>
     </g>
    </g>
    <g id="xtick_21">
     <g id="line2d_41">
      <path clip-path="url(#p34d5f8ef1e)" d="M 182.036167 307.584 
L 182.036167 41.472 
" style="fill:none;stroke:#b0b0b0;stroke-linecap:square;stroke-opacity:0.2;stroke-width:0.8;"/>
     </g>
     <g id="line2d_42">
      <g>
       <use style="stroke:#000000;stroke-width:0.6;" x="182.036167" xlink:href="#me965042e6a" y="307.584"/>
      </g>
     </g>
    </g>
    <g id="xtick_22">
     <g id="line2d_43">
      <path clip-path="url(#p34d5f8ef1e)" d="M 198.883725 307.584 
L 198.883725 41.472 
" style="fill:none;stroke:#b0b0b0;stroke-linecap:square;stroke-opacity:0.2;stroke-width:0.8;"/>
     </g>
     <g id="line2d_44">
      <g>
       <use style="stroke:#000000;stroke-width:0.6;" x="198.883725" xlink:href="#me965042e6a" y="307.584"/>
      </g>
     </g>
    </g>
    <g id="xtick_23">
     <g id="line2d_45">
      <path clip-path="url(#p34d5f8ef1e)" d="M 207.307504 307.584 
L 207.307504 41.472 
" style="fill:none;stroke:#b0b0b0;stroke-linecap:square;stroke-opacity:0.2;stroke-width:0.8;"/>
     </g>
     <g id="line2d_46">
      <g>
       <use style="stroke:#000000;stroke-width:0.6;" x="207.307504" xlink:href="#me965042e6a" y="307.584"/>
      </g>
     </g>
    </g>
    <g id="xtick_24">
     <g id="line2d_47">
      <path clip-path="url(#p34d5f8ef1e)" d="M 215.731283 307.584 
L 215.731283 41.472 
" style="fill:none;stroke:#b0b0b0;stroke-linecap:square;stroke-opacity:0.2;stroke-width:0.8;"/>
     </g>
     <g id="line2d_48">
      <g>
       <use style="stroke:#000000;stroke-width:0.6;" x="215.731283" xlink:href="#me965042e6a" y="307.584"/>
      </g>
     </g>
    </g>
    <g id="xtick_25">
     <g id="line2d_49">
      <path clip-path="url(#p34d5f8ef1e)" d="M 224.155062 307.584 
L 224.155062 41.472 
" style="fill:none;stroke:#b0b0b0;stroke-linecap:square;stroke-opacity:0.2;stroke-width:0.8;"/>
     </g>
     <g id="line2d_50">
      <g>
       <use style="stroke:#000000;stroke-width:0.6;" x="224.155062" xlink:href="#me965042e6a" y="307.584"/>
      </g>
     </g>
    </g>
    <g id="xtick_26">
     <g id="line2d_51">
      <path clip-path="url(#p34d5f8ef1e)" d="M 241.00262 307.584 
L 241.00262 41.472 
" style="fill:none;stroke:#b0b0b0;stroke-linecap:square;stroke-opacity:0.2;stroke-width:0.8;"/>
     </g>
     <g id="line2d_52">
      <g>
       <use style="stroke:#000000;stroke-width:0.6;" x="241.00262" xlink:href="#me965042e6a" y="307.584"/>
      </g>
     </g>
    </g>
    <g id="xtick_27">
     <g id="line2d_53">
      <path clip-path="url(#p34d5f8ef1e)" d="M 249.426399 307.584 
L 249.426399 41.472 
" style="fill:none;stroke:#b0b0b0;stroke-linecap:square;stroke-opacity:0.2;stroke-width:0.8;"/>
     </g>
     <g id="line2d_54">
      <g>
       <use style="stroke:#000000;stroke-width:0.6;" x="249.426399" xlink:href="#me965042e6a" y="307.584"/>
      </g>
     </g>
    </g>
    <g id="xtick_28">
     <g id="line2d_55">
      <path clip-path="url(#p34d5f8ef1e)" d="M 257.850178 307.584 
L 257.850178 41.472 
" style="fill:none;stroke:#b0b0b0;stroke-linecap:square;stroke-opacity:0.2;stroke-width:0.8;"/>
     </g>
     <g id="line2d_56">
      <g>
       <use style="stroke:#000000;stroke-width:0.6;" x="257.850178" xlink:href="#me965042e6a" y="307.584"/>
      </g>
     </g>
    </g>
    <g id="xtick_29">
     <g id="line2d_57">
      <path clip-path="url(#p34d5f8ef1e)" d="M 266.273957 307.584 
L 266.273957 41.472 
" style="fill:none;stroke:#b0b0b0;stroke-linecap:square;stroke-opacity:0.2;stroke-width:0.8;"/>
     </g>
     <g id="line2d_58">
      <g>
       <use style="stroke:#000000;stroke-width:0.6;" x="266.273957" xlink:href="#me965042e6a" y="307.584"/>
      </g>
     </g>
    </g>
    <g id="xtick_30">
     <g id="line2d_59">
      <path clip-path="url(#p34d5f8ef1e)" d="M 283.121514 307.584 
L 283.121514 41.472 
" style="fill:none;stroke:#b0b0b0;stroke-linecap:square;stroke-opacity:0.2;stroke-width:0.8;"/>
     </g>
     <g id="line2d_60">
      <g>
       <use style="stroke:#000000;stroke-width:0.6;" x="283.121514" xlink:href="#me965042e6a" y="307.584"/>
      </g>
     </g>
    </g>
    <g id="xtick_31">
     <g id="line2d_61">
      <path clip-path="url(#p34d5f8ef1e)" d="M 291.545293 307.584 
L 291.545293 41.472 
" style="fill:none;stroke:#b0b0b0;stroke-linecap:square;stroke-opacity:0.2;stroke-width:0.8;"/>
     </g>
     <g id="line2d_62">
      <g>
       <use style="stroke:#000000;stroke-width:0.6;" x="291.545293" xlink:href="#me965042e6a" y="307.584"/>
      </g>
     </g>
    </g>
    <g id="xtick_32">
     <g id="line2d_63">
      <path clip-path="url(#p34d5f8ef1e)" d="M 299.969072 307.584 
L 299.969072 41.472 
" style="fill:none;stroke:#b0b0b0;stroke-linecap:square;stroke-opacity:0.2;stroke-width:0.8;"/>
     </g>
     <g id="line2d_64">
      <g>
       <use style="stroke:#000000;stroke-width:0.6;" x="299.969072" xlink:href="#me965042e6a" y="307.584"/>
      </g>
     </g>
    </g>
    <g id="xtick_33">
     <g id="line2d_65">
      <path clip-path="url(#p34d5f8ef1e)" d="M 308.392851 307.584 
L 308.392851 41.472 
" style="fill:none;stroke:#b0b0b0;stroke-linecap:square;stroke-opacity:0.2;stroke-width:0.8;"/>
     </g>
     <g id="line2d_66">
      <g>
       <use style="stroke:#000000;stroke-width:0.6;" x="308.392851" xlink:href="#me965042e6a" y="307.584"/>
      </g>
     </g>
    </g>
    <g id="xtick_34">
     <g id="line2d_67">
      <path clip-path="url(#p34d5f8ef1e)" d="M 325.240409 307.584 
L 325.240409 41.472 
" style="fill:none;stroke:#b0b0b0;stroke-linecap:square;stroke-opacity:0.2;stroke-width:0.8;"/>
     </g>
     <g id="line2d_68">
      <g>
       <use style="stroke:#000000;stroke-width:0.6;" x="325.240409" xlink:href="#me965042e6a" y="307.584"/>
      </g>
     </g>
    </g>
    <g id="xtick_35">
     <g id="line2d_69">
      <path clip-path="url(#p34d5f8ef1e)" d="M 333.664188 307.584 
L 333.664188 41.472 
" style="fill:none;stroke:#b0b0b0;stroke-linecap:square;stroke-opacity:0.2;stroke-width:0.8;"/>
     </g>
     <g id="line2d_70">
      <g>
       <use style="stroke:#000000;stroke-width:0.6;" x="333.664188" xlink:href="#me965042e6a" y="307.584"/>
      </g>
     </g>
    </g>
    <g id="xtick_36">
     <g id="line2d_71">
      <path clip-path="url(#p34d5f8ef1e)" d="M 342.087967 307.584 
L 342.087967 41.472 
" style="fill:none;stroke:#b0b0b0;stroke-linecap:square;stroke-opacity:0.2;stroke-width:0.8;"/>
     </g>
     <g id="line2d_72">
      <g>
       <use style="stroke:#000000;stroke-width:0.6;" x="342.087967" xlink:href="#me965042e6a" y="307.584"/>
      </g>
     </g>
    </g>
    <g id="xtick_37">
     <g id="line2d_73">
      <path clip-path="url(#p34d5f8ef1e)" d="M 350.511746 307.584 
L 350.511746 41.472 
" style="fill:none;stroke:#b0b0b0;stroke-linecap:square;stroke-opacity:0.2;stroke-width:0.8;"/>
     </g>
     <g id="line2d_74">
      <g>
       <use style="stroke:#000000;stroke-width:0.6;" x="350.511746" xlink:href="#me965042e6a" y="307.584"/>
      </g>
     </g>
    </g>
    <g id="xtick_38">
     <g id="line2d_75">
      <path clip-path="url(#p34d5f8ef1e)" d="M 367.359304 307.584 
L 367.359304 41.472 
" style="fill:none;stroke:#b0b0b0;stroke-linecap:square;stroke-opacity:0.2;stroke-width:0.8;"/>
     </g>
     <g id="line2d_76">
      <g>
       <use style="stroke:#000000;stroke-width:0.6;" x="367.359304" xlink:href="#me965042e6a" y="307.584"/>
      </g>
     </g>
    </g>
    <g id="xtick_39">
     <g id="line2d_77">
      <path clip-path="url(#p34d5f8ef1e)" d="M 375.783083 307.584 
L 375.783083 41.472 
" style="fill:none;stroke:#b0b0b0;stroke-linecap:square;stroke-opacity:0.2;stroke-width:0.8;"/>
     </g>
     <g id="line2d_78">
      <g>
       <use style="stroke:#000000;stroke-width:0.6;" x="375.783083" xlink:href="#me965042e6a" y="307.584"/>
      </g>
     </g>
    </g>
    <g id="xtick_40">
     <g id="line2d_79">
      <path clip-path="url(#p34d5f8ef1e)" d="M 384.206862 307.584 
L 384.206862 41.472 
" style="fill:none;stroke:#b0b0b0;stroke-linecap:square;stroke-opacity:0.2;stroke-width:0.8;"/>
     </g>
     <g id="line2d_80">
      <g>
       <use style="stroke:#000000;stroke-width:0.6;" x="384.206862" xlink:href="#me965042e6a" y="307.584"/>
      </g>
     </g>
    </g>
    <g id="xtick_41">
     <g id="line2d_81">
      <path clip-path="url(#p34d5f8ef1e)" d="M 392.63064 307.584 
L 392.63064 41.472 
" style="fill:none;stroke:#b0b0b0;stroke-linecap:square;stroke-opacity:0.2;stroke-width:0.8;"/>
     </g>
     <g id="line2d_82">
      <g>
       <use style="stroke:#000000;stroke-width:0.6;" x="392.63064" xlink:href="#me965042e6a" y="307.584"/>
      </g>
     </g>
    </g>
    <g id="xtick_42">
     <g id="line2d_83">
      <path clip-path="url(#p34d5f8ef1e)" d="M 409.478198 307.584 
L 409.478198 41.472 
" style="fill:none;stroke:#b0b0b0;stroke-linecap:square;stroke-opacity:0.2;stroke-width:0.8;"/>
     </g>
     <g id="line2d_84">
      <g>
       <use style="stroke:#000000;stroke-width:0.6;" x="409.478198" xlink:href="#me965042e6a" y="307.584"/>
      </g>
     </g>
    </g>
   </g>
   <g id="matplotlib.axis_2">
    <g id="ytick_1">
     <g id="line2d_85">
      <path clip-path="url(#p34d5f8ef1e)" d="M 57.6 295.490832 
L 414.72 295.490832 
" style="fill:none;stroke:#b0b0b0;stroke-linecap:square;stroke-opacity:0.5;stroke-width:0.8;"/>
     </g>
     <g id="line2d_86">
      <defs>
       <path d="M 0 0 
L -3.5 0 
" id="ma820ce9462" style="stroke:#000000;stroke-width:0.8;"/>
      </defs>
      <g>
       <use style="stroke:#000000;stroke-width:0.8;" x="57.6" xlink:href="#ma820ce9462" y="295.490832"/>
      </g>
     </g>
     <g id="text_10">
      <!-- 0 -->
      <g transform="translate(44.2375 299.29005)scale(0.1 -0.1)">
       <use xlink:href="#DejaVuSans-30"/>
      </g>
     </g>
    </g>
    <g id="ytick_2">
     <g id="line2d_87">
      <path clip-path="url(#p34d5f8ef1e)" d="M 57.6 255.460778 
L 414.72 255.460778 
" style="fill:none;stroke:#b0b0b0;stroke-linecap:square;stroke-opacity:0.5;stroke-width:0.8;"/>
     </g>
     <g id="line2d_88">
      <g>
       <use style="stroke:#000000;stroke-width:0.8;" x="57.6" xlink:href="#ma820ce9462" y="255.460778"/>
      </g>
     </g>
     <g id="text_11">
      <!-- 100 -->
      <g transform="translate(31.5125 259.259996)scale(0.1 -0.1)">
       <use xlink:href="#DejaVuSans-31"/>
       <use x="63.623047" xlink:href="#DejaVuSans-30"/>
       <use x="127.246094" xlink:href="#DejaVuSans-30"/>
      </g>
     </g>
    </g>
    <g id="ytick_3">
     <g id="line2d_89">
      <path clip-path="url(#p34d5f8ef1e)" d="M 57.6 215.430724 
L 414.72 215.430724 
" style="fill:none;stroke:#b0b0b0;stroke-linecap:square;stroke-opacity:0.5;stroke-width:0.8;"/>
     </g>
     <g id="line2d_90">
      <g>
       <use style="stroke:#000000;stroke-width:0.8;" x="57.6" xlink:href="#ma820ce9462" y="215.430724"/>
      </g>
     </g>
     <g id="text_12">
      <!-- 200 -->
      <g transform="translate(31.5125 219.229943)scale(0.1 -0.1)">
       <use xlink:href="#DejaVuSans-32"/>
       <use x="63.623047" xlink:href="#DejaVuSans-30"/>
       <use x="127.246094" xlink:href="#DejaVuSans-30"/>
      </g>
     </g>
    </g>
    <g id="ytick_4">
     <g id="line2d_91">
      <path clip-path="url(#p34d5f8ef1e)" d="M 57.6 175.40067 
L 414.72 175.40067 
" style="fill:none;stroke:#b0b0b0;stroke-linecap:square;stroke-opacity:0.5;stroke-width:0.8;"/>
     </g>
     <g id="line2d_92">
      <g>
       <use style="stroke:#000000;stroke-width:0.8;" x="57.6" xlink:href="#ma820ce9462" y="175.40067"/>
      </g>
     </g>
     <g id="text_13">
      <!-- 300 -->
      <g transform="translate(31.5125 179.199889)scale(0.1 -0.1)">
       <use xlink:href="#DejaVuSans-33"/>
       <use x="63.623047" xlink:href="#DejaVuSans-30"/>
       <use x="127.246094" xlink:href="#DejaVuSans-30"/>
      </g>
     </g>
    </g>
    <g id="ytick_5">
     <g id="line2d_93">
      <path clip-path="url(#p34d5f8ef1e)" d="M 57.6 135.370616 
L 414.72 135.370616 
" style="fill:none;stroke:#b0b0b0;stroke-linecap:square;stroke-opacity:0.5;stroke-width:0.8;"/>
     </g>
     <g id="line2d_94">
      <g>
       <use style="stroke:#000000;stroke-width:0.8;" x="57.6" xlink:href="#ma820ce9462" y="135.370616"/>
      </g>
     </g>
     <g id="text_14">
      <!-- 400 -->
      <g transform="translate(31.5125 139.169835)scale(0.1 -0.1)">
       <use xlink:href="#DejaVuSans-34"/>
       <use x="63.623047" xlink:href="#DejaVuSans-30"/>
       <use x="127.246094" xlink:href="#DejaVuSans-30"/>
      </g>
     </g>
    </g>
    <g id="ytick_6">
     <g id="line2d_95">
      <path clip-path="url(#p34d5f8ef1e)" d="M 57.6 95.340562 
L 414.72 95.340562 
" style="fill:none;stroke:#b0b0b0;stroke-linecap:square;stroke-opacity:0.5;stroke-width:0.8;"/>
     </g>
     <g id="line2d_96">
      <g>
       <use style="stroke:#000000;stroke-width:0.8;" x="57.6" xlink:href="#ma820ce9462" y="95.340562"/>
      </g>
     </g>
     <g id="text_15">
      <!-- 500 -->
      <g transform="translate(31.5125 99.139781)scale(0.1 -0.1)">
       <use xlink:href="#DejaVuSans-35"/>
       <use x="63.623047" xlink:href="#DejaVuSans-30"/>
       <use x="127.246094" xlink:href="#DejaVuSans-30"/>
      </g>
     </g>
    </g>
    <g id="ytick_7">
     <g id="line2d_97">
      <path clip-path="url(#p34d5f8ef1e)" d="M 57.6 55.310508 
L 414.72 55.310508 
" style="fill:none;stroke:#b0b0b0;stroke-linecap:square;stroke-opacity:0.5;stroke-width:0.8;"/>
     </g>
     <g id="line2d_98">
      <g>
       <use style="stroke:#000000;stroke-width:0.8;" x="57.6" xlink:href="#ma820ce9462" y="55.310508"/>
      </g>
     </g>
     <g id="text_16">
      <!-- 600 -->
      <g transform="translate(31.5125 59.109727)scale(0.1 -0.1)">
       <use xlink:href="#DejaVuSans-36"/>
       <use x="63.623047" xlink:href="#DejaVuSans-30"/>
       <use x="127.246094" xlink:href="#DejaVuSans-30"/>
      </g>
     </g>
    </g>
    <g id="ytick_8">
     <g id="line2d_99">
      <path clip-path="url(#p34d5f8ef1e)" d="M 57.6 303.496842 
L 414.72 303.496842 
" style="fill:none;stroke:#b0b0b0;stroke-linecap:square;stroke-opacity:0.2;stroke-width:0.8;"/>
     </g>
     <g id="line2d_100">
      <defs>
       <path d="M 0 0 
L -2 0 
" id="m68c21681ab" style="stroke:#000000;stroke-width:0.6;"/>
      </defs>
      <g>
       <use style="stroke:#000000;stroke-width:0.6;" x="57.6" xlink:href="#m68c21681ab" y="303.496842"/>
      </g>
     </g>
    </g>
    <g id="ytick_9">
     <g id="line2d_101">
      <path clip-path="url(#p34d5f8ef1e)" d="M 57.6 287.484821 
L 414.72 287.484821 
" style="fill:none;stroke:#b0b0b0;stroke-linecap:square;stroke-opacity:0.2;stroke-width:0.8;"/>
     </g>
     <g id="line2d_102">
      <g>
       <use style="stroke:#000000;stroke-width:0.6;" x="57.6" xlink:href="#m68c21681ab" y="287.484821"/>
      </g>
     </g>
    </g>
    <g id="ytick_10">
     <g id="line2d_103">
      <path clip-path="url(#p34d5f8ef1e)" d="M 57.6 279.47881 
L 414.72 279.47881 
" style="fill:none;stroke:#b0b0b0;stroke-linecap:square;stroke-opacity:0.2;stroke-width:0.8;"/>
     </g>
     <g id="line2d_104">
      <g>
       <use style="stroke:#000000;stroke-width:0.6;" x="57.6" xlink:href="#m68c21681ab" y="279.47881"/>
      </g>
     </g>
    </g>
    <g id="ytick_11">
     <g id="line2d_105">
      <path clip-path="url(#p34d5f8ef1e)" d="M 57.6 271.472799 
L 414.72 271.472799 
" style="fill:none;stroke:#b0b0b0;stroke-linecap:square;stroke-opacity:0.2;stroke-width:0.8;"/>
     </g>
     <g id="line2d_106">
      <g>
       <use style="stroke:#000000;stroke-width:0.6;" x="57.6" xlink:href="#m68c21681ab" y="271.472799"/>
      </g>
     </g>
    </g>
    <g id="ytick_12">
     <g id="line2d_107">
      <path clip-path="url(#p34d5f8ef1e)" d="M 57.6 263.466788 
L 414.72 263.466788 
" style="fill:none;stroke:#b0b0b0;stroke-linecap:square;stroke-opacity:0.2;stroke-width:0.8;"/>
     </g>
     <g id="line2d_108">
      <g>
       <use style="stroke:#000000;stroke-width:0.6;" x="57.6" xlink:href="#m68c21681ab" y="263.466788"/>
      </g>
     </g>
    </g>
    <g id="ytick_13">
     <g id="line2d_109">
      <path clip-path="url(#p34d5f8ef1e)" d="M 57.6 247.454767 
L 414.72 247.454767 
" style="fill:none;stroke:#b0b0b0;stroke-linecap:square;stroke-opacity:0.2;stroke-width:0.8;"/>
     </g>
     <g id="line2d_110">
      <g>
       <use style="stroke:#000000;stroke-width:0.6;" x="57.6" xlink:href="#m68c21681ab" y="247.454767"/>
      </g>
     </g>
    </g>
    <g id="ytick_14">
     <g id="line2d_111">
      <path clip-path="url(#p34d5f8ef1e)" d="M 57.6 239.448756 
L 414.72 239.448756 
" style="fill:none;stroke:#b0b0b0;stroke-linecap:square;stroke-opacity:0.2;stroke-width:0.8;"/>
     </g>
     <g id="line2d_112">
      <g>
       <use style="stroke:#000000;stroke-width:0.6;" x="57.6" xlink:href="#m68c21681ab" y="239.448756"/>
      </g>
     </g>
    </g>
    <g id="ytick_15">
     <g id="line2d_113">
      <path clip-path="url(#p34d5f8ef1e)" d="M 57.6 231.442745 
L 414.72 231.442745 
" style="fill:none;stroke:#b0b0b0;stroke-linecap:square;stroke-opacity:0.2;stroke-width:0.8;"/>
     </g>
     <g id="line2d_114">
      <g>
       <use style="stroke:#000000;stroke-width:0.6;" x="57.6" xlink:href="#m68c21681ab" y="231.442745"/>
      </g>
     </g>
    </g>
    <g id="ytick_16">
     <g id="line2d_115">
      <path clip-path="url(#p34d5f8ef1e)" d="M 57.6 223.436735 
L 414.72 223.436735 
" style="fill:none;stroke:#b0b0b0;stroke-linecap:square;stroke-opacity:0.2;stroke-width:0.8;"/>
     </g>
     <g id="line2d_116">
      <g>
       <use style="stroke:#000000;stroke-width:0.6;" x="57.6" xlink:href="#m68c21681ab" y="223.436735"/>
      </g>
     </g>
    </g>
    <g id="ytick_17">
     <g id="line2d_117">
      <path clip-path="url(#p34d5f8ef1e)" d="M 57.6 207.424713 
L 414.72 207.424713 
" style="fill:none;stroke:#b0b0b0;stroke-linecap:square;stroke-opacity:0.2;stroke-width:0.8;"/>
     </g>
     <g id="line2d_118">
      <g>
       <use style="stroke:#000000;stroke-width:0.6;" x="57.6" xlink:href="#m68c21681ab" y="207.424713"/>
      </g>
     </g>
    </g>
    <g id="ytick_18">
     <g id="line2d_119">
      <path clip-path="url(#p34d5f8ef1e)" d="M 57.6 199.418702 
L 414.72 199.418702 
" style="fill:none;stroke:#b0b0b0;stroke-linecap:square;stroke-opacity:0.2;stroke-width:0.8;"/>
     </g>
     <g id="line2d_120">
      <g>
       <use style="stroke:#000000;stroke-width:0.6;" x="57.6" xlink:href="#m68c21681ab" y="199.418702"/>
      </g>
     </g>
    </g>
    <g id="ytick_19">
     <g id="line2d_121">
      <path clip-path="url(#p34d5f8ef1e)" d="M 57.6 191.412691 
L 414.72 191.412691 
" style="fill:none;stroke:#b0b0b0;stroke-linecap:square;stroke-opacity:0.2;stroke-width:0.8;"/>
     </g>
     <g id="line2d_122">
      <g>
       <use style="stroke:#000000;stroke-width:0.6;" x="57.6" xlink:href="#m68c21681ab" y="191.412691"/>
      </g>
     </g>
    </g>
    <g id="ytick_20">
     <g id="line2d_123">
      <path clip-path="url(#p34d5f8ef1e)" d="M 57.6 183.406681 
L 414.72 183.406681 
" style="fill:none;stroke:#b0b0b0;stroke-linecap:square;stroke-opacity:0.2;stroke-width:0.8;"/>
     </g>
     <g id="line2d_124">
      <g>
       <use style="stroke:#000000;stroke-width:0.6;" x="57.6" xlink:href="#m68c21681ab" y="183.406681"/>
      </g>
     </g>
    </g>
    <g id="ytick_21">
     <g id="line2d_125">
      <path clip-path="url(#p34d5f8ef1e)" d="M 57.6 167.394659 
L 414.72 167.394659 
" style="fill:none;stroke:#b0b0b0;stroke-linecap:square;stroke-opacity:0.2;stroke-width:0.8;"/>
     </g>
     <g id="line2d_126">
      <g>
       <use style="stroke:#000000;stroke-width:0.6;" x="57.6" xlink:href="#m68c21681ab" y="167.394659"/>
      </g>
     </g>
    </g>
    <g id="ytick_22">
     <g id="line2d_127">
      <path clip-path="url(#p34d5f8ef1e)" d="M 57.6 159.388648 
L 414.72 159.388648 
" style="fill:none;stroke:#b0b0b0;stroke-linecap:square;stroke-opacity:0.2;stroke-width:0.8;"/>
     </g>
     <g id="line2d_128">
      <g>
       <use style="stroke:#000000;stroke-width:0.6;" x="57.6" xlink:href="#m68c21681ab" y="159.388648"/>
      </g>
     </g>
    </g>
    <g id="ytick_23">
     <g id="line2d_129">
      <path clip-path="url(#p34d5f8ef1e)" d="M 57.6 151.382638 
L 414.72 151.382638 
" style="fill:none;stroke:#b0b0b0;stroke-linecap:square;stroke-opacity:0.2;stroke-width:0.8;"/>
     </g>
     <g id="line2d_130">
      <g>
       <use style="stroke:#000000;stroke-width:0.6;" x="57.6" xlink:href="#m68c21681ab" y="151.382638"/>
      </g>
     </g>
    </g>
    <g id="ytick_24">
     <g id="line2d_131">
      <path clip-path="url(#p34d5f8ef1e)" d="M 57.6 143.376627 
L 414.72 143.376627 
" style="fill:none;stroke:#b0b0b0;stroke-linecap:square;stroke-opacity:0.2;stroke-width:0.8;"/>
     </g>
     <g id="line2d_132">
      <g>
       <use style="stroke:#000000;stroke-width:0.6;" x="57.6" xlink:href="#m68c21681ab" y="143.376627"/>
      </g>
     </g>
    </g>
    <g id="ytick_25">
     <g id="line2d_133">
      <path clip-path="url(#p34d5f8ef1e)" d="M 57.6 127.364605 
L 414.72 127.364605 
" style="fill:none;stroke:#b0b0b0;stroke-linecap:square;stroke-opacity:0.2;stroke-width:0.8;"/>
     </g>
     <g id="line2d_134">
      <g>
       <use style="stroke:#000000;stroke-width:0.6;" x="57.6" xlink:href="#m68c21681ab" y="127.364605"/>
      </g>
     </g>
    </g>
    <g id="ytick_26">
     <g id="line2d_135">
      <path clip-path="url(#p34d5f8ef1e)" d="M 57.6 119.358594 
L 414.72 119.358594 
" style="fill:none;stroke:#b0b0b0;stroke-linecap:square;stroke-opacity:0.2;stroke-width:0.8;"/>
     </g>
     <g id="line2d_136">
      <g>
       <use style="stroke:#000000;stroke-width:0.6;" x="57.6" xlink:href="#m68c21681ab" y="119.358594"/>
      </g>
     </g>
    </g>
    <g id="ytick_27">
     <g id="line2d_137">
      <path clip-path="url(#p34d5f8ef1e)" d="M 57.6 111.352584 
L 414.72 111.352584 
" style="fill:none;stroke:#b0b0b0;stroke-linecap:square;stroke-opacity:0.2;stroke-width:0.8;"/>
     </g>
     <g id="line2d_138">
      <g>
       <use style="stroke:#000000;stroke-width:0.6;" x="57.6" xlink:href="#m68c21681ab" y="111.352584"/>
      </g>
     </g>
    </g>
    <g id="ytick_28">
     <g id="line2d_139">
      <path clip-path="url(#p34d5f8ef1e)" d="M 57.6 103.346573 
L 414.72 103.346573 
" style="fill:none;stroke:#b0b0b0;stroke-linecap:square;stroke-opacity:0.2;stroke-width:0.8;"/>
     </g>
     <g id="line2d_140">
      <g>
       <use style="stroke:#000000;stroke-width:0.6;" x="57.6" xlink:href="#m68c21681ab" y="103.346573"/>
      </g>
     </g>
    </g>
    <g id="ytick_29">
     <g id="line2d_141">
      <path clip-path="url(#p34d5f8ef1e)" d="M 57.6 87.334551 
L 414.72 87.334551 
" style="fill:none;stroke:#b0b0b0;stroke-linecap:square;stroke-opacity:0.2;stroke-width:0.8;"/>
     </g>
     <g id="line2d_142">
      <g>
       <use style="stroke:#000000;stroke-width:0.6;" x="57.6" xlink:href="#m68c21681ab" y="87.334551"/>
      </g>
     </g>
    </g>
    <g id="ytick_30">
     <g id="line2d_143">
      <path clip-path="url(#p34d5f8ef1e)" d="M 57.6 79.328541 
L 414.72 79.328541 
" style="fill:none;stroke:#b0b0b0;stroke-linecap:square;stroke-opacity:0.2;stroke-width:0.8;"/>
     </g>
     <g id="line2d_144">
      <g>
       <use style="stroke:#000000;stroke-width:0.6;" x="57.6" xlink:href="#m68c21681ab" y="79.328541"/>
      </g>
     </g>
    </g>
    <g id="ytick_31">
     <g id="line2d_145">
      <path clip-path="url(#p34d5f8ef1e)" d="M 57.6 71.32253 
L 414.72 71.32253 
" style="fill:none;stroke:#b0b0b0;stroke-linecap:square;stroke-opacity:0.2;stroke-width:0.8;"/>
     </g>
     <g id="line2d_146">
      <g>
       <use style="stroke:#000000;stroke-width:0.6;" x="57.6" xlink:href="#m68c21681ab" y="71.32253"/>
      </g>
     </g>
    </g>
    <g id="ytick_32">
     <g id="line2d_147">
      <path clip-path="url(#p34d5f8ef1e)" d="M 57.6 63.316519 
L 414.72 63.316519 
" style="fill:none;stroke:#b0b0b0;stroke-linecap:square;stroke-opacity:0.2;stroke-width:0.8;"/>
     </g>
     <g id="line2d_148">
      <g>
       <use style="stroke:#000000;stroke-width:0.6;" x="57.6" xlink:href="#m68c21681ab" y="63.316519"/>
      </g>
     </g>
    </g>
    <g id="ytick_33">
     <g id="line2d_149">
      <path clip-path="url(#p34d5f8ef1e)" d="M 57.6 47.304497 
L 414.72 47.304497 
" style="fill:none;stroke:#b0b0b0;stroke-linecap:square;stroke-opacity:0.2;stroke-width:0.8;"/>
     </g>
     <g id="line2d_150">
      <g>
       <use style="stroke:#000000;stroke-width:0.6;" x="57.6" xlink:href="#m68c21681ab" y="47.304497"/>
      </g>
     </g>
    </g>
   </g>
   <g id="line2d_151">
    <path clip-path="url(#p34d5f8ef1e)" d="M 398.487273 285.182428 
L 381.759754 283.313057 
L 373.099267 282.561642 
L 365.504809 282.123384 
L 358.438522 281.94679 
L 351.902933 281.998958 
L 344.809269 282.284314 
L 337.152896 282.825784 
L 327.831563 283.727918 
L 312.972439 285.437159 
L 293.051044 287.684425 
L 279.141279 289.0133 
L 265.169178 290.113966 
L 250.570348 291.037957 
L 234.205473 291.849227 
L 214.907859 292.573631 
L 192.049092 293.199578 
L 163.812585 293.740734 
L 127.699003 294.200585 
L 78.613222 294.588074 
L 73.832727 294.616367 
L 73.832727 294.616367 
" style="fill:none;stroke:#1f77b4;stroke-linecap:square;stroke-width:0.5;"/>
   </g>
   <g id="line2d_152">
    <path clip-path="url(#p34d5f8ef1e)" d="M 398.487273 295.073914 
L 353.537988 294.755572 
L 326.184294 294.353853 
L 307.451494 293.868863 
L 293.606171 293.301192 
L 282.485098 292.630149 
L 273.560104 291.884513 
L 265.728938 291.024956 
L 258.439842 290.016848 
L 250.570348 288.701708 
L 234.771129 285.95608 
L 230.242085 285.467779 
L 226.274064 285.273716 
L 222.300567 285.327552 
L 218.322016 285.622566 
L 213.768964 286.203657 
L 207.49746 287.267599 
L 192.622752 289.895872 
L 185.15802 290.948851 
L 177.098991 291.847607 
L 168.440609 292.583161 
L 158.017868 293.23212 
L 145.228887 293.786396 
L 128.871172 294.252226 
L 107.109602 294.632037 
L 75.626571 294.938145 
L 73.832727 294.950484 
L 73.832727 294.950484 
" style="fill:none;stroke:#ff7f0e;stroke-linecap:square;stroke-width:0.5;"/>
   </g>
   <g id="line2d_153">
    <path clip-path="url(#p34d5f8ef1e)" d="M 398.487273 295.414319 
L 303.027325 295.233849 
L 269.087499 294.973962 
L 250.570348 294.625962 
L 239.293435 294.212252 
L 231.375083 293.719792 
L 225.706722 293.175335 
L 221.164199 292.54338 
L 217.184385 291.762849 
L 214.338411 291.011036 
L 211.48991 290.026161 
L 209.209172 289.008367 
L 206.926328 287.715034 
L 205.213353 286.513174 
L 203.499535 285.064393 
L 201.784875 283.32152 
L 200.068951 281.241588 
L 198.352185 278.805235 
L 196.061759 275.079086 
L 193.19599 270.301392 
L 192.049092 268.716829 
L 190.901774 267.544179 
L 190.327693 267.15605 
L 189.754034 266.918119 
L 189.179953 266.837839 
L 188.605451 266.918237 
L 188.031371 267.156512 
L 187.456869 267.54519 
L 186.307866 268.720439 
L 185.15802 270.310336 
L 182.857907 274.119804 
L 179.979923 278.847434 
L 178.251785 281.293029 
L 176.522804 283.379378 
L 174.79256 285.12698 
L 173.061473 286.578298 
L 171.329544 287.781089 
L 169.018902 289.073943 
L 166.706153 290.090587 
L 163.812585 291.073189 
L 160.91649 291.822159 
L 157.437469 292.503011 
L 152.792598 293.159005 
L 146.975978 293.720488 
L 139.397526 294.195961 
L 129.457045 294.578552 
L 114.775241 294.896327 
L 92.306917 295.13711 
L 73.832727 295.240431 
L 73.832727 295.240431 
" style="fill:none;stroke:#2ca02c;stroke-linecap:square;stroke-width:0.5;"/>
   </g>
   <g id="line2d_154">
    <path clip-path="url(#p34d5f8ef1e)" d="M 398.487273 295.488 
L 216.046332 295.372402 
L 202.927982 295.169677 
L 197.779789 294.914551 
L 194.342466 294.528092 
L 192.622752 294.170651 
L 190.901774 293.571242 
L 189.754034 292.914668 
L 188.605451 291.858564 
L 188.031371 291.07386 
L 187.456869 290.010108 
L 186.882367 288.523276 
L 186.307866 286.366211 
L 185.732943 283.091885 
L 185.15802 277.861705 
L 184.583097 269.043137 
L 184.008174 253.668256 
L 182.857907 205.815013 
L 182.282563 214.185536 
L 181.706798 241.363487 
L 181.131454 261.785763 
L 180.555688 273.703507 
L 179.979923 280.600118 
L 179.403737 284.791445 
L 178.827971 287.476845 
L 178.251785 289.285718 
L 177.675598 290.55424 
L 177.098991 291.475608 
L 175.946197 292.690538 
L 174.79256 293.430752 
L 173.638923 293.913343 
L 171.906995 294.373218 
L 169.596773 294.729525 
L 166.12744 295.013387 
L 160.336934 295.227993 
L 149.30389 295.372779 
L 121.244703 295.455936 
L 73.832727 295.479709 
L 73.832727 295.479709 
" style="fill:none;stroke:#d62728;stroke-linecap:square;stroke-width:0.5;"/>
   </g>
   <g id="line2d_155">
    <path clip-path="url(#p34d5f8ef1e)" d="M 398.487273 291.648023 
L 390.941252 291.550689 
L 386.623222 291.202508 
L 375.266284 290.119294 
L 371.473056 289.739622 
L 366.047721 289.215257 
L 363.331895 289.102791 
L 360.613963 289.216375 
L 357.894346 289.560342 
L 354.627604 290.21033 
L 349.176156 291.370795 
L 346.993555 291.604912 
L 344.262987 291.663158 
L 338.794691 291.488186 
L 333.317971 291.393199 
L 327.831563 291.548998 
L 323.436036 291.65339 
L 320.135599 291.490909 
L 314.626869 290.832909 
L 310.21323 290.393967 
L 306.345873 290.215902 
L 296.380121 289.963353 
L 293.051044 289.454355 
L 284.712766 288.020564 
L 281.928286 287.742858 
L 279.141279 287.708768 
L 276.351745 287.901252 
L 273.560104 288.332123 
L 269.646838 289.225489 
L 266.289119 290.178744 
L 255.631354 293.49296 
L 252.258473 294.205082 
L 249.44451 294.574081 
L 246.064469 294.814816 
L 242.681058 294.849045 
L 239.293435 294.671018 
L 236.467679 294.280824 
L 230.242085 293.081693 
L 225.706722 292.330977 
L 221.732383 291.891034 
L 211.48991 290.959275 
L 209.209172 290.421285 
L 205.784485 289.369419 
L 201.784875 287.936237 
L 198.352185 286.721909 
L 196.061759 286.141458 
L 193.769228 285.836271 
L 192.049092 285.81 
L 190.327693 285.958449 
L 188.031371 286.404719 
L 185.15802 287.263562 
L 177.098991 289.903406 
L 174.79256 290.401876 
L 171.329544 290.885374 
L 167.862738 291.095933 
L 162.654737 291.132244 
L 144.063457 290.930305 
L 141.147987 290.437115 
L 134.723592 289.23247 
L 131.798856 288.911781 
L 128.871172 288.814425 
L 125.940118 288.936516 
L 121.831841 289.366949 
L 117.129266 289.843163 
L 115.363642 289.842846 
L 111.829446 289.562736 
L 105.928589 289.043801 
L 102.381756 288.980527 
L 98.830291 289.182892 
L 94.681159 289.699325 
L 88.741974 290.513286 
L 86.362256 290.592625 
L 82.192907 290.43199 
L 75.028904 290.133888 
L 73.832727 290.126082 
L 73.832727 290.126082 
" style="fill:none;stroke:#0000ff;stroke-dasharray:1.85,0.8;stroke-dashoffset:0;stroke-width:0.5;"/>
   </g>
   <g id="line2d_156">
    <path clip-path="url(#p34d5f8ef1e)" d="M 398.487273 280.843358 
L 390.941252 279.821237 
L 386.083258 278.845862 
L 377.973265 277.139788 
L 364.961475 275.016978 
L 362.245227 274.874883 
L 359.526453 275.000312 
L 356.805572 275.378236 
L 353.537988 276.071079 
L 348.630716 277.135455 
L 346.447273 277.382977 
L 342.623298 277.54242 
L 334.961871 277.779311 
L 330.576031 278.16945 
L 321.786239 279.087861 
L 318.484117 279.094633 
L 309.108451 278.916466 
L 304.687231 279.133792 
L 298.042975 279.502568 
L 295.27071 279.365145 
L 291.940369 278.952006 
L 284.712766 277.956377 
L 281.371053 277.694411 
L 278.583625 277.711647 
L 275.793669 277.920559 
L 272.442269 278.433427 
L 266.84888 279.612324 
L 257.878397 281.731819 
L 254.507622 282.180749 
L 251.695765 282.326881 
L 248.88138 282.231175 
L 245.500918 281.880066 
L 242.116665 281.294553 
L 238.728621 280.48135 
L 235.336786 279.387499 
L 228.542166 277.151665 
L 225.139381 276.297443 
L 221.732383 275.664465 
L 213.768964 274.322019 
L 211.48991 273.600807 
L 209.779462 272.797084 
L 208.068171 271.765398 
L 206.355617 270.498468 
L 204.642221 268.978447 
L 202.927982 267.138441 
L 201.2129 264.932354 
L 199.496976 262.383087 
L 197.206972 258.520987 
L 193.19599 251.433767 
L 192.049092 249.754082 
L 190.901774 248.426351 
L 189.754034 247.492979 
L 187.456869 246.096939 
L 186.882367 245.388606 
L 186.307866 244.141766 
L 185.732943 241.889954 
L 185.15802 237.772522 
L 184.583097 230.135053 
L 184.008174 215.988337 
L 182.857907 170.655287 
L 182.282563 180.283455 
L 181.706798 208.707793 
L 181.131454 230.353596 
L 180.555688 243.465341 
L 179.979923 251.519236 
L 179.403737 256.826852 
L 178.827971 260.582483 
L 178.251785 263.414112 
L 177.098991 267.49847 
L 175.946197 270.398547 
L 174.79256 272.615076 
L 173.638923 274.40533 
L 171.906995 276.557796 
L 170.174223 278.233469 
L 168.440609 279.559786 
L 166.706153 280.629006 
L 164.39172 281.764806 
L 162.075602 282.666332 
L 159.177822 283.574139 
L 155.115876 284.587599 
L 150.467214 285.489859 
L 146.975978 285.968959 
L 144.646382 286.138438 
L 142.31468 286.067887 
L 137.645801 285.595846 
L 133.554371 285.274723 
L 130.627951 285.248805 
L 127.699003 285.430056 
L 124.18039 285.889087 
L 116.540865 287.028074 
L 114.185998 287.036554 
L 108.880702 286.729605 
L 104.746732 286.59693 
L 101.198637 286.729656 
L 97.645487 287.116795 
L 92.900793 287.901626 
L 88.741974 288.544778 
L 86.362256 288.676455 
L 82.192907 288.601887 
L 75.028904 288.436937 
L 73.832727 288.449747 
L 73.832727 288.449747 
" style="fill:none;stroke:#000000;stroke-linecap:square;stroke-width:0.5;"/>
   </g>
   <g id="line2d_157">
    <path clip-path="url(#p34d5f8ef1e)" d="M 398.487273 282.96851 
L 397.948572 275.142034 
L 397.409871 288.447864 
L 396.871171 281.406617 
L 396.33247 281.408339 
L 395.793769 268.111596 
L 395.254648 278.283152 
L 394.715947 277.503207 
L 394.176825 284.543212 
L 393.637703 279.071464 
L 393.098581 286.891295 
L 392.55946 291.582441 
L 392.019916 275.951362 
L 391.480373 276.73531 
L 390.941252 280.644605 
L 390.401709 286.115473 
L 389.862165 279.867262 
L 389.322622 284.555742 
L 388.782658 284.557183 
L 388.243115 275.968975 
L 387.703151 280.656174 
L 387.163187 275.974099 
L 386.623222 282.221229 
L 386.083258 283.003416 
L 385.002909 278.325224 
L 384.462523 276.767254 
L 383.922138 267.409228 
L 383.381752 272.87261 
L 382.840946 286.912671 
L 382.30056 279.116538 
L 381.759754 274.441068 
L 381.218947 279.121021 
L 380.678141 276.785068 
L 380.137334 272.891144 
L 379.596527 281.465381 
L 379.0553 270.560154 
L 378.514493 275.237466 
L 377.973265 282.250091 
L 377.432037 283.809461 
L 376.89081 275.245992 
L 376.349161 273.691785 
L 375.807933 279.922303 
L 375.266284 290.042621 
L 374.724635 275.257481 
L 374.182986 276.038467 
L 373.640916 273.707317 
L 373.099267 279.155527 
L 372.557196 272.158074 
L 372.015126 281.493202 
L 371.473056 280.7177 
L 370.930986 287.716635 
L 370.388495 276.835465 
L 369.846424 284.610102 
L 369.303933 276.840909 
L 368.761442 276.843672 
L 368.21895 275.292707 
L 367.676038 281.509575 
L 367.133546 272.968802 
L 366.590634 280.737235 
L 366.047721 272.199145 
L 365.504809 273.755153 
L 364.961475 271.429927 
L 364.418562 281.522104 
L 363.875229 272.989018 
L 363.331895 277.647275 
L 362.788561 276.874254 
L 362.245227 283.081675 
L 361.701473 276.104477 
L 361.157718 276.882741 
L 360.613963 286.963429 
L 360.070208 282.314139 
L 359.526453 276.116325 
L 358.982277 271.470117 
L 358.438522 282.320223 
L 357.894346 275.350631 
L 357.35017 281.549805 
L 356.805572 283.100729 
L 356.261396 276.134299 
L 355.716799 276.137301 
L 355.172202 274.592261 
L 354.627604 274.595544 
L 354.083007 269.18236 
L 353.537988 282.338677 
L 352.99297 276.152473 
L 352.447951 279.249158 
L 351.902933 277.705158 
L 351.357914 273.842098 
L 350.812475 278.483823 
L 350.267456 265.34684 
L 349.722017 273.079646 
L 349.176156 272.310548 
L 348.630716 269.996571 
L 348.085276 275.407673 
L 347.539415 274.638576 
L 346.993555 276.186298 
L 346.447273 276.18938 
L 345.901412 275.420563 
L 345.35513 285.457339 
L 344.809269 280.828864 
L 344.262987 283.145883 
L 343.716283 272.347856 
L 343.170001 291.634292 
L 342.623298 273.126561 
L 342.076595 281.611811 
L 341.529892 276.217561 
L 340.983188 266.971099 
L 340.436064 279.306601 
L 339.889361 277.768166 
L 339.342236 270.837242 
L 338.794691 268.53043 
L 338.247566 272.385725 
L 337.70002 274.699662 
L 337.152896 277.782777 
L 336.60535 277.785699 
L 336.057384 269.322345 
L 335.509838 276.252508 
L 334.961871 280.102718 
L 334.413904 275.489615 
L 333.865938 280.107842 
L 333.317971 277.034335 
L 332.769583 271.655176 
L 332.221195 276.271762 
L 331.672807 283.961335 
L 331.124419 271.667185 
L 330.576031 277.818203 
L 330.027221 280.894153 
L 329.478412 282.432828 
L 328.929603 275.52316 
L 327.831563 277.065358 
L 327.282754 270.92771 
L 326.733524 283.978828 
L 326.184294 287.81747 
L 325.634642 283.982711 
L 325.085412 277.848066 
L 324.53576 291.6561 
L 323.986108 274.786807 
L 323.436036 274.023674 
L 322.886384 280.159761 
L 321.786239 281.697596 
L 321.236166 277.869161 
L 320.135599 274.811626 
L 319.585105 269.454804 
L 319.034611 270.990557 
L 318.484117 276.353303 
L 317.933202 265.641421 
L 317.382287 272.533716 
L 316.831372 276.363191 
L 316.280457 274.07159 
L 315.729542 276.369836 
L 315.178205 290.137893 
L 314.626869 282.493033 
L 314.075533 267.97089 
L 313.524196 279.440341 
L 312.972439 277.914756 
L 312.420681 284.794201 
L 311.868924 276.393053 
L 311.317166 282.506603 
L 310.764987 290.145298 
L 310.21323 280.220607 
L 309.661051 276.406383 
L 309.108451 284.805409 
L 308.556273 283.281065 
L 307.451494 275.656901 
L 306.898473 288.626438 
L 306.345873 278.714156 
L 305.793273 285.57907 
L 305.240252 284.056207 
L 304.687231 273.387757 
L 304.13421 281.012081 
L 303.580768 280.252711 
L 303.027325 277.208305 
L 302.473883 285.589558 
L 301.920441 280.260757 
L 301.366998 290.16127 
L 300.813135 275.698732 
L 300.259272 285.596523 
L 299.705408 289.403101 
L 299.151545 281.035058 
L 298.59726 280.276929 
L 298.042975 281.040182 
L 297.488691 275.719748 
L 296.934406 274.96298 
L 296.380121 270.405678 
L 295.825415 281.05043 
L 295.27071 274.214017 
L 294.716004 282.575055 
L 294.160877 287.894688 
L 293.051044 278.785249 
L 292.495496 275.751371 
L 291.940369 287.141003 
L 291.38482 278.794176 
L 290.829693 281.832377 
L 290.274145 285.628147 
L 289.718176 281.837261 
L 289.162628 283.356481 
L 288.606658 285.633431 
L 288.050689 281.086457 
L 287.494719 279.573041 
L 286.938329 282.607319 
L 286.381938 281.851912 
L 285.825548 280.339176 
L 285.269157 275.039757 
L 284.712766 282.616526 
L 284.155955 275.047083 
L 283.599143 278.835967 
L 283.042331 279.595858 
L 282.485098 279.5987 
L 281.928286 277.331678 
L 281.371053 274.308969 
L 280.81382 284.145434 
L 280.256166 270.535455 
L 279.698933 276.58864 
L 279.141279 277.34801 
L 278.583625 284.909407 
L 278.025971 285.667016 
L 277.467895 278.868872 
L 276.90982 279.627281 
L 276.351745 270.566919 
L 275.793669 278.122752 
L 275.235594 287.940843 
L 274.677097 267.560942 
L 273.560104 269.080203 
L 272.442269 275.124301 
L 271.883772 276.636316 
L 271.324433 274.37762 
L 270.765516 280.412671 
L 270.206177 275.139032 
L 269.646838 266.099085 
L 269.087499 278.913866 
L 268.52816 287.20385 
L 267.9684 267.621508 
L 266.84888 275.161128 
L 266.289119 284.198593 
L 265.728938 275.168494 
L 265.169178 275.172177 
L 264.608576 278.937884 
L 264.048394 280.445456 
L 263.488213 280.448178 
L 262.92761 281.202904 
L 262.367008 275.19063 
L 261.805984 271.435691 
L 261.245382 274.446392 
L 260.684358 273.69879 
L 260.123334 288.728995 
L 259.562311 281.218476 
L 259.000866 279.71899 
L 258.439842 271.461911 
L 257.878397 274.469329 
L 257.316953 287.233912 
L 256.755086 279.730439 
L 256.19322 269.978677 
L 255.631354 290.989492 
L 255.069488 279.739045 
L 254.507622 277.492078 
L 253.383048 277.498643 
L 252.820761 285.746836 
L 252.258473 272.25939 
L 251.695765 278.257733 
L 251.133056 282.006508 
L 250.570348 276.766053 
L 250.00764 288.002289 
L 249.44451 280.516469 
L 248.88138 285.759285 
L 248.318251 280.521913 
L 247.755121 288.007733 
L 247.19157 274.542023 
L 246.628019 282.774244 
L 246.064469 288.759738 
L 245.500918 271.562426 
L 244.936946 283.528811 
L 244.372974 283.531012 
L 243.809002 294.743478 
L 243.24503 273.074362 
L 242.681058 285.031699 
L 242.116665 285.03362 
L 241.552271 265.618564 
L 240.987457 282.050781 
L 240.423064 275.334418 
L 239.85825 284.294866 
L 239.293435 287.281948 
L 238.163385 276.84115 
L 237.598571 288.778192 
L 237.033335 278.339395 
L 236.467679 278.342557 
L 235.902443 272.382162 
L 235.336786 273.877004 
L 234.771129 285.803639 
L 234.205473 273.88493 
L 233.639395 281.337846 
L 233.073738 282.085167 
L 232.50766 271.662942 
L 231.941161 273.900742 
L 230.808584 289.537122 
L 230.242085 276.888946 
L 229.675586 282.099938 
L 229.109086 285.077573 
L 228.542166 279.130188 
L 227.975246 288.799047 
L 227.408325 278.392795 
L 226.840984 285.828497 
L 226.274064 282.857787 
L 225.706722 280.631155 
L 225.139381 285.090983 
L 224.571618 276.923051 
L 224.003855 286.579941 
L 223.436514 279.157209 
L 222.86833 287.325501 
L 222.300567 278.421056 
L 221.732383 291.78069 
L 221.164199 284.362436 
L 220.027832 273.242288 
L 219.459227 265.090047 
L 218.890621 279.181227 
L 218.322016 279.184229 
L 217.753411 272.517584 
L 217.184385 274.744616 
L 216.615359 275.489255 
L 216.046332 284.38089 
L 215.477306 277.718208 
L 214.907859 272.538759 
L 214.338411 268.841704 
L 213.768964 271.80709 
L 213.199095 271.071498 
L 212.629648 280.693962 
L 212.059779 271.82022 
L 211.48991 274.782844 
L 210.919621 264.434635 
L 210.349752 269.615445 
L 209.779462 263.706929 
L 209.209172 275.537171 
L 208.638461 270.36865 
L 208.068171 279.238309 
L 207.49746 269.639343 
L 206.926328 277.028891 
L 206.355617 277.770647 
L 205.784485 276.297542 
L 205.213353 274.086882 
L 204.642221 276.304667 
L 204.071088 285.161717 
L 202.927982 274.102774 
L 202.356428 261.571205 
L 201.2129 282.22287 
L 200.640926 277.803512 
L 200.068951 276.333128 
L 199.496976 285.913761 
L 198.924581 280.023059 
L 198.352185 280.025901 
L 197.779789 269.720764 
L 197.206972 267.517109 
L 196.634576 269.730371 
L 196.061759 267.527517 
L 195.488521 253.553746 
L 194.915704 243.26322 
L 194.342466 191.054823 
L 193.769228 53.568 
L 193.19599 98.459704 
L 192.622752 196.25873 
L 192.049092 238.902346 
L 191.475433 257.282345 
L 190.901774 266.105169 
L 190.327693 270.517682 
L 189.754034 269.788014 
L 189.179953 264.653199 
L 188.605451 284.479444 
L 188.031371 269.802425 
L 187.456869 270.54106 
L 186.882367 270.545743 
L 186.307866 277.885854 
L 185.732943 264.687865 
L 185.15802 274.226106 
L 184.583097 269.098216 
L 184.008174 241.982658 
L 183.433251 190.692951 
L 182.857907 113.045054 
L 181.706798 238.360739 
L 181.131454 238.371547 
L 180.555688 246.436002 
L 179.979923 251.569456 
L 179.403737 272.070488 
L 178.827971 267.684395 
L 178.251785 277.200579 
L 177.675598 281.592877 
L 177.098991 271.356832 
L 176.522804 277.942176 
L 175.946197 273.559166 
L 175.369589 267.715979 
L 174.79256 271.375126 
L 174.215952 276.494209 
L 173.638923 271.384293 
L 173.061473 283.805018 
L 172.484445 277.235246 
L 171.906995 277.238728 
L 171.329544 276.512263 
L 170.752094 278.705269 
L 170.174223 277.249136 
L 169.596773 280.170729 
L 169.018902 276.526714 
L 168.440609 278.718079 
L 167.862738 281.637751 
L 167.284446 283.098327 
L 166.706153 280.914208 
L 166.12744 270.71535 
L 165.549147 278.734131 
L 164.970434 291.12035 
L 164.39172 280.925416 
L 163.812585 280.928218 
L 163.233872 279.475007 
L 162.654737 283.845208 
L 162.075602 280.936624 
L 161.496046 275.846443 
L 160.91649 285.306826 
L 160.336934 273.67213 
L 159.757378 278.766395 
L 159.177822 289.674745 
L 158.597845 279.499746 
L 158.017868 275.142474 
L 157.437469 272.966681 
L 156.857492 272.971044 
L 156.277094 275.154323 
L 155.696696 287.503034 
L 155.115876 275.888274 
L 154.535478 279.521482 
L 153.954658 287.507718 
L 153.373417 272.997344 
L 152.792598 273.727212 
L 152.211357 275.907409 
L 151.630116 283.88812 
L 151.048876 280.990265 
L 150.467214 279.543338 
L 149.885973 291.142367 
L 149.30389 276.651207 
L 148.722228 284.623953 
L 148.140145 283.901771 
L 147.558062 287.524931 
L 146.975978 280.286216 
L 146.393895 289.699724 
L 145.811391 275.94976 
L 145.228887 285.360426 
L 144.646382 281.021728 
L 144.063457 285.364469 
L 143.480531 280.30431 
L 142.897606 272.354061 
L 142.31468 280.310354 
L 141.731334 281.758842 
L 141.147987 276.703446 
L 140.56464 279.596979 
L 139.980872 275.266327 
L 139.397526 283.214134 
L 138.813758 278.884524 
L 138.229569 279.609748 
L 137.645801 277.447765 
L 137.061612 278.894531 
L 136.477423 276.733589 
L 135.892813 272.409663 
L 135.308202 276.020013 
L 134.723592 285.396893 
L 134.138982 282.51557 
L 133.554371 281.07677 
L 132.96934 278.918029 
L 132.384309 281.082654 
L 131.798856 281.805837 
L 131.213403 281.088539 
L 130.627951 278.211579 
L 130.042498 269.577256 
L 129.457045 272.461261 
L 128.871172 280.380767 
L 128.285298 276.067609 
L 127.699003 269.598552 
L 127.112708 271.042036 
L 126.526413 276.798558 
L 125.940118 284.709057 
L 125.353823 285.429918 
L 124.767107 273.936209 
L 124.18039 269.630656 
L 123.593253 281.845227 
L 123.006116 273.949659 
L 122.418978 271.800445 
L 121.831841 284.724749 
L 121.244703 281.139016 
L 120.657145 288.316445 
L 120.069165 284.731474 
L 119.481606 276.128094 
L 118.893627 284.019019 
L 118.305647 284.738279 
L 117.717667 276.857002 
L 117.129266 281.87669 
L 116.540865 280.446817 
L 115.952464 289.76101 
L 115.363642 276.156716 
L 114.775241 289.047514 
L 114.185998 277.596517 
L 113.597176 284.756532 
L 113.007932 286.189768 
L 112.418689 270.454875 
L 111.829446 284.763418 
L 111.239781 280.475718 
L 110.650117 284.053204 
L 110.060452 281.19686 
L 109.470366 279.770869 
L 108.880702 275.487934 
L 108.290195 280.491931 
L 107.700109 278.352925 
L 107.109602 281.212351 
L 106.519095 271.936507 
L 105.928589 274.082478 
L 105.33766 284.788997 
L 104.746732 284.791359 
L 104.155804 274.809704 
L 103.564455 276.953234 
L 102.973106 277.670132 
L 102.381756 272.68539 
L 101.790407 272.690433 
L 101.198637 284.093154 
L 100.606866 285.520066 
L 100.014675 283.386184 
L 99.422483 275.558226 
L 98.830291 269.868915 
L 98.2381 277.701836 
L 97.645487 276.283011 
L 97.052874 281.977246 
L 96.460261 274.869509 
L 95.867227 282.694264 
L 95.274193 281.986413 
L 94.681159 283.410682 
L 94.087704 280.57167 
L 93.494248 286.967552 
L 92.900793 274.89757 
L 91.71304 287.68317 
L 91.119164 282.717562 
L 90.524866 279.173221 
L 89.930569 282.014153 
L 89.336271 279.180746 
L 88.741974 279.184509 
L 88.147255 286.276353 
L 87.552536 275.648895 
L 86.957396 277.070442 
L 86.362256 272.116603 
L 85.767116 284.868657 
L 85.171555 290.534991 
L 84.576415 279.211169 
L 83.980433 274.261493 
L 83.384871 278.511364 
L 82.788889 280.63732 
L 82.192907 284.176537 
L 81.596503 277.109471 
L 81.0001 274.286632 
L 80.403696 279.9448 
L 79.807292 271.470918 
L 79.210468 276.420754 
L 78.613222 275.719227 
L 78.016397 280.665701 
L 77.419151 280.669264 
L 76.821905 285.612175 
L 75.626571 273.627337 
L 75.028904 280.683675 
L 74.430816 274.342954 
L 73.832727 284.214726 
L 73.832727 284.214726 
" style="fill:none;stroke:#ff0000;stroke-linecap:square;stroke-opacity:0.5;stroke-width:0.5;"/>
   </g>
   <g id="patch_3">
    <path d="M 57.6 307.584 
L 57.6 41.472 
" style="fill:none;stroke:#000000;stroke-linecap:square;stroke-linejoin:miter;stroke-width:0.8;"/>
   </g>
   <g id="patch_4">
    <path d="M 414.72 307.584 
L 414.72 41.472 
" style="fill:none;stroke:#000000;stroke-linecap:square;stroke-linejoin:miter;stroke-width:0.8;"/>
   </g>
   <g id="patch_5">
    <path d="M 57.6 307.584 
L 414.72 307.584 
" style="fill:none;stroke:#000000;stroke-linecap:square;stroke-linejoin:miter;stroke-width:0.8;"/>
   </g>
   <g id="patch_6">
    <path d="M 57.6 41.472 
L 414.72 41.472 
" style="fill:none;stroke:#000000;stroke-linecap:square;stroke-linejoin:miter;stroke-width:0.8;"/>
   </g>
  </g>
 </g>
 <defs>
  <clipPath id="p34d5f8ef1e">
   <rect height="266.112" width="357.12" x="57.6" y="41.472"/>
  </clipPath>
 </defs>
</svg>
